<?xml version="1.0" standalone="no"?>
<!DOCTYPE svg PUBLIC "-//W3C//DTD SVG 1.1//EN" "http://www.w3.org/Graphics/SVG/1.1/DTD/svg11.dtd" >
<svg xmlns="http://www.w3.org/2000/svg">
<metadata>
This is a custom SVG webfont generated by Font Squirrel.
Copyright   : 2010 Commercial Type All rights reserved Licensed for exclusive use by Apollo Group and its subsidiaries
Designer    : Dan Milne
Foundry     : Commercial Type
Foundry URL : httpcommercialtypecom
</metadata>
<defs>
<font id="PhoenixSansBold" horiz-adv-x="1193" >
<font-face units-per-em="2048" ascent="1638" descent="-410" />
<missing-glyph horiz-adv-x="438" />
<glyph unicode=" "  horiz-adv-x="438" />
<glyph unicode="&#x09;" horiz-adv-x="438" />
<glyph unicode="&#xa0;" horiz-adv-x="438" />
<glyph unicode="!" horiz-adv-x="675" d="M135 174q0 82 59.5 139.5t143.5 57.5t143.5 -57.5t59.5 -139.5t-59.5 -139.5t-143.5 -57.5t-143.5 57.5t-59.5 139.5zM164 1167v205h348v-205q0 -291 -35 -702h-276q-37 395 -37 702z" />
<glyph unicode="&#x22;" horiz-adv-x="892" d="M80 1544h311q0 -322 -41 -573h-231q-39 239 -39 573zM502 1544h311q0 -322 -41 -573h-231q-39 239 -39 573z" />
<glyph unicode="#" horiz-adv-x="1337" d="M59 350l41 211h222l43 256h-230l39 211h227l58 344h229l-57 -344h207l57 344h229l-57 -344h227l-39 -211h-223l-43 -256h230l-39 -211h-226l-57 -350h-231l57 350h-205l-57 -350h-232l58 350h-228zM553 561h205l43 256h-205z" />
<glyph unicode="$" horiz-adv-x="1124" d="M27 160l123 198q84 -72 212 -106l82 348q-197 70 -281.5 167t-84.5 232q0 180 140 289t366 109q23 0 63 -4l51 215l164 -43l-47 -199q135 -39 227 -123l-118 -188q-66 49 -162 82l-78 -332h4q207 -76 295 -174.5t88 -241.5q0 -193 -136 -303.5t-376 -110.5q-33 0 -86 5 l-53 -226l-164 41l49 213q-172 46 -278 152zM365 1024q0 -49 33.5 -85t123.5 -75l72 301h-6q-106 0 -164.5 -37.5t-58.5 -103.5zM530 225h21q219 0 219 142q0 51 -36 92t-128 80z" />
<glyph unicode="%" horiz-adv-x="1759" d="M43 999q0 184 102.5 291t260 107t261 -106.5t103.5 -291.5q0 -186 -104.5 -294.5t-259.5 -108.5q-158 0 -260.5 107.5t-102.5 295.5zM289 -2l934 1382h241v-4l-932 -1382h-243v4zM289 999q0 -178 116.5 -178t116.5 178q0 86 -31.5 130.5t-85 44.5t-85 -44.5t-31.5 -130.5 zM985 379q0 184 103.5 291.5t259.5 107.5q158 0 261 -107.5t103 -291.5q0 -186 -104.5 -294t-260 -108t-259 108t-103.5 294zM1233 379q0 -178 115 -178q117 0 116 178q0 174 -116 174q-115 0 -115 -174z" />
<glyph unicode="&#x26;" horiz-adv-x="1458" d="M66 360q0 127 74.5 221.5t219.5 178.5q-141 170 -141 313.5t117 233.5t303 90q195 0 302.5 -83t107.5 -227q0 -113 -76 -194.5t-223 -155.5l233 -248q51 123 59 269q2 18 2 55h283q4 -53 4 -82q0 -254 -149 -455l256 -272v-4h-389l-99 109q-158 -133 -397 -134 q-225 0 -356 103.5t-131 281.5zM385 406q0 -86 58.5 -138.5t158.5 -54.5q106 -2 201 55l-307 340q-111 -83 -111 -202zM508 1081q0 -74 100 -192q154 92 154 184q0 55 -33 91t-94 36q-59 0 -93 -34t-34 -85z" />
<glyph unicode="'" horiz-adv-x="471" d="M80 1544h311q0 -322 -41 -573h-231q-39 239 -39 573z" />
<glyph unicode="(" horiz-adv-x="819" d="M176 621q0 338 116 615t308 435l172 -155q-293 -346 -293 -895q0 -301 74 -520.5t221 -397.5l-174 -158q-193 160 -308.5 444t-115.5 632z" />
<glyph unicode=")" horiz-adv-x="819" d="M45 -297q147 178 221 397t74 521q0 549 -293 895l172 155q193 -158 308.5 -435.5t115.5 -614.5q0 -348 -115.5 -632t-308.5 -444z" />
<glyph unicode="*" horiz-adv-x="948" d="M51 1032l39 23q88 53 260 98q-156 37 -260 100l-39 23l107 182l39 -22q100 -57 217 -179q-45 156 -45 279v45h211v-45q0 -117 -48 -281q121 123 222 181l39 22l104 -182l-39 -23q-100 -61 -262 -100q164 -43 262 -100l39 -23l-106 -182l-39 22q-104 59 -217 177 q45 -152 45 -275v-45h-211v45q-4 117 43 272q-119 -119 -217 -174l-39 -22z" />
<glyph unicode="+" horiz-adv-x="1150" d="M51 545v274h381v400h291v-400h379v-274h-379v-400h-291v400h-381z" />
<glyph unicode="," horiz-adv-x="544" d="M20 -186q106 129 107 327v197h309q12 -88 13 -199q0 -276 -230 -444z" />
<glyph unicode="-" horiz-adv-x="706" d="M70 418v262h567v-262h-567z" />
<glyph unicode="." horiz-adv-x="544" d="M70 180q0 86 59 145.5t143 59.5t143.5 -59.5t59.5 -145.5q0 -84 -59.5 -143.5t-143.5 -59.5t-143 59.5t-59 143.5z" />
<glyph unicode="/" horiz-adv-x="909" d="M25 -455l604 2003h284l-604 -2003h-284z" />
<glyph unicode="0" horiz-adv-x="1304" d="M66 694q0 330 160.5 516.5t427 186.5t426 -186.5t159.5 -516.5q0 -336 -160.5 -524t-425.5 -188q-266 0 -426.5 188t-160.5 524zM416 692q0 -229 63.5 -341.5t173.5 -112.5q109 0 173.5 112.5t64.5 341.5q0 227 -64.5 339t-173.5 112q-111 0 -174 -112t-63 -339z" />
<glyph unicode="1" horiz-adv-x="772" d="M-6 1253l360 119h271v-1372h-332v1100l-240 -68z" />
<glyph unicode="2" horiz-adv-x="1085" d="M37 0v207q256 248 385 392t166 214t37 137q0 76 -47.5 122t-126.5 46q-135 0 -215 -133l-168 129q53 131 176 207t295 76q207 0 325.5 -105.5t118.5 -290.5q0 -166 -113.5 -329.5t-427.5 -421.5h566v-250h-971z" />
<glyph unicode="3" horiz-adv-x="1060" d="M14 96l86 199q125 -66 273 -66q113 0 179 47.5t66 129.5q0 92 -73.5 142t-208.5 50q-53 0 -107 -6l-22 199q199 31 286 82t87 128q0 66 -45.5 102t-126.5 36q-139 0 -228 -78l-106 166q59 80 172.5 125t255.5 45q195 0 308.5 -93.5t113.5 -246.5q0 -203 -215 -314 q129 -39 198.5 -132t69.5 -226q0 -182 -143.5 -296t-384.5 -114q-277 0 -435 121z" />
<glyph unicode="4" horiz-adv-x="1243" d="M29 279v215l589 878h357v-858h235v-235h-235v-279h-309v279h-637zM322 514h344v530z" />
<glyph unicode="5" horiz-adv-x="1044" d="M29 86l69 205q123 -61 258 -62q125 0 193.5 54.5t68.5 146.5q0 106 -90 163.5t-254 57.5q-98 0 -139 -4l47 725h713v-258h-475l-14 -242q23 2 61 2q229 0 364.5 -116.5t135.5 -317.5q0 -209 -144.5 -337t-384.5 -128q-249 0 -409 111z" />
<glyph unicode="6" d="M72 563q0 381 250.5 600t693.5 219l20 -213q-512 -14 -608 -405q98 88 266 88q197 0 316.5 -112.5t119.5 -307.5q0 -201 -144 -329t-372 -128q-256 0 -399 150.5t-143 437.5zM401 528q0 -162 57.5 -239.5t147.5 -77.5q86 0 136.5 55.5t50.5 165.5q0 98 -54.5 154.5 t-144.5 56.5q-119 0 -193 -80v-35z" />
<glyph unicode="7" horiz-adv-x="1044" d="M37 1110v262h964v-244l-464 -1128h-363v4l475 1106h-612z" />
<glyph unicode="8" horiz-adv-x="1236" d="M72 360q0 106 73.5 194.5t216.5 135.5q-229 109 -229 328q0 166 135 272.5t355 106.5q229 0 355 -95.5t126 -254.5q0 -94 -50 -168t-173 -136q285 -127 284 -362q0 -188 -144 -297t-403 -109q-264 0 -405 101.5t-141 283.5zM406 381q0 -80 57 -130t151 -50q96 0 155.5 47 t59.5 121q0 129 -170 198l-65 27q-188 -72 -188 -213zM436 1034q0 -61 36 -102t126 -78l43 -16q84 43 120 87t36 105q0 70 -50.5 117t-132.5 47q-78 0 -128 -47t-50 -113z" />
<glyph unicode="9" horiz-adv-x="1196" d="M59 940q0 197 146.5 326t376.5 129q254 0 397 -150.5t143 -437.5q0 -399 -231.5 -606t-689.5 -207l-35 213q274 10 418.5 105.5t185.5 301.5q-94 -80 -268 -79q-201 0 -322 109.5t-121 295.5zM395 958q0 -100 57.5 -156.5t153.5 -56.5q119 0 182 68v16q0 174 -56 255 t-148 81q-84 0 -136.5 -54.5t-52.5 -152.5z" />
<glyph unicode=":" horiz-adv-x="544" d="M70 180q0 86 59 145.5t143 59.5t143.5 -59.5t59.5 -145.5q0 -84 -59.5 -143.5t-143.5 -59.5t-143 59.5t-59 143.5zM70 836q0 86 59 145t143 59t143.5 -59t59.5 -145q0 -84 -59.5 -143.5t-143.5 -59.5t-143 59.5t-59 143.5z" />
<glyph unicode=";" horiz-adv-x="544" d="M20 -186q106 129 107 327v197h309q12 -88 13 -199q0 -276 -230 -444zM70 836q0 86 59 145t143 59t143.5 -59t59.5 -145q0 -84 -59.5 -143.5t-143.5 -59.5t-143 59.5t-59 143.5z" />
<glyph unicode="&#x3c;" horiz-adv-x="940" d="M51 561v225l817 437v-301l-469 -248l469 -248v-301z" />
<glyph unicode="=" horiz-adv-x="1130" d="M88 285v264h954v-264h-954zM88 772v264h954v-264h-954z" />
<glyph unicode="&#x3e;" horiz-adv-x="940" d="M72 125v301l469 248l-469 248v301l817 -437v-225z" />
<glyph unicode="?" horiz-adv-x="1007" d="M10 1139q61 121 187.5 189.5t300.5 68.5q209 0 328.5 -98.5t119.5 -264.5q0 -139 -82 -240.5t-276 -179.5q-2 -68 -15 -149h-266q-12 96 -12 270q168 59 235.5 118.5t67.5 133.5q0 66 -45 102.5t-127 36.5q-154 0 -240 -131zM238 174q0 82 59 139.5t143 57.5t143.5 -57.5 t59.5 -139.5t-59.5 -139.5t-143.5 -57.5t-143 57.5t-59 139.5z" />
<glyph unicode="@" horiz-adv-x="2000" d="M76 502q0 406 278.5 672t702.5 266q393 0 636.5 -221.5t243.5 -579.5q0 -281 -158.5 -429.5t-410.5 -148.5q-264 0 -301 162q-96 -160 -240 -160q-125 0 -203.5 90.5t-78.5 252.5q0 248 133 416.5t328 168.5q115 0 178 -80q12 20 41 62h213q-4 -25 -35 -203t-47.5 -285.5 t-16.5 -150.5q0 -68 76 -68q119 0 193.5 89t74.5 266q0 274 -177 440t-466 166q-313 0 -511.5 -202t-198.5 -521q0 -346 194.5 -524.5t536.5 -178.5q166 0 304 48.5t218 123.5l141 -145q-217 -248 -677 -248q-455 0 -713 241t-258 681zM834 449q0 -137 96 -138q78 0 145 123 l49 303q-35 18 -82 19q-88 0 -148 -86t-60 -221z" />
<glyph unicode="A" horiz-adv-x="1382" d="M-12 0l520 1372h364l519 -1372h-367l-92 276h-492l-92 -276h-360zM516 520h340l-170 514z" />
<glyph unicode="B" horiz-adv-x="1290" d="M131 0v1372h580q451 0 450 -330q0 -215 -211 -309q133 -29 203 -113.5t70 -213.5q0 -182 -139.5 -294t-372.5 -112h-580zM469 219h145q119 0 184.5 52.5t65.5 142.5q0 188 -250 188h-145v-383zM469 799h129q104 0 160.5 48t56.5 134q0 170 -217 170h-129v-352z" />
<glyph unicode="C" horiz-adv-x="1210" d="M63 653q0 338 198 540t503 202q240 0 399 -119l-102 -240q-125 82 -268 82q-170 0 -271.5 -113.5t-101.5 -332.5q0 -195 98 -299.5t266 -104.5q164 0 285 105l119 -221q-172 -174 -457 -175q-303 0 -485.5 181.5t-182.5 494.5z" />
<glyph unicode="D" horiz-adv-x="1402" d="M131 0v1372h504q344 0 524 -170t180 -493q0 -346 -184 -527.5t-526 -181.5h-498zM471 248h104q201 0 305.5 111.5t104.5 334.5q0 211 -107.5 320.5t-304.5 109.5h-102v-876z" />
<glyph unicode="E" horiz-adv-x="1167" d="M131 0v1372h965v-254h-625v-301h500v-237h-500v-328h645v-252h-985z" />
<glyph unicode="F" horiz-adv-x="1124" d="M131 0v1372h948v-254h-608v-346h483v-258h-483v-514h-340z" />
<glyph unicode="G" horiz-adv-x="1406" d="M63 645q0 346 213 548t553 202q262 0 439 -129l-111 -228q-143 82 -315 82q-193 0 -307.5 -116.5t-114.5 -341.5q0 -199 92 -303.5t250 -104.5q162 0 258 96v187h-254v223h553v-774h-221q-29 78 -43 168q-113 -176 -373 -177q-274 0 -446.5 180.5t-172.5 487.5z" />
<glyph unicode="H" horiz-adv-x="1427" d="M131 0v1372h340v-536h487v536h338v-1372h-338v578h-487v-578h-340z" />
<glyph unicode="I" horiz-adv-x="602" d="M131 0v1372h340v-1372h-340z" />
<glyph unicode="J" horiz-adv-x="940" d="M-6 102l92 228q98 -66 209 -66q193 0 192 217v891h340v-897q0 -500 -434 -500q-119 0 -227.5 35t-171.5 92z" />
<glyph unicode="K" horiz-adv-x="1349" d="M131 0v1372h340v-608l447 608h389v-4l-441 -555l482 -809v-4h-381l-330 582l-166 -211v-371h-340z" />
<glyph unicode="L" horiz-adv-x="1122" d="M131 0v1372h340v-1110h602v-262h-942z" />
<glyph unicode="M" horiz-adv-x="1779" d="M104 0l86 1372h355l340 -844l338 844h354l98 -1372h-319l-60 885l-331 -885h-162l-340 883l-51 -883h-308z" />
<glyph unicode="N" horiz-adv-x="1484" d="M131 0v1372h342l567 -913l-2 913h316v-1380h-340l-574 917l4 -909h-313z" />
<glyph unicode="O" horiz-adv-x="1452" d="M63 680q0 334 178.5 525.5t483.5 191.5q319 0 491.5 -178.5t172.5 -522.5q0 -336 -176.5 -528.5t-479.5 -192.5q-319 0 -494.5 180.5t-175.5 524.5zM420 694q0 -465 309 -465q301 0 301 451q0 465 -307 465q-303 0 -303 -451z" />
<glyph unicode="P" horiz-adv-x="1236" d="M131 0v1372h516q274 0 403.5 -113.5t129.5 -340.5q0 -233 -147.5 -367.5t-399.5 -134.5h-162v-416h-340zM471 635h113q117 0 181 69.5t64 192.5q0 117 -64.5 183.5t-180.5 66.5h-113v-512z" />
<glyph unicode="Q" horiz-adv-x="1452" d="M63 680q0 334 178.5 525.5t481.5 191.5q322 0 494 -177.5t172 -523.5q0 -252 -99.5 -421t-285.5 -240q147 -70 333 -121v-4l-123 -225q-293 63 -528 292q-299 12 -461 191.5t-162 511.5zM420 694q0 -465 309 -465q301 0 301 451q0 465 -313 465q-139 0 -218 -112 t-79 -339z" />
<glyph unicode="R" horiz-adv-x="1308" d="M131 0v1372h592q492 0 491 -418q0 -123 -56 -227t-152 -168l290 -555v-4h-372l-228 485h-225v-485h-340zM471 698h160q106 0 168.5 63.5t62.5 170.5q0 100 -61.5 157.5t-169.5 57.5h-160v-449z" />
<glyph unicode="S" horiz-adv-x="1144" d="M39 160l135 213q68 -55 163 -88t191 -33q217 0 217 133q0 51 -46 91t-175 87l-78 29q-188 70 -272 165t-84 236q0 184 140.5 294t367.5 110q289 0 461 -154l-135 -211q-119 98 -289 98q-213 0 -213 -129q0 -49 42 -81.5t167 -75.5l88 -33q201 -72 284.5 -168t83.5 -244 q0 -199 -136 -311.5t-378 -112.5q-168 0 -308 50.5t-226 134.5z" />
<glyph unicode="T" horiz-adv-x="1167" d="M20 1108v264h1127v-264h-393v-1108h-340v1108h-394z" />
<glyph unicode="U" horiz-adv-x="1406" d="M117 518v854h340v-829q0 -307 245 -307q248 0 248 307v829h340v-856q0 -274 -144.5 -407.5t-443.5 -133.5t-442 133.5t-143 409.5z" />
<glyph unicode="V" horiz-adv-x="1325" d="M-10 1372h360l316 -934l313 934h358l-510 -1378h-333z" />
<glyph unicode="W" horiz-adv-x="1880" d="M14 1372h338l277 -897l178 555l-105 342h338l252 -891l254 891h320l-434 -1374h-287l-213 661l-219 -661h-269z" />
<glyph unicode="X" horiz-adv-x="1376" d="M8 0v4l459 703l-420 661v4h393l260 -430l271 430h360v-4l-428 -647l465 -717v-4h-395l-297 483l-307 -483h-361z" />
<glyph unicode="Y" horiz-adv-x="1224" d="M-25 1368v4h371l275 -541l276 541h354v-4l-469 -858v-510h-340v514z" />
<glyph unicode="Z" horiz-adv-x="1181" d="M51 0v225l674 889h-619v258h1016v-221l-667 -893h675v-258h-1079z" />
<glyph unicode="[" horiz-adv-x="819" d="M231 -367v2001h568v-211h-285v-1579h285v-211h-568z" />
<glyph unicode="\" horiz-adv-x="909" d="M-6 1548h285l604 -2003h-285z" />
<glyph unicode="]" horiz-adv-x="819" d="M20 -156h285v1579h-285v211h568v-2001h-568v211z" />
<glyph unicode="^" horiz-adv-x="991" d="M6 625v4l356 743h267l356 -743v-4h-305l-184 428l-185 -428h-305z" />
<glyph unicode="_" horiz-adv-x="1007" d="M0 -102h1008v-236h-1008v236z" />
<glyph unicode="`" horiz-adv-x="823" d="M125 1419l145 215l52 -35q209 -141 360 -299l-109 -149q-217 98 -401 235z" />
<glyph unicode="a" horiz-adv-x="1112" d="M61 274q0 221 183 291q132 56 388 56h36v71q0 70 -48.5 102.5t-156.5 32.5q-72 0 -154 -18t-127 -43l-43 184q176 121 447 121q197 0 300 -89t103 -257v-725h-301q-12 72 -16 168q-90 -186 -295 -186q-147 0 -231.5 78.5t-84.5 213.5zM375 319q0 -117 117 -116 q49 0 99 33.5t77 82.5v154q-156 -6 -219 -33q-74 -31 -74 -121z" />
<glyph unicode="b" horiz-adv-x="1232" d="M125 0v1503h332v-604q94 164 286 164q188 0 306 -139.5t118 -397.5q0 -248 -124.5 -394t-323.5 -146q-170 0 -287 92q-16 -47 -31 -78h-276zM457 246q51 -29 137 -29q109 0 171 79t62 224.5t-54 223t-144 77.5q-111 0 -172 -114v-461z" />
<glyph unicode="c" horiz-adv-x="964" d="M59 498q0 260 144.5 412.5t384.5 152.5q215 0 336 -121l-101 -199q-86 63 -190 64q-117 0 -185.5 -76t-68.5 -219q0 -129 62.5 -197.5t172.5 -68.5q127 0 215 96l115 -170q-127 -195 -377 -195q-231 0 -369.5 138.5t-138.5 382.5z" />
<glyph unicode="d" horiz-adv-x="1234" d="M68 481q0 264 135 421t346 157q127 0 229 -68v512h330v-1503h-309q-14 74 -17 162q-98 -180 -295 -180q-184 0 -301.5 134t-117.5 365zM408 516q0 -141 53 -216t139 -75q117 0 178 123v457q-55 25 -131 24q-109 0 -174 -81.5t-65 -231.5z" />
<glyph unicode="e" horiz-adv-x="1103" d="M66 494q0 274 139 420.5t373 146.5q254 0 364 -157q90 -128 91 -340q0 -47 -5 -99h-643q6 -236 242 -236q150 0 262 113l135 -141q-141 -219 -438 -219q-246 0 -383 133t-137 379zM391 645h334q-4 213 -152 213q-151 0 -182 -213z" />
<glyph unicode="f" horiz-adv-x="774" d="M27 827v189q55 16 147 20v80q0 195 106.5 303.5t290.5 108.5q158 0 258 -47l-20 -201q-70 12 -121 12q-98 0 -141 -42t-43 -140v-74h237v-209h-237v-827h-330v827h-147z" />
<glyph unicode="g" horiz-adv-x="1124" d="M6 -145q0 78 53.5 135t147.5 84q-70 49 -70 153q0 123 107 193q-168 80 -168 287q0 166 126 260t347 94q176 0 291 -57q106 43 272 43v-211h-147q35 -59 34 -131q0 -156 -122.5 -245t-362.5 -89q-72 0 -104 4q-29 -29 -29 -66q0 -57 74 -57h309q170 0 258 -77t88 -212 q0 -182 -159.5 -288.5t-446.5 -106.5q-242 0 -370 75t-128 212zM299 -98q0 -137 236 -138q131 0 200.5 37t69.5 105q0 92 -135 92h-299q-72 -35 -72 -96zM387 717q0 -160 150 -160q156 0 155 156q0 76 -41 116.5t-112 40.5q-152 1 -152 -153z" />
<glyph unicode="h" horiz-adv-x="1218" d="M125 0v1503h332v-592q104 160 309 160q152 0 245 -95t93 -251v-725h-332v662q0 147 -137 147q-115 0 -178 -102v-707h-332z" />
<glyph unicode="i" horiz-adv-x="581" d="M102 1341.5q0 73.5 54.5 124t134.5 50.5q78 0 133 -50.5t55 -124t-55 -125t-133 -51.5q-80 0 -134.5 51.5t-54.5 125zM125 0v1036h332v-1036h-332z" />
<glyph unicode="j" horiz-adv-x="591" d="M-154 -367l31 201q49 -16 103 -16q84 0 119.5 44t35.5 152v1022h330v-1026q0 -231 -86 -336.5t-264 -105.5q-154 -1 -269 65zM115 1341.5q0 73.5 54 124t134 50.5q78 0 132 -50.5t54 -124t-54 -125t-132 -51.5q-80 0 -134 51.5t-54 125z" />
<glyph unicode="k" horiz-adv-x="1138" d="M125 0v1503h332v-882l321 415h334v-4l-326 -407l373 -621v-4h-356l-248 422l-98 -125v-297h-332z" />
<glyph unicode="l" horiz-adv-x="581" d="M125 0v1503h332v-1503h-332z" />
<glyph unicode="m" horiz-adv-x="1849" d="M125 0v1036h309q10 -66 17 -137q100 172 313 172q221 0 301 -184q45 86 131 135t197 49q156 0 249 -95t93 -251v-725h-330v662q0 147 -135 147q-111 0 -174 -102v-707h-330v662q0 147 -135 147q-113 0 -174 -102v-707h-332z" />
<glyph unicode="n" horiz-adv-x="1220" d="M125 0v1036h309q10 -70 17 -135q104 170 317 170q152 0 244 -95t92 -251v-725h-330v662q0 147 -139 147q-115 0 -178 -102v-707h-332z" />
<glyph unicode="o" d="M66 510q0 258 144 404.5t388 146.5q254 0 392 -136.5t138 -398.5q0 -250 -145 -397t-389 -147q-250 0 -389 138t-139 390zM408 532q0 -324 190 -323q188 0 188 315q0 317 -192 318q-186 -1 -186 -310z" />
<glyph unicode="p" horiz-adv-x="1232" d="M125 -410v1446h309q10 -72 17 -145q94 172 292 172q188 0 306 -139.5t118 -397.5q0 -248 -124.5 -394t-323.5 -146q-152 0 -262 75v-471h-332zM457 246q51 -29 139 -29q106 0 168.5 77t62.5 218q0 150 -55 229.5t-145 79.5q-109 0 -170 -114v-461z" />
<glyph unicode="q" horiz-adv-x="1232" d="M66 481q0 262 135 420t344 158q158 0 262 -101q4 12 35 78h264v-1446h-330v564q-100 -172 -291 -172q-184 0 -301.5 134t-117.5 365zM406 516q0 -141 53 -216t139 -75q117 0 178 123v453q-47 29 -125 28q-115 0 -180 -81.5t-65 -231.5z" />
<glyph unicode="r" horiz-adv-x="851" d="M125 0v1036h309q12 -74 19 -190q96 217 284 217q74 0 111 -29l-31 -293q-43 14 -110 15q-184 0 -250 -150v-606h-332z" />
<glyph unicode="s" horiz-adv-x="962" d="M41 141l119 183q49 -49 128 -80t154 -31q141 0 142 84q0 33 -28 55.5t-99 48.5l-101 33q-145 47 -210.5 120t-65.5 179q0 152 110.5 241t313.5 89q246 0 391 -141l-131 -164q-102 86 -234 86q-139 0 -139 -78q0 -35 27.5 -56.5t105.5 -45.5l78 -23q307 -90 307 -313 q0 -164 -112.5 -255t-315.5 -91q-286 -1 -440 159z" />
<glyph unicode="t" horiz-adv-x="817" d="M35 827v189q68 18 141 20q6 141 23 236h278l-4 -236h295v-209h-299q-5 -272 -5 -397q0 -63 1 -90q0 -92 98 -92q76 0 144 49l77 -168q-119 -147 -340 -147q-133 0 -210.5 70.5t-75.5 197.5q0 270 10 577h-133z" />
<glyph unicode="u" horiz-adv-x="1202" d="M117 315v721h327v-667q0 -133 113 -133q119 0 191 114v686h329v-1036h-309q-10 76 -16 164q-106 -193 -324 -193q-147 0 -229 88t-82 256z" />
<glyph unicode="v" horiz-adv-x="1093" d="M-2 1036h352l199 -643l199 643h348l-406 -1042h-287z" />
<glyph unicode="w" horiz-adv-x="1560" d="M14 1036h316l155 -614l211 614h189l221 -608l145 608h293l-295 -1042h-268l-209 561l-197 -561h-262z" />
<glyph unicode="x" horiz-adv-x="1134" d="M-4 0l348 541l-305 495h358l178 -315l175 315h360l-311 -504l342 -532h-375l-199 338l-194 -338h-377z" />
<glyph unicode="y" horiz-adv-x="1114" d="M4 1036h354l211 -674l193 674h348l-424 -1149q-66 -178 -151.5 -248.5t-221.5 -70.5q-152 0 -252 63l37 197q66 -16 127 -16q121 0 170 110l29 66z" />
<glyph unicode="z" horiz-adv-x="985" d="M57 199l482 618h-443v219h817l7 -198l-476 -619h484v-219h-867z" />
<glyph unicode="{" horiz-adv-x="819" d="M86 500v243q94 25 131 77t37 145q0 53 -14.5 153.5t-14.5 151.5q0 180 144.5 283.5t418.5 103.5v-217q-141 -14 -205.5 -67.5t-64.5 -151.5q0 -37 13.5 -135.5t13.5 -153.5q0 -231 -246 -311q246 -86 246 -316q0 -57 -13.5 -159.5t-13.5 -141.5q0 -98 65.5 -152.5 t204.5 -68.5v-217q-274 0 -418.5 105.5t-144.5 287.5q0 53 14.5 155.5t14.5 157.5q0 92 -38 147.5t-130 80.5z" />
<glyph unicode="|" horiz-adv-x="753" d="M242 -522v2232h270v-2232h-270z" />
<glyph unicode="}" horiz-adv-x="819" d="M31 -217q139 14 204.5 68.5t65.5 152.5q0 39 -13.5 141.5t-13.5 159.5q0 229 246 316q-246 80 -246 311q0 55 13.5 153.5t13.5 135.5q0 98 -64.5 151t-205.5 68v217q274 0 418.5 -103.5t144.5 -283.5q0 -51 -14.5 -151.5t-14.5 -153.5q0 -92 37 -144.5t131 -77.5v-243 q-92 -25 -130 -80t-38 -148q0 -55 14.5 -157.5t14.5 -155.5q0 -182 -144.5 -287.5t-418.5 -105.5v217z" />
<glyph unicode="~" horiz-adv-x="1095" d="M45 430q23 162 105.5 256t203.5 94q94 0 205 -66.5t154 -66.5q84 0 145 137l193 -86q-23 -168 -103 -257t-182 -89q-80 0 -153.5 35t-131 68.5t-94.5 33.5q-82 0 -147 -141z" />
<glyph unicode="&#xa1;" horiz-adv-x="675" d="M135 874.5q0 81.5 59.5 139t143.5 57.5t143.5 -57.5t59.5 -139t-59.5 -139t-143.5 -57.5t-143.5 57.5t-59.5 139zM164 -119q0 309 37 705h276q35 -412 35 -705v-205h-348v205z" />
<glyph unicode="&#xa2;" horiz-adv-x="1001" d="M45 602q0 258 148.5 408.5t398.5 150.5h14l53 225l164 -36l-51 -213q109 -35 182 -109l-92 -180q-70 47 -143 65l-125 -563h16q143 0 248 99l109 -156q-143 -190 -404 -191h-20l-54 -225l-165 37l51 213q-156 47 -243 170t-87 305zM330 625q0 -164 110 -234l115 529 q-106 -18 -165.5 -93t-59.5 -202z" />
<glyph unicode="&#xa3;" horiz-adv-x="1140" d="M92 0v219q115 90 159 168t46 186h-188v215h155q-41 178 -41 244q0 160 126 262.5t333 102.5q201 0 328 -80l-72 -207q-92 39 -193 39q-227 0 -227 -186q0 -68 27 -175h387v-215h-348v-14q0 -92 -51.5 -175t-143.5 -142h698v-242h-995z" />
<glyph unicode="&#xa5;" horiz-adv-x="1241" d="M35 1368v4h336l256 -543l256 543h325v-4l-301 -571h248v-164h-364v-148h364v-163h-364v-322h-338v322h-363v163h363v148h-363v164h244z" />
<glyph unicode="&#xa6;" horiz-adv-x="753" d="M242 465h270v-987h-270v987zM242 743v967h270v-967h-270z" />
<glyph unicode="&#xa7;" horiz-adv-x="1097" d="M61 528q0 96 58.5 170t169.5 111q-156 86 -156 250q0 154 111.5 246t312.5 92q250 0 397 -142l-131 -163q-102 86 -239 86q-68 0 -104 -25t-36 -61q0 -61 134 -109l88 -29q195 -68 282.5 -156.5t87.5 -215.5q0 -225 -217 -303q160 -90 160 -256q0 -160 -113.5 -251 t-316.5 -91q-285 0 -440 159l120 183q49 -49 128 -80t153 -31q143 0 143 88q0 61 -129 106l-86 31q-211 78 -294 168t-83 223zM371 561q0 -61 42 -102t146 -74l31 -10q137 41 137 155q0 63 -43 106.5t-145 78.5l-27 8q-141 -51 -141 -162z" />
<glyph unicode="&#xa8;" horiz-adv-x="823" d="M27 1349.5q0 67.5 50 117t116 49.5q74 0 120.5 -48.5t46.5 -118t-47 -117.5t-120 -48q-66 0 -116 49t-50 116.5zM459 1349.5q0 69.5 49 118t123 48.5q66 0 116 -49.5t50 -117t-50.5 -116.5t-115.5 -49q-74 0 -123 48t-49 117.5z" />
<glyph unicode="&#xa9;" horiz-adv-x="1679" d="M66 688q0 330 222 555t550 225q330 0 553 -225t223 -555t-223.5 -555t-552.5 -225q-328 0 -550 225t-222 555zM246 688q0 -262 170 -441t422 -179q254 0 425 179t171 441t-171 441.5t-425 179.5q-252 0 -422 -179.5t-170 -441.5zM455 678q0 203 118.5 323.5t303.5 120.5 q137 0 237 -73l-76 -172q-68 41 -143 41q-90 0 -143.5 -58.5t-53.5 -171.5q0 -98 52.5 -151.5t142.5 -53.5q84 0 145 49l92 -153q-104 -109 -276 -109q-180 0 -289.5 110t-109.5 298z" />
<glyph unicode="&#xaa;" horiz-adv-x="913" d="M57 760q0 176 146 233q113 47 342 43v47q2 53 -38 78t-126 25q-139 0 -225 -49l-37 161q143 98 366 99q162 0 246 -72t84 -205v-579h-252q-6 31 -14 121q-90 -135 -236 -136q-121 0 -188.5 62.5t-67.5 171.5zM319 795q0 -78 93 -78q80 0 133 76v112q-121 -6 -168 -24 q-58 -20 -58 -86z" />
<glyph unicode="&#xab;" horiz-adv-x="1021" d="M45 526v4l213 441h287l-217 -445l217 -448h-287zM475 526v4l213 441h287l-217 -445l217 -448h-287z" />
<glyph unicode="&#xad;" horiz-adv-x="706" d="M70 418v262h567v-262h-567z" />
<glyph unicode="&#xae;" horiz-adv-x="1128" d="M37 1116q0 225 151.5 378t374.5 153q225 0 377 -153t152 -378t-152 -377.5t-377 -152.5q-223 0 -374.5 152.5t-151.5 377.5zM164 1116q0 -176 115.5 -298t283.5 -122t285 122t117 298t-117 298t-285 122t-283.5 -122t-115.5 -298zM360 860v535h215q205 0 205 -166 q0 -100 -88 -152l111 -215v-2h-150l-92 193h-67v-193h-134zM494 1159h67q35 0 55.5 17.5t20.5 46.5q0 59 -76 59h-67v-123z" />
<glyph unicode="&#xaf;" horiz-adv-x="823" d="M94 1227v207h635v-207h-635z" />
<glyph unicode="&#xb0;" horiz-adv-x="763" d="M55 1206.5q0 139.5 93.5 232.5t234.5 93q139 0 232.5 -93t93.5 -232.5t-93.5 -233.5t-232.5 -94q-141 0 -234.5 94t-93.5 233.5zM240 1206q0 -70 39.5 -114.5t103 -44.5t103.5 45t40 114q0 68 -40 113t-103.5 45t-103 -45t-39.5 -113z" />
<glyph unicode="&#xb1;" horiz-adv-x="1132" d="M72 25v245h989v-245h-989zM72 711v245h356v336h279v-336h354v-245h-354v-336h-279v336h-356z" />
<glyph unicode="&#xb2;" horiz-adv-x="1085" d="M37 0v207q256 248 385 392t166 214t37 137q0 76 -47.5 122t-126.5 46q-135 0 -215 -133l-168 129q53 131 176 207t295 76q207 0 325.5 -105.5t118.5 -290.5q0 -166 -113.5 -329.5t-427.5 -421.5h566v-250h-971z" />
<glyph unicode="&#xb3;" horiz-adv-x="1060" d="M14 96l86 199q125 -66 273 -66q113 0 179 47.5t66 129.5q0 92 -73.5 142t-208.5 50q-53 0 -107 -6l-22 199q199 31 286 82t87 128q0 66 -45.5 102t-126.5 36q-139 0 -228 -78l-106 166q59 80 172.5 125t255.5 45q195 0 308.5 -93.5t113.5 -246.5q0 -203 -215 -314 q129 -39 198.5 -132t69.5 -226q0 -182 -143.5 -296t-384.5 -114q-277 0 -435 121z" />
<glyph unicode="&#xb4;" horiz-adv-x="823" d="M141 1300q156 162 359 299l53 35l143 -215l-47 -33q-190 -141 -401 -235z" />
<glyph unicode="&#xb6;" horiz-adv-x="1245" d="M57 956q0 199 118 307.5t343 108.5h594v-1597h-229v1376h-170v-1376h-230v755h-4q-197 0 -309.5 118t-112.5 308z" />
<glyph unicode="&#xb7;" horiz-adv-x="544" d="M70 637q0 86 59 145.5t143 59.5t143.5 -59.5t59.5 -145.5q0 -84 -59.5 -143.5t-143.5 -59.5t-143 59.5t-59 143.5z" />
<glyph unicode="&#xb8;" horiz-adv-x="823" d="M160 -492l73 134q51 -23 107 -23q92 0 92 66q0 72 -129 71q-25 0 -53 -4l-2 4l143 322l125 -41l-63 -146q98 -16 152 -69t54 -135q0 -111 -75.5 -175.5t-202.5 -64.5q-137 0 -221 61z" />
<glyph unicode="&#xb9;" horiz-adv-x="772" d="M-6 1253l360 119h271v-1372h-332v1100l-240 -68z" />
<glyph unicode="&#xba;" horiz-adv-x="968" d="M55 950q0 209 117 328t313 119q203 0 315.5 -110.5t112.5 -321.5q0 -203 -117.5 -322t-314.5 -119q-203 0 -314.5 111.5t-111.5 314.5zM344 971q0 -238 141 -238q137 0 137.5 231.5t-141.5 231.5q-137 0 -137 -225z" />
<glyph unicode="&#xbb;" horiz-adv-x="1021" d="M47 78l217 448l-217 445h287l213 -441v-4l-213 -448h-287zM477 78l217 448l-217 445h287l213 -441v-4l-213 -448h-287z" />
<glyph unicode="&#xbc;" horiz-adv-x="1640" d="M20 1378l232 66h211v-807h-270v608l-127 -28zM125 -2l983 1454h250v-4l-981 -1454h-252v4zM799 141v160l348 506h299v-494h137v-172h-137v-141h-250v141h-397zM1020 313h176v265z" />
<glyph unicode="&#xbd;" horiz-adv-x="1667" d="M20 1378l232 66h211v-807h-270v608l-127 -28zM121 -2l983 1454h250v-4l-981 -1454h-252v4zM930 0v152q213 184 277.5 260.5t64.5 126.5q0 33 -22.5 54t-61.5 21q-61 0 -117 -61l-129 96q39 78 125 125t201 47q137 0 217 -62.5t80 -172.5q0 -96 -66.5 -186.5 t-238.5 -217.5h319v-182h-649z" />
<glyph unicode="&#xbe;" horiz-adv-x="1761" d="M37 692l55 150q84 -31 166 -31q131 0 131 78q0 82 -147 82q-49 0 -70 -2l-8 145q117 14 163 34.5t46 57.5q0 59 -92 60q-74 0 -131 -33l-80 123q86 102 297 102q129 0 206.5 -56t77.5 -149q0 -115 -135 -180q164 -47 164 -209q0 -106 -95.5 -173.5t-254.5 -67.5 q-193 -1 -293 69zM258 -2l983 1454h250v-4l-981 -1454h-252v4zM920 141v160l348 506h299v-494h137v-172h-137v-141h-250v141h-397zM1141 313h176v265z" />
<glyph unicode="&#xbf;" horiz-adv-x="1007" d="M61 14q0 139 81 240.5t276 179.5q8 106 16 150h266q12 -96 13 -271q-168 -59 -235.5 -118.5t-67.5 -133.5q0 -66 45 -102.5t127 -36.5q154 0 239 131l176 -143q-61 -121 -187 -189.5t-300 -68.5q-209 0 -329 98t-120 264zM365 874.5q0 81.5 59 139t143 57.5t143.5 -57.5 t59.5 -139t-59.5 -139t-143.5 -57.5t-143 57.5t-59 139z" />
<glyph unicode="&#xc0;" horiz-adv-x="1382" d="M-12 0l520 1372h364l519 -1372h-367l-92 276h-492l-92 -276h-360zM344 1645l96 235l60 -22q225 -94 432 -226l-68 -168q-231 51 -469 158zM516 520h340l-170 514z" />
<glyph unicode="&#xc1;" horiz-adv-x="1382" d="M-12 0l520 1372h364l519 -1372h-367l-92 276h-492l-92 -276h-360zM436 1632q193 125 430 226l60 22l98 -235l-51 -23q-238 -106 -469 -158zM516 520h340l-170 514z" />
<glyph unicode="&#xc2;" horiz-adv-x="1382" d="M-12 0l520 1372h364l519 -1372h-367l-92 276h-492l-92 -276h-360zM322 1573q127 143 268 266h192q143 -125 269 -266l-129 -117q-127 68 -238 141q-117 -78 -233 -141zM516 520h340l-170 514z" />
<glyph unicode="&#xc3;" horiz-adv-x="1382" d="M-12 0l520 1372h364l519 -1372h-367l-92 276h-492l-92 -276h-360zM324 1505q-8 143 55 222t162 79q66 0 155.5 -41t118.5 -41q49 0 70 84l164 -16q8 -143 -53.5 -222t-153.5 -79q-72 0 -163 41t-120 41q-53 0 -72 -84zM516 520h340l-170 514z" />
<glyph unicode="&#xc4;" horiz-adv-x="1382" d="M-12 0l520 1372h364l519 -1372h-367l-92 276h-492l-92 -276h-360zM289 1646.5q0 69.5 52 120t120 50.5q74 0 122 -49.5t48 -121t-48 -120.5t-122 -49q-68 0 -120 50t-52 119.5zM516 520h340l-170 514zM737 1646.5q0 71.5 50.5 121t123.5 49.5q68 0 120 -50.5t52 -120 t-52 -119.5t-120 -50q-74 0 -124 49t-50 120.5z" />
<glyph unicode="&#xc5;" horiz-adv-x="1382" d="M-12 0l520 1372h364l519 -1372h-367l-92 276h-492l-92 -276h-360zM412 1702q0 104 78.5 174t195.5 70t196 -70t79 -174q0 -106 -79 -176t-196 -70t-195.5 70t-78.5 176zM516 520h340l-170 514zM586 1702q0 -43 28.5 -71.5t71.5 -28.5t72.5 28.5t29.5 71.5 q0 39 -29.5 66.5t-72.5 27.5t-71.5 -27.5t-28.5 -66.5z" />
<glyph unicode="&#xc6;" horiz-adv-x="1878" d="M-12 0l530 1372h1247v-254h-571v-301h463v-237h-463v-328h635v-252h-973v367h-383l-125 -367h-360zM549 602h307v522h-133z" />
<glyph unicode="&#xc7;" horiz-adv-x="1210" d="M63 653q0 338 198 540t503 202q240 0 399 -119l-102 -240q-125 82 -268 82q-170 0 -271.5 -113.5t-101.5 -332.5q0 -195 98 -299.5t266 -104.5q164 0 285 105l119 -221q-160 -164 -416 -172l-37 -89q98 -16 152.5 -69t54.5 -135q0 -111 -75.5 -175.5t-202.5 -64.5 q-137 0 -222 61l74 134q51 -23 107 -23q92 0 92 66q0 72 -129 71q-25 0 -54 -4l-2 4l101 228q-260 29 -414 205.5t-154 463.5z" />
<glyph unicode="&#xc8;" horiz-adv-x="1167" d="M131 0v1372h965v-254h-625v-301h500v-237h-500v-328h645v-252h-985zM281 1645l96 235l59 -22q225 -94 432 -226l-67 -168q-231 51 -469 158z" />
<glyph unicode="&#xc9;" horiz-adv-x="1167" d="M131 0v1372h965v-254h-625v-301h500v-237h-500v-328h645v-252h-985zM371 1632q193 125 430 226l59 22l98 -235l-51 -23q-238 -106 -469 -158z" />
<glyph unicode="&#xca;" horiz-adv-x="1167" d="M131 0v1372h965v-254h-625v-301h500v-237h-500v-328h645v-252h-985zM256 1573q127 143 268 266h193q143 -125 268 -266l-129 -117q-127 68 -238 141q-117 -78 -233 -141z" />
<glyph unicode="&#xcb;" horiz-adv-x="1167" d="M131 0v1372h965v-254h-625v-301h500v-237h-500v-328h645v-252h-985zM223 1646.5q0 69.5 52.5 120t119.5 50.5q74 0 122 -49.5t48 -121t-48 -120.5t-122 -49q-68 0 -120 50t-52 119.5zM672 1646.5q0 71.5 50 121t124 49.5q68 0 120 -50.5t52 -120t-52.5 -119.5t-119.5 -50 q-74 0 -124 49t-50 120.5z" />
<glyph unicode="&#xcc;" horiz-adv-x="602" d="M-39 1645l96 235l60 -22q225 -94 432 -226l-68 -168q-231 51 -469 158zM131 0v1372h340v-1372h-340z" />
<glyph unicode="&#xcd;" horiz-adv-x="602" d="M53 1632q193 125 430 226l60 22l98 -235l-51 -23q-238 -106 -469 -158zM131 0v1372h340v-1372h-340z" />
<glyph unicode="&#xce;" horiz-adv-x="602" d="M-61 1573q127 143 268 266h192q141 -125 269 -266l-129 -117q-125 68 -238 141q-100 -68 -233 -141zM131 0v1372h340v-1372h-340z" />
<glyph unicode="&#xcf;" horiz-adv-x="602" d="M-94 1646.5q0 69.5 52 120t120 50.5q74 0 122 -49.5t48 -121t-48 -120.5t-122 -49q-68 0 -120 50t-52 119.5zM131 0v1372h340v-1372h-340zM354 1646.5q0 71.5 50.5 121t123.5 49.5q68 0 120 -50.5t52 -120t-52 -119.5t-120 -50q-74 0 -124 49t-50 120.5z" />
<glyph unicode="&#xd0;" horiz-adv-x="1464" d="M37 571v252h153v549h504q344 0 524.5 -170t180.5 -493q0 -346 -184.5 -527.5t-526.5 -181.5h-498v571h-153zM530 248h105q201 0 305 111.5t104 334.5q0 211 -107.5 320.5t-303.5 109.5h-103v-301h244v-252h-244v-323z" />
<glyph unicode="&#xd1;" horiz-adv-x="1484" d="M131 0v1372h342l567 -913l-2 913h316v-1380h-340l-574 917l4 -909h-313zM383 1505q-8 143 55.5 222t161.5 79q68 0 156 -41t118 -41q49 0 70 84l164 -16q8 -143 -54.5 -222t-152.5 -79q-72 0 -163 41t-120 41q-53 0 -71 -84z" />
<glyph unicode="&#xd2;" horiz-adv-x="1452" d="M63 680q0 334 178.5 525.5t483.5 191.5q319 0 491.5 -178.5t172.5 -522.5q0 -336 -176.5 -528.5t-479.5 -192.5q-319 0 -494.5 180.5t-175.5 524.5zM383 1645l96 235l60 -22q225 -94 432 -226l-68 -168q-231 51 -469 158zM420 694q0 -465 309 -465q301 0 301 451 q0 465 -307 465q-303 0 -303 -451z" />
<glyph unicode="&#xd3;" horiz-adv-x="1452" d="M63 680q0 334 178.5 525.5t483.5 191.5q319 0 491.5 -178.5t172.5 -522.5q0 -336 -176.5 -528.5t-479.5 -192.5q-319 0 -494.5 180.5t-175.5 524.5zM420 694q0 -465 309 -465q301 0 301 451q0 465 -307 465q-303 0 -303 -451zM475 1632q193 125 430 226l60 22l98 -235 l-51 -23q-238 -106 -469 -158z" />
<glyph unicode="&#xd4;" horiz-adv-x="1452" d="M63 680q0 334 178.5 525.5t483.5 191.5q319 0 491.5 -178.5t172.5 -522.5q0 -336 -176.5 -528.5t-479.5 -192.5q-319 0 -494.5 180.5t-175.5 524.5zM360 1573q127 143 269 266h192q141 -125 269 -266l-129 -117q-125 68 -238 141q-100 -68 -234 -141zM420 694 q0 -465 309 -465q301 0 301 451q0 465 -307 465q-303 0 -303 -451z" />
<glyph unicode="&#xd5;" horiz-adv-x="1452" d="M63 680q0 334 178.5 525.5t483.5 191.5q319 0 491.5 -178.5t172.5 -522.5q0 -336 -176.5 -528.5t-479.5 -192.5q-319 0 -494.5 180.5t-175.5 524.5zM362 1505q-8 143 55.5 222t162.5 79q68 0 155.5 -41t118.5 -41q49 0 70 84l163 -16q8 -143 -54 -222t-152 -79 q-72 0 -163 41t-120 41q-53 0 -72 -84zM420 694q0 -465 309 -465q301 0 301 451q0 465 -307 465q-303 0 -303 -451z" />
<glyph unicode="&#xd6;" horiz-adv-x="1452" d="M63 680q0 334 178.5 525.5t483.5 191.5q319 0 491.5 -178.5t172.5 -522.5q0 -336 -176.5 -528.5t-479.5 -192.5q-319 0 -494.5 180.5t-175.5 524.5zM328 1646.5q0 69.5 52 120t120 50.5q74 0 122 -49.5t48 -121t-48.5 -120.5t-121.5 -49q-68 0 -120 50t-52 119.5z M420 694q0 -465 309 -465q301 0 301 451q0 465 -307 465q-303 0 -303 -451zM776 1646.5q0 71.5 50.5 121t123.5 49.5q68 0 120 -50.5t52 -120t-52 -119.5t-120 -50q-74 0 -124 49t-50 120.5z" />
<glyph unicode="&#xd7;" horiz-adv-x="1150" d="M63 317l320 345l-320 344l207 190l305 -328l306 328l209 -190l-322 -344l322 -345l-209 -192l-306 328l-305 -328z" />
<glyph unicode="&#xd8;" horiz-adv-x="1452" d="M70 680q0 334 178 525.5t483 191.5q186 0 330 -78l139 182l170 -125l-143 -190q166 -188 166 -490q0 -336 -176.5 -528.5t-479.5 -192.5q-186 0 -336 80l-141 -188l-168 125l146 194q-168 191 -168 494zM408 694q0 -154 30 -254l469 660q-72 57 -178 57 q-154 0 -237.5 -115t-83.5 -348zM551 270q74 -53 184 -53q317 0 318 463q0 137 -33 246z" />
<glyph unicode="&#xd9;" horiz-adv-x="1406" d="M117 518v854h340v-829q0 -307 245 -307q248 0 248 307v829h340v-856q0 -274 -144.5 -407.5t-443.5 -133.5t-442 133.5t-143 409.5zM362 1645l97 235l59 -22q225 -94 432 -226l-67 -168q-231 51 -469 158z" />
<glyph unicode="&#xda;" horiz-adv-x="1406" d="M117 518v854h340v-829q0 -307 245 -307q248 0 248 307v829h340v-856q0 -274 -144.5 -407.5t-443.5 -133.5t-442 133.5t-143 409.5zM453 1632q193 125 430 226l59 22l98 -235l-51 -23q-238 -106 -469 -158z" />
<glyph unicode="&#xdb;" horiz-adv-x="1406" d="M117 518v854h340v-829q0 -307 245 -307q248 0 248 307v829h340v-856q0 -274 -144.5 -407.5t-443.5 -133.5t-442 133.5t-143 409.5zM338 1573q127 143 268 266h193q143 -125 268 -266l-129 -117q-127 68 -238 141q-117 -78 -233 -141z" />
<glyph unicode="&#xdc;" horiz-adv-x="1406" d="M117 518v854h340v-829q0 -307 245 -307q248 0 248 307v829h340v-856q0 -274 -144.5 -407.5t-443.5 -133.5t-442 133.5t-143 409.5zM305 1646.5q0 69.5 52.5 120t119.5 50.5q74 0 122 -49.5t48 -121t-48 -120.5t-122 -49q-68 0 -120 50t-52 119.5zM754 1646.5 q0 71.5 50 121t124 49.5q68 0 120 -50.5t52 -120t-52.5 -119.5t-119.5 -50q-74 0 -124 49t-50 120.5z" />
<glyph unicode="&#xdd;" horiz-adv-x="1224" d="M-25 1368v4h371l275 -541l276 541h354v-4l-469 -858v-510h-340v514zM369 1632q193 125 430 226l59 22l98 -235l-51 -23q-238 -106 -469 -158z" />
<glyph unicode="&#xde;" horiz-adv-x="1236" d="M131 0v1372h340v-217h176q272 0 402.5 -107.5t130.5 -322.5q0 -219 -147.5 -346t-399.5 -127h-162v-252h-340zM471 471h113q117 0 181 63.5t64 174.5q0 104 -64.5 163.5t-180.5 59.5h-113v-461z" />
<glyph unicode="&#xdf;" horiz-adv-x="1300" d="M123 0v1071q0 227 139 342t383 115q215 0 340 -90t125 -258q0 -74 -33 -141.5t-73.5 -106.5t-73.5 -81t-33 -70.5t25.5 -57.5t113.5 -88q123 -82 169 -157t46 -171q0 -152 -100 -238.5t-272 -86.5q-219 0 -344 131l59 188q100 -68 186 -68q53 0 84 25t31 68 q0 37 -24.5 68.5t-98.5 88.5q-98 72 -136 131.5t-38 139.5q0 57 29.5 112.5t66.5 90t67 82.5t30 98q0 70 -44.5 110.5t-113.5 40.5q-88 0 -134 -56t-46 -159v-1073h-330z" />
<glyph unicode="&#xe0;" horiz-adv-x="1112" d="M61 274q0 221 183 291q141 59 424 56v71q0 70 -48.5 102.5t-156.5 32.5q-72 0 -154 -18t-127 -43l-43 184q176 121 447 121q197 0 300 -89t103 -257v-725h-301q-12 72 -16 168q-90 -186 -295 -186q-147 0 -231.5 78.5t-84.5 213.5zM233 1419l146 215l51 -35 q209 -141 361 -299l-109 -149q-217 98 -401 235zM375 319q0 -117 117 -116q49 0 99 33.5t77 82.5v154q-156 -6 -219 -33q-74 -31 -74 -121z" />
<glyph unicode="&#xe1;" horiz-adv-x="1112" d="M61 274q0 221 183 291q141 59 424 56v71q0 70 -48.5 102.5t-156.5 32.5q-72 0 -154 -18t-127 -43l-43 184q176 121 447 121q197 0 300 -89t103 -257v-725h-301q-12 72 -16 168q-90 -186 -295 -186q-147 0 -231.5 78.5t-84.5 213.5zM309 1300q156 162 359 299l53 35 l143 -215l-47 -33q-190 -141 -401 -235zM375 319q0 -117 117 -116q49 0 99 33.5t77 82.5v154q-156 -6 -219 -33q-74 -31 -74 -121z" />
<glyph unicode="&#xe2;" horiz-adv-x="1112" d="M61 274q0 221 183 291q141 59 424 56v71q0 70 -48.5 102.5t-156.5 32.5q-72 0 -154 -18t-127 -43l-43 184q176 121 447 121q197 0 300 -89t103 -257v-725h-301q-12 72 -16 168q-90 -186 -295 -186q-147 0 -231.5 78.5t-84.5 213.5zM209 1272q133 170 274 311h144 q141 -141 274 -311l-129 -121q-94 68 -217 182q-137 -127 -217 -182zM375 319q0 -117 117 -116q49 0 99 33.5t77 82.5v154q-156 -6 -219 -33q-74 -31 -74 -121z" />
<glyph unicode="&#xe3;" horiz-adv-x="1112" d="M61 274q0 221 183 291q141 59 424 56v71q0 70 -48.5 102.5t-156.5 32.5q-72 0 -154 -18t-127 -43l-43 184q176 121 447 121q197 0 300 -89t103 -257v-725h-301q-12 72 -16 168q-90 -186 -295 -186q-147 0 -231.5 78.5t-84.5 213.5zM197 1208q-8 145 55 224t160 79 q68 0 153.5 -42t114.5 -42q51 0 70 86l163 -16q8 -143 -53 -223t-151 -80q-74 0 -162 43t-115 43q-51 0 -72 -88zM375 319q0 -117 117 -116q49 0 99 33.5t77 82.5v154q-156 -6 -219 -33q-74 -31 -74 -121z" />
<glyph unicode="&#xe4;" horiz-adv-x="1112" d="M61 274q0 221 183 291q141 59 424 56v71q0 70 -48.5 102.5t-156.5 32.5q-72 0 -154 -18t-127 -43l-43 184q176 121 447 121q197 0 300 -89t103 -257v-725h-301q-12 72 -16 168q-90 -186 -295 -186q-147 0 -231.5 78.5t-84.5 213.5zM170 1349.5q0 67.5 50 117t116 49.5 q74 0 121 -48.5t47 -118t-47 -117.5t-121 -48q-66 0 -116 49t-50 116.5zM375 319q0 -117 117 -116q49 0 99 33.5t77 82.5v154q-156 -6 -219 -33q-74 -31 -74 -121zM602 1349.5q0 69.5 49 118t123 48.5q66 0 116 -49.5t50 -117t-50 -116.5t-116 -49q-74 0 -123 48t-49 117.5z " />
<glyph unicode="&#xe5;" horiz-adv-x="1112" d="M61 274q0 221 183 291q141 59 424 56v71q0 70 -48.5 102.5t-156.5 32.5q-72 0 -154 -18t-127 -43l-43 184q176 121 447 121q197 0 300 -89t103 -257v-725h-301q-12 72 -16 168q-90 -186 -295 -186q-147 0 -231.5 78.5t-84.5 213.5zM295 1409q0 106 73.5 176t186.5 70 t186.5 -69.5t73.5 -176.5q0 -109 -73.5 -179.5t-186.5 -70.5t-186.5 70.5t-73.5 179.5zM375 319q0 -117 117 -116q49 0 99 33.5t77 82.5v154q-156 -6 -219 -33q-74 -31 -74 -121zM461 1409q0 -43 26.5 -73.5t67.5 -30.5t68.5 30.5t27.5 73.5q0 41 -27.5 69.5t-68.5 28.5 t-67.5 -28.5t-26.5 -69.5z" />
<glyph unicode="&#xe6;" horiz-adv-x="1675" d="M61 279q0 221 183 292q143 57 424 54v65q0 70 -47.5 103.5t-157.5 33.5q-72 0 -154 -18t-127 -43l-43 184q172 119 439 119q209 0 284 -121q109 113 301 113q246 0 354.5 -158t84.5 -440h-637q2 -115 63.5 -174.5t171.5 -59.5q150 0 262 113l135 -141 q-141 -219 -436 -219q-301 0 -420 190q-43 -88 -134 -139t-199 -51q-162 0 -254.5 80t-92.5 217zM375 319q0 -117 117 -116q51 0 100 30.5t76 83.5v160q-156 -6 -219 -33q-74 -27 -74 -125zM969 633h329q4 225 -147 225q-72 0 -121 -57t-61 -168z" />
<glyph unicode="&#xe7;" horiz-adv-x="964" d="M59 498q0 260 144.5 412.5t384.5 152.5q215 0 336 -121l-101 -199q-86 63 -190 64q-117 0 -185.5 -76t-68.5 -219q0 -129 62.5 -197.5t172.5 -68.5q127 0 215 96l115 -170q-117 -180 -348 -192l-37 -89q98 -16 152.5 -69t54.5 -135q0 -111 -76 -175.5t-203 -64.5 q-137 0 -221 61l74 134q51 -23 106 -23q92 0 93 66q0 72 -129 71q-25 0 -54 -4l-2 4l103 232q-184 29 -291 163t-107 347z" />
<glyph unicode="&#xe8;" horiz-adv-x="1103" d="M66 494q0 274 139 420.5t373 146.5q254 0 364.5 -156.5t85.5 -439.5h-643q6 -236 242 -236q150 0 262 113l135 -141q-141 -219 -438 -219q-246 0 -383 133t-137 379zM254 1419l145 215l52 -35q209 -141 360 -299l-109 -149q-217 98 -401 235zM391 645h334 q-4 213 -152 213q-151 0 -182 -213z" />
<glyph unicode="&#xe9;" horiz-adv-x="1103" d="M66 494q0 274 139 420.5t373 146.5q254 0 364.5 -156.5t85.5 -439.5h-643q6 -236 242 -236q150 0 262 113l135 -141q-141 -219 -438 -219q-246 0 -383 133t-137 379zM330 1300q156 162 358 299l53 35l144 -215l-47 -33q-190 -141 -402 -235zM391 645h334q-4 213 -152 213 q-151 0 -182 -213z" />
<glyph unicode="&#xea;" horiz-adv-x="1103" d="M66 494q0 274 139 420.5t373 146.5q254 0 364.5 -156.5t85.5 -439.5h-643q6 -236 242 -236q150 0 262 113l135 -141q-141 -219 -438 -219q-246 0 -383 133t-137 379zM229 1272q133 170 275 311h143q141 -141 275 -311l-129 -121q-94 68 -218 182q-137 -127 -217 -182z M391 645h334q-4 213 -152 213q-151 0 -182 -213z" />
<glyph unicode="&#xeb;" horiz-adv-x="1103" d="M66 494q0 274 139 420.5t373 146.5q254 0 364.5 -156.5t85.5 -439.5h-643q6 -236 242 -236q150 0 262 113l135 -141q-141 -219 -438 -219q-246 0 -383 133t-137 379zM190 1349.5q0 67.5 50.5 117t115.5 49.5q74 0 121 -48.5t47 -118t-47 -117.5t-121 -48q-66 0 -116 49 t-50 116.5zM391 645h334q-4 213 -152 213q-151 0 -182 -213zM623 1349.5q0 69.5 49 118t123 48.5q66 0 116 -49.5t50 -117t-50.5 -116.5t-115.5 -49q-74 0 -123 48t-49 117.5z" />
<glyph unicode="&#xec;" horiz-adv-x="581" d="M-29 1419l146 215l51 -35q209 -141 360 -299l-108 -149q-217 98 -402 235zM125 0v1036h332v-1036h-332z" />
<glyph unicode="&#xed;" horiz-adv-x="581" d="M47 1300q156 162 359 299l53 35l143 -215l-47 -33q-190 -141 -401 -235zM125 0v1036h332v-1036h-332z" />
<glyph unicode="&#xee;" horiz-adv-x="581" d="M-55 1272q133 170 274 311h143q141 -141 275 -311l-129 -121q-94 68 -217 182q-137 -127 -217 -182zM125 0v1036h332v-1036h-332z" />
<glyph unicode="&#xef;" horiz-adv-x="581" d="M-94 1349.5q0 67.5 50 117t116 49.5q74 0 121 -48.5t47 -118t-47.5 -117.5t-120.5 -48q-66 0 -116 49t-50 116.5zM125 0v1036h332v-1036h-332zM338 1349.5q0 69.5 49 118t123 48.5q66 0 116 -49.5t50 -117t-50.5 -116.5t-115.5 -49q-74 0 -123 48t-49 117.5z" />
<glyph unicode="&#xf0;" d="M66 506q0 209 130 340t328 131q119 0 199 -47q-55 131 -152 217l-348 -152l-61 138l268 114q-88 51 -223 94l80 187q238 -51 413 -160l283 121l61 -137l-206 -88q279 -256 278 -672q0 -299 -135 -458t-375 -159q-248 0 -394 144.5t-146 386.5zM403 506q0 -137 53.5 -210 t141.5 -73q186 0 186 324q0 96 -12 182q-70 39 -151 39q-102 0 -160 -67.5t-58 -194.5z" />
<glyph unicode="&#xf1;" horiz-adv-x="1220" d="M125 0v1036h309q10 -70 17 -135q104 170 317 170q152 0 244 -95t92 -251v-725h-330v662q0 147 -139 147q-115 0 -178 -102v-707h-332zM266 1208q-8 145 55.5 224t159.5 79q68 0 154 -42t115 -42q51 0 69 86l164 -16q8 -143 -53.5 -223t-151.5 -80q-74 0 -162 43t-114 43 q-51 0 -72 -88z" />
<glyph unicode="&#xf2;" d="M66 510q0 258 144 404.5t388 146.5q254 0 392 -136.5t138 -398.5q0 -250 -145 -397t-389 -147q-250 0 -389 138t-139 390zM279 1419l145 215l51 -35q209 -141 361 -299l-109 -149q-217 98 -401 235zM408 532q0 -324 190 -323q188 0 188 315q0 317 -192 318 q-186 -1 -186 -310z" />
<glyph unicode="&#xf3;" d="M66 510q0 258 144 404.5t388 146.5q254 0 392 -136.5t138 -398.5q0 -250 -145 -397t-389 -147q-250 0 -389 138t-139 390zM354 1300q156 162 359 299l53 35l143 -215l-47 -33q-190 -141 -401 -235zM408 532q0 -324 190 -323q188 0 188 315q0 317 -192 318 q-186 -1 -186 -310z" />
<glyph unicode="&#xf4;" d="M66 510q0 258 144 404.5t388 146.5q254 0 392 -136.5t138 -398.5q0 -250 -145 -397t-389 -147q-250 0 -389 138t-139 390zM252 1272q133 170 274 311h144q141 -141 274 -311l-129 -121q-94 68 -217 182q-137 -127 -217 -182zM408 532q0 -324 190 -323q188 0 188 315 q0 317 -192 318q-186 -1 -186 -310z" />
<glyph unicode="&#xf5;" d="M66 510q0 258 144 404.5t388 146.5q254 0 392 -136.5t138 -398.5q0 -250 -145 -397t-389 -147q-250 0 -389 138t-139 390zM240 1208q-8 145 55 224t160 79q68 0 153.5 -42t114.5 -42q51 0 70 86l163 -16q8 -143 -53 -223t-151 -80q-74 0 -162 43t-115 43q-51 0 -72 -88z M408 532q0 -324 190 -323q188 0 188 315q0 317 -192 318q-186 -1 -186 -310z" />
<glyph unicode="&#xf6;" d="M66 510q0 258 144 404.5t388 146.5q254 0 392 -136.5t138 -398.5q0 -250 -145 -397t-389 -147q-250 0 -389 138t-139 390zM213 1349.5q0 67.5 50 117t116 49.5q74 0 121 -48.5t47 -118t-47 -117.5t-121 -48q-66 0 -116 49t-50 116.5zM408 532q0 -324 190 -323 q188 0 188 315q0 317 -192 318q-186 -1 -186 -310zM645 1349.5q0 69.5 49 118t123 48.5q66 0 116 -49.5t50 -117t-50 -116.5t-116 -49q-74 0 -123 48t-49 117.5z" />
<glyph unicode="&#xf7;" horiz-adv-x="1150" d="M51 545v274h1051v-274h-1051zM401 266q0 74 51.5 125t122.5 51q74 0 126.5 -51t52.5 -125q0 -72 -52.5 -124t-126.5 -52q-72 0 -123 52t-51 124zM401 1098q0 72 51.5 124t122.5 52q74 0 126.5 -52.5t52.5 -123.5q0 -74 -52.5 -125t-126.5 -51q-72 0 -123 51t-51 125z" />
<glyph unicode="&#xf8;" d="M66 510q0 258 144 404.5t388 146.5q137 0 250 -53l127 166l131 -97l-125 -164q147 -152 147 -387q0 -250 -145 -397t-389 -147q-152 0 -264 61l-123 -164l-129 98l123 164q-135 146 -135 369zM381 532q0 -86 12 -151l324 446q-47 39 -123 39q-96 0 -154.5 -83t-58.5 -251 zM465 231q49 -49 133 -49q213 0 213 342q0 88 -16 160z" />
<glyph unicode="&#xf9;" horiz-adv-x="1202" d="M117 315v721h327v-667q0 -133 113 -133q119 0 191 114v686h329v-1036h-309q-10 76 -16 164q-106 -193 -324 -193q-147 0 -229 88t-82 256zM276 1419l146 215l51 -35q209 -141 361 -299l-109 -149q-217 98 -401 235z" />
<glyph unicode="&#xfa;" horiz-adv-x="1202" d="M117 315v721h327v-667q0 -133 113 -133q119 0 191 114v686h329v-1036h-309q-10 76 -16 164q-106 -193 -324 -193q-147 0 -229 88t-82 256zM352 1300q156 162 359 299l53 35l143 -215l-47 -33q-190 -141 -401 -235z" />
<glyph unicode="&#xfb;" horiz-adv-x="1202" d="M117 315v721h327v-667q0 -133 113 -133q119 0 191 114v686h329v-1036h-309q-10 76 -16 164q-106 -193 -324 -193q-147 0 -229 88t-82 256zM252 1272q133 170 274 311h144q141 -141 274 -311l-129 -121q-94 68 -217 182q-137 -127 -217 -182z" />
<glyph unicode="&#xfc;" horiz-adv-x="1202" d="M117 315v721h327v-667q0 -133 113 -133q119 0 191 114v686h329v-1036h-309q-10 76 -16 164q-106 -193 -324 -193q-147 0 -229 88t-82 256zM213 1349.5q0 67.5 50 117t116 49.5q74 0 121 -48.5t47 -118t-47 -117.5t-121 -48q-66 0 -116 49t-50 116.5zM645 1349.5 q0 69.5 49 118t123 48.5q66 0 116 -49.5t50 -117t-50 -116.5t-116 -49q-74 0 -123 48t-49 117.5z" />
<glyph unicode="&#xfd;" horiz-adv-x="1114" d="M4 1036h354l211 -674l193 674h348l-424 -1149q-66 -178 -151.5 -248.5t-221.5 -70.5q-152 0 -252 63l37 197q66 -16 127 -16q121 0 170 110l29 66zM319 1300q156 162 359 299l53 35l143 -215l-47 -33q-190 -141 -401 -235z" />
<glyph unicode="&#xfe;" horiz-adv-x="1232" d="M125 -410v1913h332v-604q94 164 286 164q188 0 306 -139.5t118 -397.5q0 -248 -124.5 -394t-323.5 -146q-152 0 -262 75v-471h-332zM457 246q51 -29 139 -29q106 0 168.5 77t62.5 218q0 150 -55 229.5t-145 79.5q-109 0 -170 -114v-461z" />
<glyph unicode="&#xff;" horiz-adv-x="1114" d="M4 1036h354l211 -674l193 674h348l-424 -1149q-66 -178 -151.5 -248.5t-221.5 -70.5q-152 0 -252 63l37 197q66 -16 127 -16q121 0 170 110l29 66zM180 1349.5q0 67.5 50.5 117t115.5 49.5q74 0 121 -48.5t47 -118t-47 -117.5t-121 -48q-66 0 -116 49t-50 116.5z M612 1349.5q0 69.5 49.5 118t122.5 48.5q66 0 116 -49.5t50 -117t-50 -116.5t-116 -49q-74 0 -123 48t-49 117.5z" />
<glyph unicode="&#x152;" horiz-adv-x="2037" d="M63 680q0 332 174.5 524.5t462.5 192.5q252 0 390 -142v117h876v-254h-625v-301h500v-237h-500v-328h646v-252h-897v125q-131 -150 -381 -150q-303 0 -474.5 181.5t-171.5 523.5zM420 694q0 -465 303 -465q293 0 293 451q0 465 -301 465q-139 0 -217 -112t-78 -339z" />
<glyph unicode="&#x153;" horiz-adv-x="1796" d="M66 510q0 256 142 403.5t378 147.5q233 0 358 -143q125 143 334 143q250 0 359.5 -156.5t84.5 -439.5h-643q6 -236 242 -236q150 0 262 113l135 -141q-141 -219 -434 -219q-236 0 -356 133q-125 -133 -344 -133q-246 0 -382 138t-136 390zM408 532q0 -324 186 -323 q182 0 182 315q0 317 -186 318q-182 -1 -182 -310zM1083 645h336q-4 213 -153 213q-152 0 -183 -213z" />
<glyph unicode="&#x178;" horiz-adv-x="1224" d="M-25 1368v4h371l275 -541l276 541h354v-4l-469 -858v-510h-340v514zM221 1646.5q0 69.5 52.5 120t119.5 50.5q74 0 122 -49.5t48 -121t-48 -120.5t-122 -49q-68 0 -120 50t-52 119.5zM670 1646.5q0 71.5 50 121t124 49.5q68 0 120 -50.5t52 -120t-52.5 -119.5t-119.5 -50 q-74 0 -124 49t-50 120.5z" />
<glyph unicode="&#x2c6;" horiz-adv-x="823" d="M66 1272q133 170 274 311h143q141 -141 275 -311l-129 -121q-94 68 -217 182q-137 -127 -217 -182z" />
<glyph unicode="&#x2dc;" horiz-adv-x="823" d="M53 1208q-8 145 55.5 224t159.5 79q68 0 154 -42t115 -42q51 0 69 86l164 -16q8 -143 -53.5 -223t-151.5 -80q-74 0 -162 43t-114 43q-51 0 -72 -88z" />
<glyph unicode="&#x2000;" horiz-adv-x="972" />
<glyph unicode="&#x2001;" horiz-adv-x="1945" />
<glyph unicode="&#x2002;" horiz-adv-x="972" />
<glyph unicode="&#x2003;" horiz-adv-x="1945" />
<glyph unicode="&#x2004;" horiz-adv-x="647" />
<glyph unicode="&#x2005;" horiz-adv-x="485" />
<glyph unicode="&#x2006;" horiz-adv-x="323" />
<glyph unicode="&#x2007;" horiz-adv-x="323" />
<glyph unicode="&#x2008;" horiz-adv-x="241" />
<glyph unicode="&#x2009;" horiz-adv-x="389" />
<glyph unicode="&#x200a;" horiz-adv-x="106" />
<glyph unicode="&#x2010;" horiz-adv-x="706" d="M70 418v262h567v-262h-567z" />
<glyph unicode="&#x2011;" horiz-adv-x="706" d="M70 418v262h567v-262h-567z" />
<glyph unicode="&#x2012;" horiz-adv-x="706" d="M70 418v262h567v-262h-567z" />
<glyph unicode="&#x2013;" horiz-adv-x="1091" d="M61 432v236h969v-236h-969z" />
<glyph unicode="&#x2014;" horiz-adv-x="1771" d="M61 432v236h1649v-236h-1649z" />
<glyph unicode="&#x2018;" horiz-adv-x="471" d="M43 1180q0 131 60.5 244.5t170.5 189.5l172 -107q-102 -123 -102 -321v-203h-283q-18 91 -18 197z" />
<glyph unicode="&#x2019;" horiz-adv-x="471" d="M23 1030q102 123 102 322v202h283q18 -88 18 -196q0 -131 -60.5 -245t-170.5 -189z" />
<glyph unicode="&#x201a;" horiz-adv-x="471" d="M23 -203q102 123 102 322v203h283q18 -88 18 -197q0 -131 -60.5 -244.5t-170.5 -189.5z" />
<glyph unicode="&#x201c;" horiz-adv-x="892" d="M43 1180q0 131 60.5 244.5t170.5 189.5l172 -107q-102 -123 -102 -321v-203h-283q-18 91 -18 197zM465 1180q0 131 60.5 244.5t170.5 189.5l172 -107q-102 -123 -102 -321v-203h-283q-18 91 -18 197z" />
<glyph unicode="&#x201d;" horiz-adv-x="892" d="M23 1030q102 123 102 322v202h283q18 -88 18 -196q0 -131 -60.5 -245t-170.5 -189zM444 1030q102 123 103 322v202h282q18 -88 19 -196q0 -131 -60.5 -245t-171.5 -189z" />
<glyph unicode="&#x201e;" horiz-adv-x="892" d="M23 -203q102 123 102 322v203h283q18 -88 18 -197q0 -131 -60.5 -244.5t-170.5 -189.5zM444 -203q102 123 103 322v203h282q18 -88 19 -197q0 -131 -60.5 -244.5t-171.5 -189.5z" />
<glyph unicode="&#x2022;" horiz-adv-x="815" d="M80 549q0 137 94 232.5t231.5 95.5t232.5 -95.5t95 -232.5t-95 -231.5t-232.5 -94.5t-231.5 94.5t-94 231.5z" />
<glyph unicode="&#x2026;" horiz-adv-x="1904" d="M94 180q0 86 59.5 145.5t143.5 59.5t143.5 -59.5t59.5 -145.5q0 -84 -59.5 -143.5t-143.5 -59.5t-143.5 59.5t-59.5 143.5zM748 180q0 86 59 145.5t143 59.5t143.5 -59.5t59.5 -145.5q0 -84 -59.5 -143.5t-143.5 -59.5t-143 59.5t-59 143.5zM1403 180q0 86 59.5 145.5 t143.5 59.5t143 -59.5t59 -145.5q0 -84 -59 -143.5t-143 -59.5t-143.5 59.5t-59.5 143.5z" />
<glyph unicode="&#x202f;" horiz-adv-x="389" />
<glyph unicode="&#x2039;" horiz-adv-x="591" d="M45 526v4l213 441h287l-217 -445l217 -448h-287z" />
<glyph unicode="&#x203a;" horiz-adv-x="591" d="M47 78l217 448l-217 445h287l213 -441v-4l-213 -448h-287z" />
<glyph unicode="&#x205f;" horiz-adv-x="485" />
<glyph unicode="&#x20ac;" horiz-adv-x="1228" d="M45 479v154h148v12q0 68 6 131h-154v154h184q63 221 221 343t373 122q211 0 357 -119l-90 -211q-115 76 -240 76q-221 0 -307 -211h372v-154h-409q-6 -55 -6 -117v-26h415v-154h-393q68 -233 307 -233q156 0 269 100l104 -194q-152 -174 -422 -175q-229 0 -381.5 132.5 t-193.5 369.5h-160z" />
<glyph unicode="&#x2122;" horiz-adv-x="1675" d="M37 1292v181h594v-181h-191v-540h-211v540h-192zM680 752l49 721h266l135 -412l136 412h270l53 -721h-205l-32 444l-142 -444h-161l-144 442l-26 -442h-199z" />
<glyph unicode="&#xe000;" horiz-adv-x="1035" d="M0 1035h1035v-1035h-1035v1035z" />
<glyph unicode="&#xfb01;" horiz-adv-x="1216" d="M27 827v189q55 16 147 20v68q0 203 126 313.5t345 110.5q209 0 361 -78l-48 -203q-100 35 -227 35q-227 0 -227 -182v-64h610v-1036h-332v834h-278v-834h-330v827h-147z" />
<glyph unicode="&#xfb02;" horiz-adv-x="1271" d="M27 827v189q55 16 147 20v80q0 195 106.5 303.5t297.5 108.5q82 0 147 -17v-223q-12 4 -51 4q-88 0 -129 -43t-41 -141v-72h203v-209h-203v-827h-330v827h-147zM815 0v1503h332v-1503h-332z" />
<glyph unicode="&#xfb03;" horiz-adv-x="1849" d="M27 827v189q55 16 147 20v70q0 195 106.5 303.5t290.5 108.5q129 0 213 -37l-36 -207q-37 8 -80 8q-84 0 -124 -42t-40 -142v-62h303v64q0 203 127 315.5t348 112.5q205 0 354 -78l-47 -203q-98 35 -225 35q-227 0 -227 -190v-56h610v-1036h-330v834h-280v-834h-330v834 h-303v-834h-330v827h-147z" />
<glyph unicode="&#xfb04;" horiz-adv-x="1902" d="M27 827v189q55 16 147 20v70q0 195 106.5 303.5t290.5 108.5q129 0 213 -37l-36 -207q-37 8 -80 8q-84 0 -124 -42t-40 -142v-62h303v80q0 195 106.5 303.5t296.5 108.5q82 0 148 -17v-223q-12 4 -51 4q-88 0 -129 -43t-41 -141v-72h200v-209h-200v-827h-330v834h-303 v-834h-330v827h-147zM1446 0v1503h332v-1503h-332z" />
</font>
</defs>
</svg>
