<?xml version="1.0" standalone="no"?>
<!DOCTYPE svg PUBLIC "-//W3C//DTD SVG 1.1//EN" "http://www.w3.org/Graphics/SVG/1.1/DTD/svg11.dtd" >
<svg xmlns="http://www.w3.org/2000/svg">
<metadata>
This is a custom SVG webfont generated by Font Squirrel.
Copyright   : 2010 Commercial Type All rights reserved Licensed for exclusive use by Apollo Group and its subsidiaries
Designer    : Dan Milne
Foundry     : Commercial Type
Foundry URL : httpcommercialtypecom
</metadata>
<defs>
<font id="PhoenixSansRegular" horiz-adv-x="1148" >
<font-face units-per-em="2048" ascent="1638" descent="-410" />
<missing-glyph horiz-adv-x="438" />
<glyph unicode=" "  horiz-adv-x="438" />
<glyph unicode="&#x09;" horiz-adv-x="438" />
<glyph unicode="&#xa0;" horiz-adv-x="438" />
<glyph unicode="!" horiz-adv-x="585" d="M156 118.5q0 57.5 40 97.5t97 40t96 -40t39 -97.5t-39 -96t-96 -38.5t-97 38.5t-40 96zM190 1137v235h205v-235q0 -362 -28 -740h-150q-27 349 -27 740z" />
<glyph unicode="&#x22;" horiz-adv-x="671" d="M82 1538h188q0 -281 -37 -526h-116q-35 231 -35 526zM401 1538h189q0 -281 -37 -526h-117q-35 231 -35 526z" />
<glyph unicode="#" horiz-adv-x="1286" d="M90 385l31 135h219l57 338h-233l31 133h225l63 381h148l-64 -381h277l63 381h146l-64 -381h232l-29 -133h-225l-56 -338h236l-29 -135h-229l-64 -385h-147l63 385h-274l-64 -385h-149l63 385h-227zM489 520h275l57 338h-276z" />
<glyph unicode="$" horiz-adv-x="1120" d="M57 172l80 119q117 -111 271 -146l79 494l-24 10q-186 68 -269 160t-83 219q0 166 125.5 267.5t332.5 101.5q33 0 47 -2l37 221l125 -21l-35 -217q147 -37 258 -143l-79 -113q-88 76 -203 107l-76 -465l14 -4q377 -139 377 -398q0 -178 -123 -282.5t-344 -104.5 q-41 0 -59 2l-37 -225l-125 19l37 223q-209 45 -326 178zM283 1042q0 -76 51 -129t188 -106l72 442h-14q-143 0 -220 -56.5t-77 -150.5zM532 129h27q145 0 222 55.5t77 155.5q0 82 -54 140.5t-196 115.5z" />
<glyph unicode="%" horiz-adv-x="1648" d="M70 1018q0 174 92 276.5t235 102.5q141 0 234.5 -102.5t93.5 -276.5q0 -176 -93 -279.5t-235 -103.5q-143 0 -235 102.5t-92 280.5zM229 1018q0 -119 45 -181.5t123 -62.5t123 62.5t45 181.5q0 117 -46 178t-122 61q-78 0 -123 -61t-45 -178zM270 -2l934 1382h168v-4 l-932 -1382h-170v4zM915 362q0 174 92.5 276.5t235.5 102.5q141 0 234.5 -102t93.5 -277q0 -178 -93.5 -280t-234.5 -102q-143 0 -235.5 102t-92.5 280zM1075 362q0 -119 45 -181t123 -62t123 62.5t45 180.5q0 115 -46 177.5t-122 62.5q-78 0 -123 -62.5t-45 -177.5z" />
<glyph unicode="&#x26;" horiz-adv-x="1425" d="M94 352q0 135 83 226.5t235 179.5q-164 184 -164 340q0 135 100.5 217t253.5 82q164 0 257 -79t93 -212q0 -117 -73.5 -199t-214.5 -164l352 -370q82 156 94 395q0 10 1 32.5t1 33.5h160q4 -53 4 -93q0 -287 -146 -489l238 -248v-4h-250l-114 121q-180 -145 -437 -146 q-225 0 -349 103.5t-124 273.5zM283 362q0 -109 78.5 -172t218.5 -65q195 -4 323 104l-397 426q-109 -68 -166 -135.5t-57 -157.5zM420 1102q0 -98 147 -258q106 61 160.5 117.5t54.5 125.5q0 78 -48 126.5t-134 48.5q-80 0 -130 -45t-50 -115z" />
<glyph unicode="'" horiz-adv-x="352" d="M82 1538h188q0 -281 -37 -526h-116q-35 231 -35 526z" />
<glyph unicode="(" horiz-adv-x="737" d="M195 621q0 334 111.5 609t297.5 429l98 -100q-328 -352 -327 -938q0 -602 330 -963l-101 -100q-186 154 -297.5 439.5t-111.5 623.5z" />
<glyph unicode=")" horiz-adv-x="737" d="M33 -342q330 360 329 963q0 586 -327 938l98 100q186 -154 298 -429.5t112 -608.5q0 -338 -112 -624t-298 -439z" />
<glyph unicode="*" horiz-adv-x="905" d="M57 1016l39 22q92 53 266 125q-152 61 -266 129l-39 23l70 117l39 -23q117 -70 242 -168q-23 152 -23 295v45h137v-45q0 -104 -24 -293q127 100 243 166l39 23l68 -119l-39 -23q-115 -66 -266 -127q152 -61 266 -127l39 -22l-70 -117l-39 23q-127 74 -241 163 q25 -188 24 -290v-45h-137v45q0 143 23 290q-137 -104 -244 -163l-39 -23z" />
<glyph unicode="+" horiz-adv-x="1134" d="M70 606v152h413v444h170v-444h412v-152h-412v-444h-170v444h-413z" />
<glyph unicode="," horiz-adv-x="450" d="M33 -240q106 123 106 297v172h185q12 -78 12 -178q0 -106 -53.5 -205.5t-141.5 -158.5z" />
<glyph unicode="-" horiz-adv-x="702" d="M88 471v143h526v-143h-526z" />
<glyph unicode="." horiz-adv-x="450" d="M90 118.5q0 57.5 39 97.5t96.5 40t97 -40t39.5 -97.5t-39.5 -96t-97 -38.5t-96.5 38.5t-39 96z" />
<glyph unicode="/" horiz-adv-x="862" d="M43 -455l604 2003h168l-604 -2003h-168z" />
<glyph unicode="0" horiz-adv-x="1290" d="M90 694q0 330 151.5 516.5t403.5 186.5t403.5 -186.5t151.5 -516.5q0 -336 -152.5 -524t-402.5 -188q-252 0 -403.5 188t-151.5 524zM285 694q0 -272 97 -415.5t263 -143.5t263.5 143.5t97.5 415.5q0 266 -99.5 408.5t-261.5 142.5t-261 -142.5t-99 -408.5z" />
<glyph unicode="1" horiz-adv-x="727" d="M10 1241l352 131h164v-1372h-184v1202l-291 -96z" />
<glyph unicode="2" horiz-adv-x="1042" d="M49 0v127q295 297 439.5 464t186.5 248t42 162q0 109 -65.5 171.5t-176.5 62.5q-180 0 -264 -176l-113 69q96 268 410 269q186 0 293.5 -102.5t107.5 -278.5q0 -166 -123.5 -341t-502.5 -525h659v-150h-893z" />
<glyph unicode="3" horiz-adv-x="1013" d="M29 106l73 111q121 -92 291 -92q145 0 231.5 67.5t86.5 182.5q0 129 -92.5 198.5t-266.5 69.5q-57 0 -108 -6l-31 125q440 72 440 287q0 92 -60.5 144t-162.5 52q-166 0 -262 -108l-70 92q51 78 149.5 123t219.5 45q178 0 279.5 -89t101.5 -237q0 -221 -236 -330 q137 -27 215 -124t78 -236q0 -182 -131 -294t-356 -112q-252 0 -389 131z" />
<glyph unicode="4" horiz-adv-x="1185" d="M37 340v127l645 905h180v-885h266v-147h-266v-340h-176v340h-649zM231 487h455v650z" />
<glyph unicode="5" horiz-adv-x="1007" d="M35 109l74 110q119 -90 282 -90q152 0 239 76t87 201q0 145 -102.5 225t-284.5 80q-109 0 -174 -6l47 667h645v-158h-500l-22 -366q55 6 106 6q221 0 347 -116.5t126 -313.5q0 -201 -133 -325t-350 -124q-250 1 -387 134z" />
<glyph unicode="6" horiz-adv-x="1138" d="M102 559q0 385 226.5 605t627.5 220l23 -133q-602 -16 -680 -536q45 59 133 96t191 37q199 0 314.5 -111.5t115.5 -308.5q0 -201 -129 -327t-334 -126q-225 0 -356.5 148.5t-131.5 435.5zM287 541q0 -207 84 -311.5t219 -104.5q125 0 199.5 75.5t74.5 223.5 q0 135 -79.5 211t-211.5 76q-88 0 -166.5 -38t-119.5 -98v-34z" />
<glyph unicode="7" horiz-adv-x="972" d="M43 1217v155h875v-139l-535 -1233h-201v4l541 1213h-680z" />
<glyph unicode="8" horiz-adv-x="1167" d="M94 348q0 113 85 207t241 147q-270 115 -270 336q0 154 121.5 256.5t316.5 102.5q205 0 317.5 -90t112.5 -244q0 -209 -266 -328q170 -72 245.5 -161t75.5 -212q0 -174 -130 -280.5t-359 -106.5q-236 0 -363 99.5t-127 273.5zM279 362q0 -106 81.5 -171.5t217.5 -65.5 q141 0 224 61.5t83 161.5q0 84 -53.5 146.5t-180.5 113.5l-92 37q-137 -43 -208.5 -117t-71.5 -166zM326 1051q0 -76 50 -130.5t173 -103.5l55 -22q129 51 183.5 110.5t54.5 141.5q0 88 -73 149t-191 61q-111 0 -181.5 -60t-70.5 -146z" />
<glyph unicode="9" d="M88 963q0 186 132 310t335 124q227 0 357 -147.5t130 -430.5q0 -422 -207.5 -620.5t-646.5 -198.5l-22 129q330 14 491.5 143t190.5 410q-45 -68 -132 -102.5t-186 -34.5q-199 0 -320.5 111.5t-121.5 306.5zM270 973q0 -133 83 -210t216 -77q201 0 287 121v20 q0 213 -85 317.5t-218 104.5q-123 0 -203 -73.5t-80 -202.5z" />
<glyph unicode=":" horiz-adv-x="450" d="M90 118.5q0 57.5 39 97.5t96.5 40t97 -40t39.5 -97.5t-39.5 -96t-97 -38.5t-96.5 38.5t-39 96zM90 839.5q0 57.5 39 97.5t96.5 40t97 -40t39.5 -97.5t-39.5 -96t-97 -38.5t-96.5 38.5t-39 96z" />
<glyph unicode=";" horiz-adv-x="450" d="M33 -240q106 123 106 297v172h185q12 -78 12 -178q0 -106 -53.5 -205.5t-141.5 -158.5zM90 839.5q0 57.5 39 97.5t96.5 40t97 -40t39.5 -97.5t-39.5 -96t-97 -38.5t-96.5 38.5t-39 96z" />
<glyph unicode="&#x3c;" horiz-adv-x="942" d="M47 612v119l821 438v-182l-602 -315l602 -316v-182z" />
<glyph unicode="=" horiz-adv-x="1130" d="M102 354v156h924v-156h-924zM102 811v156h924v-156h-924z" />
<glyph unicode="&#x3e;" horiz-adv-x="942" d="M72 174v182l602 316l-602 315v182l821 -438v-119z" />
<glyph unicode="?" horiz-adv-x="917" d="M27 1143q43 119 150.5 186.5t260.5 67.5q190 0 301 -99.5t111 -263.5q0 -139 -89 -247.5t-294 -194.5q-4 -109 -14 -195h-156q-12 92 -12 256q211 98 288.5 179t77.5 188q0 96 -64.5 155.5t-170.5 59.5q-188 0 -262 -158zM240 118.5q0 57.5 38.5 97.5t96 40t97.5 -40 t40 -97.5t-40 -96t-97.5 -38.5t-96 38.5t-38.5 96z" />
<glyph unicode="@" horiz-adv-x="2000" d="M100 506q0 397 269.5 658t681.5 261q379 0 614.5 -218t235.5 -570q0 -279 -145.5 -426.5t-383.5 -147.5q-229 0 -258 156q-96 -156 -246 -156q-127 0 -204.5 90.5t-77.5 252.5q0 250 133 417.5t334 167.5q113 0 188 -69l35 51h108q-109 -623 -108 -694q0 -86 106 -86 q162 0 257.5 110.5t95.5 325.5q0 299 -191.5 478t-505.5 179q-340 0 -556 -218t-216 -564q0 -377 211 -570.5t584 -193.5q178 0 330.5 54t234.5 136l94 -96q-96 -111 -270 -175.5t-389 -64.5q-455 0 -708 238t-253 674zM760 418q0 -201 147 -201q61 0 113.5 44t109.5 155 l64 393q-55 33 -123 33q-135 0 -223 -114.5t-88 -309.5z" />
<glyph unicode="A" horiz-adv-x="1277" d="M20 0l529 1372h174l530 -1372h-209l-133 369h-563l-133 -369h-195zM401 512h457l-229 625z" />
<glyph unicode="B" horiz-adv-x="1230" d="M176 0v1372h445q432 0 432 -328q0 -211 -197 -307q274 -59 274 -327q0 -184 -140 -297t-376 -113h-438zM365 139h225q162 0 251 68.5t89 191.5q0 246 -330 246h-235v-506zM365 770h204q139 0 215 63.5t76 174.5q0 221 -295 221h-200v-459z" />
<glyph unicode="C" horiz-adv-x="1232" d="M90 653q0 340 189.5 541t486.5 201q131 0 222 -32t177 -106l-82 -127q-133 100 -305 101q-217 0 -350 -145.5t-133 -423.5q0 -246 126 -380.5t339 -134.5q205 0 334 136l104 -97q-154 -209 -461 -209q-295 0 -471 181.5t-176 494.5z" />
<glyph unicode="D" horiz-adv-x="1361" d="M176 0v1372h399q334 0 514.5 -170t180.5 -491q0 -348 -181.5 -529.5t-521.5 -181.5h-391zM365 145h178q258 0 393 137.5t135 407.5q0 264 -139 400.5t-393 136.5h-174v-1082z" />
<glyph unicode="E" horiz-adv-x="1132" d="M176 0v1372h858v-153h-669v-441h538v-145h-538v-481h692v-152h-881z" />
<glyph unicode="F" horiz-adv-x="1087" d="M176 0v1372h856v-153h-667v-465h536v-146h-536v-608h-189z" />
<glyph unicode="G" horiz-adv-x="1382" d="M90 637q0 350 202 554t515 204q129 0 223 -32t184 -106l-84 -122q-137 100 -325 100q-227 0 -368.5 -147.5t-141.5 -428.5q0 -248 117.5 -382t322.5 -134q119 0 209 49.5t139 135.5v250h-317v143h502v-735h-133q-31 80 -48 166q-113 -174 -382 -175q-279 0 -447 176.5 t-168 483.5z" />
<glyph unicode="H" horiz-adv-x="1398" d="M176 0v1372h189v-592h669v592h189v-1372h-189v631h-669v-631h-189z" />
<glyph unicode="I" horiz-adv-x="542" d="M178 0v1372h189v-1372h-189z" />
<glyph unicode="J" horiz-adv-x="897" d="M2 121l86 119q111 -98 236 -99q217 0 217 240v991h188v-999q0 -190 -98.5 -294t-274.5 -104q-111 0 -206 40t-148 106z" />
<glyph unicode="K" horiz-adv-x="1275" d="M176 0v1372h189v-754l614 754h227v-4l-465 -551l516 -813v-4h-221l-424 676l-247 -295v-381h-189z" />
<glyph unicode="L" horiz-adv-x="1099" d="M176 0v1372h189v-1216h667v-156h-856z" />
<glyph unicode="M" horiz-adv-x="1732" d="M133 0l94 1372h213l420 -1036l422 1036h213l104 -1372h-180l-80 1087l-424 -1087h-110l-430 1079l-74 -1079h-168z" />
<glyph unicode="N" horiz-adv-x="1456" d="M176 0v1372h168l762 -1075l-2 1075h176v-1390h-166l-766 1087l4 -1069h-176z" />
<glyph unicode="O" horiz-adv-x="1443" d="M90 680q0 336 171 526.5t466 190.5q297 0 461 -180.5t164 -522.5q0 -336 -167 -527.5t-458 -191.5q-303 0 -470 180.5t-167 524.5zM291 694q0 -281 114.5 -422t323.5 -141q199 0 311.5 136t112.5 411q0 287 -112.5 426t-319.5 139q-203 0 -316.5 -137.5t-113.5 -411.5z " />
<glyph unicode="P" horiz-adv-x="1126" d="M176 0v1372h385q502 0 502 -432q0 -213 -142.5 -343t-383.5 -130h-172v-467h-189zM365 616h172q154 0 239.5 83t85.5 226.5t-83 221.5t-240 78h-174v-609z" />
<glyph unicode="Q" horiz-adv-x="1443" d="M90 680q0 334 170 525.5t461 191.5q301 0 466 -179.5t165 -523.5q0 -274 -114 -453.5t-316 -234.5q158 -102 374 -170v-4l-79 -135q-279 66 -508 278q-295 6 -457 186.5t-162 518.5zM291 694q0 -281 114.5 -422t323.5 -141q199 0 311.5 136t112.5 411q0 281 -114.5 423 t-327.5 142q-195 0 -307.5 -138.5t-112.5 -410.5z" />
<glyph unicode="R" horiz-adv-x="1204" d="M176 0v1372h432q481 0 482 -395q0 -129 -68 -230.5t-182 -156.5l338 -586v-4h-220l-286 543h-307v-543h-189zM365 682h231q131 0 213 77t82 204q0 125 -81 194.5t-218 69.5h-227v-545z" />
<glyph unicode="S" horiz-adv-x="1140" d="M74 172l88 125q166 -154 399 -154q301 0 301 203q0 82 -61.5 141.5t-225.5 120.5l-94 37q-193 70 -274.5 157t-81.5 226q0 164 128 266.5t337 102.5q272 0 436 -162l-88 -123q-139 121 -336 121q-137 0 -211 -53.5t-74 -145.5q0 -78 57.5 -128t213.5 -107l92 -35 q201 -72 289 -168t88 -234q0 -178 -124 -282.5t-347 -104.5q-168 0 -301 53.5t-211 143.5z" />
<glyph unicode="T" horiz-adv-x="1140" d="M29 1214v158h1083v-158h-448v-1214h-189v1214h-446z" />
<glyph unicode="U" horiz-adv-x="1390" d="M164 487v885h188v-860q0 -379 342 -379q344 0 344 379v860h189v-883q0 -512 -533 -512q-530 0 -530 510z" />
<glyph unicode="V" horiz-adv-x="1243" d="M4 1372h203l418 -1075l417 1075h199l-551 -1382h-143z" />
<glyph unicode="W" horiz-adv-x="1792" d="M39 1372h192l324 -1077l276 711l-114 366h194l332 -1079l328 1079h182l-438 -1376h-158l-250 778l-299 -778h-141z" />
<glyph unicode="X" horiz-adv-x="1251" d="M18 0v4l502 707l-463 657v4h224l350 -510l356 510h209v-4l-465 -655l502 -709v-4h-223l-389 563l-394 -563h-209z" />
<glyph unicode="Y" horiz-adv-x="1146" d="M0 1368v4h221l359 -655l358 655h209v-4l-477 -842v-526h-189v522z" />
<glyph unicode="Z" horiz-adv-x="1175" d="M72 0v147l794 1072h-741v153h969v-143l-789 -1075h797v-154h-1030z" />
<glyph unicode="[" horiz-adv-x="739" d="M242 -367v2001h481v-145h-303v-1710h303v-146h-481z" />
<glyph unicode="\" horiz-adv-x="862" d="M47 1548h168l604 -2003h-168z" />
<glyph unicode="]" horiz-adv-x="739" d="M16 -221h303v1710h-303v145h482v-2001h-482v146z" />
<glyph unicode="^" horiz-adv-x="950" d="M47 625v4l371 743h114l371 -743v-4h-170l-258 516l-258 -516h-170z" />
<glyph unicode="_" horiz-adv-x="999" d="M0 -102h999v-136h-999v136z" />
<glyph unicode="`" horiz-adv-x="770" d="M147 1487l107 117l47 -35q172 -150 309 -309l-67 -80q-195 123 -355 270z" />
<glyph unicode="a" horiz-adv-x="1040" d="M88 262q0 215 182 279q134 54 395 53h37v127q0 174 -219 174q-168 0 -280 -68l-41 107q147 117 381 117q156 0 243.5 -76t87.5 -205v-770h-153q-8 47 -16 166q-90 -182 -308 -182q-143 0 -226 74.5t-83 203.5zM266 287q0 -156 174 -156q74 0 150 51t112 129v178 q-240 -6 -325 -40q-111 -39 -111 -162z" />
<glyph unicode="b" horiz-adv-x="1173" d="M164 0v1503h180v-618q94 162 297 162q195 0 317.5 -135.5t122.5 -374.5q0 -250 -132 -399.5t-339 -149.5q-170 0 -286 86q-10 -31 -27 -74h-133zM344 197q80 -59 227 -60q150 0 238 101.5t88 277.5q0 178 -81 276.5t-216 98.5q-80 0 -148.5 -44t-107.5 -124v-526z" />
<glyph unicode="c" horiz-adv-x="944" d="M80 481q0 252 136 404.5t357 152.5q199 0 316 -129l-80 -121q-109 96 -236 97q-135 0 -221 -101.5t-86 -291.5q0 -164 75 -255.5t204 -91.5q162 0 258 138l104 -72q-125 -229 -379 -229q-201 0 -324.5 136t-123.5 363z" />
<glyph unicode="d" horiz-adv-x="1169" d="M90 473q0 260 139.5 414.5t356.5 154.5q123 0 239 -61v520h181v-1501h-162q-10 72 -17 160q-102 -178 -303 -178q-188 0 -311 132t-123 359zM274 502q0 -174 79 -268.5t206 -94.5q172 0 266 183v528q-92 41 -211 41q-152 0 -246 -104.5t-94 -284.5z" />
<glyph unicode="e" horiz-adv-x="1054" d="M90 471q0 270 131 421.5t336 151.5q223 0 324 -149q79 -118 79 -300q0 -48 -6 -101h-682v-15q0 -162 78 -250t219 -88q166 0 279 140l98 -70q-125 -229 -393 -229q-209 0 -336 129t-127 360zM283 621h497q0 279 -223 278q-106 0 -177.5 -69.5t-96.5 -208.5z" />
<glyph unicode="f" horiz-adv-x="731" d="M43 879v120q86 20 176 21v125q0 178 96.5 280.5t251.5 102.5q137 0 224 -49l-21 -125q-96 23 -154 22q-109 0 -162 -58t-53 -185v-113h299v-141h-299v-879h-182v879h-176z" />
<glyph unicode="g" horiz-adv-x="1091" d="M51 -139q0 80 49.5 140t135.5 85q-53 49 -54 133q0 117 97 189q-156 80 -156 284q0 164 109.5 258t297.5 94q156 0 263 -63q102 41 278 41v-143h-205q57 -70 58 -170q0 -164 -108.5 -254t-311.5 -90q-61 0 -123 10q-43 -47 -43 -107q0 -76 84 -75h323q139 0 216 -69 t77 -192q0 -168 -142 -265t-398 -97q-217 0 -332 76t-115 215zM217 -100q0 -88 77 -137.5t226 -49.5q172 0 261 51.5t89 143.5q0 63 -47 97t-129 34h-370q-107 -47 -107 -139zM297 707q0 -104 53 -155.5t170 -51.5q229 0 230 205q0 98 -60.5 152t-167.5 54q-225 1 -225 -204 z" />
<glyph unicode="h" horiz-adv-x="1169" d="M164 0v1503h180v-616q111 166 326 166q154 0 249 -94.5t95 -247.5v-711h-180v674q0 217 -211 217q-176 0 -279 -162v-729h-180z" />
<glyph unicode="i" horiz-adv-x="509" d="M139 1350q0 47 34 80.5t81 33.5t80 -33.5t33 -80.5t-34 -80t-79 -33q-47 0 -81 33t-34 80zM164 0v1020h180v-1020h-180z" />
<glyph unicode="j" horiz-adv-x="518" d="M-131 -369l27 119q57 -20 114 -20q88 0 126 50t38 181v1059h180v-1067q0 -383 -274 -383q-123 0 -211 61zM152 1350q0 47 33.5 80.5t80.5 33.5t80 -33.5t33 -80.5t-34 -80t-79 -33q-47 0 -80.5 33t-33.5 80z" />
<glyph unicode="k" horiz-adv-x="1064" d="M164 0v1503h180v-973l451 490h206v-4l-387 -414l437 -598v-4h-215l-347 494l-145 -154v-340h-180z" />
<glyph unicode="l" horiz-adv-x="509" d="M164 0v1503h182v-1503h-182z" />
<glyph unicode="m" horiz-adv-x="1810" d="M164 0v1020h162q2 -12 5 -41t5 -53l4 -49q102 176 324 176q109 0 188.5 -50.5t116.5 -138.5q104 188 344 189q156 0 248 -93.5t92 -246.5v-713h-180v676q0 215 -205 215q-174 0 -269 -160v-731h-180v676q0 215 -205 215q-172 0 -270 -162v-729h-180z" />
<glyph unicode="n" horiz-adv-x="1173" d="M164 0v1020h162q10 -111 12 -141q113 174 334 174q156 0 251 -93.5t95 -248.5v-711h-180v674q0 217 -213 217q-178 0 -281 -162v-729h-180z" />
<glyph unicode="o" d="M90 498q0 254 134 400t354 146q225 0 353 -133t128 -385q0 -250 -136.5 -397t-351.5 -147q-225 0 -353 135t-128 381zM279 524q0 -197 79.5 -295t219.5 -98q135 0 211.5 96.5t76.5 284.5q0 190 -77.5 288.5t-217.5 98.5q-133 0 -212.5 -95.5t-79.5 -279.5z" />
<glyph unicode="p" horiz-adv-x="1173" d="M164 -410v1430h162l14 -143q92 170 301 170q195 0 318.5 -135.5t123.5 -374.5q0 -250 -133 -399.5t-342 -149.5q-158 0 -264 69v-467h-180zM344 193q76 -55 227 -56q150 0 239 101.5t89 277.5q0 178 -82 276.5t-217 98.5q-80 0 -148.5 -44t-107.5 -124v-530z" />
<glyph unicode="q" horiz-adv-x="1171" d="M90 473q0 254 139.5 410.5t350.5 156.5q168 0 274 -94q16 45 29 74h123v-1432h-181v568q-102 -174 -301 -174q-188 0 -311 132t-123 359zM274 502q0 -174 79 -268.5t206 -94.5q172 0 266 183v516q-84 55 -202 55q-158 0 -253.5 -104.5t-95.5 -286.5z" />
<glyph unicode="r" horiz-adv-x="770" d="M164 0v1020h162q12 -86 14 -162q98 186 293 186q82 0 119 -32l-31 -160q-45 16 -123 16t-146.5 -47t-107.5 -131v-690h-180z" />
<glyph unicode="s" horiz-adv-x="888" d="M63 125l84 115q98 -109 271 -109q100 0 155.5 37t55.5 104q0 51 -38 87t-132 71l-92 35q-137 49 -197.5 117.5t-60.5 169.5q0 133 97 214t263 81q199 0 319 -121l-86 -111q-96 80 -227 80q-92 0 -142 -35t-50 -92q0 -55 41 -90t151 -72l62 -22q143 -47 207.5 -117 t64.5 -170q0 -147 -101.5 -231t-281.5 -84q-113 0 -210.5 38.5t-152.5 104.5z" />
<glyph unicode="t" horiz-adv-x="774" d="M41 879v120q80 16 164 21q6 137 18 229h154q-4 -123 -4 -229h346v-141h-348q0 -113 -2 -255.5t-3 -234.5q-1 -95 -1 -117q0 -125 118 -125q90 0 166 82l78 -84q-94 -164 -285 -163q-115 0 -184.5 67.5t-67.5 188.5l11 641h-160z" />
<glyph unicode="u" horiz-adv-x="1146" d="M158 307v713h178v-692q0 -104 43 -151.5t133 -47.5q86 0 164 48t127 132v711h180v-1020h-162q-10 78 -16 162q-111 -195 -332 -195q-152 0 -233.5 86t-81.5 254z" />
<glyph unicode="v" horiz-adv-x="1021" d="M27 1020h194l293 -758l293 758h188l-415 -1030h-138z" />
<glyph unicode="w" horiz-adv-x="1517" d="M51 1020h176l215 -760l267 760h102l266 -754l211 754h176l-305 -1030h-143l-256 700l-256 -700h-144z" />
<glyph unicode="x" horiz-adv-x="1050" d="M31 0l397 530l-365 490h209l263 -367l256 367h208l-368 -502l389 -518h-213l-281 395l-280 -395h-215z" />
<glyph unicode="y" horiz-adv-x="1021" d="M27 1020h198l299 -801l285 801h186q-8 -18 -219 -584.5t-215 -574.5q-61 -164 -131 -227.5t-168 -63.5q-119 0 -201 61l27 117q53 -20 129 -20q102 0 156 104q10 23 69 168z" />
<glyph unicode="z" horiz-adv-x="931" d="M66 115l567 762h-529v143h744l10 -117l-563 -760h571v-143h-794z" />
<glyph unicode="{" horiz-adv-x="739" d="M104 545v166q176 45 177 219q0 59 -24 176t-24 190q0 164 127 262.5t355 98.5v-144q-145 -10 -222 -72.5t-77 -162.5q0 -49 22.5 -166t22.5 -194q0 -217 -209 -293q209 -76 209 -299q0 -80 -22.5 -201t-22.5 -172q0 -102 76.5 -168t222.5 -76v-143q-227 0 -354.5 101.5 t-127.5 269.5q0 80 24 200.5t24 179.5q-1 177 -177 228z" />
<glyph unicode="|" horiz-adv-x="659" d="M248 -522v2232h164v-2232h-164z" />
<glyph unicode="}" horiz-adv-x="739" d="M25 -291q145 10 222 75.5t77 168.5q0 51 -22.5 172t-22.5 201q0 223 206 299q-207 76 -206 293q0 78 22.5 194.5t22.5 165.5q0 100 -77 162.5t-222 72.5v144q227 0 354 -98.5t127 -262.5q0 -74 -23.5 -190.5t-23.5 -175.5q0 -174 176 -219v-166q-176 -51 -176 -228 q0 -59 23.5 -180t23.5 -200q0 -168 -127 -269.5t-354 -101.5v143z" />
<glyph unicode="~" horiz-adv-x="1083" d="M74 465q33 121 105.5 185.5t166.5 64.5q96 0 221 -81t178 -81q92 0 156 145l109 -51q-29 -123 -98.5 -186.5t-153.5 -63.5q-80 0 -160 41t-146.5 82t-113.5 41q-88 0 -156 -147z" />
<glyph unicode="&#xa1;" horiz-adv-x="585" d="M156 915.5q0 57.5 40 97.5t97 40t96 -40t39 -97.5t-39 -96.5t-96 -39t-97 39t-40 96.5zM190 -102q0 391 27 739h150q29 -377 28 -739v-236h-205v236z" />
<glyph unicode="&#xa2;" horiz-adv-x="1021" d="M78 592q0 252 137 405.5t363 163.5l38 230l123 -19l-34 -219q135 -25 227 -117l-78 -118q-86 68 -176 86l-123 -740h23q174 0 284 139l105 -69q-133 -229 -404 -230h-33l-36 -223l-123 19l35 225q-152 43 -240 167t-88 300zM262 614q0 -246 172 -321l119 717 q-129 -14 -210 -117t-81 -279z" />
<glyph unicode="&#xa3;" horiz-adv-x="1130" d="M104 0v129q133 111 181.5 196t48.5 193q0 35 -8 100h-201v134h174q-41 172 -41 254q0 174 118 282.5t310 108.5q172 0 293 -80l-59 -119q-86 51 -213 51q-125 0 -195 -64.5t-70 -183.5q0 -86 37 -249h428v-134h-403q6 -49 6 -98q0 -227 -199 -370h752v-150h-959z" />
<glyph unicode="&#xa5;" horiz-adv-x="1216" d="M74 1368v4h205l333 -569l334 569h195v-4l-342 -567h305v-115h-406v-201h406v-116h-406v-369h-180v369h-405v116h405v201h-405v115h303z" />
<glyph unicode="&#xa6;" horiz-adv-x="659" d="M248 465h164v-987h-164v987zM248 743v967h164v-967h-164z" />
<glyph unicode="&#xa7;" horiz-adv-x="1007" d="M72 565q0 96 57 171t166 114q-139 82 -139 237q0 133 97 221.5t263 88.5q201 0 320 -119l-86 -113q-94 82 -226 82q-92 0 -142 -41t-50 -102q0 -55 43 -96t145 -80l84 -31q178 -66 253 -150.5t75 -209.5q0 -106 -58.5 -186.5t-164.5 -119.5q152 -82 151 -245 q0 -137 -103.5 -221t-281.5 -84q-109 0 -206 38.5t-152 102.5l84 115q96 -106 266 -107q100 0 155.5 39t55.5 108q0 53 -38 92.5t-134 73.5l-82 33q-193 74 -272.5 165t-79.5 224zM248 573q0 -84 59.5 -142t210.5 -109l53 -21q184 49 185 207q0 84 -58.5 142.5t-205.5 109.5 q-35 10 -60 20q-184 -53 -184 -207z" />
<glyph unicode="&#xa8;" horiz-adv-x="770" d="M88 1348q0 47 34 79.5t77 32.5q47 0 79.5 -32.5t32.5 -80t-32.5 -79t-79.5 -31.5q-43 0 -77 33t-34 78zM459 1347.5q0 47.5 32.5 80t79.5 32.5q43 0 77 -32.5t34 -79.5q0 -45 -34 -78t-77 -33q-47 0 -79.5 31.5t-32.5 79z" />
<glyph unicode="&#xa9;" horiz-adv-x="1714" d="M94 688q0 328 220.5 555t539.5 227q322 0 544 -227t222 -555t-222 -555t-544 -227q-319 0 -539.5 227t-220.5 555zM227 688.5q0 -278.5 181.5 -472t445.5 -193.5q266 0 449.5 193.5t183.5 472t-183.5 472t-449.5 193.5q-264 0 -445.5 -193.5t-181.5 -472zM467 676 q0 209 117.5 331.5t302.5 122.5q152 0 246 -86l-74 -112q-74 55 -168 55q-115 0 -186.5 -78t-71.5 -225q0 -131 68.5 -203.5t183.5 -72.5q104 0 174 71l96 -90q-100 -127 -289 -127q-180 0 -289.5 110.5t-109.5 303.5z" />
<glyph unicode="&#xaa;" horiz-adv-x="856" d="M63 754q0 172 152 225q115 47 356 43v92q2 70 -45 105.5t-135 35.5q-139 0 -229 -55l-39 100q125 96 330 97q133 0 208.5 -62.5t75.5 -167.5v-626h-149q-12 66 -15 131q-37 -68 -104.5 -108t-144.5 -40q-121 0 -191 63t-70 167zM233 774q0 -113 138 -112q57 0 113.5 32.5 t86.5 87.5v140q-184 -6 -252 -29q-86 -29 -86 -119z" />
<glyph unicode="&#xab;" horiz-adv-x="915" d="M63 526v4l234 441h178l-233 -445l233 -448h-178zM428 526v4l234 441h178l-234 -445l234 -448h-178z" />
<glyph unicode="&#xad;" horiz-adv-x="702" d="M88 471v143h526v-143h-526z" />
<glyph unicode="&#xae;" horiz-adv-x="1126" d="M45 1116q0 223 149.5 377t366.5 154q219 0 369.5 -154t150.5 -377t-150.5 -376.5t-369.5 -153.5q-217 0 -366.5 153.5t-149.5 376.5zM145 1116.5q0 -186.5 121 -315.5t295 -129q176 0 298 129t122 315.5t-122 315.5t-298 129q-174 0 -295 -129t-121 -315.5zM362 850v557 h211q203 0 203 -164q0 -106 -102 -156l135 -235v-2h-119l-117 219h-108v-219h-103zM465 1157h104q43 0 70 22.5t27 57.5q0 37 -27 57.5t-72 20.5h-102v-158z" />
<glyph unicode="&#xaf;" horiz-adv-x="770" d="M94 1268v137h582v-137h-582z" />
<glyph unicode="&#xb0;" horiz-adv-x="776" d="M66 1206q0 137 92 229.5t231 92.5q137 0 229.5 -92.5t92.5 -229.5q0 -139 -92.5 -231t-229.5 -92q-139 0 -231 92t-92 231zM199 1206q0 -92 52 -149.5t138 -57.5t138.5 57.5t52.5 149.5q0 90 -52.5 147.5t-138.5 57.5t-138 -57.5t-52 -147.5z" />
<glyph unicode="&#xb1;" horiz-adv-x="1134" d="M82 51v144h971v-144h-971zM82 727v143h405v392h162v-392h404v-143h-404v-393h-162v393h-405z" />
<glyph unicode="&#xb2;" horiz-adv-x="1042" d="M49 0v127q295 297 439.5 464t186.5 248t42 162q0 109 -65.5 171.5t-176.5 62.5q-180 0 -264 -176l-113 69q96 268 410 269q186 0 293.5 -102.5t107.5 -278.5q0 -166 -123.5 -341t-502.5 -525h659v-150h-893z" />
<glyph unicode="&#xb3;" horiz-adv-x="1013" d="M29 106l73 111q121 -92 291 -92q145 0 231.5 67.5t86.5 182.5q0 129 -92.5 198.5t-266.5 69.5q-57 0 -108 -6l-31 125q440 72 440 287q0 92 -60.5 144t-162.5 52q-166 0 -262 -108l-70 92q51 78 149.5 123t219.5 45q178 0 279.5 -89t101.5 -237q0 -221 -236 -330 q137 -27 215 -124t78 -236q0 -182 -131 -294t-356 -112q-252 0 -389 131z" />
<glyph unicode="&#xb4;" horiz-adv-x="770" d="M160 1260q137 160 309 309l47 35l107 -117l-41 -37q-160 -147 -355 -270z" />
<glyph unicode="&#xb6;" d="M72 961q0 197 116.5 304t339.5 107h445v-1597h-154v1454h-172v-1454h-151v766h-4q-195 0 -307.5 117t-112.5 303z" />
<glyph unicode="&#xb7;" horiz-adv-x="450" d="M90 579.5q0 57.5 39 97.5t96.5 40t97 -40t39.5 -97.5t-39.5 -96.5t-97 -39t-96.5 39t-39 96.5z" />
<glyph unicode="&#xb8;" horiz-adv-x="770" d="M197 -457l55 88q45 -29 102 -28q96 0 97 80q0 90 -132 90q-27 0 -51 -4l-4 4l135 295l95 -35l-72 -160q84 -10 132 -59.5t48 -124.5q0 -92 -61.5 -149.5t-157.5 -57.5q-114 0 -186 61z" />
<glyph unicode="&#xb9;" horiz-adv-x="727" d="M10 1241l352 131h164v-1372h-184v1202l-291 -96z" />
<glyph unicode="&#xba;" horiz-adv-x="929" d="M68 950q0 207 109.5 327t287.5 120q186 0 291.5 -108.5t105.5 -315.5q0 -205 -111.5 -327t-287.5 -122q-186 0 -290.5 111.5t-104.5 314.5zM244 973q0 -152 59 -225.5t162 -73.5q215 0 215 287q0 147 -57.5 220.5t-159.5 73.5q-100 0 -159.5 -70.5t-59.5 -211.5z" />
<glyph unicode="&#xbb;" horiz-adv-x="915" d="M74 78l233 448l-233 445h178l233 -441v-4l-233 -448h-178zM438 78l234 448l-234 445h178l234 -441v-4l-234 -448h-178z" />
<glyph unicode="&#xbc;" horiz-adv-x="1576" d="M55 1300l213 72h133v-790h-159v657l-156 -45zM158 -2l934 1382h155v-4l-932 -1382h-157v4zM788 176v100l369 515h168v-502h152v-113h-152v-176h-149v176h-388zM938 289h238v338z" />
<glyph unicode="&#xbd;" horiz-adv-x="1622" d="M55 1300l213 72h133v-790h-159v657l-156 -45zM150 -2l933 1382h156v-4l-932 -1382h-157v4zM918 0v98q238 225 306 312.5t68 148.5q0 51 -32.5 82t-90.5 31q-92 0 -143 -86l-84 57q63 162 266 162q119 0 187.5 -60.5t68.5 -162.5q0 -96 -71.5 -193.5t-278.5 -269.5h365 v-119h-561z" />
<glyph unicode="&#xbe;" horiz-adv-x="1712" d="M78 641l45 92q78 -45 170 -45q78 0 124 33t46 88q0 59 -49 93t-142 34q-45 0 -65 -4l-17 98q244 35 244 139q0 92 -119 93q-90 0 -147 -52l-53 78q74 98 241 98q115 0 179.5 -52t64.5 -140q0 -121 -137 -184q82 -20 126 -74.5t44 -132.5q0 -104 -83 -170t-224 -66 q-158 0 -248 74zM313 -2l934 1382h156v-4l-932 -1382h-158v4zM924 176v100l368 515h168v-502h152v-113h-152v-176h-149v176h-387zM1073 289h238v338z" />
<glyph unicode="&#xbf;" horiz-adv-x="917" d="M66 0q0 139 89 247.5t291 192.5q2 84 17 197h155q12 -92 13 -256q-211 -98 -289 -179t-78 -188q0 -96 64.5 -155.5t171.5 -59.5q188 0 262 158l127 -66q-43 -119 -150.5 -186t-261.5 -67q-190 0 -300.5 99t-110.5 263zM403 915.5q0 57.5 40 96.5t97.5 39t96.5 -39 t39 -96.5t-39 -97.5t-96.5 -40t-97.5 40t-40 97.5z" />
<glyph unicode="&#xc0;" horiz-adv-x="1277" d="M20 0l529 1372h174l530 -1372h-209l-133 369h-563l-133 -369h-195zM313 1700l74 147l59 -28q152 -70 381 -217l-47 -103q-203 61 -418 176zM401 512h457l-229 625z" />
<glyph unicode="&#xc1;" horiz-adv-x="1277" d="M20 0l529 1372h174l530 -1372h-209l-133 369h-563l-133 -369h-195zM401 512h457l-229 625zM428 1602q221 141 381 217l61 28l72 -147l-49 -25q-219 -115 -416 -176z" />
<glyph unicode="&#xc2;" horiz-adv-x="1277" d="M20 0l529 1372h174l530 -1372h-209l-133 369h-563l-133 -369h-195zM303 1565q145 147 281 260h92q117 -96 280 -260l-77 -72q-123 68 -250 162q-121 -92 -248 -162zM401 512h457l-229 625z" />
<glyph unicode="&#xc3;" horiz-adv-x="1277" d="M20 0l529 1372h174l530 -1372h-209l-133 369h-563l-133 -369h-195zM295 1534q-12 117 45 183.5t143 66.5q63 0 166 -54.5t133 -54.5q63 0 78 109l107 -8q12 -115 -43.5 -182.5t-132.5 -67.5q-74 0 -178.5 55t-131.5 55q-66 0 -80 -108zM401 512h457l-229 625z" />
<glyph unicode="&#xc4;" horiz-adv-x="1277" d="M20 0l529 1372h174l530 -1372h-209l-133 369h-563l-133 -369h-195zM307 1638.5q0 49.5 36 84t83 34.5q49 0 83 -33.5t34 -85.5q0 -49 -34 -82.5t-83 -33.5q-47 0 -83 33.5t-36 83zM401 512h457l-229 625zM719 1638q0 51 33.5 85t83.5 34q47 0 82.5 -34.5t35.5 -84 t-35.5 -83t-82.5 -33.5q-49 0 -83 33.5t-34 82.5z" />
<glyph unicode="&#xc5;" horiz-adv-x="1277" d="M20 0l529 1372h174l530 -1372h-209l-133 369h-563l-133 -369h-195zM395 1689.5q0 90.5 67.5 151t168 60.5t168 -60.5t67.5 -151t-67.5 -152.5t-168 -62t-168 62t-67.5 152.5zM401 512h457l-229 625zM518 1690q0 -47 32 -79t81 -32t81.5 31.5t32.5 79.5q0 45 -31.5 74.5 t-82.5 29.5q-49 0 -81 -29.5t-32 -74.5z" />
<glyph unicode="&#xc6;" horiz-adv-x="1783" d="M16 0l553 1372h1053v-153h-604v-441h500v-145h-500v-481h690v-152h-874v453h-449l-174 -453h-195zM438 594h396v627h-156z" />
<glyph unicode="&#xc7;" horiz-adv-x="1232" d="M90 653q0 340 189.5 541t486.5 201q131 0 222 -32t177 -106l-82 -127q-133 100 -305 101q-217 0 -350 -145.5t-133 -423.5q0 -246 126 -380.5t339 -134.5q205 0 334 136l104 -97q-143 -195 -422 -206l-47 -107q84 -10 132 -59.5t48 -124.5q0 -92 -61.5 -149.5 t-157.5 -57.5q-115 0 -186 61l55 88q45 -29 103 -28q96 0 96 80q0 90 -131 90q-27 0 -52 -4l-4 4l95 209q-264 20 -420 198t-156 473z" />
<glyph unicode="&#xc8;" horiz-adv-x="1132" d="M176 0v1372h858v-153h-669v-441h538v-145h-538v-481h692v-152h-881zM307 1700l74 147l59 -28q152 -70 381 -217l-47 -103q-203 61 -418 176z" />
<glyph unicode="&#xc9;" horiz-adv-x="1132" d="M176 0v1372h858v-153h-669v-441h538v-145h-538v-481h692v-152h-881zM422 1602q221 141 381 217l61 28l72 -147l-49 -25q-219 -115 -416 -176z" />
<glyph unicode="&#xca;" horiz-adv-x="1132" d="M176 0v1372h858v-153h-669v-441h538v-145h-538v-481h692v-152h-881zM297 1565q145 147 281 260h92q117 -96 280 -260l-78 -72q-123 68 -249 162q-121 -92 -248 -162z" />
<glyph unicode="&#xcb;" horiz-adv-x="1132" d="M176 0v1372h858v-153h-669v-441h538v-145h-538v-481h692v-152h-881zM301 1638.5q0 49.5 36 84t83 34.5q49 0 83 -33.5t34 -85.5q0 -49 -34 -82.5t-83 -33.5q-47 0 -83 33.5t-36 83zM713 1638q0 51 33.5 85t82.5 34q47 0 83 -34.5t36 -84t-35.5 -83t-83.5 -33.5 q-49 0 -82.5 33.5t-33.5 82.5z" />
<glyph unicode="&#xcc;" horiz-adv-x="542" d="M-45 1700l74 147l59 -28q152 -70 381 -217l-47 -103q-203 61 -418 176zM178 0v1372h189v-1372h-189z" />
<glyph unicode="&#xcd;" horiz-adv-x="542" d="M70 1602q221 141 381 217l61 28l72 -147l-49 -25q-219 -115 -416 -176zM178 0v1372h189v-1372h-189z" />
<glyph unicode="&#xce;" horiz-adv-x="542" d="M-53 1565q145 147 280 260h92q117 -96 281 -260l-78 -72q-123 68 -250 162q-121 -92 -247 -162zM178 0v1372h189v-1372h-189z" />
<glyph unicode="&#xcf;" horiz-adv-x="542" d="M-49 1638.5q0 49.5 36 84t83 34.5q49 0 82.5 -33.5t33.5 -85.5q0 -49 -33.5 -82.5t-82.5 -33.5q-47 0 -83 33.5t-36 83zM178 0v1372h189v-1372h-189zM362 1638q0 51 34 85t83 34q47 0 83 -34.5t36 -84t-36 -83t-83 -33.5q-49 0 -83 33.5t-34 82.5z" />
<glyph unicode="&#xd0;" horiz-adv-x="1431" d="M66 631v147h180v594h399q334 0 514 -170t180 -491q0 -348 -181 -529.5t-521 -181.5h-391v631h-180zM434 145h178q258 0 393.5 137.5t135.5 407.5q0 264 -139.5 400.5t-393.5 136.5h-174v-449h344v-147h-344v-486z" />
<glyph unicode="&#xd1;" horiz-adv-x="1456" d="M176 0v1372h168l762 -1075l-2 1075h176v-1390h-166l-766 1087l4 -1069h-176zM399 1534q-12 117 45.5 183.5t143.5 66.5q63 0 165.5 -54.5t133.5 -54.5q63 0 78 109l106 -8q12 -115 -43 -182.5t-133 -67.5q-76 0 -180.5 55t-128.5 55q-66 0 -80 -108z" />
<glyph unicode="&#xd2;" horiz-adv-x="1443" d="M90 680q0 336 171 526.5t466 190.5q297 0 461 -180.5t164 -522.5q0 -336 -167 -527.5t-458 -191.5q-303 0 -470 180.5t-167 524.5zM291 694q0 -281 114.5 -422t323.5 -141q199 0 311.5 136t112.5 411q0 287 -112.5 426t-319.5 139q-203 0 -316.5 -137.5t-113.5 -411.5z M408 1700l73 147l60 -28q152 -70 381 -217l-48 -103q-203 61 -417 176z" />
<glyph unicode="&#xd3;" horiz-adv-x="1443" d="M90 680q0 336 171 526.5t466 190.5q297 0 461 -180.5t164 -522.5q0 -336 -167 -527.5t-458 -191.5q-303 0 -470 180.5t-167 524.5zM291 694q0 -281 114.5 -422t323.5 -141q199 0 311.5 136t112.5 411q0 287 -112.5 426t-319.5 139q-203 0 -316.5 -137.5t-113.5 -411.5z M522 1602q221 141 381 217l62 28l71 -147l-49 -25q-219 -115 -416 -176z" />
<glyph unicode="&#xd4;" horiz-adv-x="1443" d="M90 680q0 336 171 526.5t466 190.5q297 0 461 -180.5t164 -522.5q0 -336 -167 -527.5t-458 -191.5q-303 0 -470 180.5t-167 524.5zM291 694q0 -281 114.5 -422t323.5 -141q199 0 311.5 136t112.5 411q0 287 -112.5 426t-319.5 139q-203 0 -316.5 -137.5t-113.5 -411.5z M399 1565q145 147 281 260h92q117 -96 281 -260l-78 -72q-123 68 -250 162q-121 -92 -248 -162z" />
<glyph unicode="&#xd5;" horiz-adv-x="1443" d="M90 680q0 336 171 526.5t466 190.5q297 0 461 -180.5t164 -522.5q0 -336 -167 -527.5t-458 -191.5q-303 0 -470 180.5t-167 524.5zM291 694q0 -281 114.5 -422t323.5 -141q199 0 311.5 136t112.5 411q0 287 -112.5 426t-319.5 139q-203 0 -316.5 -137.5t-113.5 -411.5z M391 1534q-12 117 45.5 183.5t143.5 66.5q63 0 165.5 -54.5t133.5 -54.5q63 0 77 109l107 -8q12 -115 -43 -182.5t-133 -67.5q-76 0 -180.5 55t-128.5 55q-66 0 -80 -108z" />
<glyph unicode="&#xd6;" horiz-adv-x="1443" d="M90 680q0 336 171 526.5t466 190.5q297 0 461 -180.5t164 -522.5q0 -336 -167 -527.5t-458 -191.5q-303 0 -470 180.5t-167 524.5zM291 694q0 -281 114.5 -422t323.5 -141q199 0 311.5 136t112.5 411q0 287 -112.5 426t-319.5 139q-203 0 -316.5 -137.5t-113.5 -411.5z M403 1638.5q0 49.5 36 84t83 34.5q49 0 83 -33.5t34 -85.5q0 -49 -34 -82.5t-83 -33.5q-47 0 -83 33.5t-36 83zM815 1638q0 51 34 85t83 34q47 0 83 -34.5t36 -84t-36 -83t-83 -33.5q-49 0 -83 33.5t-34 82.5z" />
<glyph unicode="&#xd7;" horiz-adv-x="1130" d="M94 254l363 391l-363 391l115 109l356 -385l357 385l114 -109l-364 -391l364 -391l-114 -107l-357 381l-356 -381z" />
<glyph unicode="&#xd8;" horiz-adv-x="1443" d="M90 680q0 336 171 526.5t466 190.5q190 0 330 -86l119 178l116 -70l-129 -190q188 -193 189 -535q0 -336 -167 -527.5t-458 -191.5q-199 0 -340 86l-125 -188l-112 68l133 200q-193 189 -193 539zM289 694q0 -264 92 -403l584 880q-100 74 -244 74q-205 0 -318.5 -138.5 t-113.5 -412.5zM475 195q98 -66 254 -66q201 0 313.5 136t112.5 413q0 248 -94 393z" />
<glyph unicode="&#xd9;" horiz-adv-x="1390" d="M164 487v885h188v-860q0 -379 342 -379q344 0 344 379v860h189v-883q0 -512 -533 -512q-530 0 -530 510zM377 1700l74 147l59 -28q152 -70 381 -217l-47 -103q-203 61 -418 176z" />
<glyph unicode="&#xda;" horiz-adv-x="1390" d="M164 487v885h188v-860q0 -379 342 -379q344 0 344 379v860h189v-883q0 -512 -533 -512q-530 0 -530 510zM492 1602q221 141 380 217l62 28l72 -147l-50 -25q-219 -115 -415 -176z" />
<glyph unicode="&#xdb;" horiz-adv-x="1390" d="M164 487v885h188v-860q0 -379 342 -379q344 0 344 379v860h189v-883q0 -512 -533 -512q-530 0 -530 510zM367 1565q145 147 280 260h92q117 -96 281 -260l-78 -72q-123 68 -250 162q-121 -92 -248 -162z" />
<glyph unicode="&#xdc;" horiz-adv-x="1390" d="M164 487v885h188v-860q0 -379 342 -379q344 0 344 379v860h189v-883q0 -512 -533 -512q-530 0 -530 510zM371 1638.5q0 49.5 35.5 84t82.5 34.5q49 0 83 -33.5t34 -85.5q0 -49 -33.5 -82.5t-83.5 -33.5q-47 0 -82.5 33.5t-35.5 83zM782 1638q0 51 34 85t83 34 q47 0 83 -34.5t36 -84t-36 -83t-83 -33.5q-49 0 -83 33.5t-34 82.5z" />
<glyph unicode="&#xdd;" horiz-adv-x="1146" d="M0 1368v4h221l359 -655l358 655h209v-4l-477 -842v-526h-189v522zM371 1602q221 141 381 217l61 28l72 -147l-49 -25q-219 -115 -416 -176z" />
<glyph unicode="&#xde;" horiz-adv-x="1124" d="M176 0v1372h189v-242h196q500 0 500 -401q0 -199 -142.5 -320.5t-381.5 -121.5h-172v-287h-189zM365 436h172q152 0 237.5 76t85.5 205t-83 198.5t-240 69.5h-172v-549z" />
<glyph unicode="&#xdf;" horiz-adv-x="1187" d="M158 0v1130q0 193 120.5 296.5t311.5 103.5q166 0 266 -85t100 -231q0 -82 -36.5 -154.5t-80.5 -114.5t-81 -85t-37 -72q0 -31 28.5 -60.5t120.5 -92.5q131 -88 183.5 -164t52.5 -178q0 -147 -91 -229t-249 -82q-96 0 -182 40.5t-131 110.5l67 111q115 -102 232 -103 q76 0 119.5 39t43.5 107q0 53 -33.5 97t-119.5 101q-127 86 -168 142.5t-41 140.5q0 55 36 112.5t79 100.5t78.5 102.5t35.5 116.5q0 82 -57 131t-150 49q-115 0 -175 -65.5t-60 -186.5v-1128h-182z" />
<glyph unicode="&#xe0;" horiz-adv-x="1040" d="M88 262q0 215 182 279q143 57 432 53v127q0 174 -219 174q-168 0 -280 -68l-41 107q147 117 381 117q156 0 243.5 -76t87.5 -205v-770h-153q-8 47 -16 166q-90 -182 -308 -182q-143 0 -226 74.5t-83 203.5zM215 1487l107 117l47 -35q172 -150 309 -309l-68 -80 q-195 123 -354 270zM266 287q0 -156 174 -156q74 0 150 51t112 129v178q-240 -6 -325 -40q-111 -39 -111 -162z" />
<glyph unicode="&#xe1;" horiz-adv-x="1040" d="M88 262q0 215 182 279q143 57 432 53v127q0 174 -219 174q-168 0 -280 -68l-41 107q147 117 381 117q156 0 243.5 -76t87.5 -205v-770h-153q-8 47 -16 166q-90 -182 -308 -182q-143 0 -226 74.5t-83 203.5zM266 287q0 -156 174 -156q74 0 150 51t112 129v178 q-240 -6 -325 -40q-111 -39 -111 -162zM324 1260q137 160 309 309l47 35l106 -117l-41 -37q-160 -147 -354 -270z" />
<glyph unicode="&#xe2;" horiz-adv-x="1040" d="M88 262q0 215 182 279q143 57 432 53v127q0 174 -219 174q-168 0 -280 -68l-41 107q147 117 381 117q156 0 243.5 -76t87.5 -205v-770h-153q-8 47 -16 166q-90 -182 -308 -182q-143 0 -226 74.5t-83 203.5zM209 1247q90 129 262 318h78q174 -190 260 -318l-66 -73 q-86 68 -233 223q-166 -170 -234 -223zM266 287q0 -156 174 -156q74 0 150 51t112 129v178q-240 -6 -325 -40q-111 -39 -111 -162z" />
<glyph unicode="&#xe3;" horiz-adv-x="1040" d="M88 262q0 215 182 279q143 57 432 53v127q0 174 -219 174q-168 0 -280 -68l-41 107q147 117 381 117q156 0 243.5 -76t87.5 -205v-770h-153q-8 47 -16 166q-90 -182 -308 -182q-143 0 -226 74.5t-83 203.5zM184 1251q-12 117 43.5 183.5t141.5 66.5q63 0 159.5 -57.5 t126.5 -57.5q57 0 74 113l107 -6q12 -115 -42.5 -182.5t-129.5 -67.5q-74 0 -172.5 57.5t-124.5 57.5q-59 0 -76 -115zM266 287q0 -156 174 -156q74 0 150 51t112 129v178q-240 -6 -325 -40q-111 -39 -111 -162z" />
<glyph unicode="&#xe4;" horiz-adv-x="1040" d="M88 262q0 215 182 279q143 57 432 53v127q0 174 -219 174q-168 0 -280 -68l-41 107q147 117 381 117q156 0 243.5 -76t87.5 -205v-770h-153q-8 47 -16 166q-90 -182 -308 -182q-143 0 -226 74.5t-83 203.5zM213 1348q0 47 34 79.5t77 32.5q47 0 79.5 -32.5t32.5 -80 t-32.5 -79t-79.5 -31.5q-43 0 -77 33t-34 78zM266 287q0 -156 174 -156q74 0 150 51t112 129v178q-240 -6 -325 -40q-111 -39 -111 -162zM584 1347.5q0 47.5 32.5 80t79.5 32.5q43 0 77 -32.5t34 -79.5q0 -45 -34 -78t-77 -33q-47 0 -79.5 31.5t-32.5 79z" />
<glyph unicode="&#xe5;" horiz-adv-x="1040" d="M88 262q0 215 182 279q143 57 432 53v127q0 174 -219 174q-168 0 -280 -68l-41 107q147 117 381 117q156 0 243.5 -76t87.5 -205v-770h-153q-8 47 -16 166q-90 -182 -308 -182q-143 0 -226 74.5t-83 203.5zM266 287q0 -156 174 -156q74 0 150 51t112 129v178 q-240 -6 -325 -40q-111 -39 -111 -162zM279 1399q0 94 65.5 156.5t165.5 62.5t165.5 -62.5t65.5 -156.5q0 -96 -65.5 -158.5t-165.5 -62.5t-165.5 62.5t-65.5 158.5zM401 1399q0 -49 31 -84t78 -35q49 0 80 35t31 84t-31 80.5t-80 31.5q-47 0 -78 -32.5t-31 -79.5z" />
<glyph unicode="&#xe6;" horiz-adv-x="1630" d="M88 264q0 217 182 281q143 57 432 53v119q2 88 -53 133t-166 45q-168 0 -280 -68l-41 107q145 115 381 115q227 0 284 -168q102 164 322 163q213 0 309 -150.5t72 -404.5h-668v-10q0 -160 77 -249t206 -89q166 0 276 140l99 -70q-121 -229 -387 -229q-135 0 -235.5 59 t-145.5 164q-39 -98 -135.5 -159.5t-210.5 -61.5q-150 0 -234 75.5t-84 204.5zM266 287q0 -76 44 -117t126 -41q80 0 155 51t111 131v181q-227 -2 -325 -39q-111 -41 -111 -166zM870 604h486q8 295 -213 295q-109 0 -181 -74t-92 -221z" />
<glyph unicode="&#xe7;" horiz-adv-x="944" d="M80 481q0 252 136 404.5t357 152.5q199 0 316 -129l-80 -121q-109 96 -236 97q-135 0 -221 -101.5t-86 -291.5q0 -164 75 -255.5t204 -91.5q162 0 258 138l104 -72q-113 -205 -329 -227l-50 -111q84 -10 132.5 -59.5t48.5 -124.5q0 -92 -61.5 -149.5t-158.5 -57.5 q-115 0 -186 61l55 88q45 -29 103 -28q96 0 96 80q0 90 -131 90q-27 0 -51 -4l-4 4l96 213q-176 20 -281.5 152t-105.5 343z" />
<glyph unicode="&#xe8;" horiz-adv-x="1054" d="M90 471q0 270 131 421.5t336 151.5q223 0 323.5 -149.5t73.5 -400.5h-682v-15q0 -162 78 -250t219 -88q166 0 279 140l98 -70q-125 -229 -393 -229q-209 0 -336 129t-127 360zM262 1487l107 117l47 -35q172 -150 309 -309l-68 -80q-195 123 -354 270zM283 621h497 q0 279 -223 278q-106 0 -177.5 -69.5t-96.5 -208.5z" />
<glyph unicode="&#xe9;" horiz-adv-x="1054" d="M90 471q0 270 131 421.5t336 151.5q223 0 323.5 -149.5t73.5 -400.5h-682v-15q0 -162 78 -250t219 -88q166 0 279 140l98 -70q-125 -229 -393 -229q-209 0 -336 129t-127 360zM283 621h497q0 279 -223 278q-106 0 -177.5 -69.5t-96.5 -208.5zM371 1260q137 160 309 309 l47 35l107 -117l-41 -37q-160 -147 -355 -270z" />
<glyph unicode="&#xea;" horiz-adv-x="1054" d="M90 471q0 270 131 421.5t336 151.5q223 0 323.5 -149.5t73.5 -400.5h-682v-15q0 -162 78 -250t219 -88q166 0 279 140l98 -70q-125 -229 -393 -229q-209 0 -336 129t-127 360zM254 1247q90 129 262 318h78q174 -190 260 -318l-66 -73q-86 68 -233 223 q-166 -170 -233 -223zM283 621h497q0 279 -223 278q-106 0 -177.5 -69.5t-96.5 -208.5z" />
<glyph unicode="&#xeb;" horiz-adv-x="1054" d="M90 471q0 270 131 421.5t336 151.5q223 0 323.5 -149.5t73.5 -400.5h-682v-15q0 -162 78 -250t219 -88q166 0 279 140l98 -70q-125 -229 -393 -229q-209 0 -336 129t-127 360zM258 1348q0 47 34 79.5t77 32.5q47 0 79.5 -32.5t32.5 -80t-32.5 -79t-79.5 -31.5 q-43 0 -77 33t-34 78zM283 621h497q0 279 -223 278q-106 0 -177.5 -69.5t-96.5 -208.5zM629 1347.5q0 47.5 32.5 80t79.5 32.5q43 0 77 -32.5t34 -79.5q0 -45 -34 -78t-77 -33q-47 0 -79.5 31.5t-32.5 79z" />
<glyph unicode="&#xec;" horiz-adv-x="509" d="M-39 1487l107 117l47 -35q172 -150 309 -309l-68 -80q-195 123 -354 270zM164 0v1020h180v-1020h-180z" />
<glyph unicode="&#xed;" horiz-adv-x="509" d="M70 1260q137 160 309 309l47 35l106 -117l-40 -37q-160 -147 -355 -270zM164 0v1020h180v-1020h-180z" />
<glyph unicode="&#xee;" horiz-adv-x="509" d="M-45 1247q90 129 262 318h78q174 -190 260 -318l-66 -73q-86 68 -233 223q-166 -170 -233 -223zM164 0v1020h180v-1020h-180z" />
<glyph unicode="&#xef;" horiz-adv-x="509" d="M-41 1348q0 47 34 79.5t77 32.5q47 0 79.5 -32.5t32.5 -80t-32.5 -79t-79.5 -31.5q-43 0 -77 33t-34 78zM164 0v1020h180v-1020h-180zM330 1347.5q0 47.5 32.5 80t79.5 32.5q43 0 77 -32.5t34 -79.5q0 -45 -34 -78t-77 -33q-47 0 -79.5 31.5t-32.5 79z" />
<glyph unicode="&#xf0;" horiz-adv-x="1144" d="M92 492q0 215 137.5 351t339.5 136q123 0 207 -55q-59 160 -188 276l-316 -158l-43 88l273 138q-102 72 -242 135l64 123q184 -70 331 -180l240 118l43 -88l-201 -102q287 -274 287 -696q0 -295 -116.5 -449t-325.5 -154q-229 0 -359.5 136.5t-130.5 380.5zM281 506 q0 -184 78.5 -283.5t209.5 -99.5q125 0 197 101.5t72 318.5q0 141 -25 260q-90 51 -211 51q-150 0 -235.5 -88t-85.5 -260z" />
<glyph unicode="&#xf1;" horiz-adv-x="1173" d="M164 0v1020h162q10 -111 12 -141q113 174 334 174q156 0 251 -93.5t95 -248.5v-711h-180v674q0 217 -213 217q-178 0 -281 -162v-729h-180zM279 1251q-12 117 43 183.5t141 66.5q63 0 159.5 -57.5t127.5 -57.5q57 0 73 113l107 -6q12 -115 -42 -182.5t-130 -67.5 q-74 0 -172.5 57.5t-124.5 57.5q-59 0 -76 -115z" />
<glyph unicode="&#xf2;" d="M90 498q0 254 134 400t354 146q225 0 353 -133t128 -385q0 -250 -136.5 -397t-351.5 -147q-225 0 -353 135t-128 381zM279 524q0 -197 79.5 -295t219.5 -98q135 0 211.5 96.5t76.5 284.5q0 190 -77.5 288.5t-217.5 98.5q-133 0 -212.5 -95.5t-79.5 -279.5zM281 1487 l106 117l47 -35q172 -150 309 -309l-67 -80q-195 123 -354 270z" />
<glyph unicode="&#xf3;" d="M90 498q0 254 134 400t354 146q225 0 353 -133t128 -385q0 -250 -136.5 -397t-351.5 -147q-225 0 -353 135t-128 381zM279 524q0 -197 79.5 -295t219.5 -98q135 0 211.5 96.5t76.5 284.5q0 190 -77.5 288.5t-217.5 98.5q-133 0 -212.5 -95.5t-79.5 -279.5zM389 1260 q137 160 309 309l47 35l107 -117l-41 -37q-160 -147 -354 -270z" />
<glyph unicode="&#xf4;" d="M90 498q0 254 134 400t354 146q225 0 353 -133t128 -385q0 -250 -136.5 -397t-351.5 -147q-225 0 -353 135t-128 381zM274 1247q90 129 263 318h77q174 -190 260 -318l-65 -73q-86 68 -234 223q-166 -170 -233 -223zM279 524q0 -197 79.5 -295t219.5 -98 q135 0 211.5 96.5t76.5 284.5q0 190 -77.5 288.5t-217.5 98.5q-133 0 -212.5 -95.5t-79.5 -279.5z" />
<glyph unicode="&#xf5;" d="M90 498q0 254 134 400t354 146q225 0 353 -133t128 -385q0 -250 -136.5 -397t-351.5 -147q-225 0 -353 135t-128 381zM250 1251q-12 117 43 183.5t141 66.5q63 0 159.5 -57.5t127.5 -57.5q57 0 74 113l106 -6q12 -115 -42 -182.5t-130 -67.5q-74 0 -172 57.5t-125 57.5 q-59 0 -76 -115zM279 524q0 -197 79.5 -295t219.5 -98q135 0 211.5 96.5t76.5 284.5q0 190 -77.5 288.5t-217.5 98.5q-133 0 -212.5 -95.5t-79.5 -279.5z" />
<glyph unicode="&#xf6;" d="M90 498q0 254 134 400t354 146q225 0 353 -133t128 -385q0 -250 -136.5 -397t-351.5 -147q-225 0 -353 135t-128 381zM279 524q0 -197 79.5 -295t219.5 -98q135 0 211.5 96.5t76.5 284.5q0 190 -77.5 288.5t-217.5 98.5q-133 0 -212.5 -95.5t-79.5 -279.5zM279 1348 q0 47 33.5 79.5t76.5 32.5q47 0 80 -32.5t33 -80t-33 -79t-80 -31.5q-43 0 -76.5 33t-33.5 78zM649 1347.5q0 47.5 33 80t80 32.5q43 0 76.5 -32.5t33.5 -79.5q0 -45 -33.5 -78t-76.5 -33q-47 0 -80 31.5t-33 79z" />
<glyph unicode="&#xf7;" horiz-adv-x="1130" d="M70 606v152h991v-152h-991zM444 297q0 51 35 86t86 35t87 -35t36 -86t-36 -87t-87 -36t-86 36t-35 87zM444 1069q0 51 35 86t86 35t87 -35t36 -86t-36 -87t-87 -36t-86 36t-35 87z" />
<glyph unicode="&#xf8;" d="M90 498q0 254 134 400t354 146q135 0 243 -59l113 164l98 -64l-119 -170q145 -141 146 -389q0 -250 -136.5 -397t-351.5 -147q-145 0 -254 65l-108 -156l-98 62l116 168q-137 144 -137 377zM272 524q0 -164 52 -262l413 602q-70 41 -166 41q-137 0 -218 -96.5t-81 -284.5 zM401 170q68 -47 177 -47q139 0 217.5 99.5t78.5 289.5q0 168 -55 264z" />
<glyph unicode="&#xf9;" horiz-adv-x="1146" d="M158 307v713h178v-692q0 -104 43 -151.5t133 -47.5q86 0 164 48t127 132v711h180v-1020h-162q-10 78 -16 162q-111 -195 -332 -195q-152 0 -233.5 86t-81.5 254zM279 1487l106 117l47 -35q172 -150 309 -309l-67 -80q-195 123 -355 270z" />
<glyph unicode="&#xfa;" horiz-adv-x="1146" d="M158 307v713h178v-692q0 -104 43 -151.5t133 -47.5q86 0 164 48t127 132v711h180v-1020h-162q-10 78 -16 162q-111 -195 -332 -195q-152 0 -233.5 86t-81.5 254zM387 1260q137 160 309 309l47 35l107 -117l-41 -37q-160 -147 -354 -270z" />
<glyph unicode="&#xfb;" horiz-adv-x="1146" d="M158 307v713h178v-692q0 -104 43 -151.5t133 -47.5q86 0 164 48t127 132v711h180v-1020h-162q-10 78 -16 162q-111 -195 -332 -195q-152 0 -233.5 86t-81.5 254zM272 1247q90 129 263 318h77q174 -190 260 -318l-65 -73q-86 68 -234 223q-166 -170 -233 -223z" />
<glyph unicode="&#xfc;" horiz-adv-x="1146" d="M158 307v713h178v-692q0 -104 43 -151.5t133 -47.5q86 0 164 48t127 132v711h180v-1020h-162q-10 78 -16 162q-111 -195 -332 -195q-152 0 -233.5 86t-81.5 254zM276 1348q0 47 34 79.5t77 32.5q47 0 80 -32.5t33 -80t-33 -79t-80 -31.5q-43 0 -77 33t-34 78zM647 1347.5 q0 47.5 33 80t80 32.5q43 0 76.5 -32.5t33.5 -79.5q0 -45 -33.5 -78t-76.5 -33q-47 0 -80 31.5t-33 79z" />
<glyph unicode="&#xfd;" horiz-adv-x="1021" d="M27 1020h198l299 -801l285 801h186q-8 -18 -219 -584.5t-215 -574.5q-61 -164 -131 -227.5t-168 -63.5q-119 0 -201 61l27 117q53 -20 129 -20q102 0 156 104q10 23 69 168zM334 1260q137 160 309 309l47 35l107 -117l-41 -37q-160 -147 -355 -270z" />
<glyph unicode="&#xfe;" horiz-adv-x="1173" d="M164 -410v1913h180v-618q94 162 297 162q195 0 318.5 -135.5t123.5 -374.5q0 -250 -133 -399.5t-342 -149.5q-158 0 -264 69v-467h-180zM344 193q76 -55 227 -56q150 0 239 101.5t89 277.5q0 178 -82 276.5t-217 98.5q-80 0 -148.5 -44t-107.5 -124v-530z" />
<glyph unicode="&#xff;" horiz-adv-x="1021" d="M27 1020h198l299 -801l285 801h186q-8 -18 -219 -584.5t-215 -574.5q-61 -164 -131 -227.5t-168 -63.5q-119 0 -201 61l27 117q53 -20 129 -20q102 0 156 104q10 23 69 168zM223 1348q0 47 34 79.5t77 32.5q47 0 79.5 -32.5t32.5 -80t-32.5 -79t-79.5 -31.5q-43 0 -77 33 t-34 78zM594 1347.5q0 47.5 32.5 80t80.5 32.5q43 0 76.5 -32.5t33.5 -79.5q0 -45 -33.5 -78t-76.5 -33q-47 0 -80 31.5t-33 79z" />
<glyph unicode="&#x152;" horiz-adv-x="2060" d="M90 680q0 334 166 525.5t442 191.5q301 0 435 -215v190h829v-153h-668v-441h539v-145h-539v-481h691v-152h-852v209q-131 -233 -437 -234q-285 0 -445.5 181.5t-160.5 523.5zM291 694q0 -281 110.5 -422t311.5 -141q190 0 298.5 136t108.5 411q0 565 -415 565 q-195 0 -304.5 -137.5t-109.5 -411.5z" />
<glyph unicode="&#x153;" horiz-adv-x="1792" d="M90 498q0 254 131 400t344 146q287 0 379 -210q109 211 350 210q223 0 322.5 -149.5t75.5 -400.5h-682v-15q0 -162 77.5 -250t219.5 -88q166 0 278 140l98 -70q-125 -229 -393 -229q-264 0 -364 198q-49 -96 -145.5 -147t-219.5 -51q-221 0 -346 135t-125 381zM279 524 q0 -197 76.5 -295t211.5 -98q133 0 207 96.5t74 284.5q0 190 -76 288.5t-211 98.5q-129 0 -205.5 -95.5t-76.5 -279.5zM1020 621h498q0 279 -224 278q-106 0 -177.5 -69.5t-96.5 -208.5z" />
<glyph unicode="&#x178;" horiz-adv-x="1146" d="M0 1368v4h221l359 -655l358 655h209v-4l-477 -842v-526h-189v522zM252 1638.5q0 49.5 36 84t83 34.5q49 0 82.5 -33.5t33.5 -85.5q0 -49 -33.5 -82.5t-82.5 -33.5q-47 0 -83 33.5t-36 83zM664 1638q0 51 33.5 85t82.5 34q47 0 83 -34.5t36 -84t-36 -83t-83 -33.5 q-49 0 -82.5 33.5t-33.5 82.5z" />
<glyph unicode="&#x2c6;" horiz-adv-x="770" d="M84 1247q90 129 262 318h78q174 -190 260 -318l-66 -73q-86 68 -233 223q-166 -170 -233 -223z" />
<glyph unicode="&#x2dc;" horiz-adv-x="770" d="M59 1251q-12 117 43.5 183.5t141.5 66.5q63 0 159.5 -57.5t126.5 -57.5q57 0 74 113l107 -6q12 -115 -42.5 -182.5t-129.5 -67.5q-74 0 -172.5 57.5t-124.5 57.5q-59 0 -76 -115z" />
<glyph unicode="&#x2000;" horiz-adv-x="950" />
<glyph unicode="&#x2001;" horiz-adv-x="1900" />
<glyph unicode="&#x2002;" horiz-adv-x="950" />
<glyph unicode="&#x2003;" horiz-adv-x="1900" />
<glyph unicode="&#x2004;" horiz-adv-x="632" />
<glyph unicode="&#x2005;" horiz-adv-x="475" />
<glyph unicode="&#x2006;" horiz-adv-x="315" />
<glyph unicode="&#x2007;" horiz-adv-x="315" />
<glyph unicode="&#x2008;" horiz-adv-x="237" />
<glyph unicode="&#x2009;" horiz-adv-x="378" />
<glyph unicode="&#x200a;" horiz-adv-x="104" />
<glyph unicode="&#x2010;" horiz-adv-x="702" d="M88 471v143h526v-143h-526z" />
<glyph unicode="&#x2011;" horiz-adv-x="702" d="M88 471v143h526v-143h-526z" />
<glyph unicode="&#x2012;" horiz-adv-x="702" d="M88 471v143h526v-143h-526z" />
<glyph unicode="&#x2013;" horiz-adv-x="1093" d="M72 481v135h948v-135h-948z" />
<glyph unicode="&#x2014;" horiz-adv-x="1794" d="M72 481v135h1648v-135h-1648z" />
<glyph unicode="&#x2018;" horiz-adv-x="352" d="M45 1204q0 238 197 373l82 -74q-106 -119 -107 -289v-192h-164q-8 80 -8 182z" />
<glyph unicode="&#x2019;" horiz-adv-x="352" d="M29 1057q106 119 106 289v192h164q8 -80 8 -182q0 -238 -196 -373z" />
<glyph unicode="&#x201a;" horiz-adv-x="352" d="M29 -250q106 119 106 289v192h164q8 -80 8 -182q0 -238 -196 -373z" />
<glyph unicode="&#x201c;" horiz-adv-x="671" d="M45 1204q0 238 197 373l82 -74q-106 -119 -107 -289v-192h-164q-8 80 -8 182zM365 1204q0 238 196 373l82 -74q-106 -119 -106 -289v-192h-164q-8 80 -8 182z" />
<glyph unicode="&#x201d;" horiz-adv-x="671" d="M29 1057q106 119 106 289v192h164q8 -80 8 -182q0 -238 -196 -373zM348 1057q106 119 107 289v192h163q8 -80 9 -182q0 -238 -197 -373z" />
<glyph unicode="&#x201e;" horiz-adv-x="671" d="M29 -250q106 119 106 289v192h164q8 -80 8 -182q0 -238 -196 -373zM348 -250q106 119 107 289v192h163q8 -80 9 -182q0 -238 -197 -373z" />
<glyph unicode="&#x2022;" horiz-adv-x="753" d="M115 548.5q0 110.5 75.5 187.5t186.5 77q109 0 186.5 -77t77.5 -187.5t-77 -186t-187.5 -75.5t-186 75.5t-75.5 186z" />
<glyph unicode="&#x2026;" horiz-adv-x="1683" d="M102 118.5q0 57.5 39 97.5t96.5 40t97.5 -40t40 -97.5t-40 -96t-97.5 -38.5t-96.5 38.5t-39 96zM705 118.5q0 57.5 38.5 97.5t96 40t97.5 -40t40 -97.5t-40 -96t-97.5 -38.5t-96 38.5t-38.5 96zM1307 118.5q0 57.5 38.5 97.5t96 40t97.5 -40t40 -97.5t-40 -96 t-97.5 -38.5t-96 38.5t-38.5 96z" />
<glyph unicode="&#x202f;" horiz-adv-x="378" />
<glyph unicode="&#x2039;" horiz-adv-x="548" d="M63 526v4l234 441h178l-233 -445l233 -448h-178z" />
<glyph unicode="&#x203a;" horiz-adv-x="548" d="M72 78l233 448l-233 445h178l233 -441v-4l-233 -448h-178z" />
<glyph unicode="&#x205f;" horiz-adv-x="475" />
<glyph unicode="&#x20ac;" horiz-adv-x="1251" d="M72 483v117h161v53q0 86 9 152h-170v117h194q59 223 210 348t355 125q209 0 353 -138l-78 -114q-121 102 -264 102q-139 0 -241.5 -83t-147.5 -240h458v-117h-483q-8 -59 -8 -143q0 -43 2 -62h489v-117h-475q35 -168 136.5 -258t252.5 -90q174 0 291 135l96 -84 q-135 -209 -407 -209q-221 0 -369.5 133.5t-187.5 372.5h-176z" />
<glyph unicode="&#x2122;" horiz-adv-x="1587" d="M27 1362v111h571v-111h-221v-610h-129v610h-221zM662 752l51 721h170l188 -539l186 539h175l53 -721h-121l-43 565l-193 -565h-118l-195 563l-37 -563h-116z" />
<glyph unicode="&#xe000;" horiz-adv-x="1020" d="M0 1020h1020v-1020h-1020v1020z" />
<glyph unicode="&#xfb01;" horiz-adv-x="1118" d="M43 879v120q86 20 176 21v121q0 182 110.5 283.5t286.5 101.5q170 0 289 -62l-43 -125q-96 37 -207 37q-254 0 -254 -246v-110h574v-1020h-182v883h-392v-883h-182v879h-176z" />
<glyph unicode="&#xfb02;" horiz-adv-x="1169" d="M43 879v120q86 20 176 21v123q0 180 98.5 281.5t262.5 101.5q74 0 122 -13v-145q-27 6 -81 6q-111 0 -165.5 -57t-54.5 -187v-110h281v-141h-281v-879h-182v879h-176zM823 0v1503h183v-1503h-183z" />
<glyph unicode="&#xfb03;" horiz-adv-x="1718" d="M43 879v120q86 20 176 21v121q0 180 95.5 282.5t250.5 102.5q127 0 213 -45l-37 -125q-70 18 -137 18q-205 0 -205 -244v-110h424v121q0 182 109.5 283.5t286.5 101.5q166 0 288 -62l-43 -125q-98 37 -209 37q-254 0 -254 -246v-110h574v-1020h-180v883h-394v-883h-178 v883h-424v-883h-180v879h-176z" />
<glyph unicode="&#xfb04;" horiz-adv-x="1771" d="M43 879v120q86 20 176 21v123q0 180 95.5 281.5t250.5 101.5q133 0 213 -45l-37 -125q-57 18 -137 18q-205 0 -205 -244v-110h424v123q0 182 97.5 282.5t261.5 100.5q74 0 123 -13v-145q-27 6 -80 6q-113 0 -167 -57t-54 -187v-110h280v-141h-280v-879h-181v883h-424 v-883h-180v879h-176zM1425 0v1503h183v-1503h-183z" />
</font>
</defs>
</svg>
