<?xml version="1.0" standalone="no"?>
<!DOCTYPE svg PUBLIC "-//W3C//DTD SVG 1.1//EN" "http://www.w3.org/Graphics/SVG/1.1/DTD/svg11.dtd" >
<svg xmlns="http://www.w3.org/2000/svg">
<metadata>
This is a custom SVG webfont generated by Font Squirrel.
Copyright   : 2010 Commercial Type All rights reserved Licensed for exclusive use by Apollo Group and its subsidiaries
Designer    : Dan Milne
Foundry     : Commercial Type
Foundry URL : httpcommercialtypecom
</metadata>
<defs>
<font id="PhoenixSansBlackItalic" horiz-adv-x="1449" >
<font-face units-per-em="2048" ascent="1638" descent="-410" />
<missing-glyph horiz-adv-x="434" />
<glyph unicode=" "  horiz-adv-x="434" />
<glyph unicode="&#x09;" horiz-adv-x="434" />
<glyph unicode="&#xa0;" horiz-adv-x="434" />
<glyph unicode="!" horiz-adv-x="679" d="M47 198.5q0 94.5 67.5 159t166 64.5t166 -64.5t67.5 -159t-67.5 -159t-166 -64.5t-166 64.5t-67.5 159zM145 502q57 532 86 702l29 168h432l-33 -196q-10 -66 -35.5 -170.5t-67.5 -267.5t-60 -236h-351z" />
<glyph unicode="&#x22;" horiz-adv-x="1028" d="M190 950q0 242 62 594h369q-57 -342 -136 -594h-295zM672 950q0 233 59 594h371q-57 -342 -135 -594h-295z" />
<glyph unicode="#" horiz-adv-x="1257" d="M-16 330l73 256h213l60 207h-213l76 256h213l96 323h274l-96 -323h164l96 323h272l-96 -323h215l-74 -256h-215l-61 -207h217l-76 -256h-215l-96 -330h-276l96 330h-162l-96 -330h-275l97 330h-211zM545 586h162l61 207h-164z" />
<glyph unicode="$" horiz-adv-x="1122" d="M-35 156l166 241q70 -55 182 -88l119 264q-152 61 -220.5 152.5t-68.5 222.5q0 213 162 331t418 118q27 0 80 -4l96 215l162 -70l-82 -184q115 -39 180 -101l-168 -237q-57 45 -131 69l-115 -254q170 -68 242 -156.5t72 -230.5q0 -219 -161 -344t-433 -125q-63 0 -111 9 l-102 -234l-162 66l94 209q-127 49 -219 131zM487 281q98 0 147.5 31.5t49.5 86.5q0 66 -92 113zM489 1001q0 -61 93 -106l98 221q-191 -6 -191 -115z" />
<glyph unicode="%" horiz-adv-x="1765" d="M72 926q0 197 116.5 334t307.5 137q147 0 240 -94.5t93 -260.5q0 -211 -123.5 -340t-295.5 -129q-150 0 -244 94.5t-94 258.5zM225 -2l1100 1382h285v-4l-1100 -1382h-285v4zM362 940q0 -45 19.5 -70.5t50.5 -25.5q49 0 81 51t32 135q0 45 -19.5 70.5t-50.5 25.5 q-55 0 -84 -58t-29 -128zM997 328q2 197 119 335t305 136q147 0 241.5 -94.5t94.5 -258.5q0 -211 -125 -341t-297 -130q-147 0 -242.5 94.5t-95.5 258.5zM1288 342q0 -45 20.5 -70.5t51.5 -25.5q47 0 78.5 51t31.5 137q0 94 -69 94q-55 0 -84 -57t-29 -129z" />
<glyph unicode="&#x26;" horiz-adv-x="1388" d="M16 340q0 279 338 434q-94 147 -94 279q0 150 117 247t338 97q193 0 307.5 -85t114.5 -229q0 -121 -84 -204.5t-260 -151.5l135 -180q53 102 76 219h337q-27 -279 -215 -483l211 -279v-4h-413l-66 86q-166 -113 -362 -113q-223 0 -351.5 101.5t-128.5 265.5zM406 414 q0 -70 44 -111t128 -41q59 0 124 35l-213 287q-83 -74 -83 -170zM608 1053q0 -59 56 -144q72 41 101.5 80t29.5 92q0 37 -21.5 60.5t-62.5 23.5q-51 0 -77 -33.5t-26 -78.5z" />
<glyph unicode="'" horiz-adv-x="546" d="M190 950q0 242 62 594h369q-57 -342 -136 -594h-295z" />
<glyph unicode="(" horiz-adv-x="763" d="M119 399q0 438 159.5 757t411.5 517l205 -188q-195 -203 -306.5 -460t-111.5 -624q0 -360 158 -708l-258 -146q-258 393 -258 852z" />
<glyph unicode=")" horiz-adv-x="763" d="M-100 -266q197 207 307 463t110 622q0 360 -155 709l256 145q258 -393 258 -852q0 -438 -160 -756.5t-412 -517.5z" />
<glyph unicode="*" horiz-adv-x="925" d="M121 1094l39 16q109 45 260 55q-139 45 -232 113l-34 25l149 204l35 -28q90 -74 168 -199q-25 152 -6 256l6 45h246l-7 -45q-18 -115 -100 -274q121 113 225 159l43 19l91 -236l-39 -18q-90 -43 -260 -58q143 -47 231 -110l35 -27l-150 -200l-35 28q-92 72 -178 205 q25 -158 10 -268l-8 -45h-245l6 45q12 106 96 264q-125 -106 -209 -141l-43 -19z" />
<glyph unicode="+" horiz-adv-x="1161" d="M47 508l57 348h359l61 379h353l-62 -379h356l-57 -348h-356l-62 -379h-352l62 379h-359z" />
<glyph unicode="," horiz-adv-x="542" d="M-113 -125q61 68 96 139.5t54 184.5l33 202h368q4 -109 -14 -204q-31 -164 -112 -278t-224 -212z" />
<glyph unicode="-" horiz-adv-x="774" d="M80 387l53 330h584l-55 -330h-582z" />
<glyph unicode="." horiz-adv-x="585" d="M0 217q0 100 69.5 171t170 71t171 -70t70.5 -172q0 -100 -70.5 -171t-171 -71t-170 71t-69.5 171z" />
<glyph unicode="/" horiz-adv-x="901" d="M-162 -455l883 2003h360l-886 -2003h-357z" />
<glyph unicode="0" horiz-adv-x="1318" d="M78 539q0 223 73.5 413.5t232.5 317.5t376 127q258 2 397 -139.5t139 -417.5q0 -391 -196.5 -622.5t-487.5 -231.5q-260 0 -397 145.5t-137 407.5zM506 504q0 -211 112 -211q63 0 122 93t92.5 228.5t33.5 262.5q0 117 -27.5 166t-84.5 49q-96 0 -172 -193.5t-76 -394.5z " />
<glyph unicode="1" horiz-adv-x="708" d="M66 1276l311 96h362l-229 -1372h-418l172 1036l-137 -37z" />
<glyph unicode="2" horiz-adv-x="1091" d="M-31 0l41 252q295 248 418 361.5t171 183t46 137.5q0 53 -35 84t-100 31q-109 0 -193 -105l-186 182q66 109 193 190t301 81q209 0 331.5 -107.5t122.5 -292.5q0 -176 -121.5 -324.5t-422.5 -365.5h479l-56 -307h-989z" />
<glyph unicode="3" horiz-adv-x="1024" d="M-49 94l104 252q125 -55 254 -55q94 0 153.5 38t59.5 105q0 137 -213 137q-25 0 -90 -4l19 242q352 14 352 160q0 49 -35 77.5t-94 28.5q-106 0 -211 -61l-115 211q74 76 191.5 124t261.5 48q197 0 311.5 -90t114.5 -256q0 -221 -262 -320q213 -72 213 -307 q0 -197 -158 -323t-418 -126q-254 0 -438 119z" />
<glyph unicode="4" horiz-adv-x="1265" d="M6 219l45 270l678 883h451l-144 -864h211l-49 -289h-211l-35 -219h-379l37 219h-604zM397 508h260l74 444z" />
<glyph unicode="5" horiz-adv-x="997" d="M-55 76l104 262q119 -49 244 -49q104 0 165.5 46t61.5 124q0 156 -284 155q-68 0 -119 -6l170 764h733l-53 -317h-443l-41 -172q221 -2 345 -103.5t124 -292.5q0 -233 -165.5 -372.5t-426.5 -139.5q-249 1 -415 101z" />
<glyph unicode="6" horiz-adv-x="1189" d="M63 475q0 393 294 643t763 264l31 -258q-420 -51 -590 -323q96 51 221 51q176 0 276.5 -97.5t100.5 -269.5q0 -229 -153.5 -369.5t-425.5 -140.5q-244 0 -380.5 140.5t-136.5 359.5zM463 424q0 -76 28.5 -120t81.5 -44q68 0 116 60.5t48 152.5q0 129 -123 129 q-68 0 -141 -43q-10 -72 -10 -135z" />
<glyph unicode="7" horiz-adv-x="1060" d="M78 0v4l547 1040h-521l56 328h966l-51 -309l-545 -1063h-452z" />
<glyph unicode="8" horiz-adv-x="1216" d="M29 338q0 262 329 360q-176 131 -176 310q0 170 136.5 279.5t394.5 109.5q229 0 356 -95.5t127 -257.5q0 -207 -242 -311q111 -72 161 -147.5t50 -186.5q0 -195 -159.5 -309.5t-438.5 -114.5q-252 0 -395 102.5t-143 260.5zM449 373q0 -53 37.5 -88t99.5 -35 q68 0 111.5 36t43.5 93q0 55 -34.5 94t-106.5 78q-151 -61 -151 -178zM567 1034q0 -51 30 -86t99 -74q117 68 117 164q0 51 -30.5 82t-84.5 31q-61 0 -96 -34t-35 -83z" />
<glyph unicode="9" horiz-adv-x="1200" d="M90 887q0 227 150.5 367.5t410.5 140.5q256 0 395.5 -140.5t139.5 -369.5q0 -397 -295 -642t-760 -255l-29 258q406 70 570 317q-86 -43 -203 -43q-178 0 -278.5 97.5t-100.5 269.5zM508 899q0 -129 121 -129q72 0 139 41q10 68 10 127q0 78 -31.5 125t-87.5 47 q-66 0 -108.5 -59.5t-42.5 -151.5z" />
<glyph unicode=":" horiz-adv-x="614" d="M14 217q0 100 70 171t170 71q102 0 172 -70t70 -172q0 -100 -71 -171t-171 -71t-170 71t-70 171zM117 839.5q0 100.5 70.5 171t171 70.5t171 -69.5t70.5 -171.5q0 -100 -70.5 -170t-171 -70t-171 69.5t-70.5 170z" />
<glyph unicode=";" horiz-adv-x="614" d="M-74 -125q61 68 96 139.5t54 184.5l33 202h368q4 -109 -14 -204q-31 -164 -112 -278t-224 -212zM115 839.5q0 100.5 69.5 171t170 70.5t171 -69.5t70.5 -171.5q0 -100 -70.5 -171t-171 -71t-170 70.5t-69.5 171z" />
<glyph unicode="&#x3c;" horiz-adv-x="872" d="M47 537l51 290l850 433l-63 -375l-445 -215l373 -219l-61 -357z" />
<glyph unicode="=" horiz-adv-x="1083" d="M18 244l56 325h950l-55 -325h-951zM104 752l54 325h948l-53 -325h-949z" />
<glyph unicode="&#x3e;" horiz-adv-x="872" d="M-18 94l63 375l442 217l-370 217l59 357l705 -443l-50 -293z" />
<glyph unicode="?" horiz-adv-x="1083" d="M125 1161q193 236 528 236q211 0 327 -100.5t116 -266.5q0 -295 -408 -412q-10 -39 -35 -116h-319q6 119 22 274q166 43 241 88t75 109q0 96 -131 96q-123 0 -262 -108zM211 198.5q0 94.5 68.5 159t164.5 64.5q98 0 167 -64.5t69 -159t-68.5 -159t-167.5 -64.5 q-96 0 -164.5 64.5t-68.5 159z" />
<glyph unicode="@" horiz-adv-x="1947" d="M57 457q0 276 130 503.5t356.5 355.5t500.5 128q401 0 634 -200t233 -556q0 -266 -157 -448.5t-398 -182.5q-133 0 -217 49.5t-111 122.5q-41 -76 -108.5 -121t-131.5 -45q-117 0 -194.5 91.5t-77.5 251.5q0 256 128 420.5t314 164.5q121 0 166 -92q29 49 47 74h275 q-6 -39 -34 -190.5t-43 -252t-17 -153.5q0 -66 61 -66q84 0 142.5 101.5t58.5 267.5q0 250 -152.5 382t-417.5 132q-299 0 -494.5 -205t-195.5 -532q0 -309 170 -465t477 -156q295 0 492 166l156 -176q-231 -252 -648 -252q-451 0 -697.5 227.5t-246.5 655.5zM864 465 q0 -106 66 -107q53 0 96 84l43 260q-29 16 -61 17q-59 0 -100.5 -74t-43.5 -180z" />
<glyph unicode="A" horiz-adv-x="1439" d="M-94 0l706 1372h475l285 -1372h-442l-35 223h-438l-101 -223h-450zM586 526h270l-65 441z" />
<glyph unicode="B" horiz-adv-x="1298" d="M12 0l232 1372h549q229 0 350 -90t121 -254q0 -111 -64.5 -190.5t-183.5 -118.5q225 -72 225 -307q0 -180 -144.5 -296t-385.5 -116h-699zM469 264h121q92 0 145 49t53 125q0 139 -180 140h-86zM561 815h101q82 0 129 46t47 118q0 66 -38 96.5t-124 30.5h-66z" />
<glyph unicode="C" horiz-adv-x="1191" d="M70 584q0 219 88 401t267 296t421 114q268 0 426 -123l-185 -287q-98 66 -225 66q-168 0 -261 -125t-93 -308q0 -133 70.5 -204.5t189.5 -71.5q121 0 258 76l102 -301q-176 -139 -434 -140q-297 0 -460.5 166.5t-163.5 440.5z" />
<glyph unicode="D" horiz-adv-x="1390" d="M12 0l230 1372h460q305 0 487.5 -150.5t182.5 -437.5q0 -162 -52 -302t-152.5 -248.5t-261.5 -171t-363 -62.5h-531zM481 309h68q168 0 279.5 129t111.5 346q0 137 -64.5 208t-187.5 71h-82z" />
<glyph unicode="E" horiz-adv-x="1191" d="M12 0l230 1372h1013l-51 -309h-596l-37 -219h473l-49 -293h-473l-41 -240h613l-52 -311h-1030z" />
<glyph unicode="F" horiz-adv-x="1122" d="M12 0l230 1372h966l-53 -309h-547l-47 -281h424l-53 -323h-426l-76 -459h-418z" />
<glyph unicode="G" horiz-adv-x="1406" d="M70 571q0 346 235.5 585t616.5 239q293 0 477 -135l-187 -289q-129 80 -288 80q-195 0 -305.5 -126t-110.5 -319q0 -139 66.5 -214t187.5 -75q90 0 178 35l33 187h-211l41 241h567l-43 -241h-2l-94 -553h-264q-10 76 -11 145q-137 -154 -348 -154q-240 0 -389 163 t-149 431z" />
<glyph unicode="H" horiz-adv-x="1411" d="M12 0l230 1372h417l-84 -504h371l84 504h416l-229 -1372h-416l90 543h-371l-90 -543h-418z" />
<glyph unicode="I" horiz-adv-x="622" d="M12 0l230 1372h417l-229 -1372h-418z" />
<glyph unicode="J" horiz-adv-x="966" d="M-80 96l131 295q98 -53 201 -53q80 0 126 48t64 153l142 833h420l-144 -850q-47 -283 -171 -415t-357 -132q-246 0 -412 121z" />
<glyph unicode="K" horiz-adv-x="1353" d="M12 0l230 1372h417l-84 -498l441 498h457v-4l-521 -567l324 -797l-2 -4h-455l-201 508l-126 -139l-62 -369h-418z" />
<glyph unicode="L" horiz-adv-x="1116" d="M12 0l230 1372h417l-176 -1044h543l-55 -328h-959z" />
<glyph unicode="M" horiz-adv-x="1757" d="M-2 0l311 1372h422l154 -743l399 743h436l-133 -1372h-387l80 764l-397 -764h-183l-153 756l-164 -756h-385z" />
<glyph unicode="N" horiz-adv-x="1476" d="M12 0l230 1372h422l329 -829l140 829h380l-229 -1374h-418l-336 815l-135 -813h-383z" />
<glyph unicode="O" d="M70 559q0 373 208.5 605.5t546.5 232.5q281 0 444 -161t163 -427q0 -375 -207 -603.5t-547 -228.5q-293 0 -450.5 157t-157.5 425zM520 543q0 -256 162 -256q133 0 215 171t82 373q0 256 -162 256q-90 0 -159.5 -87t-103.5 -208.5t-34 -248.5z" />
<glyph unicode="P" horiz-adv-x="1294" d="M12 0l230 1372h501q276 0 418 -112.5t142 -327.5q0 -252 -168 -398.5t-445 -146.5h-196l-64 -387h-418zM537 645h98q106 0 167.5 79t61.5 196q0 182 -172 182h-78z" />
<glyph unicode="Q" d="M70 535q0 383 217 622.5t557 239.5q274 0 433 -152.5t159 -408.5q0 -285 -122 -492t-333 -299q125 -51 311 -104v-2l-147 -254q-139 35 -272.5 111.5t-225.5 180.5q-281 6 -429 156t-148 402zM520 537q0 -250 158 -250q90 0 161.5 88t106.5 212t35 249q0 252 -160 251 q-133 0 -217 -173.5t-84 -376.5z" />
<glyph unicode="R" horiz-adv-x="1343" d="M12 0l230 1372h549q547 0 546 -414q0 -305 -284 -432l204 -522v-4h-440l-147 451h-164l-76 -451h-418zM549 707h119q104 0 165.5 66.5t61.5 166.5q0 162 -164 162h-117z" />
<glyph unicode="S" horiz-adv-x="1132" d="M-25 156l189 276q55 -47 142 -84t175 -37q172 0 172 95q0 39 -25.5 63.5t-99.5 54.5q-12 0 -69 29q-305 129 -305 395q0 207 156.5 328t387.5 121q168 0 288 -42t179 -102l-186 -270q-113 92 -266 92q-72 0 -114 -22.5t-42 -61.5q0 -31 20.5 -51t69.5 -41l21 -10 q23 -8 44 -17.5t23 -9.5q180 -74 257 -170t77 -248q0 -217 -154.5 -343t-406.5 -126q-332 1 -533 181z" />
<glyph unicode="T" horiz-adv-x="1171" d="M115 1044l55 328h1116l-55 -328h-350l-174 -1044h-416l174 1044h-350z" />
<glyph unicode="U" horiz-adv-x="1402" d="M96 537l142 835h415l-135 -813q-8 -48 -8 -87q0 -178 168 -177q166 0 211 264l137 813h416l-139 -835q-92 -561 -631 -562q-295 0 -459 141q-127 109 -127 302q-1 56 10 119z" />
<glyph unicode="V" horiz-adv-x="1355" d="M139 1372h439l122 -837l367 837h436l-659 -1374h-445z" />
<glyph unicode="W" horiz-adv-x="1892" d="M125 1372h422l123 -790l204 495l-45 295h396l88 -797l319 797h396l-615 -1372h-358l-101 623l-266 -623h-319z" />
<glyph unicode="X" horiz-adv-x="1390" d="M-80 0l2 4l551 692l-287 672v4h451l137 -371l268 371h453v-4l-512 -645l320 -719v-4h-449l-166 416l-309 -416h-459z" />
<glyph unicode="Y" horiz-adv-x="1267" d="M109 1368v4h432l151 -465l293 465h442v-4l-581 -864l-86 -504h-418l86 500z" />
<glyph unicode="Z" horiz-adv-x="1175" d="M-49 0l47 270l711 783h-545l57 319h1034l-47 -266l-735 -787h610l-55 -319h-1077z" />
<glyph unicode="[" horiz-adv-x="778" d="M2 -367l326 2001h600l-39 -248h-273l-243 -1505h270l-39 -248h-602z" />
<glyph unicode="\" horiz-adv-x="901" d="M84 1548h328l374 -2003h-329z" />
<glyph unicode="]" horiz-adv-x="774" d="M-111 -367l39 248h271l245 1505h-268l39 248h600l-323 -2001h-603z" />
<glyph unicode="^" horiz-adv-x="1009" d="M-57 625v4l454 743h351l215 -743v-4h-357l-80 368l-196 -368h-387z" />
<glyph unicode="_" horiz-adv-x="1007" d="M-135 -397l49 295h977l-49 -295h-977z" />
<glyph unicode="`" horiz-adv-x="860" d="M256 1374l174 277l55 -37q76 -47 188.5 -135t180.5 -154l-139 -195q-244 102 -410 213z" />
<glyph unicode="a" horiz-adv-x="1200" d="M37 373q0 289 144.5 493.5t383.5 204.5q152 0 232 -104q10 37 28 82h375l-176 -1049h-387q0 45 8 160q-117 -178 -293 -178q-147 0 -231 108.5t-84 282.5zM459 397q0 -123 82 -123q68 0 133 88l71 414q-33 18 -77 19q-92 0 -150.5 -125.5t-58.5 -272.5z" />
<glyph unicode="b" horiz-adv-x="1224" d="M4 0l252 1503h410l-101 -590q117 162 318 162q143 0 224 -103.5t81 -283.5q0 -301 -137.5 -501.5t-386.5 -200.5q-180 0 -256 104q-20 -47 -48 -90h-356zM459 283q41 -20 96 -21q102 0 155.5 122t53.5 273q0 125 -88 125q-80 0 -146 -80z" />
<glyph unicode="c" horiz-adv-x="980" d="M37 459q0 252 173 435t462 183q219 0 342 -131l-172 -233q-68 47 -172 47q-100 0 -171 -75t-71 -200q0 -86 49 -133t135 -47q104 0 197 66l104 -248q-63 -61 -163.5 -104.5t-214.5 -43.5q-223 0 -360.5 128.5t-137.5 355.5z" />
<glyph unicode="d" horiz-adv-x="1218" d="M41 369q0 178 60.5 335.5t185.5 262t288 104.5q156 0 226 -86l86 518h409l-252 -1503h-389q0 61 11 158q-117 -176 -297 -176q-154 0 -241 107.5t-87 279.5zM463 399q0 -125 90 -125q70 0 141 86l70 414q-35 20 -84 21q-102 0 -159.5 -115t-57.5 -281z" />
<glyph unicode="e" horiz-adv-x="1103" d="M37 438q0 270 157.5 453.5t426.5 183.5q225 0 338.5 -111.5t113.5 -318.5q0 -102 -29 -196h-604q-2 -82 42 -125t136 -43q135 0 273 98l139 -186q-76 -90 -200.5 -150.5t-278.5 -60.5q-244 0 -379 120.5t-135 335.5zM473 666h219q2 17 2 53q0 119 -78 119 q-102 0 -143 -172z" />
<glyph unicode="f" horiz-adv-x="790" d="M47 0l135 801h-125l39 227q47 18 129 21l8 49q70 430 480 430q174 0 276 -49l-61 -244q-53 8 -105 8q-86 0 -127 -31.5t-55 -117.5l-8 -45h217l-41 -248h-217l-135 -801h-410z" />
<glyph unicode="g" horiz-adv-x="1206" d="M-16 -315l94 247q139 -72 291 -71q231 0 268 223l12 80q-119 -164 -278.5 -164t-244.5 106.5t-85 278.5q0 174 56.5 326.5t179 256t288.5 103.5q164 0 238 -98q2 6 12 34.5t16 41.5h377l-168 -1006q-45 -270 -196.5 -377.5t-417.5 -107.5q-133 0 -257 41t-185 86z M463 416q0 -123 82 -123q74 0 141 82l68 401q-37 18 -84 19q-94 0 -150.5 -122t-56.5 -257z" />
<glyph unicode="h" horiz-adv-x="1202" d="M6 0l252 1503h408l-99 -585q111 166 297 165q160 0 236 -112q53 -79 53 -199q0 -52 -10 -113l-111 -659h-409l108 653q4 19 4 36q0 75 -80 75q-74 0 -127 -74l-114 -690h-408z" />
<glyph unicode="i" horiz-adv-x="589" d="M6 0l176 1049h410l-178 -1049h-408zM203 1335q0 90 65.5 150.5t163.5 60.5q96 0 164 -61.5t68 -149.5q0 -90 -67 -150.5t-165 -60.5t-163.5 60.5t-65.5 150.5z" />
<glyph unicode="j" horiz-adv-x="591" d="M-332 -373l74 250q53 -16 102 -16q74 0 113 38t55 132l170 1018h410l-172 -1031q-43 -250 -149.5 -355t-309.5 -105q-162 -1 -293 69zM201 1335q0 90 65.5 150.5t163.5 60.5q96 0 164 -61.5t68 -149.5q0 -90 -67 -150.5t-165 -60.5t-163.5 60.5t-65.5 150.5z" />
<glyph unicode="k" horiz-adv-x="1183" d="M4 0l252 1503h412l-138 -801l310 347h393v-5l-373 -417l254 -623v-4h-414l-141 369l-106 -121l-41 -248h-408z" />
<glyph unicode="l" horiz-adv-x="587" d="M4 0l252 1503h410l-252 -1503h-410z" />
<glyph unicode="m" horiz-adv-x="1808" d="M4 0l176 1049h387q-6 -111 -8 -146q117 180 305 180q109 0 179.5 -53t93.5 -151q133 205 338 204q162 0 236 -112q51 -77 51 -194q0 -54 -11 -118l-113 -659h-411l110 653q3 20 4 36q0 75 -71 75q-72 0 -127 -72q0 -4 -1 -8t-1 -8l-117 -676h-410l111 653q3 19 3 35 q0 76 -73 76q-74 0 -127 -74l-118 -690h-406z" />
<glyph unicode="n" horiz-adv-x="1202" d="M6 0l172 1049h389l-10 -146q115 180 307 180q158 0 234 -112q53 -79 53 -199q0 -52 -10 -113l-109 -659h-409l108 653q4 19 4 36q0 75 -80 75q-74 0 -127 -74l-114 -690h-408z" />
<glyph unicode="o" horiz-adv-x="1177" d="M37 428q0 281 166 463t440 182q233 0 365.5 -117.5t132.5 -318.5q0 -287 -161 -471t-445 -184q-238 0 -368 121.5t-130 324.5zM455 391q0 -139 90 -139q76 0 128 132t52 286q0 139 -90 139q-74 0 -127 -133t-53 -285z" />
<glyph unicode="p" horiz-adv-x="1226" d="M-63 -410l241 1459h389q-6 -104 -8 -142q123 168 320 168q143 0 225 -106.5t82 -278.5q0 -297 -139.5 -500.5t-391.5 -203.5q-137 0 -231 86l-80 -482h-407zM459 281q31 -20 82 -21q106 0 164.5 108.5t58.5 284.5q0 129 -92 129q-76 0 -144 -80z" />
<glyph unicode="q" horiz-adv-x="1216" d="M41 369q0 279 145.5 490.5t388.5 211.5q150 0 248 -106q0 2 47 84h349l-246 -1459h-410l92 551q-113 -160 -305 -159q-145 0 -227 105.5t-82 281.5zM465 399q0 -127 86 -127q76 0 141 80l72 420q-37 23 -82 23q-104 0 -160.5 -115t-56.5 -281z" />
<glyph unicode="r" horiz-adv-x="907" d="M2 0l178 1049h387q-4 -121 -14 -209q117 236 293 235q76 0 112 -24l-94 -375q-61 12 -100 12q-170 0 -258 -127l-96 -561h-408z" />
<glyph unicode="s" horiz-adv-x="974" d="M-41 152l160 225q133 -119 272 -119q102 0 103 61q0 25 -20.5 40.5t-72.5 33.5l-84 33q-236 88 -235 293q0 172 127 264t323 92q276 0 429 -157l-164 -197q-109 100 -242 100q-94 0 -94 -53q0 -20 16.5 -34.5t63.5 -28.5l71 -25q154 -51 223.5 -129t69.5 -199 q0 -172 -132 -271t-331 -99q-305 0 -483 170z" />
<glyph unicode="t" horiz-adv-x="800" d="M57 803l39 225q61 18 127 21q53 201 66 239h344l-45 -239h254l-41 -246h-260l-76 -406q-2 -13 -2 -24q0 -68 86 -68q61 0 121 25l45 -215q-57 -55 -153.5 -94t-190.5 -39q-170 0 -244 98q-52 69 -52 170q0 42 9 90l88 463h-115z" />
<glyph unicode="u" horiz-adv-x="1212" d="M70 399l108 650h412l-111 -639q-3 -18 -2 -33q0 -78 72 -78q74 0 125 74l117 676h407l-176 -1049h-387q0 84 8 160q-51 -80 -133 -132.5t-176 -52.5q-158 0 -230 108q-47 71 -47 186q0 59 13 130z" />
<glyph unicode="v" horiz-adv-x="1103" d="M70 1049h428l59 -555l223 555h432l-546 -1051h-371z" />
<glyph unicode="w" horiz-adv-x="1568" d="M82 1049h377l49 -523l237 523h238l111 -519l180 519h362l-424 -1051h-313l-108 479l-218 -479h-356z" />
<glyph unicode="x" horiz-adv-x="1169" d="M-94 0l389 539l-191 510h428l82 -287l168 287h437l-342 -504l210 -545h-434l-100 299l-193 -299h-454z" />
<glyph unicode="y" horiz-adv-x="1110" d="M-106 -383l79 246q68 -10 131.5 -10t106.5 26.5t80 100.5l-232 1069h426l64 -566l221 566h432l-528 -1063q-129 -258 -236.5 -343t-269.5 -85q-159 0 -274 59z" />
<glyph unicode="z" horiz-adv-x="991" d="M-27 0l41 252l492 532h-383l45 265h842l-41 -252l-494 -533h430l-45 -264h-887z" />
<glyph unicode="{" horiz-adv-x="827" d="M39 479l47 283q102 14 146 65.5t57 169.5q0 2 13 117t13 119q29 246 194 341t470 83l-43 -256q-156 -2 -217.5 -51.5t-71.5 -178.5q-20 -201 -24 -225q-18 -141 -90 -223t-230 -117q238 -88 213 -309q-4 -41 -27.5 -138.5t-27.5 -123.5q-20 -98 27 -145.5t186 -67.5 l-45 -256q-293 23 -413 135.5t-95 284.5q4 45 27.5 137t29.5 135q18 98 -12.5 150.5t-126.5 70.5z" />
<glyph unicode="|" horiz-adv-x="763" d="M250 -522v2232h334v-2232h-334z" />
<glyph unicode="}" horiz-adv-x="813" d="M-129 -434l41 256q156 2 218.5 51t72.5 178q6 100 22 225q18 139 90 222.5t230 117.5q-242 90 -211 310q4 43 27.5 142t27.5 120q18 98 -28 145t-185 68l45 256q291 -23 411 -135.5t97 -284.5q-6 -43 -28.5 -134t-30.5 -138q-16 -100 13.5 -150.5t125.5 -71.5l-47 -280 q-102 -16 -145.5 -67.5t-57.5 -170.5q0 -2 -13.5 -116.5t-13.5 -118.5q-29 -244 -192.5 -340t-468.5 -84z" />
<glyph unicode="~" horiz-adv-x="1095" d="M14 408q25 176 118 292.5t235 116.5q96 0 196 -61q96 -61 147.5 -61.5t89.5 37.5t56 99l225 -100q-25 -176 -118 -292.5t-236 -116.5q-88 0 -192 67q-90 57 -150 57q-51 0 -89 -38.5t-58 -100.5z" />
<glyph unicode="&#xa1;" horiz-adv-x="679" d="M-27 -313l33 196q10 66 36 170.5t68 267t60 236.5h350q-57 -532 -86 -702l-28 -168h-433zM152 860q0 94 67.5 158.5t165.5 64.5t165.5 -64.5t67.5 -158.5t-67.5 -158.5t-165.5 -64.5t-165.5 64.5t-67.5 158.5z" />
<glyph unicode="&#xa2;" horiz-adv-x="989" d="M57 571q0 248 162 419t445 171q41 0 79 -6l99 229l174 -55l-103 -231q76 -43 134 -113l-132 -197q-53 41 -114 62l-197 -453h41q111 0 209 62l68 -217q-152 -137 -353 -138q-29 0 -82 5l-102 -236l-172 55l96 230q-252 114 -252 413zM401 602q0 -86 50 -139l176 405 q-100 -12 -163 -81.5t-63 -184.5z" />
<glyph unicode="&#xa3;" horiz-adv-x="1091" d="M8 0l43 274q184 115 232 271h-172l45 266h135q-12 102 -12 150q0 211 139 323.5t368 112.5q225 0 344 -82l-118 -258q-88 31 -174 30q-96 0 -148.5 -48t-52.5 -130q0 -41 4 -98h324l-43 -266h-279q-41 -156 -244 -248h643l-47 -297h-987z" />
<glyph unicode="&#xa5;" horiz-adv-x="1255" d="M57 295l31 190h330l18 115h-327l30 188h215l-182 580v4h391l125 -518l287 518h399v-4l-356 -580h199l-31 -188h-330l-18 -115h329l-30 -190h-330l-49 -295h-420l49 295h-330z" />
<glyph unicode="&#xa6;" horiz-adv-x="763" d="M250 465h334v-987h-334v987zM250 743v967h334v-967h-334z" />
<glyph unicode="&#xa7;" horiz-adv-x="1161" d="M18 -135l156 215q143 -123 287 -123q43 0 70.5 16.5t27.5 44.5q0 27 -20.5 44.5t-69.5 37.5l-86 37q-178 76 -250 159t-72 202q0 102 73 180t206 113q-125 96 -125 251q0 166 132 260.5t335 94.5q283 0 442 -160l-163 -188q-102 88 -261 88q-102 0 -102 -54 q-2 -23 18.5 -39t69.5 -36l90 -35q176 -70 252 -153t76 -206q0 -231 -275 -301q135 -96 136 -252q0 -186 -129 -283t-328 -97q-168 0 -294 55t-196 129zM449 563q0 -76 106 -121l35 -14q123 35 123 119q0 82 -105 125l-35 12q-124 -39 -124 -121z" />
<glyph unicode="&#xa8;" horiz-adv-x="860" d="M129 1347.5q0 77.5 59.5 135t135.5 57.5q84 0 139 -56.5t55 -135.5q0 -82 -55 -137.5t-139 -55.5q-76 0 -135.5 57.5t-59.5 135zM592 1348q0 80 56.5 136t139.5 56q76 0 135.5 -57.5t59.5 -135t-59.5 -135t-135.5 -57.5q-84 0 -140 55.5t-56 137.5z" />
<glyph unicode="&#xa9;" horiz-adv-x="1656" d="M74 688q0 332 223 555t555 223q336 0 560 -223t224 -555t-224 -555t-560 -223q-332 0 -555 223t-223 555zM279 688q0 -256 163.5 -427t409.5 -171q248 0 413 171t165 427t-165 427t-413 171q-246 0 -409.5 -171t-163.5 -427zM473 678q0 201 119 319.5t305 118.5 q131 0 229 -67l-73 -205q-55 33 -131 33q-160 0 -160 -185q0 -82 43 -124t119 -42q72 0 133 39l84 -194q-102 -94 -269 -95q-182 0 -290.5 108t-108.5 294z" />
<glyph unicode="&#xaa;" horiz-adv-x="946" d="M88 834q0 229 115.5 396t308.5 167q113 0 178 -74l19 55h311l-141 -839h-318q0 51 6 118q-92 -133 -227 -133q-119 0 -185.5 85.5t-66.5 224.5zM442 870q0 -88 58 -88q43 0 92 62l49 293q-29 16 -55 16q-63 0 -103.5 -89.5t-40.5 -193.5z" />
<glyph unicode="&#xab;" horiz-adv-x="1095" d="M25 520v4l280 447h365l-293 -449l153 -444h-346zM502 520v4l282 447h367l-301 -449l143 -444h-344z" />
<glyph unicode="&#xad;" horiz-adv-x="774" d="M80 387l53 330h584l-55 -330h-582z" />
<glyph unicode="&#xae;" horiz-adv-x="1118" d="M129 1116q0 225 151.5 378t378.5 153q229 0 382 -153t153 -378t-152.5 -377.5t-382.5 -152.5q-227 0 -378.5 152.5t-151.5 377.5zM268 1116q0 -172 112 -288.5t279.5 -116.5t280.5 116.5t113 288.5t-113 289t-280.5 117t-279.5 -117t-112 -289zM457 866v518h215 q207 0 207 -163q0 -96 -82 -150l98 -203v-2h-166l-78 174h-47v-174h-147zM604 1157h49q63 0 64 55q0 51 -64 52h-49v-107z" />
<glyph unicode="&#xaf;" horiz-adv-x="860" d="M207 1200l43 250h649l-43 -250h-649z" />
<glyph unicode="&#xb0;" horiz-adv-x="753" d="M160 1204q0 139 95 235.5t236.5 96.5t234.5 -94t93 -234q0 -143 -95 -238.5t-235 -95.5q-141 0 -235 94.5t-94 235.5zM373 1204.5q0 -57.5 31.5 -95.5t84.5 -38q51 0 85 39t34 96.5t-32.5 95t-83.5 37.5q-53 0 -86 -38.5t-33 -96z" />
<glyph unicode="&#xb1;" horiz-adv-x="1132" d="M-20 6l49 311h975l-50 -311h-974zM94 700l51 312h318l51 303h340l-51 -303h317l-51 -312h-317l-52 -305h-340l52 305h-318z" />
<glyph unicode="&#xb2;" horiz-adv-x="1091" d="M-31 0l41 252q295 248 418 361.5t171 183t46 137.5q0 53 -35 84t-100 31q-109 0 -193 -105l-186 182q66 109 193 190t301 81q209 0 331.5 -107.5t122.5 -292.5q0 -176 -121.5 -324.5t-422.5 -365.5h479l-56 -307h-989z" />
<glyph unicode="&#xb3;" horiz-adv-x="1024" d="M-49 94l104 252q125 -55 254 -55q94 0 153.5 38t59.5 105q0 137 -213 137q-25 0 -90 -4l19 242q352 14 352 160q0 49 -35 77.5t-94 28.5q-106 0 -211 -61l-115 211q74 76 191.5 124t261.5 48q197 0 311.5 -90t114.5 -256q0 -221 -262 -320q213 -72 213 -307 q0 -197 -158 -323t-418 -126q-254 0 -438 119z" />
<glyph unicode="&#xb4;" horiz-adv-x="860" d="M272 1317q70 66 186.5 154t196.5 137l54 32l161 -264l-51 -33q-225 -137 -420 -213z" />
<glyph unicode="&#xb6;" horiz-adv-x="1302" d="M125 918q0 207 138 330.5t360 123.5h698l-4 -26l-264 -1571h-265l222 1333h-174l-95 -578h-4l-125 -755h-264l127 760q-172 18 -261 122.5t-89 260.5z" />
<glyph unicode="&#xb7;" horiz-adv-x="598" d="M74 673.5q0 100.5 69.5 171t170 70.5t171 -70.5t70.5 -171t-70.5 -171t-171 -70.5t-170 70.5t-69.5 171z" />
<glyph unicode="&#xb8;" horiz-adv-x="860" d="M-39 -496l107 154q47 -33 112 -33q94 0 94 60q-2 66 -122 65q-33 0 -50 -2l-2 2l193 330l131 -43l-80 -139q195 -43 195 -215q0 -117 -92.5 -187.5t-223.5 -70.5q-156 -1 -262 79z" />
<glyph unicode="&#xb9;" horiz-adv-x="708" d="M66 1276l311 96h362l-229 -1372h-418l172 1036l-137 -37z" />
<glyph unicode="&#xba;" horiz-adv-x="952" d="M96 883q0 223 133 368.5t353 145.5q186 0 290.5 -94.5t104.5 -255.5q0 -227 -128 -375t-353 -148q-193 0 -296.5 98.5t-103.5 260.5zM442 866q0 -100 66 -100q51 0 88 94t37 201q0 100 -64 100q-51 0 -89 -94.5t-38 -200.5z" />
<glyph unicode="&#xbb;" horiz-adv-x="1091" d="M-57 78l301 448l-144 445h344l150 -443v-4l-285 -446h-366zM424 78l293 446l-154 447h346l160 -443v-4l-281 -446h-364z" />
<glyph unicode="&#xbc;" horiz-adv-x="1722" d="M100 -2l1155 1503h299v-4l-1153 -1503h-301v4zM135 1430l256 63h250l-135 -817h-326l94 575l-104 -18zM797 123l32 194l410 500h367l-82 -489h133l-35 -205h-131l-21 -121h-296l18 121h-395zM1087 328h140l37 223z" />
<glyph unicode="&#xbd;" horiz-adv-x="1732" d="M82 -2l1155 1503h299v-4l-1153 -1503h-301v4zM135 1430l256 63h250l-135 -817h-326l94 575l-104 -18zM903 0l29 180q207 152 277.5 225.5t70.5 122.5q0 23 -15.5 38.5t-45.5 15.5q-47 0 -103 -50l-125 134q119 166 350 165q119 0 207 -60t88 -187q0 -176 -321 -365h307 l-39 -219h-680z" />
<glyph unicode="&#xbe;" horiz-adv-x="1822" d="M72 735l69 185q80 -29 160 -29q111 0 111 57q0 51 -111 51q-43 0 -72 -2l17 174q111 8 149.5 22.5t42.5 45.5q0 37 -69 37q-68 0 -125 -29l-82 154q123 109 325 108q135 0 215 -54t80 -142q0 -139 -174 -201q150 -51 150 -184q0 -125 -110.5 -195.5t-254.5 -70.5 q-208 -1 -321 73zM215 -2l1155 1503h299v-4l-1153 -1503h-301v4zM899 123l33 194l409 500h367l-82 -489h133l-35 -205h-131l-20 -121h-297l18 121h-395zM1190 328h139l37 223z" />
<glyph unicode="&#xbf;" horiz-adv-x="1083" d="M-2 29q0 295 408 411q23 84 34 117h320q-6 -119 -23 -274q-166 -43 -240.5 -88t-74.5 -109q0 -96 131 -96q123 0 262 108l154 -200q-193 -236 -529 -236q-211 0 -326.5 100.5t-115.5 266.5zM414 860q0 94 68.5 158.5t166.5 64.5q96 0 165 -64.5t69 -158.5t-69 -158.5 t-165 -64.5q-98 0 -166.5 64.5t-68.5 158.5z" />
<glyph unicode="&#xc0;" horiz-adv-x="1439" d="M-94 0l706 1372h475l285 -1372h-442l-35 223h-438l-101 -223h-450zM541 1612l110 291l62 -25q82 -33 224 -105.5t224 -125.5l-80 -205q-94 16 -250.5 64t-234.5 83zM586 526h270l-65 441z" />
<glyph unicode="&#xc1;" horiz-adv-x="1439" d="M-94 0l706 1372h475l285 -1372h-442l-35 223h-438l-101 -223h-450zM571 1647q162 109 455 229l59 27l109 -289l-55 -23q-84 -37 -242 -85t-252 -64zM586 526h270l-65 441z" />
<glyph unicode="&#xc2;" horiz-adv-x="1439" d="M-94 0l706 1372h475l285 -1372h-442l-35 223h-438l-101 -223h-450zM496 1583q213 205 288 264h238q117 -125 213 -272l-152 -141q-90 53 -206 145q-143 -86 -259 -145zM586 526h270l-65 441z" />
<glyph unicode="&#xc3;" horiz-adv-x="1439" d="M-94 0l706 1372h475l285 -1372h-442l-35 223h-438l-101 -223h-450zM473 1487q18 160 89 245t173 85q74 0 150 -33q92 -35 112 -35q49 0 76 72l191 -23q-18 -160 -87 -245t-167 -85q-68 0 -154 35q-82 33 -117 33q-51 0 -75 -72zM586 526h270l-65 441z" />
<glyph unicode="&#xc4;" horiz-adv-x="1439" d="M-94 0l706 1372h475l285 -1372h-442l-35 223h-438l-101 -223h-450zM444 1649q0 80 59.5 137t139.5 57q84 0 138.5 -56t54.5 -138t-54.5 -139.5t-138.5 -57.5q-80 0 -139.5 58.5t-59.5 138.5zM586 526h270l-65 441zM913 1649q0 80 56.5 137t140.5 57q78 0 137.5 -57 t59.5 -137t-59.5 -138.5t-137.5 -58.5q-84 0 -140.5 57.5t-56.5 139.5z" />
<glyph unicode="&#xc5;" horiz-adv-x="1439" d="M-94 0l706 1372h475l285 -1372h-442l-35 223h-438l-101 -223h-450zM586 526h270l-65 441zM598 1694q0 121 83 198.5t208 77.5q117 0 191.5 -69.5t74.5 -180.5q0 -119 -84 -198.5t-207 -79.5q-117 0 -191.5 70.5t-74.5 181.5zM788 1700q0 -39 23 -64.5t59 -25.5 q39 0 68 29.5t29 72.5q0 37 -24.5 63.5t-61.5 26.5q-39 0 -66 -28.5t-27 -73.5z" />
<glyph unicode="&#xc6;" horiz-adv-x="1886" d="M-115 0l713 1372h1346l-54 -311h-538l-37 -221h432l-47 -293h-432l-39 -238h586l-52 -309h-1005l51 313h-338l-149 -313h-437zM604 604h254l76 463h-113z" />
<glyph unicode="&#xc7;" horiz-adv-x="1191" d="M70 584q0 219 88 401t267 296t421 114q268 0 426 -123l-185 -287q-98 66 -225 66q-168 0 -261 -125t-93 -308q0 -133 70.5 -204.5t189.5 -71.5q121 0 258 76l102 -301q-176 -139 -434 -140q-33 0 -47 3l-47 -82q195 -43 195 -215q0 -117 -92.5 -187.5t-223.5 -70.5 q-156 0 -262 79l107 154q47 -33 112 -33q94 0 94 60q-2 66 -122 65q-33 0 -50 -2l-2 2l146 250q-209 49 -320.5 204t-111.5 380z" />
<glyph unicode="&#xc8;" horiz-adv-x="1191" d="M12 0l230 1372h1013l-51 -309h-596l-37 -219h473l-49 -293h-473l-41 -240h613l-52 -311h-1030zM465 1612l110 291l62 -25q82 -33 224.5 -105.5t223.5 -125.5l-79 -205q-94 16 -251 64t-235 83z" />
<glyph unicode="&#xc9;" horiz-adv-x="1191" d="M12 0l230 1372h1013l-51 -309h-596l-37 -219h473l-49 -293h-473l-41 -240h613l-52 -311h-1030zM487 1647q162 109 455 229l59 27l109 -289l-55 -23q-84 -37 -242 -85t-252 -64z" />
<glyph unicode="&#xca;" horiz-adv-x="1191" d="M12 0l230 1372h1013l-51 -309h-596l-37 -219h473l-49 -293h-473l-41 -240h613l-52 -311h-1030zM395 1583q213 205 289 264h238q117 -125 213 -272l-152 -141q-90 53 -207 145q-143 -86 -258 -145z" />
<glyph unicode="&#xcb;" horiz-adv-x="1191" d="M12 0l230 1372h1013l-51 -309h-596l-37 -219h473l-49 -293h-473l-41 -240h613l-52 -311h-1030zM348 1649q0 80 59.5 137t139.5 57q84 0 138 -56t54 -138t-54 -139.5t-138 -57.5q-80 0 -139.5 58.5t-59.5 138.5zM817 1649q0 80 56.5 137t140.5 57q78 0 137 -57t59 -137 t-59 -138.5t-137 -58.5q-84 0 -140.5 57.5t-56.5 139.5z" />
<glyph unicode="&#xcc;" horiz-adv-x="622" d="M12 0l230 1372h417l-229 -1372h-418zM160 1612l110 291l62 -25q82 -33 224 -105.5t224 -125.5l-80 -205q-94 16 -250.5 64t-234.5 83z" />
<glyph unicode="&#xcd;" horiz-adv-x="622" d="M12 0l230 1372h417l-229 -1372h-418zM180 1647q162 109 455 229l59 27l109 -289l-55 -23q-84 -37 -242 -85t-252 -64z" />
<glyph unicode="&#xce;" horiz-adv-x="622" d="M12 0l230 1372h417l-229 -1372h-418zM102 1583q213 205 289 264h238q117 -125 213 -272l-152 -141q-90 53 -207 145q-143 -86 -258 -145z" />
<glyph unicode="&#xcf;" horiz-adv-x="622" d="M12 0l230 1372h417l-229 -1372h-418zM37 1649q0 80 59.5 137t139.5 57q84 0 138 -56t54 -138t-54.5 -139.5t-137.5 -57.5q-80 0 -139.5 58.5t-59.5 138.5zM506 1649q0 80 56 137t140 57q78 0 137.5 -57t59.5 -137t-59.5 -138.5t-137.5 -58.5q-84 0 -140 57.5t-56 139.5z " />
<glyph unicode="&#xd0;" horiz-adv-x="1441" d="M14 535l54 315h135l88 522h461q305 0 487 -150.5t182 -437.5q0 -162 -52 -302t-152.5 -248.5t-261 -171t-363.5 -62.5h-531l89 535h-136zM530 309h68q168 0 279.5 129t111.5 346q0 137 -64.5 208t-187.5 71h-80l-36 -213h174l-52 -315h-176z" />
<glyph unicode="&#xd1;" horiz-adv-x="1476" d="M12 0l230 1372h422l329 -829l140 829h380l-229 -1374h-418l-336 815l-135 -813h-383zM524 1487q18 160 89 245t173 85q74 0 150 -33q92 -35 113 -35q49 0 75 72l191 -23q-18 -160 -87 -245t-167 -85q-68 0 -154 35q-82 33 -116 33q-51 0 -76 -72z" />
<glyph unicode="&#xd2;" d="M70 559q0 373 208.5 605.5t546.5 232.5q281 0 444 -161t163 -427q0 -375 -207 -603.5t-547 -228.5q-293 0 -450.5 157t-157.5 425zM520 543q0 -256 162 -256q133 0 215 171t82 373q0 256 -162 256q-90 0 -159.5 -87t-103.5 -208.5t-34 -248.5zM535 1612l110 291l62 -25 q82 -33 224 -105.5t224 -125.5l-80 -205q-94 16 -250.5 64t-234.5 83z" />
<glyph unicode="&#xd3;" d="M70 559q0 373 208.5 605.5t546.5 232.5q281 0 444 -161t163 -427q0 -375 -207 -603.5t-547 -228.5q-293 0 -450.5 157t-157.5 425zM520 543q0 -256 162 -256q133 0 215 171t82 373q0 256 -162 256q-90 0 -159.5 -87t-103.5 -208.5t-34 -248.5zM602 1647q162 109 455 229 l59 27l109 -289l-56 -23q-84 -37 -241.5 -85t-251.5 -64z" />
<glyph unicode="&#xd4;" d="M70 559q0 373 208.5 605.5t546.5 232.5q281 0 444 -161t163 -427q0 -375 -207 -603.5t-547 -228.5q-293 0 -450.5 157t-157.5 425zM485 1583q213 205 289 264h238q117 -125 213 -272l-152 -141q-90 53 -207 145q-143 -86 -258 -145zM520 543q0 -256 162 -256 q133 0 215 171t82 373q0 256 -162 256q-90 0 -159.5 -87t-103.5 -208.5t-34 -248.5z" />
<glyph unicode="&#xd5;" d="M70 559q0 373 208.5 605.5t546.5 232.5q281 0 444 -161t163 -427q0 -375 -207 -603.5t-547 -228.5q-293 0 -450.5 157t-157.5 425zM485 1487q18 160 89 245t174 85q74 0 149 -33q92 -35 113 -35q49 0 75 72l191 -23q-18 -160 -87 -245t-167 -85q-68 0 -154 35 q-82 33 -116 33q-51 0 -76 -72zM520 543q0 -256 162 -256q133 0 215 171t82 373q0 256 -162 256q-90 0 -159.5 -87t-103.5 -208.5t-34 -248.5z" />
<glyph unicode="&#xd6;" d="M70 559q0 373 208.5 605.5t546.5 232.5q281 0 444 -161t163 -427q0 -375 -207 -603.5t-547 -228.5q-293 0 -450.5 157t-157.5 425zM436 1649q0 80 59.5 137t139.5 57q84 0 138 -56t54 -138t-54 -139.5t-138 -57.5q-80 0 -139.5 58.5t-59.5 138.5zM520 543 q0 -256 162 -256q133 0 215 171t82 373q0 256 -162 256q-90 0 -159.5 -87t-103.5 -208.5t-34 -248.5zM905 1649q0 80 56.5 137t140.5 57q78 0 137 -57t59 -137t-59 -138.5t-137 -58.5q-84 0 -140.5 57.5t-56.5 139.5z" />
<glyph unicode="&#xd7;" horiz-adv-x="1157" d="M16 362l340 318l-237 328l289 223l217 -299l319 299l219 -248l-342 -319l240 -326l-291 -223l-217 297l-317 -297z" />
<glyph unicode="&#xd8;" d="M8 31l158 176q-96 143 -96 352q0 373 208.5 605.5t546.5 232.5q188 0 328 -76l166 184l178 -162l-164 -184q98 -145 99 -350q0 -375 -207 -603.5t-547 -228.5q-199 0 -332 72l-164 -182zM487 543l449 526q-41 35 -105 35q-102 0 -183 -89t-120 -215t-41 -257zM561 305 q41 -39 109 -39q152 0 247 177.5t97 385.5z" />
<glyph unicode="&#xd9;" horiz-adv-x="1402" d="M96 537l142 835h415l-135 -813q-45 -264 160 -264q166 0 211 264l137 813h416l-139 -835q-92 -561 -631 -562q-295 0 -459 140.5t-117 421.5zM539 1612l110 291l62 -25q82 -33 224 -105.5t224 -125.5l-80 -205q-94 16 -250.5 64t-234.5 83z" />
<glyph unicode="&#xda;" horiz-adv-x="1402" d="M96 537l142 835h415l-135 -813q-45 -264 160 -264q166 0 211 264l137 813h416l-139 -835q-92 -561 -631 -562q-295 0 -459 140.5t-117 421.5zM559 1647q162 109 455 229l59 27l109 -289l-56 -23q-84 -37 -241.5 -85t-251.5 -64z" />
<glyph unicode="&#xdb;" horiz-adv-x="1402" d="M96 537l142 835h415l-135 -813q-45 -264 160 -264q166 0 211 264l137 813h416l-139 -835q-92 -561 -631 -562q-295 0 -459 140.5t-117 421.5zM483 1583q213 205 289 264h238q117 -125 213 -272l-152 -141q-90 53 -207 145q-143 -86 -258 -145z" />
<glyph unicode="&#xdc;" horiz-adv-x="1402" d="M96 537l142 835h415l-135 -813q-45 -264 160 -264q166 0 211 264l137 813h416l-139 -835q-92 -561 -631 -562q-295 0 -459 140.5t-117 421.5zM432 1649q0 80 59.5 137t139.5 57q84 0 138 -56t54 -138t-54 -139.5t-138 -57.5q-80 0 -139.5 58.5t-59.5 138.5zM901 1649 q0 80 56.5 137t140.5 57q78 0 137 -57t59 -137t-59 -138.5t-137 -58.5q-84 0 -140.5 57.5t-56.5 139.5z" />
<glyph unicode="&#xdd;" horiz-adv-x="1267" d="M109 1368v4h432l151 -465l293 465h442v-4l-581 -864l-86 -504h-418l86 500zM506 1647q162 109 455 229l59 27l108 -289l-55 -23q-84 -37 -241.5 -85t-251.5 -64z" />
<glyph unicode="&#xde;" horiz-adv-x="1306" d="M12 0l230 1372h420l-33 -198h82q276 0 416.5 -111t140.5 -322q0 -238 -167 -374t-444 -136h-186l-39 -231h-420zM514 487h88q106 0 166.5 70t60.5 176q0 88 -42 129t-128 41h-75z" />
<glyph unicode="&#xdf;" horiz-adv-x="1314" d="M4 0l172 1024q41 252 177 378t417 126q244 0 383 -94.5t139 -268.5q0 -139 -141 -260q-16 -14 -42 -32.5t-40 -31t-29.5 -26.5t-22.5 -27.5t-7 -27.5q0 -10 2 -18.5t7 -18.5t10 -16.5t16.5 -17.5t18.5 -17t24.5 -21.5t27.5 -23.5q82 -70 125 -134.5t43 -142.5 q0 -168 -117.5 -268t-326.5 -100q-205 0 -351 108l89 238q78 -39 159 -39q104 0 105 73q0 27 -20.5 51.5t-78.5 73.5q-113 96 -112 213q0 47 19.5 91.5t40 69t57.5 61.5q43 41 60 59t37.5 57t20.5 78q0 51 -31.5 84t-86.5 33q-74 0 -111 -50t-53 -149l-172 -1034h-408z" />
<glyph unicode="&#xe0;" horiz-adv-x="1200" d="M37 373q0 289 144.5 493.5t383.5 204.5q152 0 232 -104q10 37 28 82h375l-176 -1049h-387q0 45 8 160q-117 -178 -293 -178q-147 0 -231 108.5t-84 282.5zM424 1374l174 277l55 -37q76 -47 188.5 -135t180.5 -154l-139 -195q-244 102 -410 213zM459 397q0 -123 82 -123 q68 0 133 88l71 414q-33 18 -77 19q-92 0 -150.5 -125.5t-58.5 -272.5z" />
<glyph unicode="&#xe1;" horiz-adv-x="1200" d="M37 373q0 289 144.5 493.5t383.5 204.5q152 0 232 -104q10 37 28 82h375l-176 -1049h-387q0 45 8 160q-117 -178 -293 -178q-147 0 -231 108.5t-84 282.5zM459 397q0 -123 82 -123q68 0 133 88l71 414q-33 18 -77 19q-92 0 -150.5 -125.5t-58.5 -272.5zM469 1317 q70 66 186.5 154t196.5 137l53 32l162 -264l-51 -33q-225 -137 -420 -213z" />
<glyph unicode="&#xe2;" horiz-adv-x="1200" d="M37 373q0 289 144.5 493.5t383.5 204.5q152 0 232 -104q10 37 28 82h375l-176 -1049h-387q0 45 8 160q-117 -178 -293 -178q-147 0 -231 108.5t-84 282.5zM383 1292q152 158 324 301h176q80 -88 229 -307l-176 -147q-88 70 -178 159q-127 -96 -226 -159zM459 397 q0 -123 82 -123q68 0 133 88l71 414q-33 18 -77 19q-92 0 -150.5 -125.5t-58.5 -272.5z" />
<glyph unicode="&#xe3;" horiz-adv-x="1200" d="M37 373q0 289 144.5 493.5t383.5 204.5q152 0 232 -104q10 37 28 82h375l-176 -1049h-387q0 45 8 160q-117 -178 -293 -178q-147 0 -231 108.5t-84 282.5zM338 1180q18 162 89 249t173 87q76 0 141 -33q78 -35 105 -35q49 0 76 72l188 -23q-16 -160 -86 -248t-168 -88 q-63 0 -145 37q-84 33 -107 33q-51 0 -76 -74zM459 397q0 -123 82 -123q68 0 133 88l71 414q-33 18 -77 19q-92 0 -150.5 -125.5t-58.5 -272.5z" />
<glyph unicode="&#xe4;" horiz-adv-x="1200" d="M37 373q0 289 144.5 493.5t383.5 204.5q152 0 232 -104q10 37 28 82h375l-176 -1049h-387q0 45 8 160q-117 -178 -293 -178q-147 0 -231 108.5t-84 282.5zM307 1347.5q0 77.5 59.5 135t135.5 57.5q84 0 139 -56.5t55 -135.5q0 -82 -55 -137.5t-139 -55.5 q-76 0 -135.5 57.5t-59.5 135zM459 397q0 -123 82 -123q68 0 133 88l71 414q-33 18 -77 19q-92 0 -150.5 -125.5t-58.5 -272.5zM770 1348q0 80 56.5 136t140.5 56q76 0 135 -57.5t59 -135t-59.5 -135t-134.5 -57.5q-86 0 -141.5 55.5t-55.5 137.5z" />
<glyph unicode="&#xe5;" horiz-adv-x="1200" d="M37 373q0 289 144.5 493.5t383.5 204.5q152 0 232 -104q10 37 28 82h375l-176 -1049h-387q0 45 8 160q-117 -178 -293 -178q-147 0 -231 108.5t-84 282.5zM449 1401q0 119 82.5 197.5t205.5 78.5q117 0 190.5 -70.5t73.5 -179.5q0 -121 -83.5 -199.5t-206.5 -78.5 q-117 0 -189.5 69.5t-72.5 182.5zM459 397q0 -123 82 -123q68 0 133 88l71 414q-33 18 -77 19q-92 0 -150.5 -125.5t-58.5 -272.5zM637 1405q0 -39 22.5 -64.5t59.5 -25.5q39 0 67.5 29.5t28.5 74.5q0 37 -24.5 62.5t-61.5 25.5q-39 0 -65.5 -27.5t-26.5 -74.5z" />
<glyph unicode="&#xe6;" horiz-adv-x="1673" d="M23 281q0 252 249 319q121 41 392 41l6 33q10 59 -34 86.5t-144 27.5q-147 0 -277 -49l-41 222q63 47 185 84.5t253 37.5q199 0 289 -96q131 88 301 88q215 0 325.5 -107.5t110.5 -305.5q0 -119 -28 -213h-602v-9q0 -160 176 -159q135 0 272 98l139 -186 q-76 -90 -200.5 -150.5t-278.5 -60.5q-287 0 -418 161q-51 -76 -138 -118.5t-189 -42.5q-154 0 -251 81t-97 218zM406 336q2 -92 90 -92q66 0 112 57l29 168q-98 0 -152 -27q-79 -22 -79 -106zM1040 666h217q2 16 3 47q0 125 -76 125q-105 0 -144 -172z" />
<glyph unicode="&#xe7;" horiz-adv-x="980" d="M37 459q0 252 173 435t462 183q219 0 342 -131l-172 -233q-68 47 -172 47q-100 0 -171 -75t-71 -200q0 -86 49 -133t135 -47q104 0 197 66l104 -248q-156 -147 -403 -148h-4l-45 -77q195 -43 194 -215q0 -117 -92 -187.5t-223 -70.5q-156 0 -262 79l106 154 q47 -33 113 -33q94 0 94 60q-2 66 -123 65q-33 0 -49 -2l-2 2l143 246q-147 41 -235 162t-88 301z" />
<glyph unicode="&#xe8;" horiz-adv-x="1103" d="M37 438q0 270 157.5 453.5t426.5 183.5q225 0 338.5 -111.5t113.5 -318.5q0 -102 -29 -196h-604q-2 -82 42 -125t136 -43q135 0 273 98l139 -186q-76 -90 -200.5 -150.5t-278.5 -60.5q-244 0 -379 120.5t-135 335.5zM362 1374l175 277l55 -37q76 -47 188.5 -135 t180.5 -154l-140 -195q-244 102 -409 213zM473 666h219q2 16 2 47q2 125 -78 125q-102 0 -143 -172z" />
<glyph unicode="&#xe9;" horiz-adv-x="1103" d="M37 438q0 270 157.5 453.5t426.5 183.5q225 0 338.5 -111.5t113.5 -318.5q0 -102 -29 -196h-604q-2 -82 42 -125t136 -43q135 0 273 98l139 -186q-76 -90 -200.5 -150.5t-278.5 -60.5q-244 0 -379 120.5t-135 335.5zM393 1317q70 66 186.5 154t196.5 137l53 32l162 -264 l-51 -33q-225 -137 -420 -213zM473 666h219q2 16 2 47q2 125 -78 125q-102 0 -143 -172z" />
<glyph unicode="&#xea;" horiz-adv-x="1103" d="M37 438q0 270 157.5 453.5t426.5 183.5q225 0 338.5 -111.5t113.5 -318.5q0 -102 -29 -196h-604q-2 -82 42 -125t136 -43q135 0 273 98l139 -186q-76 -90 -200.5 -150.5t-278.5 -60.5q-244 0 -379 120.5t-135 335.5zM283 1292q152 158 323 301h176q80 -88 230 -307 l-176 -147q-90 70 -179 159q-127 -96 -225 -159zM473 666h219q2 16 2 47q2 125 -78 125q-102 0 -143 -172z" />
<glyph unicode="&#xeb;" horiz-adv-x="1103" d="M37 438q0 270 157.5 453.5t426.5 183.5q225 0 338.5 -111.5t113.5 -318.5q0 -102 -29 -196h-604q-2 -82 42 -125t136 -43q135 0 273 98l139 -186q-76 -90 -200.5 -150.5t-278.5 -60.5q-244 0 -379 120.5t-135 335.5zM225 1347.5q0 77.5 59.5 135t135.5 57.5 q84 0 139 -56.5t55 -135.5q0 -82 -55 -137.5t-139 -55.5q-76 0 -135.5 57.5t-59.5 135zM473 666h219q2 16 2 47q2 125 -78 125q-102 0 -143 -172zM688 1348q0 80 56.5 136t140.5 56q76 0 135 -57.5t59 -135t-59 -135t-135 -57.5q-86 0 -141.5 55.5t-55.5 137.5z" />
<glyph unicode="&#xec;" horiz-adv-x="589" d="M6 0l176 1049h410l-178 -1049h-408zM129 1374l174 277l55 -37q76 -47 188.5 -135t180.5 -154l-139 -195q-244 102 -410 213z" />
<glyph unicode="&#xed;" horiz-adv-x="589" d="M6 0l176 1049h410l-178 -1049h-408zM139 1317q70 66 186.5 154t196.5 137l53 32l162 -264l-51 -33q-225 -137 -420 -213z" />
<glyph unicode="&#xee;" horiz-adv-x="589" d="M6 0l176 1049h410l-178 -1049h-408zM51 1292q152 158 324 301h176q80 -88 229 -307l-176 -147q-88 70 -178 159q-127 -96 -225 -159z" />
<glyph unicode="&#xef;" horiz-adv-x="589" d="M-4 1347.5q0 77.5 59.5 135t134.5 57.5q84 0 139.5 -56.5t55.5 -135.5q0 -82 -55.5 -137.5t-139.5 -55.5q-76 0 -135 57.5t-59 135zM6 0l176 1049h410l-178 -1049h-408zM459 1348q0 80 56 136t140 56q76 0 135.5 -57.5t59.5 -135t-59.5 -135t-135.5 -57.5 q-86 0 -141 55.5t-55 137.5z" />
<glyph unicode="&#xf0;" horiz-adv-x="1224" d="M41 420q0 248 141.5 401.5t349.5 153.5q133 0 218 -70q-25 133 -93 215l-405 -157l-59 165l309 117q-74 39 -197 72l98 217q252 -43 426 -152l281 111l57 -168l-182 -72q186 -203 186 -508q0 -156 -37.5 -292t-110.5 -244.5t-194.5 -172t-277.5 -63.5q-240 0 -375 123 t-135 324zM457 434q0 -72 30.5 -111.5t83.5 -39.5q70 0 123.5 103t63.5 292q-59 39 -121 39q-78 0 -129 -82t-51 -201z" />
<glyph unicode="&#xf1;" horiz-adv-x="1202" d="M6 0l172 1049h389l-10 -146q115 180 307 180q158 0 234 -112.5t43 -311.5l-109 -659h-409l108 653q20 111 -76 111q-74 0 -127 -74l-114 -690h-408zM346 1180q18 162 89 249t173 87q76 0 142 -33q78 -35 104 -35q49 0 76 72l188 -23q-16 -160 -85.5 -248t-168.5 -88 q-63 0 -145 37q-84 33 -107 33q-51 0 -75 -74z" />
<glyph unicode="&#xf2;" horiz-adv-x="1177" d="M37 428q0 281 166 463t440 182q233 0 365.5 -117.5t132.5 -318.5q0 -287 -161 -471t-445 -184q-238 0 -368 121.5t-130 324.5zM422 1374l174 277l55 -37q76 -47 188.5 -135t180.5 -154l-139 -195q-244 102 -410 213zM455 391q0 -139 90 -139q76 0 128 132t52 286 q0 139 -90 139q-74 0 -127 -133t-53 -285z" />
<glyph unicode="&#xf3;" horiz-adv-x="1177" d="M37 428q0 281 166 463t440 182q233 0 365.5 -117.5t132.5 -318.5q0 -287 -161 -471t-445 -184q-238 0 -368 121.5t-130 324.5zM434 1317q70 66 186.5 154t196.5 137l53 32l162 -264l-51 -33q-225 -137 -420 -213zM455 391q0 -139 90 -139q76 0 128 132t52 286 q0 139 -90 139q-74 0 -127 -133t-53 -285z" />
<glyph unicode="&#xf4;" horiz-adv-x="1177" d="M37 428q0 281 166 463t440 182q233 0 365.5 -117.5t132.5 -318.5q0 -287 -161 -471t-445 -184q-238 0 -368 121.5t-130 324.5zM330 1292q152 158 323 301h176q80 -88 230 -307l-176 -147q-88 70 -178 159q-127 -96 -226 -159zM455 391q0 -139 90 -139q76 0 128 132 t52 286q0 139 -90 139q-74 0 -127 -133t-53 -285z" />
<glyph unicode="&#xf5;" horiz-adv-x="1177" d="M37 428q0 281 166 463t440 182q233 0 365.5 -117.5t132.5 -318.5q0 -287 -161 -471t-445 -184q-238 0 -368 121.5t-130 324.5zM317 1180q18 162 89 249t174 87q76 0 141 -33q78 -35 104 -35q49 0 76 72l189 -23q-16 -160 -86 -248t-168 -88q-63 0 -146 37q-84 33 -106 33 q-51 0 -76 -74zM455 391q0 -139 90 -139q76 0 128 132t52 286q0 139 -90 139q-74 0 -127 -133t-53 -285z" />
<glyph unicode="&#xf6;" horiz-adv-x="1177" d="M37 428q0 281 166 463t440 182q233 0 365.5 -117.5t132.5 -318.5q0 -287 -161 -471t-445 -184q-238 0 -368 121.5t-130 324.5zM274 1347.5q0 77.5 59.5 135t135.5 57.5q84 0 139.5 -56.5t55.5 -135.5q0 -82 -55.5 -137.5t-139.5 -55.5q-76 0 -135.5 57.5t-59.5 135z M455 391q0 -139 90 -139q76 0 128 132t52 286q0 139 -90 139q-74 0 -127 -133t-53 -285zM737 1348q0 80 56.5 136t140.5 56q76 0 135 -57.5t59 -135t-59 -135t-135 -57.5q-86 0 -141.5 55.5t-55.5 137.5z" />
<glyph unicode="&#xf7;" horiz-adv-x="1153" d="M47 508l57 348h1059l-57 -348h-1059zM340 240q0 86 59.5 145t143.5 59t144.5 -59t60.5 -145q0 -84 -60.5 -143.5t-144.5 -59.5t-143.5 59.5t-59.5 143.5zM459 1122q0 84 59.5 144.5t143 60.5t144 -60.5t60.5 -144.5t-60.5 -143t-144 -59t-143 59t-59.5 143z" />
<glyph unicode="&#xf8;" horiz-adv-x="1177" d="M4 -6l131 147q-98 117 -98 287q0 281 171 463t454 182q139 0 251 -45l156 174l137 -123l-135 -155q104 -115 105 -287q0 -287 -166 -471t-457 -184q-154 0 -268 51l-144 -162zM449 477l278 330q-29 29 -76 29q-72 0 -128 -109t-74 -250zM475 264q31 -39 86 -39 q74 0 132.5 115t72.5 262z" />
<glyph unicode="&#xf9;" horiz-adv-x="1212" d="M70 399l108 650h412l-111 -639q-16 -111 70 -111q74 0 125 74l117 676h407l-176 -1049h-387q0 84 8 160q-51 -80 -133 -132.5t-176 -52.5q-158 0 -229.5 107.5t-34.5 316.5zM418 1374l174 277l55 -37q76 -47 188.5 -135t180.5 -154l-139 -195q-244 102 -410 213z" />
<glyph unicode="&#xfa;" horiz-adv-x="1212" d="M70 399l108 650h412l-111 -639q-16 -111 70 -111q74 0 125 74l117 676h407l-176 -1049h-387q0 84 8 160q-51 -80 -133 -132.5t-176 -52.5q-158 0 -229.5 107.5t-34.5 316.5zM446 1317q70 66 187 154t196 137l54 32l161 -264l-51 -33q-225 -137 -420 -213z" />
<glyph unicode="&#xfb;" horiz-adv-x="1212" d="M70 399l108 650h412l-111 -639q-16 -111 70 -111q74 0 125 74l117 676h407l-176 -1049h-387q0 84 8 160q-51 -80 -133 -132.5t-176 -52.5q-158 0 -229.5 107.5t-34.5 316.5zM352 1292q152 158 324 301h176q80 -88 229 -307l-176 -147q-90 70 -178 159q-127 -96 -225 -159 z" />
<glyph unicode="&#xfc;" horiz-adv-x="1212" d="M70 399l108 650h412l-111 -639q-16 -111 70 -111q74 0 125 74l117 676h407l-176 -1049h-387q0 84 8 160q-51 -80 -133 -132.5t-176 -52.5q-158 0 -229.5 107.5t-34.5 316.5zM291 1347.5q0 77.5 59.5 135t134.5 57.5q84 0 139.5 -56.5t55.5 -135.5q0 -82 -55.5 -137.5 t-139.5 -55.5q-76 0 -135 57.5t-59 135zM754 1348q0 80 56 136t140 56q76 0 135.5 -57.5t59.5 -135t-59.5 -135t-135.5 -57.5q-86 0 -141 55.5t-55 137.5z" />
<glyph unicode="&#xfd;" horiz-adv-x="1110" d="M-106 -383l79 246q68 -10 131.5 -10t106.5 26.5t80 100.5l-232 1069h426l64 -566l221 566h432l-528 -1063q-129 -258 -236.5 -343t-269.5 -85q-159 0 -274 59zM362 1317q70 66 187 154t196 137l54 32l162 -264l-52 -33q-225 -137 -420 -213z" />
<glyph unicode="&#xfe;" horiz-adv-x="1226" d="M-63 -410l319 1913h408l-99 -585q121 158 314 157q141 0 223 -105.5t82 -279.5q0 -297 -138.5 -500.5t-390.5 -203.5q-133 0 -231 86l-80 -482h-407zM459 279q37 -18 82 -19q106 0 162.5 108.5t56.5 284.5q0 129 -88 129q-78 0 -142 -77z" />
<glyph unicode="&#xff;" horiz-adv-x="1110" d="M-106 -383l79 246q68 -10 131.5 -10t106.5 26.5t80 100.5l-232 1069h426l64 -566l221 566h432l-528 -1063q-129 -258 -236.5 -343t-269.5 -85q-159 0 -274 59zM215 1347.5q0 77.5 59.5 135t135.5 57.5q84 0 139 -56.5t55 -135.5q0 -82 -55 -137.5t-139 -55.5 q-76 0 -135.5 57.5t-59.5 135zM678 1348q0 80 56.5 136t139.5 56q76 0 135.5 -57.5t59.5 -135t-59.5 -135t-135.5 -57.5q-84 0 -140 55.5t-56 137.5z" />
<glyph unicode="&#x152;" horiz-adv-x="2000" d="M70 561q0 379 205.5 607.5t523.5 228.5q246 0 370 -133l19 108h874l-51 -311h-579l-37 -221h463l-50 -293h-462l-39 -238h602l-49 -309h-897l10 70q-129 -94 -307 -95q-287 0 -441.5 153.5t-154.5 432.5zM504 549q0 -262 176 -262q125 0 209 143t84 401q0 256 -174 256 q-125 0 -210 -145t-85 -393z" />
<glyph unicode="&#x153;" horiz-adv-x="1753" d="M37 428q0 281 165 463t439 182q211 0 324 -119q133 121 309 121q219 0 331.5 -112.5t112.5 -317.5q0 -102 -28 -196h-605q-2 -82 42 -125t137 -43q135 0 272 98l139 -186q-76 -90 -200.5 -150.5t-278.5 -60.5q-215 0 -340 112q-127 -113 -324 -112q-238 0 -366.5 121.5 t-128.5 324.5zM455 391q0 -139 88 -139q74 0 126 132t52 286q0 139 -88 139q-74 0 -126 -133t-52 -285zM1118 666h219q2 16 2 47q2 125 -75 125q-105 0 -146 -172z" />
<glyph unicode="&#x178;" horiz-adv-x="1267" d="M109 1368v4h432l151 -465l293 465h442v-4l-581 -864l-86 -504h-418l86 500zM350 1649q0 80 59.5 137t139.5 57q84 0 138 -56t54 -138t-54 -139.5t-138 -57.5q-80 0 -139.5 58.5t-59.5 138.5zM819 1649q0 80 56.5 137t140.5 57q78 0 137 -57t59 -137t-59 -138.5 t-137 -58.5q-84 0 -140.5 57.5t-56.5 139.5z" />
<glyph unicode="&#x2c6;" horiz-adv-x="860" d="M184 1292q152 158 324 301h176q80 -88 229 -307l-176 -147q-90 70 -178 159q-127 -96 -225 -159z" />
<glyph unicode="&#x2dc;" horiz-adv-x="860" d="M166 1180q18 162 89 249t173 87q76 0 141 -33q78 -35 105 -35q49 0 76 72l188 -23q-16 -160 -86 -248t-168 -88q-63 0 -145 37q-84 33 -107 33q-51 0 -76 -74z" />
<glyph unicode="&#x2000;" horiz-adv-x="985" />
<glyph unicode="&#x2001;" horiz-adv-x="1970" />
<glyph unicode="&#x2002;" horiz-adv-x="985" />
<glyph unicode="&#x2003;" horiz-adv-x="1970" />
<glyph unicode="&#x2004;" horiz-adv-x="655" />
<glyph unicode="&#x2005;" horiz-adv-x="491" />
<glyph unicode="&#x2006;" horiz-adv-x="327" />
<glyph unicode="&#x2007;" horiz-adv-x="327" />
<glyph unicode="&#x2008;" horiz-adv-x="245" />
<glyph unicode="&#x2009;" horiz-adv-x="393" />
<glyph unicode="&#x200a;" horiz-adv-x="108" />
<glyph unicode="&#x2010;" horiz-adv-x="774" d="M80 387l53 330h584l-55 -330h-582z" />
<glyph unicode="&#x2011;" horiz-adv-x="774" d="M80 387l53 330h584l-55 -330h-582z" />
<glyph unicode="&#x2012;" horiz-adv-x="774" d="M80 387l53 330h584l-55 -330h-582z" />
<glyph unicode="&#x2013;" horiz-adv-x="1103" d="M41 403l47 295h981l-47 -295h-981z" />
<glyph unicode="&#x2014;" horiz-adv-x="1777" d="M41 403l47 295h1669l-49 -295h-1667z" />
<glyph unicode="&#x2018;" horiz-adv-x="505" d="M147 1061q2 360 330 581l189 -143q-104 -115 -140 -328l-32 -208h-344q-5 59 -3 98z" />
<glyph unicode="&#x2019;" horiz-adv-x="505" d="M94 1061q104 115 139 328l33 208h344q4 -59 2 -98q-2 -360 -329 -581z" />
<glyph unicode="&#x201a;" horiz-adv-x="507" d="M-119 -164q104 115 139 328l33 209h344q4 -59 2 -99q-2 -360 -329 -581z" />
<glyph unicode="&#x201c;" horiz-adv-x="976" d="M147 1061q2 360 330 581l189 -143q-104 -115 -140 -328l-32 -208h-344q-5 59 -3 98zM618 1061q2 360 330 581l189 -143q-104 -115 -140 -328l-32 -208h-344q-5 59 -3 98z" />
<glyph unicode="&#x201d;" horiz-adv-x="976" d="M94 1061q104 115 139 328l33 208h344q4 -59 2 -98q-2 -360 -329 -581zM565 1061q104 115 140 328l32 208h344q4 -59 2 -98q-2 -360 -329 -581z" />
<glyph unicode="&#x201e;" horiz-adv-x="978" d="M-119 -164q104 115 139 328l33 209h344q4 -59 2 -99q-2 -360 -329 -581zM350 -164q104 115 139 328l33 209h344q4 -59 2 -99q-2 -360 -329 -581z" />
<glyph unicode="&#x2022;" horiz-adv-x="843" d="M61 548.5q0 151.5 105.5 257t257 105.5t257 -105.5t105.5 -257t-105.5 -256t-257 -104.5t-257 104.5t-105.5 256z" />
<glyph unicode="&#x2026;" horiz-adv-x="2019" d="M39 217q0 100 69.5 171t170.5 71q102 0 171.5 -70t69.5 -172q0 -100 -70.5 -171t-171 -71t-170 71t-69.5 171zM715 217q0 102 70.5 172t171 70t170 -71t69.5 -171t-69.5 -171t-170 -71t-171 71t-70.5 171zM1391 217q0 100 70.5 171t171 71t171 -70t70.5 -172 q0 -100 -70.5 -171t-171 -71t-171 71t-70.5 171z" />
<glyph unicode="&#x202f;" horiz-adv-x="393" />
<glyph unicode="&#x2039;" horiz-adv-x="634" d="M25 526v4l280 441h385l-301 -467l148 -426h-357z" />
<glyph unicode="&#x203a;" horiz-adv-x="634" d="M-57 78l305 475l-146 418h355l155 -449v-4l-280 -440h-389z" />
<glyph unicode="&#x205f;" horiz-adv-x="491" />
<glyph unicode="&#x20ac;" horiz-adv-x="1204" d="M76 481l26 172h129q4 55 13 107h-123l29 172h139q78 209 241.5 335t395.5 126q238 0 389 -133l-144 -256q-92 74 -235 73q-162 0 -254 -145h326l-29 -172h-361q-4 -20 -14 -107h359l-29 -172h-322q41 -170 240 -170q119 0 223 64l88 -271q-147 -127 -375 -127 q-238 0 -383 135.5t-172 368.5h-157z" />
<glyph unicode="&#x2122;" horiz-adv-x="1720" d="M172 1251l37 222h590l-37 -222h-166l-84 -499h-252l84 499h-172zM733 752l162 721h309l56 -355l161 355h308l-62 -721h-240l33 372l-170 -372h-176l-57 372l-80 -372h-244z" />
<glyph unicode="&#xe000;" horiz-adv-x="1050" d="M0 1050h1050v-1050h-1050v1050z" />
<glyph unicode="&#xfb01;" horiz-adv-x="1245" d="M47 0l135 801h-125l39 227q47 18 129 21l8 49q37 221 172.5 325.5t385.5 104.5q229 0 393 -88l-90 -256q-98 43 -234 43q-106 0 -156.5 -34t-64.5 -116l-6 -28h610l-172 -1049h-409l131 807h-201l-135 -807h-410z" />
<glyph unicode="&#xfb02;" horiz-adv-x="1280" d="M47 0l135 801h-125l39 227q47 18 129 21l8 49q70 430 478 430q109 0 168 -25l-45 -260h-35q-72 0 -108 -33.5t-50 -115.5l-8 -45h155l-40 -248h-156l-135 -801h-410zM696 0l252 1503h410l-252 -1503h-410z" />
<glyph unicode="&#xfb03;" horiz-adv-x="1890" d="M47 0l135 801h-125l39 227q47 18 127 21l8 41q70 430 480 430q127 0 219 -31l-64 -258q-33 4 -57 4q-80 0 -118 -32t-52 -118l-6 -36h237l9 49q37 221 172 325.5t385 104.5q229 0 393 -88l-90 -256q-98 43 -234 43q-106 0 -156.5 -34t-64.5 -116l-6 -28h610l-172 -1049 h-409l131 809h-199l-137 -809h-410l137 809h-237l-135 -809h-410z" />
<glyph unicode="&#xfb04;" horiz-adv-x="1925" d="M47 0l135 801h-125l39 227q47 18 127 21l8 41q70 430 480 430q127 0 219 -31l-64 -258q-33 4 -57 4q-80 0 -118 -32t-52 -118l-6 -36h237l13 71q35 209 145.5 308.5t310.5 99.5q127 0 189 -27l-45 -260h-6q-6 0 -16.5 1t-20.5 1q-68 0 -104 -32.5t-50 -116.5l-8 -45h156 l-41 -248h-156l-131 -801h-410l133 809h-237l-135 -809h-410zM1341 0l252 1503h410l-252 -1503h-410z" />
</font>
</defs>
</svg>
