<?xml version="1.0" standalone="no"?>
<!DOCTYPE svg PUBLIC "-//W3C//DTD SVG 1.1//EN" "http://www.w3.org/Graphics/SVG/1.1/DTD/svg11.dtd" >
<svg xmlns="http://www.w3.org/2000/svg">
<metadata>
This is a custom SVG webfont generated by Font Squirrel.
Copyright   : 2010 Commercial Type All rights reserved Licensed for exclusive use by Apollo Group and its subsidiaries
Designer    : Dan Milne
Foundry     : Commercial Type
Foundry URL : httpcommercialtypecom
</metadata>
<defs>
<font id="PhoenixSansLight" horiz-adv-x="1437" >
<font-face units-per-em="2048" ascent="1638" descent="-410" />
<missing-glyph horiz-adv-x="438" />
<glyph unicode=" "  horiz-adv-x="438" />
<glyph unicode="&#x09;" horiz-adv-x="438" />
<glyph unicode="&#xa0;" horiz-adv-x="438" />
<glyph unicode="!" horiz-adv-x="538" d="M164 92q0 43 30.5 74t73.5 31q45 0 76 -31t31 -74t-31 -73.5t-76 -30.5q-43 0 -73.5 30.5t-30.5 73.5zM195 1137v235h147v-235q0 -465 -18 -772h-109q-20 342 -20 772z" />
<glyph unicode="&#x22;" horiz-adv-x="612" d="M98 1518h140q0 -236 -25 -482h-90q-25 246 -25 482zM375 1518h139q0 -236 -25 -482h-90q-24 246 -24 482z" />
<glyph unicode="#" horiz-adv-x="1259" d="M90 403l23 105h221l61 364h-231l22 103h226l67 397h111l-66 -397h320l67 397h111l-66 -397h230l-21 -103h-227l-59 -364h233l-20 -105h-232l-65 -403h-113l68 403h-322l-66 -403h-112l67 403h-227zM446 508h320l61 364h-321z" />
<glyph unicode="$" horiz-adv-x="1110" d="M70 180l65 86q113 -123 281 -162l86 553l-56 21q-174 66 -250.5 153t-76.5 211q0 158 121.5 256.5t324.5 98.5q8 0 28.5 -1t29.5 -1l36 225l99 -16l-35 -224q156 -33 266 -145l-67 -82q-92 86 -217 117l-82 -525l20 -6q205 -74 292 -169t87 -222q0 -174 -119 -273.5 t-338 -99.5q-47 0 -69 2l-35 -225l-99 15l35 227q-216 43 -327 186zM248 1051q0 -90 59.5 -150.5t218.5 -118.5l80 502q-12 2 -35 2q-154 0 -238.5 -65.5t-84.5 -169.5zM514 90h45q164 0 249 64.5t85 179.5q0 94 -65.5 159.5t-231.5 129.5z" />
<glyph unicode="%" horiz-adv-x="1642" d="M80 1024q0 172 91 272.5t230.5 100.5t231.5 -100.5t92 -272.5q0 -174 -92 -275.5t-231.5 -101.5t-230.5 101.5t-91 275.5zM199 1024q0 -131 55 -200.5t147.5 -69.5t147.5 69.5t55 200.5q0 127 -56 197.5t-146.5 70.5t-146.5 -70.5t-56 -197.5zM291 -2l934 1382h127v-4 l-932 -1382h-129v4zM913 354q0 172 92.5 272.5t231.5 100.5t230.5 -100.5t91.5 -272.5q0 -174 -91.5 -275.5t-230.5 -101.5t-231.5 101.5t-92.5 275.5zM1034 354q0 -131 54.5 -200.5t148.5 -69.5q92 0 146.5 69.5t54.5 200.5q0 127 -56.5 198t-144.5 71q-92 0 -147.5 -71 t-55.5 -198z" />
<glyph unicode="&#x26;" horiz-adv-x="1400" d="M102 340q0 129 84 224t254 194q-106 121 -145 196.5t-39 151.5q0 129 96.5 210t241.5 81q156 0 245 -79t89 -210q0 -109 -72 -187.5t-231 -172.5l395 -416q96 164 104 428v74h119q4 -61 4 -93q0 -293 -143 -497l229 -240v-4h-180l-137 143q-178 -168 -457 -168 q-219 0 -338 100.5t-119 264.5zM240 344q0 -117 87 -185.5t240 -70.5q227 -4 371 139l-426 455q-141 -86 -206.5 -162t-65.5 -176zM385 1110q0 -55 33 -116.5t135 -170.5q133 78 190.5 138.5t57.5 136.5q0 86 -56.5 140t-152.5 54q-90 0 -148.5 -52t-58.5 -130z" />
<glyph unicode="'" horiz-adv-x="335" d="M98 1518h140q0 -236 -25 -482h-90q-25 246 -25 482z" />
<glyph unicode="(" horiz-adv-x="718" d="M186 618q0 334 111 607.5t301 431.5l74 -76q-352 -350 -353 -963q0 -629 355 -983l-76 -75q-188 156 -300 437t-112 621z" />
<glyph unicode=")" horiz-adv-x="718" d="M43 -365q354 354 354 983q0 612 -352 963l74 76q190 -158 300.5 -431.5t110.5 -607.5q0 -340 -111.5 -621.5t-299.5 -436.5z" />
<glyph unicode="*" horiz-adv-x="925" d="M76 1004l39 20q102 61 282 139q-166 74 -282 142l-39 22l53 92l39 -22q98 -57 262 -176q-18 160 -18 315v45h104v-45q0 -123 -22 -317q141 104 266 176l39 22l51 -92l-39 -20q-100 -57 -283 -142q170 -74 283 -139l39 -23l-53 -92l-39 23q-127 76 -264 176 q23 -195 22 -315v-45h-104v45q0 158 18 313q-154 -109 -264 -172l-39 -23z" />
<glyph unicode="+" horiz-adv-x="1148" d="M70 625v112h442v473h127v-473h440v-112h-440v-469h-127v469h-442z" />
<glyph unicode="," horiz-adv-x="397" d="M37 -238q100 111 100 265v159h133q8 -66 9 -163q0 -197 -162 -316z" />
<glyph unicode="-" horiz-adv-x="688" d="M82 489v107h526v-107h-526z" />
<glyph unicode="." horiz-adv-x="397" d="M94 92q0 43 31 74t74 31t73.5 -31t30.5 -74t-30.5 -73.5t-73.5 -30.5t-74 30.5t-31 73.5z" />
<glyph unicode="/" horiz-adv-x="819" d="M39 -455l604 2003h125l-604 -2003h-125z" />
<glyph unicode="0" horiz-adv-x="1286" d="M96 694q0 330 149.5 516.5t397.5 186.5t398.5 -186.5t150.5 -516.5q0 -336 -150.5 -524t-398.5 -188t-397.5 188t-149.5 524zM238 694q0 -287 109.5 -442.5t295.5 -155.5t296 156t110 442q0 283 -113 435.5t-293 152.5t-292.5 -152.5t-112.5 -435.5z" />
<glyph unicode="1" horiz-adv-x="667" d="M10 1243l346 131h121v-1374h-135v1245l-301 -104z" />
<glyph unicode="2" horiz-adv-x="1028" d="M49 0v98q309 311 461 487.5t197 264.5t45 176q0 113 -71 181.5t-189 68.5q-205 0 -289 -191l-88 52q45 125 147.5 192.5t249.5 67.5q174 0 277.5 -98.5t103.5 -264.5q0 -164 -130 -347t-542 -574h707v-113h-879z" />
<glyph unicode="3" horiz-adv-x="995" d="M27 115l59 82q119 -109 311 -109q158 0 253 77t95 206q0 141 -96 217t-284 76q-66 0 -119 -7l-21 95q229 31 346 112.5t117 198.5q0 102 -67.5 160.5t-180.5 58.5q-184 0 -284 -131l-62 68q51 84 148.5 131t220.5 47q170 0 269 -88t99 -232q0 -231 -266 -338 q150 -23 236 -120t86 -244q0 -180 -128 -290t-347 -110q-256 1 -385 140z" />
<glyph unicode="4" horiz-adv-x="1185" d="M45 367v96l651 909h140v-895h290v-110h-290v-367h-129v367h-662zM193 477h514v725z" />
<glyph unicode="5" horiz-adv-x="995" d="M35 117l59 82q119 -109 305 -109q166 0 261.5 84t95.5 227q0 156 -107.5 242t-298.5 86q-125 0 -200 -12l45 655h639v-117h-531l-24 -430q72 10 135 11q227 0 353 -114t126 -310.5t-130 -316.5t-345 -120q-252 1 -383 142z" />
<glyph unicode="6" horiz-adv-x="1120" d="M102 557q0 387 224.5 608t621.5 221l13 -100q-313 -8 -495.5 -158.5t-217.5 -441.5q47 68 146.5 112t209.5 44q197 0 314.5 -113t117.5 -307q0 -197 -126 -322t-322 -125q-225 0 -355.5 148.5t-130.5 433.5zM240 545q0 -225 96 -341t252 -116q141 0 225 85t84 245 q0 147 -90 232t-234 85q-100 0 -193 -46t-140 -118v-26z" />
<glyph unicode="7" horiz-adv-x="952" d="M41 1257v115h860v-104l-563 -1268h-148v4l566 1253h-715z" />
<glyph unicode="8" horiz-adv-x="1148" d="M94 348q0 121 90 218.5t256 146.5l-4 2q-289 111 -289 338q0 147 120 245.5t308 98.5q199 0 311.5 -90t112.5 -240q0 -231 -294 -336l8 -2q342 -131 342 -375q0 -170 -128 -274.5t-354 -104.5q-229 0 -354 100.5t-125 272.5zM231 356q0 -121 92.5 -194.5t245.5 -73.5 q160 0 253 69.5t93 186.5q0 92 -60 161.5t-208 125.5l-98 39q-160 -47 -239 -128.5t-79 -185.5zM279 1059q0 -86 53 -144.5t186 -109.5l68 -27q283 92 282 279q0 98 -81.5 165.5t-217.5 67.5q-129 0 -209.5 -66.5t-80.5 -164.5z" />
<glyph unicode="9" horiz-adv-x="1126" d="M86 971q0 186 129 306t328 120q223 0 351 -147.5t128 -434.5q0 -418 -208 -616.5t-638 -198.5l-14 98q348 10 520 155.5t197 459.5q-51 -74 -145.5 -115t-203.5 -41q-201 0 -322.5 112t-121.5 302zM221 975q0 -143 93.5 -227t240.5 -84q223 0 328 151v6 q0 236 -96.5 350.5t-245.5 114.5q-139 0 -229.5 -83t-90.5 -228z" />
<glyph unicode=":" horiz-adv-x="397" d="M94 92q0 43 31 74t74 31t73.5 -31t30.5 -74t-30.5 -73.5t-73.5 -30.5t-74 30.5t-31 73.5zM94 842q0 43 31 73.5t74 30.5t73.5 -30.5t30.5 -73.5t-30.5 -74t-73.5 -31t-74 31t-31 74z" />
<glyph unicode=";" horiz-adv-x="397" d="M37 -238q100 111 100 265v159h133q8 -66 9 -163q0 -197 -162 -316zM94 842q0 43 31 73.5t74 30.5t73.5 -30.5t30.5 -73.5t-30.5 -74t-73.5 -31t-74 31t-31 74z" />
<glyph unicode="&#x3c;" horiz-adv-x="927" d="M57 627v90l779 444v-137l-623 -352l623 -353v-137z" />
<glyph unicode="=" horiz-adv-x="1128" d="M98 375v114h932v-114h-932zM98 831v117h932v-117h-932z" />
<glyph unicode="&#x3e;" horiz-adv-x="927" d="M92 182v137l623 353l-623 352v137l778 -444v-90z" />
<glyph unicode="?" horiz-adv-x="899" d="M35 1147q37 115 141.5 182.5t251.5 67.5q184 0 290.5 -98.5t106.5 -260.5q0 -143 -91 -253.5t-302 -204.5q-4 -125 -10 -215h-115q-8 84 -8 264q215 100 299 191t84 208q0 113 -72.5 180.5t-195.5 67.5q-211 0 -285 -178zM260 92q0 43 31 74t74 31t73.5 -31t30.5 -74 t-30.5 -73.5t-73.5 -30.5t-74 30.5t-31 73.5z" />
<glyph unicode="@" horiz-adv-x="2000" d="M119 506q0 391 263 648t665 257q375 0 605 -215t230 -561q0 -268 -140 -420t-368 -152q-231 0 -241 183q-100 -182 -261 -183q-125 0 -201.5 89.5t-76.5 248.5q0 256 132 423t331 167q123 0 192 -82l31 64h84q-6 -33 -38 -227.5t-50.5 -318.5t-18.5 -159q0 -104 125 -104 q168 0 272.5 121t104.5 344q0 307 -198.5 491.5t-520.5 184.5q-352 0 -575 -224.5t-223 -576.5q0 -383 218 -584t597 -201q186 0 341.5 57.5t243.5 145.5l72 -76q-96 -106 -272 -171.5t-385 -65.5q-444 2 -691 236.5t-247 660.5zM723 410q0 -111 46 -171.5t128 -60.5 q139 0 256 238l66 401q-61 61 -152 62q-147 0 -245.5 -128t-98.5 -341z" />
<glyph unicode="A" horiz-adv-x="1236" d="M16 0l535 1372h131l535 -1372h-152l-150 393h-608l-147 -393h-144zM348 502h526l-262 702z" />
<glyph unicode="B" horiz-adv-x="1206" d="M178 0v1372h414q430 0 430 -325q0 -109 -55.5 -190t-155.5 -124q295 -53 295 -330q0 -182 -136 -292.5t-374 -110.5h-418zM317 106h263q180 0 280.5 78t100.5 213q0 127 -89.5 196t-263.5 69h-291v-556zM317 758h252q141 0 226.5 71.5t85.5 192.5q0 242 -324 242h-240 v-506z" />
<glyph unicode="C" horiz-adv-x="1234" d="M98 653q0 342 182.5 542t477.5 200q246 0 397 -144l-63 -94q-129 117 -328 117q-231 0 -373.5 -158t-142.5 -457q0 -266 134 -411.5t363 -145.5q227 0 363 158l82 -72q-150 -211 -459 -211q-293 0 -463 179.5t-170 496.5z" />
<glyph unicode="D" horiz-adv-x="1341" d="M178 0v1372h371q334 0 513 -171t179 -496q0 -344 -177 -524.5t-517 -180.5h-369zM317 109h215q274 0 419 147t145 436q0 281 -147.5 426.5t-422.5 145.5h-209v-1155z" />
<glyph unicode="E" horiz-adv-x="1118" d="M178 0v1372h838v-115h-699v-497h560v-109h-560v-538h721v-113h-860z" />
<glyph unicode="F" horiz-adv-x="1064" d="M178 0v1372h828v-115h-689v-524h553v-108h-553v-625h-139z" />
<glyph unicode="G" horiz-adv-x="1376" d="M98 643q0 348 191.5 550t496.5 202q246 0 404 -144l-64 -92q-135 117 -340 117q-240 0 -389 -160t-149 -459q0 -268 129 -412.5t350 -144.5q254 0 383 205v293h-346v109h483v-721h-102q-18 76 -33 188q-123 -197 -403.5 -197t-445.5 176.5t-165 489.5z" />
<glyph unicode="H" horiz-adv-x="1372" d="M178 0v1372h139v-610h740v610h137v-1372h-137v651h-740v-651h-139z" />
<glyph unicode="I" horiz-adv-x="501" d="M182 0v1372h137v-1372h-137z" />
<glyph unicode="J" horiz-adv-x="880" d="M8 129l68 84q113 -115 260 -115q242 0 242 267v1007h139v-1014q0 -182 -96.5 -282.5t-264.5 -100.5q-111 0 -202 42t-146 112z" />
<glyph unicode="K" horiz-adv-x="1249" d="M178 0v1372h139v-827l687 827h163v-4l-465 -551l521 -813v-4h-162l-453 713l-291 -346v-367h-139z" />
<glyph unicode="L" horiz-adv-x="1079" d="M178 0v1372h139v-1257h699v-115h-838z" />
<glyph unicode="M" horiz-adv-x="1728" d="M141 0l103 1372h159l459 -1128l457 1128h162l106 -1372h-133l-88 1171l-465 -1171h-82l-467 1165l-84 -1165h-127z" />
<glyph unicode="N" horiz-adv-x="1427" d="M176 0v1372h129l819 -1163l-2 1163h129v-1390h-129l-819 1173l2 -1155h-129z" />
<glyph unicode="O" d="M98 682q0 334 168 524.5t455 190.5q291 0 454.5 -183.5t163.5 -521.5q0 -340 -164.5 -528.5t-453.5 -188.5q-295 0 -459 181.5t-164 525.5zM244 692q0 -297 127 -448.5t352 -151.5q219 0 345 148.5t126 441.5q0 297 -126 448.5t-349 151.5q-221 0 -348 -150.5 t-127 -439.5z" />
<glyph unicode="P" horiz-adv-x="1101" d="M178 0v1372h363q492 0 491 -424q0 -211 -138 -336t-374 -125h-203v-487h-139zM317 600h203q172 0 269.5 91t97.5 249q0 156 -92.5 239t-268.5 83h-209v-662z" />
<glyph unicode="Q" d="M98 682q0 334 167 524.5t452 190.5q293 0 457.5 -182.5t164.5 -522.5q0 -295 -124.5 -475t-350.5 -223q178 -129 424 -189v-4l-57 -100q-287 51 -529 274q-287 6 -445.5 187.5t-158.5 519.5zM244 692q0 -297 127 -449.5t352 -152.5q219 0 345 149.5t126 442.5t-128 446.5 t-355 153.5q-217 0 -342 -150.5t-125 -439.5z" />
<glyph unicode="R" horiz-adv-x="1185" d="M176 0v1372h412q475 0 475 -391q0 -135 -74 -237.5t-196 -151.5l354 -588v-4h-160l-319 559h-355v-559h-137zM313 664h279q145 0 235.5 85t90.5 222q0 139 -89.5 216t-250.5 77h-265v-600z" />
<glyph unicode="S" horiz-adv-x="1126" d="M84 180l70 90q158 -170 411 -170q166 0 250 62.5t84 175.5q0 92 -67.5 158.5t-241.5 130.5l-129 49q-178 66 -254 150.5t-76 215.5q0 156 124 255.5t327 99.5q272 0 424 -162l-70 -88q-135 129 -346 129q-150 0 -234 -63.5t-84 -165.5q0 -88 58.5 -145.5t216.5 -117.5 l115 -41q205 -76 291.5 -168t86.5 -227q0 -174 -119.5 -273.5t-340.5 -99.5q-338 0 -496 205z" />
<glyph unicode="T" horiz-adv-x="1116" d="M23 1255v117h1071v-117h-467v-1255h-138v1255h-466z" />
<glyph unicode="U" horiz-adv-x="1370" d="M162 475v897h137v-878q0 -401 385 -401.5t385 401.5v878h139v-897q0 -244 -132 -371t-392 -127t-391 127t-131 371z" />
<glyph unicode="V" horiz-adv-x="1216" d="M12 1372h148l448 -1157l451 1157h145l-545 -1378h-106z" />
<glyph unicode="W" horiz-adv-x="1763" d="M35 1372h141l354 -1155l314 807l-111 348h141l363 -1155l356 1155h136l-437 -1374h-118l-275 854l-328 -854h-106z" />
<glyph unicode="X" horiz-adv-x="1234" d="M27 0v4l512 709l-473 655v4h163l392 -551l395 551h155v-4l-475 -655l512 -709v-4h-164l-430 602l-432 -602h-155z" />
<glyph unicode="Y" horiz-adv-x="1138" d="M12 1368v4h162l399 -706l400 706h153v-4l-487 -842v-526h-137v526z" />
<glyph unicode="Z" horiz-adv-x="1157" d="M74 0v109l829 1148h-784v115h950v-106l-823 -1151h835v-115h-1007z" />
<glyph unicode="[" horiz-adv-x="722" d="M236 -367v2001h454v-108h-323v-1784h323v-109h-454z" />
<glyph unicode="\" horiz-adv-x="819" d="M49 1548h125l604 -2003h-125z" />
<glyph unicode="]" horiz-adv-x="722" d="M33 -258h323v1784h-323v108h454v-2001h-454v109z" />
<glyph unicode="^" horiz-adv-x="917" d="M51 625v4l363 743h88l364 -743v-4h-129l-278 573l-281 -573h-127z" />
<glyph unicode="_" horiz-adv-x="980" d="M0 -102h981v-103h-981v103z" />
<glyph unicode="`" horiz-adv-x="770" d="M168 1495l80 90l51 -43q154 -133 301 -291l-53 -61q-213 154 -334 266z" />
<glyph unicode="a" horiz-adv-x="1009" d="M90 264q0 209 182 271q133 51 409 51h42v143q0 203 -229 203q-174 0 -299 -84l-35 78q150 121 375 121q150 0 232.5 -75t82.5 -210v-762h-115q-8 72 -12 184q-47 -92 -134 -145t-196 -53q-141 0 -222 74.5t-81 203.5zM221 279q0 -86 51.5 -133.5t145.5 -47.5 q88 0 173 55.5t132 151.5v197q-276 -4 -375 -41q-127 -45 -127 -182z" />
<glyph unicode="b" horiz-adv-x="1150" d="M164 0v1503h133v-641q45 86 128 133t185 47q197 0 319 -137t122 -383t-127 -390t-332 -144q-180 0 -305 96q-10 -45 -23 -84h-100zM297 184q100 -84 268 -84q160 0 255 108.5t95 301.5q0 199 -91 308.5t-240 109.5q-92 0 -168 -52.5t-119 -144.5v-547z" />
<glyph unicode="c" horiz-adv-x="968" d="M92 481q0 254 136.5 405.5t355.5 151.5q199 0 313 -135l-63 -88q-109 109 -252 109q-154 0 -253.5 -113t-99.5 -322q0 -182 87 -284.5t235 -102.5q182 0 287 160l82 -51q-125 -229 -379 -229q-201 0 -325 136t-124 363z" />
<glyph unicode="d" horiz-adv-x="1146" d="M98 475q0 258 137.5 410.5t352.5 152.5q137 0 262 -69v534h131v-1503h-117q-8 68 -12 174q-104 -190 -317 -190q-193 0 -315 131t-122 360zM233 494q0 -186 90.5 -290t233.5 -104q193 0 293 203v563q-106 61 -242 62q-166 0 -270.5 -115.5t-104.5 -318.5z" />
<glyph unicode="e" horiz-adv-x="1058" d="M98 479q0 264 129 412.5t334 148.5q217 0 318 -145q81 -117 80 -297q0 -44 -5 -92h-723v-21q0 -184 90.5 -284.5t245.5 -100.5q188 0 301 162l76 -53q-121 -227 -387 -227q-209 0 -334 129.5t-125 367.5zM240 606h589q0 326 -270 326q-127 0 -210.5 -82t-108.5 -244z" />
<glyph unicode="f" horiz-adv-x="718" d="M39 911v90q74 14 178 15h4v125q0 180 93.5 281.5t246.5 101.5q131 0 215 -54l-18 -92q-92 33 -166 33q-115 0 -176.5 -69.5t-61.5 -206.5v-119h340v-105h-340v-911h-133v911h-182z" />
<glyph unicode="g" horiz-adv-x="1079" d="M55 -137q0 78 51.5 140.5t139.5 92.5q-53 39 -53 123q0 115 96 184q-162 80 -162 293q0 160 105.5 252t287.5 92q166 0 271 -71q98 31 270 30v-106h-221q66 -72 65 -188q0 -166 -102.5 -254.5t-298.5 -88.5q-80 0 -137 15q-57 -53 -58 -129q0 -74 82 -74h346 q135 0 209 -65.5t74 -184.5q0 -164 -136 -258t-386 -94q-217 0 -330 76t-113 215zM178 -115q0 -96 85 -151.5t249 -55.5q188 0 286.5 60.5t98.5 169.5q0 74 -51 112.5t-144 38.5h-387q-61 -27 -99 -73t-38 -101zM256 705q0 -240 258 -240q262 0 262 237q0 115 -67.5 176.5 t-194.5 61.5q-123 0 -190.5 -60t-67.5 -175z" />
<glyph unicode="h" horiz-adv-x="1142" d="M164 0v1503h133v-639q119 184 352 185q154 0 247 -92.5t93 -254.5v-702h-131v678q0 252 -240 252q-201 0 -321 -191v-739h-133z" />
<glyph unicode="i" horiz-adv-x="462" d="M141 1349.5q0 36.5 27 62.5t61 26q37 0 63.5 -26t26.5 -62.5t-26.5 -62t-63.5 -25.5q-35 0 -61.5 25.5t-26.5 62zM164 0v1016h133v-1016h-133z" />
<glyph unicode="j" horiz-adv-x="471" d="M-131 -377l20 90q61 -27 129 -26q82 0 120 50t38 173v1106h131v-1110q0 -336 -246 -336q-106 0 -192 53zM154 1349.5q0 36.5 26.5 62.5t61.5 26q37 0 63.5 -26t26.5 -62.5t-26.5 -62t-63.5 -25.5q-35 0 -61.5 25.5t-26.5 62z" />
<glyph unicode="k" horiz-adv-x="1028" d="M164 0v1503h133v-1026l510 539h158v-4l-394 -410l439 -598v-4h-160l-371 522l-182 -190v-332h-133z" />
<glyph unicode="l" horiz-adv-x="466" d="M168 0v1503h131v-1503h-131z" />
<glyph unicode="m" horiz-adv-x="1767" d="M164 0v1016h119q10 -121 12 -156q111 188 336 189q109 0 187.5 -53.5t113.5 -147.5q111 201 352 201q150 0 240 -90.5t90 -247.5v-711h-131v688q0 119 -58.5 180.5t-169.5 61.5q-193 0 -301 -187v-743h-131v688q0 119 -58 180.5t-167 61.5q-190 0 -301 -191v-739h-133z " />
<glyph unicode="n" horiz-adv-x="1146" d="M164 0v1016h119q10 -113 12 -156q119 188 356 189q154 0 248 -92.5t94 -254.5v-702h-131v678q0 252 -241 252q-203 0 -324 -191v-739h-133z" />
<glyph unicode="o" horiz-adv-x="1144" d="M98 500q0 254 129 397t346 143q221 0 347.5 -133t126.5 -389q0 -252 -130.5 -395t-345.5 -143q-221 0 -347 136t-126 384zM238 518q0 -211 90 -319.5t245 -108.5q158 0 246 106.5t88 311.5q0 209 -89 316.5t-247 107.5q-154 0 -243.5 -105.5t-89.5 -308.5z" />
<glyph unicode="p" horiz-adv-x="1153" d="M164 -410v1426h119q10 -121 12 -158q45 88 129 136t186 48q199 0 322 -136t123 -381.5t-131 -391t-338 -145.5q-170 0 -289 82v-480h-133zM297 176q98 -76 266 -76q160 0 258.5 109.5t98.5 302.5q0 197 -92.5 306.5t-243.5 109.5q-92 0 -168 -52.5t-119 -144.5v-555z" />
<glyph unicode="q" horiz-adv-x="1146" d="M98 475q0 254 136.5 408.5t347.5 154.5q166 0 284 -100q12 49 25 78h90v-1428h-131v582q-104 -186 -315 -186q-195 0 -316 131t-121 360zM233 494q0 -186 90.5 -290t233.5 -104q193 0 293 203v549q-102 76 -242 76q-166 0 -270.5 -115.5t-104.5 -318.5z" />
<glyph unicode="r" horiz-adv-x="733" d="M164 0v1016h119q10 -123 12 -172q94 195 289 194q86 0 127 -32l-25 -117q-43 20 -125 20q-172 0 -264 -200v-709h-133z" />
<glyph unicode="s" horiz-adv-x="886" d="M63 133l68 84q102 -123 295 -123q115 0 177.5 45t62.5 123q0 63 -41 105.5t-152 81.5l-92 34q-150 51 -210 117t-60 166q0 125 95 201.5t257 76.5q203 0 319 -126l-69 -82q-100 96 -246 96q-109 0 -167 -43t-58 -113q0 -66 44 -105.5t169 -82.5l75 -27 q145 -49 207 -115.5t62 -169.5q0 -137 -96.5 -215.5t-270.5 -78.5q-246 -1 -369 151z" />
<glyph unicode="t" horiz-adv-x="755" d="M37 911v90q72 14 176 15q8 162 16 231h111q-2 -45 -2 -231h354v-105h-356q-8 -567 -8 -663q0 -143 137 -144q106 0 178 99l64 -58q-88 -164 -267 -163q-111 0 -177 64.5t-64 178.5l10 686h-172z" />
<glyph unicode="u" horiz-adv-x="1120" d="M154 307v709h131v-697q0 -119 52 -174t159 -55q94 0 182 55.5t145 153.5v717h131v-1016h-118q-10 127 -13 182q-119 -211 -354 -211q-152 0 -233.5 84t-81.5 252z" />
<glyph unicode="v" horiz-adv-x="978" d="M23 1016h143l326 -826l325 826h137l-413 -1022h-105z" />
<glyph unicode="w" horiz-adv-x="1488" d="M59 1016h131l236 -819l281 819h77l277 -815l235 815h131l-303 -1022h-108l-273 774l-268 -774h-108z" />
<glyph unicode="x" horiz-adv-x="1034" d="M45 0l401 528l-368 488h153l293 -398l291 398h154l-373 -496l393 -520h-155l-316 430l-315 -430h-158z" />
<glyph unicode="y" horiz-adv-x="980" d="M23 1016h145l334 -858l321 858h135q-18 -45 -127.5 -333t-213 -556t-115.5 -299q-57 -145 -118.5 -200.5t-156.5 -55.5q-111 0 -180 53l23 88q61 -25 129 -24q106 0 166 125q12 27 75 184z" />
<glyph unicode="z" horiz-adv-x="917" d="M66 88l612 821h-574v107h734l6 -88l-608 -819h616v-109h-782z" />
<glyph unicode="{" horiz-adv-x="724" d="M84 565v121q188 49 188 225q0 63 -23.5 182t-23.5 195q0 166 124 267.5t337 101.5v-109q-156 -8 -242 -80.5t-86 -191.5q0 -57 24 -175t24 -196q0 -207 -199 -280q199 -74 199 -287q0 -80 -24 -202t-24 -181q0 -121 86 -196.5t242 -84.5v-108q-213 0 -337 104.5 t-124 274.5q0 80 23.5 201.5t23.5 185.5q0 180 -188 233z" />
<glyph unicode="|" horiz-adv-x="600" d="M240 -522v2232h120v-2232h-120z" />
<glyph unicode="}" horiz-adv-x="724" d="M39 -326q156 8 242 84t86 197q0 59 -24 181t-24 202q0 213 199 287q-199 74 -199 280q0 78 24 196t24 175q0 119 -86 191.5t-242 80.5v109q213 0 337 -101.5t124 -267.5q0 -76 -23.5 -194.5t-23.5 -182.5q0 -176 188 -225v-121q-188 -53 -188 -233q0 -63 23.5 -185 t23.5 -202q0 -170 -124 -274.5t-337 -104.5v108z" />
<glyph unicode="~" horiz-adv-x="1050" d="M74 461q27 113 93 174t155 61q74 0 149.5 -43t143 -85t118.5 -42q98 0 158 156l86 -37q-25 -113 -89.5 -174t-146.5 -61q-96 0 -231 86t-193 86q-98 0 -157 -158z" />
<glyph unicode="&#xa1;" horiz-adv-x="538" d="M164 944q0 43 30.5 74t73.5 31q45 0 76 -31t31 -74t-31 -73.5t-76 -30.5q-43 0 -73.5 30.5t-30.5 73.5zM195 -100q0 430 20 772h109q18 -307 18 -772v-236h-147v236z" />
<glyph unicode="&#xa2;" horiz-adv-x="1021" d="M74 596q0 254 140 407.5t370 157.5l37 223l96 -14l-37 -215q152 -20 246 -127l-62 -84q-100 84 -202 98l-136 -819h39q199 0 316 160l82 -49q-133 -229 -406 -230q-33 0 -49 2l-35 -219l-96 17l35 219q-156 41 -247 166t-91 307zM209 608q0 -141 59.5 -234t163.5 -130 l131 803q-156 -10 -255 -123t-99 -316z" />
<glyph unicode="&#xa3;" horiz-adv-x="1105" d="M109 0v98q137 113 187 201t50 201q0 57 -14 135h-199v102h176q-43 184 -43 271q0 172 111.5 280.5t296.5 108.5q172 0 284 -82l-45 -90q-94 61 -227 61q-131 0 -207 -75.5t-76 -206.5q0 -94 41 -267h412v-102h-391q12 -86 12 -135q0 -231 -209 -387h774v-113h-933z" />
<glyph unicode="&#xa5;" horiz-adv-x="1202" d="M82 1368v4h149l371 -586h2l373 586h145v-4l-379 -582h340v-90h-415v-211h415v-90h-415v-395h-133v395h-416v90h416v211h-416v90h338z" />
<glyph unicode="&#xa6;" horiz-adv-x="600" d="M240 465h120v-987h-120v987zM240 743v967h120v-967h-120z" />
<glyph unicode="&#xa7;" horiz-adv-x="1007" d="M80 573q0 98 63.5 174t180.5 113q-158 82 -158 244q0 125 94 209t256 84q205 0 320 -125l-68 -84q-100 96 -248 96q-104 0 -164.5 -49t-60.5 -121q0 -66 47 -109.5t162 -89.5l98 -36q170 -66 240.5 -147t70.5 -202q0 -104 -64.5 -184t-180.5 -115q96 -49 138 -110.5 t42 -151.5q0 -129 -98.5 -208.5t-272.5 -79.5q-236 0 -354 141l67 84q100 -113 281 -113q115 0 179.5 46t64.5 124q0 70 -45 115t-160 90l-98 39q-180 70 -256 154.5t-76 211.5zM211 580q0 -92 59.5 -152.5t206.5 -112.5l76 -30q109 25 170 85t61 144q0 88 -57 147.5 t-201 112.5q-59 20 -94 33q-102 -25 -161.5 -84t-59.5 -143z" />
<glyph unicode="&#xa8;" horiz-adv-x="770" d="M115 1348q0 37 26.5 62.5t61.5 25.5q37 0 62.5 -26t25.5 -62q0 -35 -25.5 -60.5t-62.5 -25.5q-35 0 -61.5 25.5t-26.5 60.5zM481 1348q0 37 25.5 62.5t60.5 25.5t61.5 -26t26.5 -62q0 -35 -26.5 -60.5t-61.5 -25.5t-60.5 25.5t-25.5 60.5z" />
<glyph unicode="&#xa9;" horiz-adv-x="1720" d="M100 688q0 330 219.5 556t538.5 226q322 0 542 -226t220 -556t-220 -556t-542 -226q-319 0 -538.5 226t-219.5 556zM203 688q0 -291 189.5 -491.5t465.5 -200.5q279 0 469.5 200.5t190.5 491.5t-190.5 491.5t-469.5 200.5q-276 0 -465.5 -200.5t-189.5 -491.5zM471 676 q0 211 114.5 332.5t301.5 121.5q160 0 252 -90l-60 -82q-78 66 -190 66q-131 0 -213 -88t-82 -256q0 -147 77 -228t208 -81q127 0 206 88l76 -68q-98 -131 -293 -131q-182 0 -289.5 110.5t-107.5 305.5z" />
<glyph unicode="&#xaa;" horiz-adv-x="837" d="M70 756q0 166 153 221q121 45 375 41v110q0 162 -188 162q-141 0 -248 -69l-35 75q127 100 319 101q131 0 203 -62.5t72 -173.5v-622h-111q-8 59 -12 149q-39 -74 -112.5 -118t-159.5 -44q-121 0 -188.5 62t-67.5 168zM195 768q0 -137 159 -137q70 0 137.5 40t106.5 111 v156q-217 -2 -301 -33q-102 -31 -102 -137z" />
<glyph unicode="&#xab;" horiz-adv-x="864" d="M66 526v4l251 441h136l-254 -443l254 -450h-136zM399 526v4l252 441h135l-254 -443l254 -450h-135z" />
<glyph unicode="&#xad;" horiz-adv-x="688" d="M82 489v107h526v-107h-526z" />
<glyph unicode="&#xae;" horiz-adv-x="1126" d="M45 1116q0 223 149.5 377t366.5 154q219 0 369.5 -154t150.5 -377t-150.5 -376.5t-369.5 -153.5q-217 0 -366.5 153.5t-149.5 376.5zM127 1116.5q0 -192.5 126 -326t308 -133.5q184 0 311 133.5t127 326t-127 325.5t-311 133q-182 0 -308 -133t-126 -325.5zM362 846v561 h207q207 0 207 -164q0 -115 -114 -158l147 -237v-2h-96l-135 225h-134v-225h-82zM444 1143h123q53 0 87 26.5t34 69.5q0 94 -127 94h-117v-190z" />
<glyph unicode="&#xaf;" horiz-adv-x="770" d="M100 1282v102h570v-102h-570z" />
<glyph unicode="&#xb0;" horiz-adv-x="776" d="M66 1206q0 137 92 229.5t231 92.5q137 0 229.5 -92.5t92.5 -229.5q0 -139 -92.5 -231t-229.5 -92q-139 0 -231 92t-92 231zM168 1206.5q0 -100.5 61.5 -167t159.5 -66.5q96 0 158.5 66.5t62.5 166.5q0 98 -62.5 165t-158.5 67q-98 0 -159.5 -65.5t-61.5 -166z" />
<glyph unicode="&#xb1;" horiz-adv-x="1148" d="M86 59v107h977v-107h-977zM86 737v107h428v432h123v-432h426v-107h-426v-430h-123v430h-428z" />
<glyph unicode="&#xb2;" horiz-adv-x="1028" d="M49 0v98q309 311 461 487.5t197 264.5t45 176q0 113 -71 181.5t-189 68.5q-205 0 -289 -191l-88 52q45 125 147.5 192.5t249.5 67.5q174 0 277.5 -98.5t103.5 -264.5q0 -164 -130 -347t-542 -574h707v-113h-879z" />
<glyph unicode="&#xb3;" horiz-adv-x="995" d="M27 115l59 82q119 -109 311 -109q158 0 253 77t95 206q0 141 -96 217t-284 76q-66 0 -119 -7l-21 95q229 31 346 112.5t117 198.5q0 102 -67.5 160.5t-180.5 58.5q-184 0 -284 -131l-62 68q51 84 148.5 131t220.5 47q170 0 269 -88t99 -232q0 -231 -266 -338 q150 -23 236 -120t86 -244q0 -180 -128 -290t-347 -110q-256 1 -385 140z" />
<glyph unicode="&#xb4;" horiz-adv-x="770" d="M170 1251q147 158 301 291l51 43l80 -90l-45 -39q-121 -113 -334 -266z" />
<glyph unicode="&#xb6;" horiz-adv-x="1116" d="M78 975q0 188 114.5 292.5t331.5 104.5h414v-1597h-115v1489h-213v-1489h-114v794h-4q-193 0 -303.5 113t-110.5 293z" />
<glyph unicode="&#xb7;" horiz-adv-x="397" d="M94 563q0 43 31 74t74 31t73.5 -31t30.5 -74t-30.5 -73.5t-73.5 -30.5t-74 30.5t-31 73.5z" />
<glyph unicode="&#xb8;" horiz-adv-x="770" d="M193 -449l45 68q53 -37 122 -37q51 0 82 25.5t31 66.5q0 51 -40 80t-114 29q-27 0 -55 -4l-4 4l119 270l74 -28l-68 -160q94 -6 148.5 -55.5t54.5 -128.5q0 -86 -58.5 -139.5t-152.5 -53.5q-114 0 -184 63z" />
<glyph unicode="&#xb9;" horiz-adv-x="667" d="M10 1243l346 131h121v-1374h-135v1245l-301 -104z" />
<glyph unicode="&#xba;" horiz-adv-x="923" d="M70 954q0 207 107.5 325t285.5 118q182 0 286.5 -109.5t104.5 -318.5q0 -207 -107.5 -325t-285.5 -118q-182 0 -286.5 111.5t-104.5 316.5zM201 969q0 -166 70.5 -249t191.5 -83t189.5 82t68.5 242q0 162 -68.5 245.5t-191.5 83.5q-119 0 -189.5 -80.5t-70.5 -240.5z" />
<glyph unicode="&#xbb;" horiz-adv-x="864" d="M76 78l254 450l-254 443h135l252 -441v-4l-252 -448h-135zM410 78l254 450l-254 443h135l252 -441v-4l-252 -448h-135z" />
<glyph unicode="&#xbc;" horiz-adv-x="1488" d="M66 1300l208 72h99v-778h-117v676l-168 -51zM143 -2l934 1382h119v-4l-932 -1382h-121v4zM733 190v78l375 510h127v-499h164v-89h-164v-190h-113v190h-389zM848 279h274v374z" />
<glyph unicode="&#xbd;" horiz-adv-x="1556" d="M66 1300l208 72h99v-778h-117v676l-168 -51zM139 -2l934 1382h119v-4l-932 -1382h-121v4zM883 0v78q252 238 324.5 330t72.5 159q0 55 -38 90t-99 35q-109 0 -162 -96l-66 43q61 154 252 154q109 0 174.5 -57.5t65.5 -153.5q0 -94 -76 -194.5t-303 -295.5h397v-92h-542z " />
<glyph unicode="&#xbe;" horiz-adv-x="1636" d="M76 655l39 72q70 -53 178 -53q88 0 139 37t51 100q0 145 -209 145q-47 0 -67 -4l-12 76q260 35 260 156q0 49 -37 77.5t-99 28.5q-100 0 -161 -61l-43 57q68 100 231 100q106 0 169 -51t63 -133q0 -125 -148 -188q84 -16 132 -70.5t48 -134.5q0 -102 -79.5 -165.5 t-215.5 -63.5q-157 -1 -239 75zM303 -2l934 1382h119v-4l-932 -1382h-121v4zM881 190v78l374 510h127v-499h164v-89h-164v-190h-112v190h-389zM995 279h275v374z" />
<glyph unicode="&#xbf;" horiz-adv-x="899" d="M74 -4q0 143 91 252.5t302 204.5q0 129 10 217h115q8 -84 8 -264q-215 -100 -299 -191.5t-84 -208.5q0 -113 72.5 -180.5t195.5 -67.5q211 0 285 179l94 -50q-37 -115 -141.5 -182t-251.5 -67q-184 0 -290.5 98t-106.5 260zM430 942q0 43 31 74t74 31t73.5 -31t30.5 -74 t-30.5 -73.5t-73.5 -30.5t-74 30.5t-31 73.5z" />
<glyph unicode="&#xc0;" horiz-adv-x="1236" d="M16 0l535 1372h131l535 -1372h-152l-150 393h-608l-147 -393h-144zM297 1712l55 113l68 -33q143 -66 391 -209l-39 -78q-168 59 -414 178zM348 502h526l-262 702z" />
<glyph unicode="&#xc1;" horiz-adv-x="1236" d="M16 0l535 1372h131l535 -1372h-152l-150 393h-608l-147 -393h-144zM348 502h526l-262 702zM403 1583q248 143 392 209l67 33l56 -113l-62 -29q-258 -123 -416 -178z" />
<glyph unicode="&#xc2;" horiz-adv-x="1236" d="M16 0l535 1372h131l535 -1372h-152l-150 393h-608l-147 -393h-144zM291 1565q150 143 284 245h74q127 -98 285 -245l-60 -58q-121 72 -262 179q-147 -109 -262 -179zM348 502h526l-262 702z" />
<glyph unicode="&#xc3;" horiz-adv-x="1236" d="M16 0l535 1372h131l535 -1372h-152l-150 393h-608l-147 -393h-144zM289 1542q-10 104 40 164.5t128 60.5q59 0 170.5 -61t144.5 -61q70 0 82 120l84 -6q10 -104 -39 -164.5t-123 -60.5q-68 0 -180.5 61.5t-140.5 61.5q-74 0 -82 -121zM348 502h526l-262 702z" />
<glyph unicode="&#xc4;" horiz-adv-x="1236" d="M16 0l535 1372h131l535 -1372h-152l-150 393h-608l-147 -393h-144zM317 1630q0 39 28 66.5t65 27.5q41 0 67.5 -26.5t26.5 -67.5q0 -39 -27.5 -65.5t-66.5 -26.5q-37 0 -65 27.5t-28 64.5zM348 502h526l-262 702zM723 1630q0 39 26.5 66.5t65.5 27.5q37 0 64.5 -27.5 t27.5 -66.5t-27.5 -65.5t-64.5 -26.5q-39 0 -65.5 26.5t-26.5 65.5z" />
<glyph unicode="&#xc5;" horiz-adv-x="1236" d="M16 0l535 1372h131l535 -1372h-152l-150 393h-608l-147 -393h-144zM348 502h526l-262 702zM391 1688q0 84 63.5 142t158 58t158 -58t63.5 -142q0 -86 -63.5 -144.5t-158 -58.5t-158 58.5t-63.5 144.5zM487 1688q0 -51 36 -85t89 -34q55 0 91 33.5t36 85.5 q0 49 -35.5 81.5t-91.5 32.5q-53 0 -89 -32.5t-36 -81.5z" />
<glyph unicode="&#xc6;" horiz-adv-x="1748" d="M8 0l563 1372h1012v-115h-629v-497h529v-109h-529v-538h721v-113h-854v477h-481l-188 -477h-144zM383 584h438v676h-170z" />
<glyph unicode="&#xc7;" horiz-adv-x="1234" d="M98 653q0 342 182.5 542t477.5 200q246 0 397 -144l-63 -94q-129 117 -328 117q-231 0 -373.5 -158t-142.5 -457q0 -266 134 -411.5t363 -145.5q227 0 363 158l82 -72q-143 -205 -449 -211l-47 -112q94 -6 148.5 -55.5t54.5 -128.5q0 -86 -58.5 -139.5t-152.5 -53.5 q-115 0 -184 63l45 68q51 -37 123 -37q51 0 81.5 25.5t30.5 66.5q0 51 -40 80t-113 29q-27 0 -56 -4l-4 4l86 199q-260 23 -408.5 197.5t-148.5 473.5z" />
<glyph unicode="&#xc8;" horiz-adv-x="1118" d="M178 0v1372h838v-115h-699v-497h560v-109h-560v-538h721v-113h-860zM295 1712l55 113l68 -33q143 -66 391 -209l-39 -78q-168 59 -414 178z" />
<glyph unicode="&#xc9;" horiz-adv-x="1118" d="M178 0v1372h838v-115h-699v-497h560v-109h-560v-538h721v-113h-860zM401 1583q248 143 392 209l67 33l55 -113l-61 -29q-258 -123 -416 -178z" />
<glyph unicode="&#xca;" horiz-adv-x="1118" d="M178 0v1372h838v-115h-699v-497h560v-109h-560v-538h721v-113h-860zM291 1565q150 143 284 245h74q127 -98 285 -245l-60 -58q-121 72 -262 179q-147 -109 -262 -179z" />
<glyph unicode="&#xcb;" horiz-adv-x="1118" d="M178 0v1372h838v-115h-699v-497h560v-109h-560v-538h721v-113h-860zM317 1630q0 39 28 66.5t65 27.5q41 0 67.5 -26.5t26.5 -67.5q0 -39 -27.5 -65.5t-66.5 -26.5q-37 0 -65 27.5t-28 64.5zM723 1630q0 39 26.5 66.5t65.5 27.5q37 0 64.5 -27.5t27.5 -66.5t-27.5 -65.5 t-64.5 -26.5q-39 0 -65.5 26.5t-26.5 65.5z" />
<glyph unicode="&#xcc;" horiz-adv-x="501" d="M-63 1712l55 113l67 -33q143 -66 392 -209l-39 -78q-168 59 -414 178zM182 0v1372h137v-1372h-137z" />
<glyph unicode="&#xcd;" horiz-adv-x="501" d="M43 1583q248 143 391 209l68 33l55 -113l-61 -29q-258 -123 -416 -178zM182 0v1372h137v-1372h-137z" />
<glyph unicode="&#xce;" horiz-adv-x="501" d="M-70 1565q150 143 285 245h74q127 -98 284 -245l-59 -58q-121 72 -262 179q-147 -109 -262 -179zM182 0v1372h137v-1372h-137z" />
<glyph unicode="&#xcf;" horiz-adv-x="501" d="M-43 1630q0 39 27.5 66.5t64.5 27.5q41 0 67.5 -26.5t26.5 -67.5q0 -39 -27.5 -65.5t-66.5 -26.5q-37 0 -64.5 27.5t-27.5 64.5zM182 0v1372h137v-1372h-137zM362 1630q0 39 27 66.5t66 27.5q37 0 64.5 -27.5t27.5 -66.5t-27.5 -65.5t-64.5 -26.5q-39 0 -66 26.5 t-27 65.5z" />
<glyph unicode="&#xd0;" horiz-adv-x="1406" d="M59 647v111h187v614h370q334 0 513.5 -171t179.5 -496q0 -344 -177.5 -524.5t-517.5 -180.5h-368v647h-187zM385 109h215q276 0 419.5 147t143.5 436q0 281 -147.5 426.5t-421.5 145.5h-209v-506h373v-111h-373v-538z" />
<glyph unicode="&#xd1;" horiz-adv-x="1427" d="M176 0v1372h129l819 -1163l-2 1163h129v-1390h-129l-819 1173l2 -1155h-129zM395 1542q-10 104 40 164.5t128 60.5q59 0 171 -61t145 -61q70 0 82 120l83 -6q10 -104 -39 -164.5t-122 -60.5q-68 0 -180.5 61.5t-141.5 61.5q-74 0 -82 -121z" />
<glyph unicode="&#xd2;" d="M98 682q0 334 168 524.5t455 190.5q291 0 454.5 -183.5t163.5 -521.5q0 -340 -164.5 -528.5t-453.5 -188.5q-295 0 -459 181.5t-164 525.5zM244 692q0 -297 127 -448.5t352 -151.5q219 0 345 148.5t126 441.5q0 297 -126 448.5t-349 151.5q-221 0 -348 -150.5 t-127 -439.5zM406 1712l55 113l67 -33q143 -66 392 -209l-39 -78q-168 59 -414 178z" />
<glyph unicode="&#xd3;" d="M98 682q0 334 168 524.5t455 190.5q291 0 454.5 -183.5t163.5 -521.5q0 -340 -164.5 -528.5t-453.5 -188.5q-295 0 -459 181.5t-164 525.5zM244 692q0 -297 127 -448.5t352 -151.5q219 0 345 148.5t126 441.5q0 297 -126 448.5t-349 151.5q-221 0 -348 -150.5 t-127 -439.5zM512 1583q248 143 391 209l68 33l55 -113l-61 -29q-258 -123 -416 -178z" />
<glyph unicode="&#xd4;" d="M98 682q0 334 168 524.5t455 190.5q291 0 454.5 -183.5t163.5 -521.5q0 -340 -164.5 -528.5t-453.5 -188.5q-295 0 -459 181.5t-164 525.5zM244 692q0 -297 127 -448.5t352 -151.5q219 0 345 148.5t126 441.5q0 297 -126 448.5t-349 151.5q-221 0 -348 -150.5 t-127 -439.5zM399 1565q150 143 285 245h74q127 -98 284 -245l-59 -58q-121 72 -262 179q-147 -109 -262 -179z" />
<glyph unicode="&#xd5;" d="M98 682q0 334 168 524.5t455 190.5q291 0 454.5 -183.5t163.5 -521.5q0 -340 -164.5 -528.5t-453.5 -188.5q-295 0 -459 181.5t-164 525.5zM244 692q0 -297 127 -448.5t352 -151.5q219 0 345 148.5t126 441.5q0 297 -126 448.5t-349 151.5q-221 0 -348 -150.5 t-127 -439.5zM397 1542q-10 104 40 164.5t128 60.5q59 0 171 -61t145 -61q70 0 82 120l84 -6q10 -104 -39.5 -164.5t-122.5 -60.5q-66 0 -178.5 61.5t-143.5 61.5q-74 0 -82 -121z" />
<glyph unicode="&#xd6;" d="M98 682q0 334 168 524.5t455 190.5q291 0 454.5 -183.5t163.5 -521.5q0 -340 -164.5 -528.5t-453.5 -188.5q-295 0 -459 181.5t-164 525.5zM244 692q0 -297 127 -448.5t352 -151.5q219 0 345 148.5t126 441.5q0 297 -126 448.5t-349 151.5q-221 0 -348 -150.5 t-127 -439.5zM426 1630q0 39 27.5 66.5t64.5 27.5q39 0 66.5 -26.5t27.5 -67.5q0 -39 -27.5 -65.5t-66.5 -26.5q-37 0 -64.5 27.5t-27.5 64.5zM831 1630q0 39 27 66.5t66 27.5q37 0 64.5 -27.5t27.5 -66.5t-27.5 -65.5t-64.5 -26.5q-39 0 -66 26.5t-27 65.5z" />
<glyph unicode="&#xd7;" horiz-adv-x="1130" d="M109 240l376 405l-376 406l88 79l368 -399l371 399l88 -79l-377 -406l377 -405l-88 -80l-371 397l-368 -397z" />
<glyph unicode="&#xd8;" d="M98 682q0 334 168 524.5t455 190.5q203 0 352 -103l123 181l88 -54l-131 -192q186 -190 186 -537q0 -340 -164.5 -528.5t-453.5 -188.5q-209 0 -359 103l-129 -191l-83 54l135 200q-187 191 -187 541zM242 692q0 -291 116 -442l646 942q-119 90 -285 90 q-221 0 -349 -150.5t-128 -439.5zM430 178q115 -88 293 -88q219 0 345 149.5t126 442.5q0 281 -119 434z" />
<glyph unicode="&#xd9;" horiz-adv-x="1370" d="M162 475v897h137v-878q0 -401 385 -401.5t385 401.5v878h139v-897q0 -244 -132 -371t-392 -127t-391 127t-131 371zM369 1712l55 113l68 -33q143 -66 391 -209l-39 -78q-168 59 -414 178z" />
<glyph unicode="&#xda;" horiz-adv-x="1370" d="M162 475v897h137v-878q0 -401 385 -401.5t385 401.5v878h139v-897q0 -244 -132 -371t-392 -127t-391 127t-131 371zM475 1583q248 143 391 209l68 33l55 -113l-61 -29q-258 -123 -416 -178z" />
<glyph unicode="&#xdb;" horiz-adv-x="1370" d="M162 475v897h137v-878q0 -401 385 -401.5t385 401.5v878h139v-897q0 -244 -132 -371t-392 -127t-391 127t-131 371zM362 1565q150 143 285 245h74q127 -98 285 -245l-60 -58q-121 72 -262 179q-147 -109 -262 -179z" />
<glyph unicode="&#xdc;" horiz-adv-x="1370" d="M162 475v897h137v-878q0 -401 385 -401.5t385 401.5v878h139v-897q0 -244 -132 -371t-392 -127t-391 127t-131 371zM389 1630q0 39 27.5 66.5t64.5 27.5q39 0 66.5 -26.5t27.5 -67.5q0 -39 -27.5 -65.5t-66.5 -26.5q-37 0 -64.5 27.5t-27.5 64.5zM795 1630 q0 39 26.5 66.5t65.5 27.5q37 0 64.5 -27.5t27.5 -66.5t-27.5 -65.5t-64.5 -26.5q-39 0 -65.5 26.5t-26.5 65.5z" />
<glyph unicode="&#xdd;" horiz-adv-x="1138" d="M12 1368v4h162l399 -706l400 706h153v-4l-487 -842v-526h-137v526zM360 1583q248 143 392 209l67 33l55 -113l-61 -29q-258 -123 -416 -178z" />
<glyph unicode="&#xde;" horiz-adv-x="1097" d="M178 0v1372h139v-248h220q487 0 487 -397q0 -199 -137 -316.5t-371 -117.5h-199v-293h-139zM317 406h199q168 0 265.5 83.5t97.5 229.5q0 143 -90.5 219t-266.5 76h-205v-608z" />
<glyph unicode="&#xdf;" horiz-adv-x="1128" d="M162 0v1124q0 195 109.5 300.5t291.5 105.5q154 0 249 -86t95 -230q0 -82 -39 -154.5t-86 -113.5t-86 -84t-39 -71.5t31 -61.5t127 -100q131 -88 182.5 -165t51.5 -177q0 -141 -87.5 -223t-234.5 -82q-96 0 -180 42t-127 109l55 80q106 -113 244 -113q86 0 138 49.5 t52 133.5q0 66 -37.5 118t-134.5 119q-123 86 -162.5 137.5t-39.5 120.5q0 49 37.5 102.5t83.5 95.5t84 103.5t38 124.5q0 96 -62.5 154.5t-162.5 58.5q-123 0 -190.5 -75.5t-67.5 -217.5v-1124h-133z" />
<glyph unicode="&#xe0;" horiz-adv-x="1009" d="M90 264q0 209 182 271q143 55 451 51v143q0 203 -229 203q-174 0 -299 -84l-35 78q150 121 375 121q150 0 232.5 -75t82.5 -210v-762h-115q-8 72 -12 184q-47 -92 -134 -145t-196 -53q-141 0 -222 74.5t-81 203.5zM221 279q0 -86 51.5 -133.5t145.5 -47.5q88 0 173 55.5 t132 151.5v197q-276 -4 -375 -41q-127 -45 -127 -182zM225 1495l80 90l51 -43q154 -133 301 -291l-53 -61q-213 154 -334 266z" />
<glyph unicode="&#xe1;" horiz-adv-x="1009" d="M90 264q0 209 182 271q143 55 451 51v143q0 203 -229 203q-174 0 -299 -84l-35 78q150 121 375 121q150 0 232.5 -75t82.5 -210v-762h-115q-8 72 -12 184q-47 -92 -134 -145t-196 -53q-141 0 -222 74.5t-81 203.5zM221 279q0 -86 51.5 -133.5t145.5 -47.5q88 0 173 55.5 t132 151.5v197q-276 -4 -375 -41q-127 -45 -127 -182zM324 1251q147 158 301 291l51 43l80 -90l-45 -39q-121 -113 -334 -266z" />
<glyph unicode="&#xe2;" horiz-adv-x="1009" d="M90 264q0 209 182 271q143 55 451 51v143q0 203 -229 203q-174 0 -299 -84l-35 78q150 121 375 121q150 0 232.5 -75t82.5 -210v-762h-115q-8 72 -12 184q-47 -92 -134 -145t-196 -53q-141 0 -222 74.5t-81 203.5zM207 1245q133 176 260 311h63q137 -150 256 -311 l-53 -59q-80 74 -235 241q-156 -168 -236 -241zM221 279q0 -86 51.5 -133.5t145.5 -47.5q88 0 173 55.5t132 151.5v197q-276 -4 -375 -41q-127 -45 -127 -182z" />
<glyph unicode="&#xe3;" horiz-adv-x="1009" d="M90 264q0 209 182 271q143 55 451 51v143q0 203 -229 203q-174 0 -299 -84l-35 78q150 121 375 121q150 0 232.5 -75t82.5 -210v-762h-115q-8 72 -12 184q-47 -92 -134 -145t-196 -53q-141 0 -222 74.5t-81 203.5zM184 1264q-10 104 38 163.5t126 59.5q59 0 163.5 -62.5 t139.5 -62.5q68 0 78 123l82 -6q10 -102 -37 -163t-119 -61q-70 0 -174 62.5t-135 62.5q-68 0 -80 -123zM221 279q0 -86 51.5 -133.5t145.5 -47.5q88 0 173 55.5t132 151.5v197q-276 -4 -375 -41q-127 -45 -127 -182z" />
<glyph unicode="&#xe4;" horiz-adv-x="1009" d="M90 264q0 209 182 271q143 55 451 51v143q0 203 -229 203q-174 0 -299 -84l-35 78q150 121 375 121q150 0 232.5 -75t82.5 -210v-762h-115q-8 72 -12 184q-47 -92 -134 -145t-196 -53q-141 0 -222 74.5t-81 203.5zM221 279q0 -86 51.5 -133.5t145.5 -47.5q88 0 173 55.5 t132 151.5v197q-276 -4 -375 -41q-127 -45 -127 -182zM227 1348q0 37 27 62.5t61 25.5q37 0 62.5 -26t25.5 -62q0 -35 -25.5 -60.5t-62.5 -25.5q-35 0 -61.5 25.5t-26.5 60.5zM594 1348q0 37 25.5 62.5t60.5 25.5t61.5 -26t26.5 -62q0 -35 -26.5 -60.5t-61.5 -25.5 t-60.5 25.5t-25.5 60.5z" />
<glyph unicode="&#xe5;" horiz-adv-x="1009" d="M90 264q0 209 182 271q143 55 451 51v143q0 203 -229 203q-174 0 -299 -84l-35 78q150 121 375 121q150 0 232.5 -75t82.5 -210v-762h-115q-8 72 -12 184q-47 -92 -134 -145t-196 -53q-141 0 -222 74.5t-81 203.5zM221 279q0 -86 51.5 -133.5t145.5 -47.5q88 0 173 55.5 t132 151.5v197q-276 -4 -375 -41q-127 -45 -127 -182zM281 1393q0 88 61 146t155.5 58t156 -58t61.5 -146q0 -90 -61.5 -149.5t-156 -59.5t-155.5 59.5t-61 149.5zM375 1390.5q0 -53.5 34.5 -89t88.5 -35.5q55 0 90 35.5t35 89t-35 88t-90 34.5q-53 0 -88 -34.5t-35 -88z " />
<glyph unicode="&#xe6;" horiz-adv-x="1646" d="M90 264q0 211 182 273q143 53 453 51v139q0 205 -231 205q-174 0 -299 -84l-35 78q145 119 375 118q244 0 286 -200q109 197 348 196q205 0 302.5 -146t72.5 -390h-702v-19q0 -184 86 -284.5t233 -100.5q188 0 295 162l78 -53q-121 -227 -381 -227q-139 0 -240.5 63.5 t-144.5 179.5q-43 -111 -143.5 -175t-223.5 -64q-147 0 -229 74.5t-82 203.5zM221 279q0 -86 52.5 -134.5t148.5 -48.5q92 0 177 53.5t126 147.5v209q-281 -6 -377 -43q-127 -45 -127 -184zM848 592h569q4 154 -56.5 247t-197.5 93q-129 0 -212 -87t-103 -253z" />
<glyph unicode="&#xe7;" horiz-adv-x="968" d="M92 481q0 254 136.5 405.5t355.5 151.5q199 0 313 -135l-63 -88q-109 109 -252 109q-154 0 -253.5 -113t-99.5 -322q0 -182 87 -284.5t235 -102.5q182 0 287 160l82 -51q-117 -215 -351 -227l-49 -119q94 -6 148.5 -55.5t54.5 -128.5q0 -86 -58.5 -139.5t-152.5 -53.5 q-115 0 -184 63l45 68q53 -37 123 -37q51 0 81.5 25.5t30.5 66.5q0 51 -40 80t-113 29q-27 0 -56 -4l-4 4l88 203q-178 18 -284.5 151t-106.5 344z" />
<glyph unicode="&#xe8;" horiz-adv-x="1058" d="M98 479q0 264 129 412.5t334 148.5q217 0 317.5 -145t75.5 -389h-723v-21q0 -184 90.5 -284.5t245.5 -100.5q188 0 301 162l76 -53q-121 -227 -387 -227q-209 0 -334 129.5t-125 367.5zM240 606h589q0 326 -270 326q-127 0 -210.5 -82t-108.5 -244zM289 1495l80 90 l51 -43q154 -133 301 -291l-53 -61q-213 154 -334 266z" />
<glyph unicode="&#xe9;" horiz-adv-x="1058" d="M98 479q0 264 129 412.5t334 148.5q217 0 317.5 -145t75.5 -389h-723v-21q0 -184 90.5 -284.5t245.5 -100.5q188 0 301 162l76 -53q-121 -227 -387 -227q-209 0 -334 129.5t-125 367.5zM240 606h589q0 326 -270 326q-127 0 -210.5 -82t-108.5 -244zM387 1251 q147 158 301 291l51 43l80 -90l-45 -39q-121 -113 -334 -266z" />
<glyph unicode="&#xea;" horiz-adv-x="1058" d="M98 479q0 264 129 412.5t334 148.5q217 0 317.5 -145t75.5 -389h-723v-21q0 -184 90.5 -284.5t245.5 -100.5q188 0 301 162l76 -53q-121 -227 -387 -227q-209 0 -334 129.5t-125 367.5zM240 606h589q0 326 -270 326q-127 0 -210.5 -82t-108.5 -244zM266 1245 q133 176 260 311h64q137 -150 256 -311l-53 -59q-80 74 -236 241q-156 -168 -235 -241z" />
<glyph unicode="&#xeb;" horiz-adv-x="1058" d="M98 479q0 264 129 412.5t334 148.5q217 0 317.5 -145t75.5 -389h-723v-21q0 -184 90.5 -284.5t245.5 -100.5q188 0 301 162l76 -53q-121 -227 -387 -227q-209 0 -334 129.5t-125 367.5zM240 606h589q0 326 -270 326q-127 0 -210.5 -82t-108.5 -244zM287 1348 q0 37 26.5 62.5t61.5 25.5q37 0 62.5 -26t25.5 -62q0 -35 -25.5 -60.5t-62.5 -25.5q-35 0 -61.5 25.5t-26.5 60.5zM653 1348q0 37 26 62.5t60.5 25.5t61 -26t26.5 -62q0 -35 -26.5 -60.5t-61 -25.5t-60.5 25.5t-26 60.5z" />
<glyph unicode="&#xec;" horiz-adv-x="462" d="M-41 1495l80 90l51 -43q154 -133 301 -291l-53 -61q-213 154 -334 266zM164 0v1016h133v-1016h-133z" />
<glyph unicode="&#xed;" horiz-adv-x="462" d="M57 1251q147 158 301 291l52 43l79 -90l-45 -39q-121 -113 -333 -266zM164 0v1016h133v-1016h-133z" />
<glyph unicode="&#xee;" horiz-adv-x="462" d="M-59 1245q133 176 260 311h63q137 -150 256 -311l-53 -59q-80 74 -236 241q-156 -168 -235 -241zM164 0v1016h133v-1016h-133z" />
<glyph unicode="&#xef;" horiz-adv-x="462" d="M-39 1348q0 37 26.5 62.5t61.5 25.5q37 0 62.5 -26t25.5 -62q0 -35 -25.5 -60.5t-62.5 -25.5q-35 0 -61.5 25.5t-26.5 60.5zM164 0v1016h133v-1016h-133zM328 1348q0 37 25.5 62.5t60.5 25.5t61.5 -26t26.5 -62q0 -35 -26.5 -60.5t-61.5 -25.5t-60.5 25.5t-25.5 60.5z " />
<glyph unicode="&#xf0;" horiz-adv-x="1144" d="M106 494q0 221 131.5 353t340.5 132q141 0 241 -66q-61 180 -203 310l-331 -166l-35 71l301 152q-102 80 -270 154l47 92q188 -72 336 -191l223 113l35 -72l-193 -98q283 -272 283 -713q0 -287 -114 -438.5t-320 -151.5q-219 0 -345.5 137.5t-126.5 381.5zM244 504 q0 -201 90 -309.5t237 -108.5q139 0 221 110.5t82 346.5q0 152 -26 272q-113 68 -252 68q-164 0 -258 -97.5t-94 -281.5z" />
<glyph unicode="&#xf1;" horiz-adv-x="1146" d="M164 0v1016h119q10 -113 12 -156q119 188 356 189q154 0 248 -92.5t94 -254.5v-702h-131v678q0 252 -241 252q-203 0 -324 -191v-739h-133zM272 1264q-10 104 38 163.5t126 59.5q59 0 164 -62.5t139 -62.5q68 0 78 123l82 -6q10 -102 -37 -163t-119 -61q-68 0 -172 62.5 t-137 62.5q-68 0 -80 -123z" />
<glyph unicode="&#xf2;" horiz-adv-x="1144" d="M98 500q0 254 129 397t346 143q221 0 347.5 -133t126.5 -389q0 -252 -130.5 -395t-345.5 -143q-221 0 -347 136t-126 384zM238 518q0 -211 90 -319.5t245 -108.5q158 0 246 106.5t88 311.5q0 209 -89 316.5t-247 107.5q-154 0 -243.5 -105.5t-89.5 -308.5zM301 1495 l80 90l51 -43q154 -133 301 -291l-53 -61q-213 154 -334 266z" />
<glyph unicode="&#xf3;" horiz-adv-x="1144" d="M98 500q0 254 129 397t346 143q221 0 347.5 -133t126.5 -389q0 -252 -130.5 -395t-345.5 -143q-221 0 -347 136t-126 384zM238 518q0 -211 90 -319.5t245 -108.5q158 0 246 106.5t88 311.5q0 209 -89 316.5t-247 107.5q-154 0 -243.5 -105.5t-89.5 -308.5zM397 1251 q147 158 301 291l52 43l79 -90l-45 -39q-121 -113 -333 -266z" />
<glyph unicode="&#xf4;" horiz-adv-x="1144" d="M98 500q0 254 129 397t346 143q221 0 347.5 -133t126.5 -389q0 -252 -130.5 -395t-345.5 -143q-221 0 -347 136t-126 384zM238 518q0 -211 90 -319.5t245 -108.5q158 0 246 106.5t88 311.5q0 209 -89 316.5t-247 107.5q-154 0 -243.5 -105.5t-89.5 -308.5zM283 1245 q133 176 260 311h63q137 -150 256 -311l-53 -59q-80 74 -236 241q-156 -168 -235 -241z" />
<glyph unicode="&#xf5;" horiz-adv-x="1144" d="M98 500q0 254 129 397t346 143q221 0 347.5 -133t126.5 -389q0 -252 -130.5 -395t-345.5 -143q-221 0 -347 136t-126 384zM238 518q0 -211 90 -319.5t245 -108.5q158 0 246 106.5t88 311.5q0 209 -89 316.5t-247 107.5q-154 0 -243.5 -105.5t-89.5 -308.5zM260 1264 q-10 104 38 163.5t126 59.5q59 0 163.5 -62.5t139.5 -62.5q68 0 78 123l82 -6q10 -102 -37 -163t-119 -61q-68 0 -172 62.5t-137 62.5q-68 0 -80 -123z" />
<glyph unicode="&#xf6;" horiz-adv-x="1144" d="M98 500q0 254 129 397t346 143q221 0 347.5 -133t126.5 -389q0 -252 -130.5 -395t-345.5 -143q-221 0 -347 136t-126 384zM238 518q0 -211 90 -319.5t245 -108.5q158 0 246 106.5t88 311.5q0 209 -89 316.5t-247 107.5q-154 0 -243.5 -105.5t-89.5 -308.5zM303 1348 q0 37 26.5 62.5t61.5 25.5q37 0 62.5 -26t25.5 -62q0 -35 -25.5 -60.5t-62.5 -25.5q-35 0 -61.5 25.5t-26.5 60.5zM670 1348q0 37 25.5 62.5t60.5 25.5t61.5 -26t26.5 -62q0 -35 -26.5 -60.5t-61.5 -25.5t-60.5 25.5t-25.5 60.5z" />
<glyph unicode="&#xf7;" horiz-adv-x="1130" d="M70 625v112h991v-112h-991zM469 274q0 41 27.5 69t68.5 28t69 -28t28 -69t-28 -68.5t-69 -27.5t-68.5 27.5t-27.5 68.5zM469 1089.5q0 40.5 27.5 68.5t68.5 28t69 -28t28 -68.5t-28 -68.5t-69 -28t-68.5 28t-27.5 68.5z" />
<glyph unicode="&#xf8;" horiz-adv-x="1144" d="M98 500q0 254 129 397t346 143q147 0 258 -69l117 166l76 -52l-121 -172q143 -139 144 -395q0 -252 -130.5 -395t-345.5 -143q-154 0 -264 73l-112 -159l-76 49l117 168q-138 143 -138 389zM231 518q0 -199 74 -305l467 666q-78 57 -201 57q-156 0 -248 -106.5 t-92 -311.5zM369 145q80 -59 204 -59q158 0 248 107.5t90 314.5q0 197 -75 307z" />
<glyph unicode="&#xf9;" horiz-adv-x="1120" d="M154 307v709h131v-697q0 -119 52 -174t159 -55q94 0 182 55.5t145 153.5v717h131v-1016h-118q-10 127 -13 182q-119 -211 -354 -211q-152 0 -233.5 84t-81.5 252zM283 1495l79 90l52 -43q154 -133 301 -291l-53 -61q-213 154 -334 266z" />
<glyph unicode="&#xfa;" horiz-adv-x="1120" d="M154 307v709h131v-697q0 -119 52 -174t159 -55q94 0 182 55.5t145 153.5v717h131v-1016h-118q-10 127 -13 182q-119 -211 -354 -211q-152 0 -233.5 84t-81.5 252zM379 1251q147 158 301 291l51 43l80 -90l-45 -39q-121 -113 -334 -266z" />
<glyph unicode="&#xfb;" horiz-adv-x="1120" d="M154 307v709h131v-697q0 -119 52 -174t159 -55q94 0 182 55.5t145 153.5v717h131v-1016h-118q-10 127 -13 182q-119 -211 -354 -211q-152 0 -233.5 84t-81.5 252zM264 1245q133 176 260 311h64q137 -150 256 -311l-53 -59q-80 74 -236 241q-156 -168 -236 -241z" />
<glyph unicode="&#xfc;" horiz-adv-x="1120" d="M154 307v709h131v-697q0 -119 52 -174t159 -55q94 0 182 55.5t145 153.5v717h131v-1016h-118q-10 127 -13 182q-119 -211 -354 -211q-152 0 -233.5 84t-81.5 252zM285 1348q0 37 26.5 62.5t61.5 25.5q37 0 62.5 -26t25.5 -62q0 -35 -25.5 -60.5t-62.5 -25.5 q-35 0 -61.5 25.5t-26.5 60.5zM651 1348q0 37 25.5 62.5t60.5 25.5t61.5 -26t26.5 -62q0 -35 -26.5 -60.5t-61.5 -25.5t-60.5 25.5t-25.5 60.5z" />
<glyph unicode="&#xfd;" horiz-adv-x="980" d="M23 1016h145l334 -858l321 858h135q-18 -45 -127.5 -333t-213 -556t-115.5 -299q-57 -145 -118.5 -200.5t-156.5 -55.5q-111 0 -180 53l23 88q61 -25 129 -24q106 0 166 125q12 27 75 184zM317 1251q147 158 301 291l52 43l80 -90l-45 -39q-121 -113 -334 -266z" />
<glyph unicode="&#xfe;" horiz-adv-x="1153" d="M164 -410v1913h133v-641q45 86 128 133t185 47q199 0 322 -136t123 -381.5t-131 -391t-338 -145.5q-170 0 -289 82v-480h-133zM297 176q98 -76 266 -76q160 0 258.5 109.5t98.5 302.5q0 197 -92.5 306.5t-243.5 109.5q-92 0 -168 -52.5t-119 -144.5v-555z" />
<glyph unicode="&#xff;" horiz-adv-x="980" d="M23 1016h145l334 -858l321 858h135q-18 -45 -127.5 -333t-213 -556t-115.5 -299q-57 -145 -118.5 -200.5t-156.5 -55.5q-111 0 -180 53l23 88q61 -25 129 -24q106 0 166 125q12 27 75 184zM223 1348q0 37 26.5 62.5t61.5 25.5q37 0 62.5 -26t25.5 -62q0 -35 -25.5 -60.5 t-62.5 -25.5q-35 0 -61.5 25.5t-26.5 60.5zM590 1348q0 37 25.5 62.5t60.5 25.5t61.5 -26t26.5 -62q0 -35 -26.5 -60.5t-61.5 -25.5t-60.5 25.5t-25.5 60.5z" />
<glyph unicode="&#x152;" horiz-adv-x="2080" d="M98 682q0 334 162 524.5t434 190.5q342 0 471 -279v254h817v-115h-700v-497h561v-109h-561v-538h723v-113h-840v264q-125 -289 -471 -289q-279 0 -437.5 182.5t-158.5 524.5zM244 692q0 -297 121.5 -448.5t339.5 -151.5q213 0 332.5 148.5t119.5 441.5q0 297 -121 448.5 t-336 151.5q-213 0 -334.5 -150.5t-121.5 -439.5z" />
<glyph unicode="&#x153;" horiz-adv-x="1841" d="M98 500q0 254 128 397t341 143q147 0 251 -66.5t147 -191.5q104 258 378 258q217 0 317.5 -145t76.5 -389h-723v-21q0 -184 90 -284.5t246 -100.5q188 0 299 162l77 -53q-121 -227 -387 -227q-291 0 -387 243q-47 -119 -149.5 -182t-237.5 -63q-219 0 -343 136t-124 384z M238 518q0 -211 88 -319.5t241 -108.5q156 0 242 106.5t86 311.5q0 209 -87 316.5t-243 107.5q-152 0 -239.5 -105.5t-87.5 -308.5zM1022 606h588q0 326 -269 326q-127 0 -210.5 -82t-108.5 -244z" />
<glyph unicode="&#x178;" horiz-adv-x="1138" d="M12 1368v4h162l399 -706l400 706h153v-4l-487 -842v-526h-137v526zM274 1630q0 39 28 66.5t65 27.5q39 0 66.5 -26.5t27.5 -67.5q0 -39 -27.5 -65.5t-66.5 -26.5q-37 0 -65 27.5t-28 64.5zM680 1630q0 39 26.5 66.5t65.5 27.5q37 0 64.5 -27.5t27.5 -66.5t-27.5 -65.5 t-64.5 -26.5q-39 0 -65.5 26.5t-26.5 65.5z" />
<glyph unicode="&#x2c6;" horiz-adv-x="770" d="M94 1245q133 176 260 311h64q137 -150 256 -311l-53 -59q-80 74 -236 241q-156 -168 -235 -241z" />
<glyph unicode="&#x2dc;" horiz-adv-x="770" d="M72 1264q-10 104 38 163.5t126 59.5q59 0 163.5 -62.5t139.5 -62.5q68 0 77 123l82 -6q10 -102 -37 -163t-118 -61q-68 0 -172.5 62.5t-137.5 62.5q-68 0 -79 -123z" />
<glyph unicode="&#x2000;" horiz-adv-x="944" />
<glyph unicode="&#x2001;" horiz-adv-x="1888" />
<glyph unicode="&#x2002;" horiz-adv-x="944" />
<glyph unicode="&#x2003;" horiz-adv-x="1888" />
<glyph unicode="&#x2004;" horiz-adv-x="628" />
<glyph unicode="&#x2005;" horiz-adv-x="471" />
<glyph unicode="&#x2006;" horiz-adv-x="313" />
<glyph unicode="&#x2007;" horiz-adv-x="313" />
<glyph unicode="&#x2008;" horiz-adv-x="235" />
<glyph unicode="&#x2009;" horiz-adv-x="376" />
<glyph unicode="&#x200a;" horiz-adv-x="104" />
<glyph unicode="&#x2010;" horiz-adv-x="688" d="M82 489v107h526v-107h-526z" />
<glyph unicode="&#x2011;" horiz-adv-x="688" d="M82 489v107h526v-107h-526z" />
<glyph unicode="&#x2012;" horiz-adv-x="688" d="M82 489v107h526v-107h-526z" />
<glyph unicode="&#x2013;" horiz-adv-x="1087" d="M70 494v104h948v-104h-948z" />
<glyph unicode="&#x2014;" horiz-adv-x="1787" d="M70 494v104h1648v-104h-1648z" />
<glyph unicode="&#x2018;" horiz-adv-x="335" d="M68 1229q0 199 163 321l66 -55q-100 -106 -100 -260v-186h-121q-8 80 -8 180z" />
<glyph unicode="&#x2019;" horiz-adv-x="335" d="M37 1071q100 106 100 260v187h121q8 -80 8 -181q0 -199 -164 -321z" />
<glyph unicode="&#x201a;" horiz-adv-x="335" d="M37 -258q100 106 100 260v186h121q8 -80 8 -180q0 -199 -164 -321z" />
<glyph unicode="&#x201c;" horiz-adv-x="612" d="M68 1229q0 199 163 321l66 -55q-100 -106 -100 -260v-186h-121q-8 80 -8 180zM344 1229q0 199 164 321l65 -55q-100 -106 -100 -260v-186h-121q-8 80 -8 180z" />
<glyph unicode="&#x201d;" horiz-adv-x="612" d="M37 1071q100 106 100 260v187h121q8 -80 8 -181q0 -199 -164 -321zM313 1071q100 106 101 260v187h121q8 -80 8 -181q0 -199 -164 -321z" />
<glyph unicode="&#x201e;" horiz-adv-x="612" d="M37 -258q100 106 100 260v186h121q8 -80 8 -180q0 -199 -164 -321zM313 -258q100 106 101 260v186h121q8 -80 8 -180q0 -199 -164 -321z" />
<glyph unicode="&#x2022;" horiz-adv-x="706" d="M125 549q0 96 66.5 162.5t160.5 66.5t162 -67.5t68 -161.5t-66.5 -160.5t-163.5 -66.5q-94 0 -160.5 66.5t-66.5 160.5z" />
<glyph unicode="&#x2026;" horiz-adv-x="1511" d="M100 92q0 43 31 74t74 31t73.5 -31t30.5 -74t-30.5 -73.5t-73.5 -30.5t-74 30.5t-31 73.5zM649 92q0 43 31 74t74 31t73.5 -31t30.5 -74t-30.5 -73.5t-73.5 -30.5t-74 30.5t-31 73.5zM1198 92q0 43 31 74t74 31t73.5 -31t30.5 -74t-30.5 -73.5t-73.5 -30.5t-74 30.5 t-31 73.5z" />
<glyph unicode="&#x202f;" horiz-adv-x="376" />
<glyph unicode="&#x2039;" horiz-adv-x="530" d="M66 526v4l251 441h136l-254 -443l254 -450h-136z" />
<glyph unicode="&#x203a;" horiz-adv-x="530" d="M70 78l254 450l-254 443h135l252 -441v-4l-252 -448h-135z" />
<glyph unicode="&#x205f;" horiz-adv-x="471" />
<glyph unicode="&#x20ac;" horiz-adv-x="1226" d="M70 500v92h163v61q0 76 11 162h-174v92h190q51 229 196.5 358.5t348.5 129.5q209 0 344 -146l-64 -82q-115 115 -274 115q-152 0 -261.5 -96t-152.5 -279h484v-92h-502q-8 -66 -8 -156q0 -47 2 -67h508v-92h-500q33 -197 140.5 -301.5t273.5 -104.5q186 0 307 158l76 -64 q-127 -211 -398 -211q-221 0 -362.5 136.5t-173.5 386.5h-174z" />
<glyph unicode="&#x2122;" horiz-adv-x="1560" d="M20 1386v87h572v-87h-236v-634h-100v634h-236zM657 752l54 721h129l215 -578l217 578h131l55 -721h-94l-45 600l-221 -600h-86l-221 596l-41 -596h-93z" />
<glyph unicode="&#xe000;" horiz-adv-x="1014" d="M0 1015h1015v-1015h-1015v1015z" />
<glyph unicode="&#xfb01;" horiz-adv-x="1062" d="M39 911v90q74 14 178 15h4v119q0 184 106.5 286.5t278.5 102.5q156 0 266 -64l-34 -90q-94 41 -209 41q-133 0 -204 -72.5t-71 -210.5v-112h566v-1016h-132v913h-434v-913h-133v911h-182z" />
<glyph unicode="&#xfb02;" horiz-adv-x="1118" d="M39 911v90q74 14 178 15h4v125q0 180 95.5 281.5t252.5 101.5q76 0 133 -21v-108q-41 14 -108 14q-240 0 -240 -276v-117h328v-105h-328v-911h-133v911h-182zM819 0v1503h131v-1503h-131z" />
<glyph unicode="&#xfb03;" horiz-adv-x="1650" d="M39 911v90q74 14 178 15h4v119q0 180 93.5 282.5t244.5 102.5q125 0 211 -54l-33 -90q-76 29 -151 29q-111 0 -172.5 -69.5t-61.5 -207.5v-112h457v119q0 184 106.5 286.5t276.5 102.5q154 0 268 -64l-37 -90q-94 41 -206 41q-274 0 -275 -283v-112h565v-1016h-133v913 h-432v-913h-133v913h-457v-913h-131v911h-182z" />
<glyph unicode="&#xfb04;" horiz-adv-x="1705" d="M39 911v90q74 14 178 15h4v125q0 178 93.5 280.5t244.5 102.5q123 0 211 -51l-33 -93q-68 29 -151 29q-111 0 -172.5 -69.5t-61.5 -206.5v-117h457v125q0 180 95 281.5t253 101.5q76 0 133 -21v-108q-41 14 -106 14q-242 0 -242 -276v-117h328v-105h-328v-911h-133v913 h-457v-913h-131v911h-182zM1407 0v1503h131v-1503h-131z" />
</font>
</defs>
</svg>
