<?xml version="1.0" standalone="no"?>
<!DOCTYPE svg PUBLIC "-//W3C//DTD SVG 1.1//EN" "http://www.w3.org/Graphics/SVG/1.1/DTD/svg11.dtd" >
<svg xmlns="http://www.w3.org/2000/svg">
<metadata>
This is a custom SVG webfont generated by Font Squirrel.
Copyright   : 2010 Commercial Type All rights reserved Licensed for exclusive use by Apollo Group and its subsidiaries
Designer    : Dan Milne
Foundry     : Commercial Type
Foundry URL : httpcommercialtypecom
</metadata>
<defs>
<font id="PhoenixSansBoldItalic" horiz-adv-x="1161" >
<font-face units-per-em="2048" ascent="1638" descent="-410" />
<missing-glyph horiz-adv-x="423" />
<glyph unicode=" "  horiz-adv-x="423" />
<glyph unicode="&#x09;" horiz-adv-x="423" />
<glyph unicode="&#xa0;" horiz-adv-x="423" />
<glyph unicode="!" horiz-adv-x="665" d="M70 170q0 82 57 137t141 55t141.5 -55t57.5 -137q0 -80 -58.5 -136.5t-140.5 -56.5t-140 56.5t-58 136.5zM174 465q43 434 92 713l33 194h346l-37 -213q-31 -184 -159 -694h-275z" />
<glyph unicode="&#x22;" horiz-adv-x="888" d="M190 971q0 225 58 573h301q-51 -313 -133 -573h-226zM610 971q0 246 58 573h301q-51 -313 -133 -573h-226z" />
<glyph unicode="#" horiz-adv-x="1251" d="M6 350l62 211h217l77 256h-217l64 211h217l102 344h228l-103 -344h199l104 344h226l-103 -344h217l-63 -211h-217l-76 -256h217l-63 -211h-217l-105 -350h-229l104 350h-198l-105 -350h-227l104 350h-215zM512 561h199l77 256h-198z" />
<glyph unicode="$" horiz-adv-x="1112" d="M-16 162l139 196q80 -70 201 -108l141 352q-297 121 -297 373q0 199 152.5 310.5t388.5 111.5q25 0 73 -4l88 219l150 -56l-78 -196q133 -43 199 -113l-140 -190q-63 51 -147 80l-131 -330q168 -74 241.5 -162t73.5 -229q0 -199 -151.5 -320t-403.5 -121q-53 0 -98 7 l-92 -232l-148 51l86 215q-141 48 -247 146zM449 1016q0 -90 126 -148l117 297q-115 0 -179 -38.5t-64 -110.5zM479 223h15q117 0 181 44t64 118q0 94 -133 160z" />
<glyph unicode="%" horiz-adv-x="1691" d="M86 936q0 186 110.5 323.5t290.5 137.5q139 0 227.5 -91.5t86.5 -248.5q0 -195 -115 -328t-287 -133q-139 2 -227 92t-86 248zM201 -2l1108 1382h241v-4l-1108 -1382h-241v4zM326 944q0 -59 24.5 -92t65.5 -33q68 0 107.5 68.5t39.5 161.5q0 127 -90 127 q-72 0 -109.5 -73t-37.5 -159zM946 315q0 188 110.5 325.5t291.5 137.5q139 -2 227 -92t88 -248q-2 -197 -116.5 -330t-284.5 -131q-139 0 -228.5 90t-87.5 248zM1188 324q-2 -59 22.5 -92t67.5 -33q66 0 105.5 69.5t39.5 161.5q2 59 -22.5 92t-67.5 33q-72 0 -108.5 -72.5 t-36.5 -158.5z" />
<glyph unicode="&#x26;" horiz-adv-x="1363" d="M35 334q0 145 85 247.5t259 186.5q-100 150 -100 289q0 150 112.5 245t306.5 95q178 0 282.5 -82t104.5 -215q0 -125 -86 -211t-254 -160l191 -252q80 139 104 316h269q-23 -299 -215 -525l200 -264v-4h-336l-73 94q-168 -121 -375 -121q-221 0 -348 100.5t-127 260.5z M348 387q0 -80 57.5 -128t153.5 -48q100 0 193 61l-258 342q-146 -92 -146 -227zM561 1057q0 -70 72 -172q176 92 176 207q0 49 -30.5 78.5t-84.5 29.5q-66 0 -99.5 -42t-33.5 -101z" />
<glyph unicode="'" horiz-adv-x="471" d="M190 971q0 225 58 573h301q-51 -313 -133 -573h-226z" />
<glyph unicode="(" horiz-adv-x="761" d="M143 397q0 440 160 755.5t416 514.5l162 -156q-211 -203 -330 -468t-119 -652q0 -365 176 -721l-207 -119q-258 387 -258 846z" />
<glyph unicode=")" horiz-adv-x="761" d="M-86 -293q211 211 326.5 473t115.5 647q0 371 -172 719l203 123q260 -391 260 -848q0 -440 -159.5 -755.5t-415.5 -514.5z" />
<glyph unicode="*" horiz-adv-x="917" d="M137 1092l39 16q104 43 262 63q-141 57 -231 127l-35 27l129 170l33 -29q86 -68 180 -198q-14 158 4 268l6 45h207l-8 -45q-16 -111 -94 -289q133 109 241 156l43 18l74 -198l-41 -17q-102 -45 -272 -67q141 -57 239 -129l35 -27l-127 -168l-35 29q-100 82 -188 207 q16 -152 -2 -279l-6 -45h-207l8 45q14 111 90 281q-115 -92 -227 -142l-41 -16z" />
<glyph unicode="+" horiz-adv-x="1153" d="M57 545l45 274h390l69 418h281l-70 -418h387l-45 -274h-387l-68 -418h-282l69 418h-389z" />
<glyph unicode="," horiz-adv-x="524" d="M-96 -168q63 68 99 135.5t54 177.5l33 193h293q4 -109 -16 -203q-29 -143 -100.5 -246.5t-203.5 -193.5z" />
<glyph unicode="-" horiz-adv-x="745" d="M80 420l43 258h561l-43 -258h-561z" />
<glyph unicode="." horiz-adv-x="569" d="M29 180q0 86 59 145.5t143 59.5t143.5 -59.5t59.5 -145.5q0 -84 -59.5 -143.5t-143.5 -59.5t-143 59.5t-59 143.5z" />
<glyph unicode="/" horiz-adv-x="897" d="M-135 -455l889 2003h288l-892 -2003h-285z" />
<glyph unicode="0" horiz-adv-x="1310" d="M94 545q0 356 181.5 603t480.5 249q246 2 380 -142.5t134 -418.5q0 -383 -191.5 -617.5t-468.5 -234.5q-246 0 -381 147.5t-135 413.5zM432 526q0 -293 180 -293q125 0 221.5 190.5t96.5 432.5q0 293 -178 293q-127 0 -223.5 -191.5t-96.5 -431.5z" />
<glyph unicode="1" horiz-adv-x="692" d="M76 1266l334 106h284l-229 -1372h-328l185 1098l-195 -51z" />
<glyph unicode="2" horiz-adv-x="1067" d="M-20 0l34 205q317 276 453.5 407t184.5 206t46 151q-2 68 -47 108.5t-123 40.5q-131 0 -215 -129l-161 137q55 111 172.5 191t281.5 80q199 0 316.5 -103.5t117.5 -281.5q0 -176 -131 -334t-485 -428h541l-43 -250h-942z" />
<glyph unicode="3" horiz-adv-x="1024" d="M-23 102l97 199q125 -72 268 -72q113 0 184.5 50.5t71.5 140.5q0 84 -62.5 131t-181.5 47q-70 0 -98 -4l2 201q401 31 401 206q0 66 -43 102t-116 36q-125 0 -224 -78l-100 168q68 74 177.5 121t236.5 47q186 0 295.5 -89t109.5 -249q0 -227 -268 -328q215 -76 215 -311 q0 -201 -149.5 -323t-395.5 -122q-248 0 -420 127z" />
<glyph unicode="4" horiz-adv-x="1218" d="M20 264l35 215l719 893h344l-145 -870h223l-39 -238h-225l-43 -264h-301l43 264h-611zM348 502h324l88 518z" />
<glyph unicode="5" horiz-adv-x="989" d="M-31 92l97 203q127 -68 262 -68q117 0 185.5 62.5t68.5 159.5q0 100 -79 151t-220 51q-70 0 -144 -8l166 729h692l-45 -258h-452l-58 -242h15q221 0 342 -105t121 -296q0 -223 -152 -359.5t-391 -136.5q-242 0 -408 117z" />
<glyph unicode="6" horiz-adv-x="1155" d="M80 465q0 393 283.5 648t728.5 269l36 -211q-244 -23 -410.5 -127t-248.5 -272q115 82 260 82q174 0 275.5 -102.5t101.5 -280.5q0 -221 -148.5 -358.5t-388.5 -137.5q-227 0 -358 137.5t-131 352.5zM397 434q0 -102 45 -162.5t123 -60.5q88 0 149.5 71.5t61.5 182.5 q0 82 -43 129t-123 47q-115 0 -202 -72q-11 -53 -11 -135z" />
<glyph unicode="7" horiz-adv-x="1021" d="M92 0v4l588 1106h-567l45 262h917l-41 -244l-592 -1128h-350z" />
<glyph unicode="8" horiz-adv-x="1185" d="M49 330q0 262 346 370q-190 135 -190 318q0 160 128 269.5t365 109.5q209 0 331 -93.5t122 -252.5q0 -215 -268 -322q119 -76 175 -152.5t56 -187.5q0 -188 -150.5 -301t-408.5 -113q-231 0 -368.5 98.5t-137.5 256.5zM379 354q0 -68 53 -108.5t141 -40.5q90 0 148.5 46 t58.5 120q0 51 -27.5 91t-61.5 63.5t-97 58.5l-6 2q-209 -80 -209 -232zM510 1038q0 -59 36 -101t122 -89l12 -6q168 80 168 207q0 63 -45 102t-117 39q-82 0 -129 -44.5t-47 -107.5z" />
<glyph unicode="9" horiz-adv-x="1163" d="M102 201q471 90 635 397q-104 -72 -235 -72q-182 0 -286.5 101.5t-104.5 277.5q0 217 145 353.5t377 136.5q236 0 371 -135.5t135 -358.5q0 -260 -133.5 -462.5t-357.5 -315.5t-509 -133zM438 911q0 -82 43 -127t125 -45q111 0 203 72q8 51 8 121q0 106 -47 167.5 t-133 61.5t-142.5 -70.5t-56.5 -179.5z" />
<glyph unicode=":" horiz-adv-x="587" d="M37 180q0 86 59.5 145.5t143.5 59.5t143 -59.5t59 -145.5q0 -84 -59 -143.5t-143 -59.5t-143.5 59.5t-59.5 143.5zM150 862q0 84 59 143.5t143 59.5t143.5 -59.5t59.5 -143.5t-59.5 -143.5t-143.5 -59.5t-143 59.5t-59 143.5z" />
<glyph unicode=";" horiz-adv-x="587" d="M-63 -168q63 68 99 135.5t54 177.5l33 193h293q4 -109 -17 -203q-29 -143 -100.5 -246.5t-202.5 -193.5zM152 860q0 86 59 145.5t143 59.5t143.5 -59.5t59.5 -145.5q0 -84 -59.5 -143.5t-143.5 -59.5t-143 59.5t-59 143.5z" />
<glyph unicode="&#x3c;" horiz-adv-x="905" d="M57 565l37 221l871 435l-52 -303l-526 -254l440 -256l-47 -285z" />
<glyph unicode="=" horiz-adv-x="1095" d="M39 285l43 264h936l-45 -264h-934zM119 772l43 264h934l-43 -264h-934z" />
<glyph unicode="&#x3e;" horiz-adv-x="905" d="M-4 123l49 301l526 258l-440 256l47 283l723 -443l-37 -221z" />
<glyph unicode="?" horiz-adv-x="1030" d="M135 1157q174 242 483 242q197 0 307.5 -98.5t110.5 -268.5q0 -143 -102.5 -250.5t-302.5 -169.5q-20 -86 -41 -149h-258q6 119 26 272q184 59 264 122t80 144q0 59 -40.5 95.5t-114.5 36.5q-141 0 -273 -127zM217 170q0 82 57.5 137t141.5 55t141 -55t57 -137 q0 -80 -58 -136.5t-140 -56.5t-140.5 56.5t-58.5 136.5z" />
<glyph unicode="@" horiz-adv-x="1976" d="M78 461q0 418 281.5 698.5t701.5 280.5q391 0 625.5 -203t234.5 -553q0 -274 -157.5 -449.5t-393.5 -175.5q-125 0 -204 48.5t-97 123.5q-39 -74 -107.5 -121t-138.5 -47q-117 0 -193.5 91.5t-76.5 251.5q0 252 133 418.5t326 166.5q111 0 172 -82q23 39 43 64h209 q-8 -53 -33 -187.5t-44.5 -248t-25.5 -181.5q-6 -90 76 -90q111 0 186.5 110.5t75.5 301.5q0 262 -165 406.5t-445 144.5q-317 0 -524 -214t-207 -554q0 -328 183 -495t511 -167q162 0 298 49.5t224 124.5l129 -147q-229 -246 -653 -246q-449 0 -696.5 227.5t-247.5 653.5z M836 440q0 -135 92 -135q82 0 145 113l55 325q-41 20 -81 21q-90 0 -149.5 -89.5t-61.5 -234.5z" />
<glyph unicode="A" horiz-adv-x="1374" d="M-82 0l731 1372h361l288 -1372h-346l-51 291h-483l-146 -291h-354zM537 539h323l-82 487z" />
<glyph unicode="B" horiz-adv-x="1249" d="M41 0l229 1372h465q233 0 352 -89t119 -251q0 -109 -62.5 -191.5t-178.5 -123.5q215 -76 215 -303q0 -188 -146.5 -301t-382.5 -113h-610zM403 219h170q119 0 185.5 58.5t66.5 150.5q0 172 -219 172h-139zM500 801h151q102 0 160.5 54t58.5 138q0 82 -48 120t-150 38 h-113z" />
<glyph unicode="C" horiz-adv-x="1193" d="M80 582q0 344 208 578.5t543 234.5q279 0 431 -138l-154 -225q-115 86 -266 86q-193 0 -302.5 -149.5t-109.5 -366.5q0 -160 83 -247t218 -87q152 0 297 99l98 -230q-72 -63 -185.5 -111.5t-254.5 -48.5q-285 0 -445.5 165.5t-160.5 439.5z" />
<glyph unicode="D" horiz-adv-x="1368" d="M41 0l229 1372h422q299 0 472 -153.5t173 -432.5q0 -352 -218 -569t-605 -217h-473zM412 248h104q215 0 347 143.5t132 394.5q0 166 -79.5 252t-235.5 86h-123z" />
<glyph unicode="E" horiz-adv-x="1153" d="M41 0l229 1372h942l-43 -252h-612l-49 -301h487l-39 -237h-489l-55 -330h628l-41 -252h-958z" />
<glyph unicode="F" horiz-adv-x="1091" d="M41 0l229 1372h914l-43 -252h-584l-57 -346h458l-45 -258h-456l-86 -516h-330z" />
<glyph unicode="G" horiz-adv-x="1396" d="M80 575q0 346 226 583t585 237q285 0 469 -156l-156 -225q-139 106 -311 106q-217 0 -341 -151.5t-124 -372.5q0 -164 79 -253t216 -89t250 76l37 221h-248l37 209h538l-37 -209l-98 -565h-213q-14 66 -14 153q-139 -162 -359 -162q-240 0 -388 164t-148 434z" />
<glyph unicode="H" horiz-adv-x="1394" d="M41 0l229 1372h330l-90 -536h477l90 536h330l-231 -1372h-330l96 578h-475l-96 -578h-330z" />
<glyph unicode="I" horiz-adv-x="587" d="M41 0l229 1372h330l-229 -1372h-330z" />
<glyph unicode="J" horiz-adv-x="931" d="M-70 104l117 230q102 -70 213 -70q86 0 135 51.5t68 161.5l153 895h332l-155 -915q-41 -246 -156 -364t-326 -118q-225 0 -381 129z" />
<glyph unicode="K" horiz-adv-x="1294" d="M41 0l229 1372h330l-94 -563l547 563h368l-2 -4l-561 -573l365 -791v-4h-359l-266 571l-160 -165l-67 -406h-330z" />
<glyph unicode="L" horiz-adv-x="1087" d="M41 0l229 1372h330l-186 -1110h579l-45 -262h-907z" />
<glyph unicode="M" horiz-adv-x="1730" d="M14 0l318 1372h340l180 -870l471 870h356l-135 -1372h-307l90 889l-473 -889h-156l-184 883l-199 -883h-301z" />
<glyph unicode="N" horiz-adv-x="1458" d="M41 0l229 1372h326l416 -930l155 930h303l-231 -1380h-319l-424 930l-154 -922h-301z" />
<glyph unicode="O" horiz-adv-x="1437" d="M80 559q0 373 207 605.5t530 232.5q276 0 434 -160t158 -426q0 -375 -206 -604.5t-531 -229.5q-283 0 -437.5 159t-154.5 423zM436 549q0 -152 61.5 -236t174.5 -84q123 0 212 94.5t129 225.5t40 274q0 152 -62.5 237t-175.5 85q-123 0 -212 -94.5t-128 -226.5t-39 -275z " />
<glyph unicode="P" horiz-adv-x="1241" d="M41 0l229 1372h453q248 0 381 -111.5t133 -318.5q0 -242 -162 -383t-434 -141h-201l-69 -418h-330zM475 635h135q131 0 206 82t75 217q0 213 -203 213h-127z" />
<glyph unicode="Q" horiz-adv-x="1435" d="M80 543q0 381 211 617.5t536 236.5q274 0 429 -155t155 -415q0 -293 -130 -500.5t-345 -291.5q141 -72 338 -135v-2l-123 -211q-289 74 -494 290q-281 2 -429 155t-148 411zM436 545q0 -150 60.5 -234t171.5 -84q123 0 214 95.5t132 228.5t41 276q0 150 -62.5 234 t-175.5 84q-123 0 -212 -95.5t-129 -228.5t-40 -276z" />
<glyph unicode="R" horiz-adv-x="1273" d="M41 0l229 1372h482q252 0 380 -105.5t128 -299.5q0 -162 -82 -266.5t-205 -153.5l203 -545v-2h-345l-163 485h-217l-80 -485h-330zM487 698h162q119 0 190.5 69t71.5 189q0 92 -49 141.5t-143 49.5h-158z" />
<glyph unicode="S" horiz-adv-x="1107" d="M-18 162l157 221q158 -135 344 -135q102 0 160.5 38t58.5 103q0 53 -34.5 91t-126.5 79q-12 4 -76 31q-299 129 -299 385q0 197 146.5 309.5t365.5 112.5q303 0 450 -148l-151 -215q-121 100 -291 101q-92 0 -145.5 -33t-53.5 -92q0 -47 29 -80t102 -64l91 -39 q170 -72 246.5 -167t76.5 -242q0 -199 -147.5 -321t-386.5 -122q-313 1 -516 187z" />
<glyph unicode="T" horiz-adv-x="1148" d="M123 1108l45 264h1104l-45 -264h-387l-185 -1108h-329l184 1108h-387z" />
<glyph unicode="U" horiz-adv-x="1388" d="M123 528l141 844h330l-137 -827q-9 -53 -10 -96q0 -213 225 -213q213 0 266 305l141 831h328l-141 -844q-43 -266 -191.5 -409.5t-406.5 -143.5q-287 0 -438 144q-117 112 -117 297q0 53 10 112z" />
<glyph unicode="V" horiz-adv-x="1280" d="M135 1372h340l168 -944l449 944h340l-693 -1378h-319z" />
<glyph unicode="W" horiz-adv-x="1808" d="M135 1372h328l145 -909l264 606l-49 303h312l125 -913l374 913h310l-603 -1374h-280l-121 698l-311 -698h-250z" />
<glyph unicode="X" horiz-adv-x="1325" d="M-74 0v4l576 703l-309 661v4h352l188 -426l336 426h356v-4l-532 -653l340 -711v-4h-352l-215 475l-377 -475h-363z" />
<glyph unicode="Y" horiz-adv-x="1202" d="M113 1368v4h338l200 -557l367 557h344v-4l-588 -852l-88 -516h-328l86 512z" />
<glyph unicode="Z" horiz-adv-x="1167" d="M-37 0l39 225l797 889h-606l45 258h1001l-39 -221l-819 -893h680l-45 -258h-1053z" />
<glyph unicode="[" horiz-adv-x="763" d="M27 -367l329 2001h551l-35 -211h-278l-258 -1579h274l-32 -211h-551z" />
<glyph unicode="\" horiz-adv-x="897" d="M119 1548h258l387 -2003h-260z" />
<glyph unicode="]" horiz-adv-x="761" d="M-104 -367l34 211h277l260 1579h-274l32 211h551l-330 -2001h-550z" />
<glyph unicode="^" horiz-adv-x="991" d="M-2 625v4l465 743h258l229 -743v-4h-280l-115 430l-248 -430h-309z" />
<glyph unicode="_" horiz-adv-x="1007" d="M-129 -338l39 236h981l-39 -236h-981z" />
<glyph unicode="`" horiz-adv-x="823" d="M274 1432l156 204l53 -45q174 -147 308 -301l-117 -143q-236 143 -359 250z" />
<glyph unicode="a" d="M55 373q0 287 149.5 486.5t389.5 199.5q143 0 229 -94l31 73h283l-179 -1038h-294q0 84 8 166q-47 -80 -127 -132t-172 -52q-150 0 -234 109.5t-84 281.5zM387 395q0 -80 32 -126t91 -46q106 0 188 129l76 449v4q-53 27 -117 26q-115 0 -192.5 -130t-77.5 -306z" />
<glyph unicode="b" horiz-adv-x="1196" d="M33 0l252 1503h321l-98 -590q119 150 311 150q152 0 237 -105.5t85 -289.5q0 -293 -140.5 -488.5t-392.5 -195.5q-164 0 -262 98q-12 -31 -43 -82h-270zM395 246q55 -35 144 -35q125 0 196.5 130t71.5 304q0 178 -135 178q-117 0 -197 -104z" />
<glyph unicode="c" horiz-adv-x="964" d="M55 446q0 160 69 298.5t208 227.5t321 89q219 0 332 -139l-147 -189q-82 74 -195 74q-111 0 -191.5 -93t-80.5 -251q0 -102 53 -159.5t149 -57.5q125 0 224 92l100 -178q-59 -76 -160.5 -129.5t-218.5 -53.5q-211 0 -337 125t-126 344z" />
<glyph unicode="d" horiz-adv-x="1187" d="M57 383q0 272 154 474t399 202q145 0 219 -74l86 518h322l-252 -1503h-295q0 102 6 160q-115 -178 -301 -178q-160 0 -249 110.5t-89 290.5zM389 401q0 -86 37 -132t98 -46q113 0 197 123l78 459q-49 27 -123 26q-129 0 -208 -121t-79 -309z" />
<glyph unicode="e" horiz-adv-x="1075" d="M53 434q0 266 153.5 447.5t403.5 181.5q203 0 311.5 -105.5t108.5 -295.5q0 -92 -24 -195h-633v-4q-1 -12 -1 -23q0 -94 47 -149q52 -61 167 -62q135 0 276 113l119 -143q-63 -86 -180 -151.5t-264 -65.5q-225 0 -354.5 118.5t-129.5 333.5zM401 649h324q4 37 4 56 q0 154 -127 153q-148 0 -201 -209z" />
<glyph unicode="f" horiz-adv-x="753" d="M70 827l32 189q68 20 146 20l14 80q68 412 459 412q147 0 242 -47l-54 -199q-66 12 -123 12q-96 0 -141 -40t-63 -142l-15 -76h244l-35 -209h-244l-137 -827h-321l139 827h-143z" />
<glyph unicode="g" horiz-adv-x="1173" d="M0 -311l78 198q145 -76 305 -75q238 0 274 227l23 133q-125 -176 -295 -176q-158 0 -243 107.5t-85 279.5q0 276 146.5 476t390.5 200q160 0 240 -96q6 16 32 75h283l-174 -1028q-41 -240 -179.5 -344t-377.5 -104q-127 0 -242 41t-176 86zM389 408q0 -80 32 -125t91 -45 q113 0 201 135l73 428v2q-57 29 -124 28q-117 0 -195 -127.5t-78 -295.5z" />
<glyph unicode="h" horiz-adv-x="1183" d="M35 0l252 1503h321l-100 -594q125 162 305 162q162 0 239 -109q54 -77 53 -196q0 -51 -9 -109l-109 -657h-321l108 653q5 27 5 49q0 43 -18 69q-28 40 -89 40q-111 0 -197 -98l-119 -713h-321z" />
<glyph unicode="i" horiz-adv-x="557" d="M33 0l176 1036h321l-176 -1036h-321zM233 1341.5q0 73.5 53.5 124t131.5 50.5t133 -50.5t55 -124t-55 -125t-133 -51.5t-131.5 51.5t-53.5 125z" />
<glyph unicode="j" horiz-adv-x="559" d="M-313 -369l65 199q49 -16 109 -16q74 0 115.5 43t60.5 153l172 1026h321l-174 -1036q-41 -238 -140 -338t-279 -100q-139 -1 -250 69zM233 1341.5q0 73.5 53.5 124t131.5 50.5t133 -50.5t55 -124t-55 -125t-133 -51.5t-131.5 51.5t-53.5 125z" />
<glyph unicode="k" horiz-adv-x="1118" d="M31 0l254 1503h321l-145 -854l381 387h327v-4l-399 -414l277 -614v-4h-328l-189 420l-131 -137l-47 -283h-321z" />
<glyph unicode="l" horiz-adv-x="559" d="M33 0l252 1503h321l-252 -1503h-321z" />
<glyph unicode="m" horiz-adv-x="1798" d="M31 0l176 1036h297q0 -66 -6 -141q53 74 135 125t180 51q106 0 178 -51t96 -146q145 197 347 197q162 0 237 -109q52 -75 52 -191q0 -53 -11 -114l-113 -657h-321l111 653q5 29 5 54q0 104 -102 104q-106 0 -192 -96l-123 -715h-324l113 653q5 29 5 54q0 104 -101 104 q-111 0 -197 -100l-121 -711h-321z" />
<glyph unicode="n" horiz-adv-x="1183" d="M33 0l174 1036h297q-6 -109 -8 -143q51 74 134 126t183 52q160 0 238 -109q55 -77 54 -197q0 -50 -9 -108l-111 -657h-321l108 653q5 27 5 49q0 43 -18 69q-28 40 -89 40q-117 0 -199 -104l-117 -707h-321z" />
<glyph unicode="o" d="M55 428q0 276 164 454.5t414 178.5q221 0 348 -116t127 -320q0 -283 -160 -463t-420 -180q-223 0 -348 119.5t-125 326.5zM385 406q0 -96 41 -148.5t109 -52.5q102 0 172.5 132t70.5 306q0 96 -39 147.5t-108 51.5q-106 0 -176 -131t-70 -305z" />
<glyph unicode="p" horiz-adv-x="1198" d="M-37 -410l244 1446h295q-6 -109 -8 -139q115 166 323 166q152 0 238 -106.5t86 -286.5q0 -287 -144.5 -485.5t-402.5 -198.5q-131 0 -232 77l-77 -473h-322zM393 246q51 -31 133 -31q131 0 206 121t75 309q0 178 -137 178q-115 0 -199 -108z" />
<glyph unicode="q" horiz-adv-x="1191" d="M61 379q0 174 62.5 327.5t189.5 253t295 99.5q154 0 248 -101l45 80h264l-247 -1448h-320l92 541q-119 -150 -301 -149q-156 0 -242 107.5t-86 289.5zM395 399q0 -178 135 -178q115 0 193 103v2l80 469q-55 37 -131 36q-127 0 -202 -126t-75 -306z" />
<glyph unicode="r" horiz-adv-x="851" d="M31 0l176 1036h297q-6 -135 -10 -190q51 96 127.5 156.5t162.5 60.5q76 0 121 -27l-82 -293q-43 14 -98 15q-170 0 -268 -146l-105 -612h-321z" />
<glyph unicode="s" horiz-adv-x="927" d="M-23 143l140 187q121 -117 266 -117q139 0 139 92q0 33 -22.5 55.5t-77.5 45.5l-88 36q-229 92 -230 291q0 154 116 242t302 88q250 0 381 -141l-137 -162q-94 88 -229 88q-131 0 -131 -82q0 -31 20 -50.5t74 -41.5l84 -33q137 -51 200.5 -125t61.5 -186 q0 -160 -122 -254t-310 -94q-271 -1 -437 161z" />
<glyph unicode="t" horiz-adv-x="782" d="M68 829l32 187q68 18 140 20q41 168 63 236h270l-45 -236h287l-33 -207h-293l-88 -477q-4 -19 -4 -35q0 -75 88 -75q74 0 146 49l57 -162q-53 -61 -144 -104t-190 -43q-147 0 -216 93q-48 66 -48 159q0 39 8 83l99 512h-129z" />
<glyph unicode="u" horiz-adv-x="1179" d="M92 385l111 651h323l-110 -645q-5 -30 -6 -55q0 -103 98 -103q106 0 192 105l121 698h320l-176 -1036h-297q0 70 6 152q-53 -76 -136 -128.5t-178 -52.5q-158 0 -229 107q-49 73 -49 190q0 54 10 117z" />
<glyph unicode="v" horiz-adv-x="1040" d="M74 1036h332l102 -649l287 649h335l-542 -1042h-279z" />
<glyph unicode="w" horiz-adv-x="1525" d="M90 1036h299l68 -612l284 612h185l127 -616l235 616h289l-436 -1042h-250l-121 559l-260 -559h-279z" />
<glyph unicode="x" horiz-adv-x="1093" d="M-80 0l416 537l-225 499h335l127 -313l224 313h344l-375 -499l244 -537h-338l-146 342l-252 -342h-354z" />
<glyph unicode="y" horiz-adv-x="1050" d="M-102 -375l65 197q76 -16 127 -17q59 0 101 29t81 105l35 53l-237 1044h333l103 -657l287 657h335l-555 -1097q-113 -225 -208 -301t-232 -76q-124 0 -235 63z" />
<glyph unicode="z" horiz-adv-x="958" d="M-16 0l32 199l551 618h-434l39 219h803l-35 -202l-557 -615h483l-37 -219h-845z" />
<glyph unicode="{" horiz-adv-x="817" d="M82 514l39 219q104 16 151 76.5t56 194.5q0 12 8 100t8 102q16 248 169 353.5t448 97.5l-35 -209q-166 -6 -232.5 -64.5t-72.5 -205.5q0 -2 -5.5 -79t-9.5 -112q-10 -160 -79.5 -251t-219.5 -128q207 -78 193 -276q-2 -59 -39 -183t-41 -169q-10 -90 42 -139.5t183 -67.5 l-35 -207q-254 18 -369.5 119.5t-101.5 259.5q2 63 41 187t43 181q10 86 -21.5 133.5t-119.5 67.5z" />
<glyph unicode="|" horiz-adv-x="737" d="M268 -522v2232h271v-2232h-271z" />
<glyph unicode="}" horiz-adv-x="808" d="M-115 -434l35 209q164 6 231.5 65.5t73.5 204.5q2 31 13 193q10 158 79.5 249t221.5 127q-213 78 -195 279q2 57 40 182t42 168q10 92 -42 140.5t-185 66.5l37 207q254 -16 369.5 -118.5t101.5 -260.5q-4 -61 -42 -185t-42 -184q-10 -86 21.5 -133t117.5 -65l-37 -222 q-106 -14 -153.5 -74.5t-55.5 -193.5q0 -12 -7 -101t-7 -102q-16 -250 -169 -355t-448 -97z" />
<glyph unicode="~" horiz-adv-x="1095" d="M39 434q29 143 116 238.5t210 95.5q94 0 210 -63q98 -57 154 -58q98 0 156 129l176 -84q-29 -145 -115 -239.5t-211 -94.5q-94 0 -209 68q-96 55 -157 55q-94 0 -154 -129z" />
<glyph unicode="&#xa1;" horiz-adv-x="665" d="M14 -324l37 213q31 184 160 695h274q-43 -434 -92 -713l-33 -195h-346zM193 879q0 80 58 136t140 56t140.5 -56.5t58.5 -135.5q0 -82 -57.5 -137.5t-141.5 -55.5t-141 55.5t-57 137.5z" />
<glyph unicode="&#xa2;" horiz-adv-x="1009" d="M84 563q0 246 161 422t429 176q37 0 53 -2l92 232l152 -48l-88 -225q94 -39 159 -123l-124 -166q-55 49 -123 74l-209 -553h32q137 0 242 90l80 -161q-66 -78 -165 -126.5t-208 -48.5q-47 0 -71 2l-93 -233l-151 47l88 227q-119 51 -187.5 156.5t-68.5 259.5zM371 582 q0 -115 73 -179l197 519q-113 -12 -191.5 -101t-78.5 -239z" />
<glyph unicode="&#xa3;" horiz-adv-x="1093" d="M16 0l35 219q123 76 185.5 159t76.5 195h-188l37 215h147q-12 106 -12 156q0 213 132 333t362 120q205 0 323 -84l-100 -205q-94 41 -197 41q-111 0 -169 -63.5t-58 -170.5q0 -45 4 -127h369l-37 -215h-326q-23 -223 -244 -331h670l-41 -242h-969z" />
<glyph unicode="&#xa5;" horiz-adv-x="1234" d="M72 322l26 163h355l24 148h-354l27 164h249l-209 571v4h314l172 -543l330 543h323v-4l-375 -571h234l-27 -164h-356l-25 -148h357l-27 -163h-356l-54 -322h-327l53 322h-354z" />
<glyph unicode="&#xa6;" horiz-adv-x="737" d="M268 465h271v-987h-271v987zM268 743v967h271v-967h-271z" />
<glyph unicode="&#xa7;" horiz-adv-x="1097" d="M12 -152l133 179q135 -115 279 -115q61 0 100 24.5t39 69.5q0 37 -25.5 63.5t-84.5 53.5l-82 37q-164 74 -234.5 155.5t-70.5 202.5q0 106 71.5 185t198.5 114q-111 96 -111 238q0 160 123 251t314 91q246 0 389 -144l-138 -161q-98 84 -247 84q-59 0 -98.5 -23 t-39.5 -66q0 -35 26 -60.5t91 -55.5l86 -35q164 -70 232.5 -149.5t68.5 -204.5q0 -229 -268 -303q117 -90 117 -242q0 -170 -121 -263t-311 -93q-150 0 -264 50.5t-173 116.5zM373 565q0 -55 34.5 -92t120.5 -72l50 -22q145 45 145 153q0 55 -30.5 92.5t-106.5 67.5l-68 27 q-145 -50 -145 -154z" />
<glyph unicode="&#xa8;" horiz-adv-x="823" d="M162 1347.5q0 65.5 50 114.5t114 49q72 0 119 -48t47 -115.5t-47.5 -115.5t-118.5 -48q-63 0 -113.5 49t-50.5 114.5zM588 1347.5q0 67.5 47 115.5t119 48q66 0 116 -48t50 -115.5t-50.5 -115.5t-115.5 -48q-72 0 -119 48t-47 115.5z" />
<glyph unicode="&#xa9;" horiz-adv-x="1675" d="M88 688q0 330 222 555t550 225q330 0 553 -225t223 -555t-223 -555t-553 -225q-328 0 -550 225t-222 555zM268 688q0 -262 170 -441t422 -179q254 0 425 179t171 441t-171 441.5t-425 179.5q-252 0 -422 -179.5t-170 -441.5zM477 678q0 203 119 323.5t303 120.5 q137 0 238 -73l-76 -172q-68 41 -143 41q-90 0 -142.5 -58.5t-52.5 -171.5q0 -100 51 -152.5t141 -52.5q84 0 146 49l92 -153q-102 -109 -276 -109q-180 0 -290 110t-110 298z" />
<glyph unicode="&#xaa;" horiz-adv-x="913" d="M96 840q0 231 122 394t314 163q109 0 177 -68q4 14 20 51h244l-142 -841h-251q0 74 4 118q-94 -133 -230 -133q-121 0 -189.5 88.5t-68.5 227.5zM385 868q0 -125 88 -125q74 0 133 88l56 338q-37 20 -84 21q-82 0 -137.5 -95.5t-55.5 -226.5z" />
<glyph unicode="&#xab;" horiz-adv-x="1030" d="M45 522v4l283 445h297l-297 -453l151 -440h-274zM479 522v4l285 445h295l-301 -455l147 -438h-274z" />
<glyph unicode="&#xad;" horiz-adv-x="745" d="M80 420l43 258h561l-43 -258h-561z" />
<glyph unicode="&#xae;" horiz-adv-x="1118" d="M133 1116q0 225 150.5 378t373.5 153q225 0 377 -153t152 -378t-151.5 -377.5t-377.5 -152.5q-223 0 -373.5 152.5t-150.5 377.5zM260 1116q0 -176 114.5 -298t282.5 -122t285 122t117 298t-117 298t-285 122t-282.5 -122t-114.5 -298zM457 860v535h215q205 0 205 -166 q0 -100 -91 -150l113 -217v-2h-151l-91 193h-67v-193h-133zM590 1159h67q33 0 53.5 17.5t20.5 46.5q0 59 -74 59h-67v-123z" />
<glyph unicode="&#xaf;" horiz-adv-x="823" d="M209 1227l37 207h616l-35 -207h-618z" />
<glyph unicode="&#xb0;" horiz-adv-x="763" d="M168 1198q0 139 93 236.5t239 97.5q137 0 226 -91t89 -229q0 -143 -94 -238t-236 -95q-137 0 -227 91t-90 228zM350 1200q0 -68 38 -110.5t99 -42.5q63 0 105.5 45t42.5 114.5t-37 113.5t-100.5 44t-105.5 -46t-42 -118z" />
<glyph unicode="&#xb1;" horiz-adv-x="1132" d="M-10 25l39 245h966l-41 -245h-964zM102 711l43 245h347l55 336h272l-57 -336h346l-41 -245h-346l-55 -336h-271l56 336h-349z" />
<glyph unicode="&#xb2;" horiz-adv-x="1067" d="M-20 0l34 205q317 276 453.5 407t184.5 206t46 151q-2 68 -47 108.5t-123 40.5q-131 0 -215 -129l-161 137q55 111 172.5 191t281.5 80q199 0 316.5 -103.5t117.5 -281.5q0 -176 -131 -334t-485 -428h541l-43 -250h-942z" />
<glyph unicode="&#xb3;" horiz-adv-x="1024" d="M-23 102l97 199q125 -72 268 -72q113 0 184.5 50.5t71.5 140.5q0 84 -62.5 131t-181.5 47q-70 0 -98 -4l2 201q401 31 401 206q0 66 -43 102t-116 36q-125 0 -224 -78l-100 168q68 74 177.5 121t236.5 47q186 0 295.5 -89t109.5 -249q0 -227 -268 -328q215 -76 215 -311 q0 -201 -149.5 -323t-395.5 -122q-248 0 -420 127z" />
<glyph unicode="&#xb4;" horiz-adv-x="823" d="M289 1288q63 70 170.5 162t181.5 145l51 37l142 -209l-46 -34q-190 -143 -395 -242z" />
<glyph unicode="&#xb6;" horiz-adv-x="1245" d="M129 915q0 199 136 328t366 129h602l-4 -26l-6 -29l-25 -162h-2l-227 -1380h-224l228 1380h-166l-102 -625h-3l-124 -755h-224l125 757q-168 14 -259 116.5t-91 266.5z" />
<glyph unicode="&#xb7;" horiz-adv-x="544" d="M82 637q0 86 59.5 145.5t143.5 59.5t143 -59.5t59 -145.5q0 -84 -59 -143.5t-143 -59.5t-143.5 59.5t-59.5 143.5z" />
<glyph unicode="&#xb8;" horiz-adv-x="823" d="M-20 -479l92 129q41 -31 106 -31q96 0 96 68q-2 72 -118 71q-33 0 -47 -2l-3 2l187 320l115 -45l-86 -148q84 -16 130 -68.5t46 -127.5q0 -109 -85 -175.5t-208 -66.5q-131 0 -225 74z" />
<glyph unicode="&#xb9;" horiz-adv-x="692" d="M76 1266l334 106h284l-229 -1372h-328l185 1098l-195 -51z" />
<glyph unicode="&#xba;" horiz-adv-x="944" d="M113 885q0 223 132 367.5t335 144.5q178 0 280.5 -94.5t102.5 -260.5q0 -227 -129 -372.5t-338 -145.5q-180 0 -281.5 97.5t-101.5 263.5zM397 881q0 -74 30 -112t77 -38q74 0 124 96.5t50 221.5q0 145 -105 145q-76 0 -126 -95t-50 -218z" />
<glyph unicode="&#xbb;" horiz-adv-x="1028" d="M-33 78l299 452l-145 441h274l152 -445v-4l-283 -444h-297zM403 78l297 452l-153 441h274l160 -445v-4l-283 -444h-295z" />
<glyph unicode="&#xbc;" horiz-adv-x="1642" d="M98 -2l1123 1454h245v-4l-1122 -1454h-246v4zM133 1376l246 68h205l-133 -807h-263l99 602l-121 -27zM780 141l27 160l422 508h291l-82 -496h135l-29 -172h-135l-23 -139h-241l22 139h-387zM1028 313h168l45 265z" />
<glyph unicode="&#xbd;" horiz-adv-x="1685" d="M86 -2l1122 1454h246v-4l-1122 -1454h-246v4zM133 1376l246 68h205l-133 -807h-263l99 602l-121 -27zM893 0l25 150q227 174 301.5 254.5t74.5 142.5q0 29 -21.5 49t-58.5 20q-59 0 -120 -65l-109 106q98 164 313 164q121 0 203 -59.5t82 -177.5q0 -104 -91 -196.5 t-269 -205.5h331l-30 -182h-631z" />
<glyph unicode="&#xbe;" horiz-adv-x="1789" d="M92 694l64 152q80 -35 157 -35q63 0 99.5 22.5t36.5 61.5q0 76 -130 76q-43 0 -65 -2l4 145q121 10 168 33.5t49 64.5q2 25 -18.5 39.5t-59.5 14.5q-72 0 -135 -37l-72 125q100 104 287 104q127 0 202 -54t75 -142q0 -133 -168 -197q143 -49 143 -178 q0 -123 -102.5 -193.5t-247.5 -70.5q-187 -1 -287 71zM254 -2l1122 1454h246v-4l-1122 -1454h-246v4zM928 141l26 160l422 508h291l-82 -496h135l-28 -172h-136l-22 -139h-242l23 139h-387zM1176 313h167l46 265z" />
<glyph unicode="&#xbf;" horiz-adv-x="1030" d="M2 16q0 295 404 418q14 59 43 152h258q-6 -119 -27 -273q-184 -59 -264 -121.5t-80 -144.5q0 -59 41 -95t115 -36q141 0 272 127l139 -152q-174 -242 -483 -241q-197 0 -307.5 98t-110.5 268zM424 879q0 80 58.5 136t140.5 56t140 -56.5t58 -135.5q0 -82 -57 -137.5 t-141 -55.5t-141.5 55.5t-57.5 137.5z" />
<glyph unicode="&#xc0;" horiz-adv-x="1374" d="M-82 0l731 1372h361l288 -1372h-346l-51 291h-483l-146 -291h-354zM537 539h323l-82 487zM543 1661l106 231l58 -26q82 -39 207.5 -114t201.5 -132l-76 -162q-92 27 -232 81t-216 95z" />
<glyph unicode="&#xc1;" horiz-adv-x="1374" d="M-82 0l731 1372h361l288 -1372h-346l-51 291h-483l-146 -291h-354zM537 539h323l-82 487zM571 1622q156 113 418 240l62 30l102 -233l-55 -29q-80 -39 -222.5 -93t-234.5 -79z" />
<glyph unicode="&#xc2;" horiz-adv-x="1374" d="M-82 0l731 1372h361l288 -1372h-346l-51 291h-483l-146 -291h-354zM496 1579q188 186 297 268h180q100 -104 219 -276l-125 -115q-88 59 -205 162q-147 -96 -262 -162zM537 539h323l-82 487z" />
<glyph unicode="&#xc3;" horiz-adv-x="1374" d="M-82 0l731 1372h361l288 -1372h-346l-51 291h-483l-146 -291h-354zM473 1505q10 135 76.5 218t167.5 83q66 0 155 -43q86 -41 117 -41q59 0 82 86l158 -16q-10 -135 -74.5 -218t-161.5 -83q-74 0 -159 45q-86 39 -117 39q-63 0 -84 -86zM537 539h323l-82 487z" />
<glyph unicode="&#xc4;" horiz-adv-x="1374" d="M-82 0l731 1372h361l288 -1372h-346l-51 291h-483l-146 -291h-354zM463 1647q0 68 50 116.5t118 48.5q72 0 119 -48t47 -117q0 -72 -47.5 -120t-118.5 -48q-68 0 -118 49t-50 119zM537 539h323l-82 487zM909 1647q0 70 48.5 117.5t119.5 47.5q68 0 118 -49t50 -116 q0 -70 -50 -119t-118 -49q-72 0 -120 48t-48 120z" />
<glyph unicode="&#xc5;" horiz-adv-x="1374" d="M-82 0l731 1372h361l288 -1372h-346l-51 291h-483l-146 -291h-354zM537 539h323l-82 487zM592 1681q0 113 78 187t192 74q111 0 183.5 -68t72.5 -172q0 -109 -78.5 -184.5t-195.5 -75.5q-111 0 -181.5 67.5t-70.5 171.5zM758 1686q0 -43 24.5 -71t65.5 -28q43 0 74.5 32 t31.5 77q0 43 -26.5 71.5t-69.5 28.5t-71.5 -30.5t-28.5 -79.5z" />
<glyph unicode="&#xc6;" horiz-adv-x="1820" d="M-100 0l725 1372h1230l-43 -254h-559l-49 -301h453l-39 -237h-453l-53 -328h619l-41 -252h-947l60 367h-379l-182 -367h-342zM541 602h301l86 522h-129z" />
<glyph unicode="&#xc7;" horiz-adv-x="1193" d="M80 582q0 344 208 578.5t543 234.5q279 0 431 -138l-154 -225q-115 86 -266 86q-193 0 -302.5 -149.5t-109.5 -366.5q0 -160 83 -247t218 -87q152 0 297 99l98 -230q-72 -63 -185.5 -111.5t-254.5 -48.5q-31 0 -45 3l-55 -95q84 -16 130 -68.5t46 -127.5 q0 -109 -85 -175.5t-208 -66.5q-131 0 -225 74l92 129q41 -31 106 -31q96 0 97 68q-2 72 -119 71q-33 0 -47 -2l-2 2l139 240q-205 47 -317.5 202t-112.5 382z" />
<glyph unicode="&#xc8;" horiz-adv-x="1153" d="M41 0l229 1372h942l-43 -252h-612l-49 -301h487l-39 -237h-489l-55 -330h628l-41 -252h-958zM473 1661l107 231l57 -26q82 -39 208 -114t202 -132l-76 -162q-92 27 -232.5 81t-216.5 95z" />
<glyph unicode="&#xc9;" horiz-adv-x="1153" d="M41 0l229 1372h942l-43 -252h-612l-49 -301h487l-39 -237h-489l-55 -330h628l-41 -252h-958zM496 1622q156 113 417 240l62 30l102 -233l-55 -29q-80 -39 -222.5 -93t-234.5 -79z" />
<glyph unicode="&#xca;" horiz-adv-x="1153" d="M41 0l229 1372h942l-43 -252h-612l-49 -301h487l-39 -237h-489l-55 -330h628l-41 -252h-958zM410 1579q188 186 297 268h180q100 -104 219 -276l-125 -115q-88 59 -205 162q-147 -96 -262 -162z" />
<glyph unicode="&#xcb;" horiz-adv-x="1153" d="M41 0l229 1372h942l-43 -252h-612l-49 -301h487l-39 -237h-489l-55 -330h628l-41 -252h-958zM379 1647q0 68 50 116.5t118 48.5q72 0 119 -48t47 -117q0 -72 -47.5 -120t-118.5 -48q-68 0 -118 49t-50 119zM825 1647q0 70 48.5 117.5t119.5 47.5q68 0 118 -49t50 -116 q0 -70 -50 -119t-118 -49q-72 0 -120 48t-48 120z" />
<glyph unicode="&#xcc;" horiz-adv-x="587" d="M41 0l229 1372h330l-229 -1372h-330zM160 1661l106 231l58 -26q82 -39 207.5 -114t201.5 -132l-76 -162q-92 27 -232 81t-216 95z" />
<glyph unicode="&#xcd;" horiz-adv-x="587" d="M41 0l229 1372h330l-229 -1372h-330zM180 1622q156 113 418 240l61 30l103 -233l-55 -29q-80 -39 -222.5 -93t-234.5 -79z" />
<glyph unicode="&#xce;" horiz-adv-x="587" d="M41 0l229 1372h330l-229 -1372h-330zM102 1579q188 186 297 268h181q100 -104 219 -276l-125 -115q-88 59 -205 162q-147 -96 -262 -162z" />
<glyph unicode="&#xcf;" horiz-adv-x="587" d="M41 0l229 1372h330l-229 -1372h-330zM61 1647q0 68 50.5 116.5t117.5 48.5q72 0 119 -48t47 -117q0 -72 -47 -120t-119 -48q-68 0 -118 49t-50 119zM508 1647q0 70 48 117.5t120 47.5q68 0 118 -49t50 -116q0 -70 -50.5 -119t-117.5 -49q-72 0 -120 48t-48 120z" />
<glyph unicode="&#xd0;" horiz-adv-x="1417" d="M25 571l41 252h161l92 549h422q299 0 472 -153.5t173 -432.5q0 -352 -218 -569t-605 -217h-473l94 571h-159zM461 248h104q215 0 347 143.5t132 394.5q0 166 -79.5 252t-235.5 86h-123l-49 -301h225l-41 -252h-227z" />
<glyph unicode="&#xd1;" horiz-adv-x="1458" d="M41 0l229 1372h326l416 -930l155 930h303l-231 -1380h-319l-424 930l-154 -922h-301zM528 1505q10 135 77 218t167 83q66 0 156 -43q86 -41 116 -41q59 0 82 86l158 -16q-10 -135 -74.5 -218t-160.5 -83q-74 0 -160 45q-86 39 -117 39q-63 0 -84 -86z" />
<glyph unicode="&#xd2;" horiz-adv-x="1437" d="M80 559q0 373 207 605.5t530 232.5q276 0 434 -160t158 -426q0 -375 -206 -604.5t-531 -229.5q-283 0 -437.5 159t-154.5 423zM436 549q0 -152 61.5 -236t174.5 -84q123 0 212 94.5t129 225.5t40 274q0 152 -62.5 237t-175.5 85q-123 0 -212 -94.5t-128 -226.5t-39 -275z M559 1661l107 231l57 -26q82 -39 208 -114t202 -132l-76 -162q-92 27 -232.5 81t-216.5 95z" />
<glyph unicode="&#xd3;" horiz-adv-x="1437" d="M80 559q0 373 207 605.5t530 232.5q276 0 434 -160t158 -426q0 -375 -206 -604.5t-531 -229.5q-283 0 -437.5 159t-154.5 423zM436 549q0 -152 61.5 -236t174.5 -84q123 0 212 94.5t129 225.5t40 274q0 152 -62.5 237t-175.5 85q-123 0 -212 -94.5t-128 -226.5t-39 -275z M608 1622q156 113 418 240l61 30l103 -233l-55 -29q-80 -39 -222.5 -93t-234.5 -79z" />
<glyph unicode="&#xd4;" horiz-adv-x="1437" d="M80 559q0 373 207 605.5t530 232.5q276 0 434 -160t158 -426q0 -375 -206 -604.5t-531 -229.5q-283 0 -437.5 159t-154.5 423zM436 549q0 -152 61.5 -236t174.5 -84q123 0 212 94.5t129 225.5t40 274q0 152 -62.5 237t-175.5 85q-123 0 -212 -94.5t-128 -226.5t-39 -275z M508 1579q188 186 297 268h180q100 -104 219 -276l-125 -115q-88 59 -205 162q-147 -96 -262 -162z" />
<glyph unicode="&#xd5;" horiz-adv-x="1437" d="M80 559q0 373 207 605.5t530 232.5q276 0 434 -160t158 -426q0 -375 -206 -604.5t-531 -229.5q-283 0 -437.5 159t-154.5 423zM436 549q0 -152 61.5 -236t174.5 -84q123 0 212 94.5t129 225.5t40 274q0 152 -62.5 237t-175.5 85q-123 0 -212 -94.5t-128 -226.5t-39 -275z M500 1505q10 135 76.5 218t166.5 83q66 0 156 -43q86 -41 117 -41q59 0 82 86l157 -16q-10 -135 -74.5 -218t-160.5 -83q-74 0 -160 45q-86 39 -117 39q-63 0 -84 -86z" />
<glyph unicode="&#xd6;" horiz-adv-x="1437" d="M80 559q0 373 207 605.5t530 232.5q276 0 434 -160t158 -426q0 -375 -206 -604.5t-531 -229.5q-283 0 -437.5 159t-154.5 423zM436 549q0 -152 61.5 -236t174.5 -84q123 0 212 94.5t129 225.5t40 274q0 152 -62.5 237t-175.5 85q-123 0 -212 -94.5t-128 -226.5t-39 -275z M475 1647q0 68 50 116.5t118 48.5q72 0 119 -48t47 -117q0 -72 -47 -120t-119 -48q-68 0 -118 49t-50 119zM922 1647q0 70 48 117.5t120 47.5q68 0 117.5 -49t49.5 -116q0 -70 -50 -119t-117 -49q-72 0 -120 48t-48 120z" />
<glyph unicode="&#xd7;" horiz-adv-x="1110" d="M18 324l369 344l-258 354l225 174l244 -332l354 332l174 -195l-372 -350l262 -352l-228 -174l-243 330l-352 -330z" />
<glyph unicode="&#xd8;" horiz-adv-x="1437" d="M29 0l161 186q-111 145 -110 373q0 373 207 605.5t530 232.5q193 0 332 -82l162 186l151 -133l-162 -188q109 -154 109 -369q0 -375 -206 -604.5t-531 -229.5q-195 0 -332 78l-162 -188zM416 543q0 -61 8 -103l551 664q-63 53 -154 53q-129 0 -224 -97t-138 -233.5 t-43 -283.5zM514 266q59 -51 152 -51q190 0 298.5 189.5t108.5 422.5q0 39 -8 97z" />
<glyph unicode="&#xd9;" horiz-adv-x="1388" d="M123 528l141 844h330l-137 -827q-55 -309 215 -309q213 0 266 305l141 831h328l-141 -844q-43 -266 -191.5 -409.5t-406.5 -143.5q-287 0 -437.5 143.5t-107.5 409.5zM553 1661l106 231l58 -26q82 -39 208 -114t201 -132l-75 -162q-92 27 -232.5 81t-216.5 95z" />
<glyph unicode="&#xda;" horiz-adv-x="1388" d="M123 528l141 844h330l-137 -827q-55 -309 215 -309q213 0 266 305l141 831h328l-141 -844q-43 -266 -191.5 -409.5t-406.5 -143.5q-287 0 -437.5 143.5t-107.5 409.5zM573 1622q156 113 418 240l62 30l102 -233l-55 -29q-80 -39 -222.5 -93t-234.5 -79z" />
<glyph unicode="&#xdb;" horiz-adv-x="1388" d="M123 528l141 844h330l-137 -827q-55 -309 215 -309q213 0 266 305l141 831h328l-141 -844q-43 -266 -191.5 -409.5t-406.5 -143.5q-287 0 -437.5 143.5t-107.5 409.5zM500 1579q188 186 297 268h180q100 -104 219 -276l-125 -115q-88 59 -205 162q-147 -96 -262 -162z " />
<glyph unicode="&#xdc;" horiz-adv-x="1388" d="M123 528l141 844h330l-137 -827q-55 -309 215 -309q213 0 266 305l141 831h328l-141 -844q-43 -266 -191.5 -409.5t-406.5 -143.5q-287 0 -437.5 143.5t-107.5 409.5zM465 1647q0 68 50 116.5t118 48.5q72 0 119 -48t47 -117q0 -72 -47 -120t-119 -48q-68 0 -118 49 t-50 119zM911 1647q0 70 48.5 117.5t119.5 47.5q68 0 118 -49t50 -116q0 -70 -50 -119t-118 -49q-72 0 -120 48t-48 120z" />
<glyph unicode="&#xdd;" horiz-adv-x="1202" d="M113 1368v4h338l200 -557l367 557h344v-4l-588 -852l-88 -516h-328l86 512zM494 1622q156 113 417 240l62 30l102 -233l-55 -29q-80 -39 -222.5 -93t-234.5 -79z" />
<glyph unicode="&#xde;" horiz-adv-x="1236" d="M39 0l233 1372h330l-37 -215h121q248 0 381 -106.5t133 -307.5q0 -231 -160.5 -360t-435.5 -129h-190l-43 -254h-332zM451 471h122q131 0 206 72.5t75 195.5q0 193 -203 193h-123z" />
<glyph unicode="&#xdf;" horiz-adv-x="1239" d="M33 0l178 1069q37 229 167 344t370 115q209 0 333.5 -89t124.5 -251q0 -141 -145 -270q-14 -12 -42 -34t-42 -34t-30.5 -28.5t-24 -31t-7.5 -28.5q0 -33 19.5 -55.5t91.5 -83.5q168 -143 168 -289q0 -158 -110.5 -255t-301.5 -97q-195 0 -329 116l88 191q90 -59 182 -60 q59 0 94 30t35 79q0 35 -22.5 66.5t-84.5 80.5q-133 106 -133 232q0 47 22.5 92t45 69.5t65.5 67.5t63.5 64.5t43 62.5t22.5 82q0 61 -38.5 97t-106.5 36q-164 0 -197 -215l-178 -1073h-321z" />
<glyph unicode="&#xe0;" d="M55 373q0 287 149.5 486.5t389.5 199.5q143 0 229 -94l31 73h283l-179 -1038h-294q0 84 8 166q-47 -80 -127 -132t-172 -52q-150 0 -234 109.5t-84 281.5zM387 395q0 -80 32 -126t91 -46q106 0 188 129l76 449v4q-53 27 -117 26q-115 0 -192.5 -130t-77.5 -306zM453 1432 l155 204l54 -45q174 -147 307 -301l-117 -143q-236 143 -358 250z" />
<glyph unicode="&#xe1;" d="M55 373q0 287 149.5 486.5t389.5 199.5q143 0 229 -94l31 73h283l-179 -1038h-294q0 84 8 166q-47 -80 -127 -132t-172 -52q-150 0 -234 109.5t-84 281.5zM387 395q0 -80 32 -126t91 -46q106 0 188 129l76 449v4q-53 27 -117 26q-115 0 -192.5 -130t-77.5 -306zM467 1288 q63 70 170.5 162t181.5 145l51 37l142 -209l-45 -34q-190 -143 -396 -242z" />
<glyph unicode="&#xe2;" d="M55 373q0 287 149.5 486.5t389.5 199.5q143 0 229 -94l31 73h283l-179 -1038h-294q0 84 8 166q-47 -80 -127 -132t-172 -52q-150 0 -234 109.5t-84 281.5zM371 1274q168 182 315 309h137q94 -115 224 -317l-138 -115q-86 78 -182 180q-121 -98 -240 -180zM387 395 q0 -80 32 -126t91 -46q106 0 188 129l76 449v4q-53 27 -117 26q-115 0 -192.5 -130t-77.5 -306z" />
<glyph unicode="&#xe3;" d="M55 373q0 287 149.5 486.5t389.5 199.5q143 0 229 -94l31 73h283l-179 -1038h-294q0 84 8 166q-47 -80 -127 -132t-172 -52q-150 0 -234 109.5t-84 281.5zM326 1208q12 135 79.5 219t165.5 84q76 0 148 -43q82 -43 108 -43q61 0 84 88l158 -16q-12 -135 -77.5 -219 t-162.5 -84q-72 0 -153 43q-78 43 -109 43q-59 0 -84 -88zM387 395q0 -80 32 -126t91 -46q106 0 188 129l76 449v4q-53 27 -117 26q-115 0 -192.5 -130t-77.5 -306z" />
<glyph unicode="&#xe4;" d="M55 373q0 287 149.5 486.5t389.5 199.5q143 0 229 -94l31 73h283l-179 -1038h-294q0 84 8 166q-47 -80 -127 -132t-172 -52q-150 0 -234 109.5t-84 281.5zM328 1347.5q0 65.5 50 114.5t114 49q72 0 118.5 -48t46.5 -115.5t-47 -115.5t-118 -48q-63 0 -113.5 49 t-50.5 114.5zM387 395q0 -80 32 -126t91 -46q106 0 188 129l76 449v4q-53 27 -117 26q-115 0 -192.5 -130t-77.5 -306zM754 1347.5q0 67.5 47 115.5t119 48q66 0 115.5 -48t49.5 -115.5t-50 -115.5t-115 -48q-72 0 -119 48t-47 115.5z" />
<glyph unicode="&#xe5;" d="M55 373q0 287 149.5 486.5t389.5 199.5q143 0 229 -94l31 73h283l-179 -1038h-294q0 84 8 166q-47 -80 -127 -132t-172 -52q-150 0 -234 109.5t-84 281.5zM387 395q0 -80 32 -126t91 -46q106 0 188 129l76 449v4q-53 27 -117 26q-115 0 -192.5 -130t-77.5 -306zM449 1397 q0 111 77.5 184.5t190 73.5t182.5 -66.5t70 -169.5q0 -113 -79 -186.5t-194 -73.5q-111 0 -179 67t-68 171zM614 1403q0 -43 24 -71.5t64 -28.5q43 0 73 31.5t30 78.5q0 41 -25.5 68.5t-66.5 27.5q-43 0 -71 -29.5t-28 -76.5z" />
<glyph unicode="&#xe6;" horiz-adv-x="1640" d="M31 272q0 287 352 328q102 27 293 23l10 61q10 72 -34 108.5t-146 36.5q-135 0 -277 -55l-36 178q61 45 172.5 82t230.5 37q205 0 289 -108q127 100 303 100q197 0 301 -102.5t104 -288.5q0 -111 -26 -205h-619v-29q0 -209 207 -209q129 0 270 113l119 -143 q-66 -86 -178.5 -151.5t-259.5 -65.5q-287 0 -406 184q-53 -82 -141 -133t-197 -51q-150 0 -240.5 79.5t-90.5 210.5zM338 313q0 -113 113 -112q47 0 95 28.5t77 73.5l28 168q-94 0 -143 -12q-170 -17 -170 -146zM977 649h309q4 37 4 56q0 154 -119 153q-141 0 -194 -209z " />
<glyph unicode="&#xe7;" horiz-adv-x="964" d="M55 446q0 160 69 298.5t208 227.5t321 89q219 0 332 -139l-147 -189q-82 74 -195 74q-111 0 -191.5 -93t-80.5 -251q0 -102 53 -159.5t149 -57.5q125 0 224 92l100 -178q-59 -76 -162.5 -129.5t-228.5 -53.5h-6l-54 -92q84 -16 130.5 -68.5t46.5 -127.5 q0 -109 -85 -175.5t-208 -66.5q-131 0 -226 74l93 129q41 -31 106 -31q96 0 96 68q-2 72 -118 71q-33 0 -48 -2l-2 2l138 238q-145 37 -229.5 154.5t-84.5 295.5z" />
<glyph unicode="&#xe8;" horiz-adv-x="1075" d="M53 434q0 266 153.5 447.5t403.5 181.5q203 0 311.5 -105.5t108.5 -295.5q0 -92 -24 -195h-633v-4q-6 -111 46 -172.5t167 -61.5q135 0 276 113l119 -143q-63 -86 -180 -151.5t-264 -65.5q-225 0 -354.5 118.5t-129.5 333.5zM393 1432l156 204l53 -45q174 -147 307 -301 l-116 -143q-236 143 -359 250zM401 649h324q4 37 4 56q0 154 -127 153q-148 0 -201 -209z" />
<glyph unicode="&#xe9;" horiz-adv-x="1075" d="M53 434q0 266 153.5 447.5t403.5 181.5q203 0 311.5 -105.5t108.5 -295.5q0 -92 -24 -195h-633v-4q-6 -111 46 -172.5t167 -61.5q135 0 276 113l119 -143q-63 -86 -180 -151.5t-264 -65.5q-225 0 -354.5 118.5t-129.5 333.5zM401 649h324q4 37 4 56q0 154 -127 153 q-148 0 -201 -209zM410 1288q63 70 170.5 162t181.5 145l51 37l141 -209l-45 -34q-190 -143 -395 -242z" />
<glyph unicode="&#xea;" horiz-adv-x="1075" d="M53 434q0 266 153.5 447.5t403.5 181.5q203 0 311.5 -105.5t108.5 -295.5q0 -92 -24 -195h-633v-4q-6 -111 46 -172.5t167 -61.5q135 0 276 113l119 -143q-63 -86 -180 -151.5t-264 -65.5q-225 0 -354.5 118.5t-129.5 333.5zM301 1274q168 182 315 309h138 q94 -115 223 -317l-137 -115q-86 78 -183 180q-121 -98 -239 -180zM401 649h324q4 37 4 56q0 154 -127 153q-148 0 -201 -209z" />
<glyph unicode="&#xeb;" horiz-adv-x="1075" d="M53 434q0 266 153.5 447.5t403.5 181.5q203 0 311.5 -105.5t108.5 -295.5q0 -92 -24 -195h-633v-4q-6 -111 46 -172.5t167 -61.5q135 0 276 113l119 -143q-63 -86 -180 -151.5t-264 -65.5q-225 0 -354.5 118.5t-129.5 333.5zM270 1347.5q0 65.5 50.5 114.5t113.5 49 q72 0 119 -48t47 -115.5t-47 -115.5t-119 -48q-63 0 -113.5 49t-50.5 114.5zM401 649h324q4 37 4 56q0 154 -127 153q-148 0 -201 -209zM696 1347.5q0 67.5 47.5 115.5t118.5 48q66 0 116 -48t50 -115.5t-50 -115.5t-116 -48q-72 0 -119 48t-47 115.5z" />
<glyph unicode="&#xec;" horiz-adv-x="557" d="M33 0l176 1036h321l-176 -1036h-321zM160 1432l155 204l54 -45q174 -147 307 -301l-117 -143q-236 143 -358 250z" />
<glyph unicode="&#xed;" horiz-adv-x="557" d="M33 0l176 1036h321l-176 -1036h-321zM154 1288q63 70 170.5 162t181.5 145l51 37l141 -209l-45 -34q-190 -143 -395 -242z" />
<glyph unicode="&#xee;" horiz-adv-x="557" d="M33 0l176 1036h321l-176 -1036h-321zM57 1274q168 182 316 309h137q94 -115 223 -317l-137 -115q-86 78 -182 180q-121 -98 -240 -180z" />
<glyph unicode="&#xef;" horiz-adv-x="557" d="M27 1347.5q0 65.5 50 114.5t113 49q72 0 119 -48t47 -115.5t-47 -115.5t-119 -48q-63 0 -113 49t-50 114.5zM33 0l176 1036h321l-176 -1036h-321zM453 1347.5q0 67.5 47 115.5t118 48q66 0 116 -48t50 -115.5t-50 -115.5t-116 -48q-72 0 -118.5 48t-46.5 115.5z" />
<glyph unicode="&#xf0;" horiz-adv-x="1181" d="M57 416q0 246 142.5 403.5t361.5 157.5q127 0 209 -66q-27 133 -106 232l-373 -150l-51 135l303 123q-76 53 -201 103l88 178q221 -63 367 -170l268 111l51 -140l-194 -80q190 -213 190 -524q0 -143 -34 -273t-100.5 -240t-183 -175.5t-266.5 -65.5q-219 0 -345 122 t-126 319zM385 426q0 -94 42 -148.5t116 -54.5q100 0 170.5 129t72.5 371q-68 45 -157 45q-104 0 -174 -94t-70 -248z" />
<glyph unicode="&#xf1;" horiz-adv-x="1183" d="M33 0l174 1036h297q-6 -109 -8 -143q51 74 134 126t183 52q160 0 237.5 -109.5t45.5 -304.5l-111 -657h-321l108 653q14 78 -13.5 118t-88.5 40q-117 0 -199 -104l-117 -707h-321zM342 1208q12 135 79.5 219t166.5 84q76 0 147 -43q82 -43 109 -43q61 0 84 88l157 -16 q-12 -135 -77.5 -219t-161.5 -84q-72 0 -154 43q-78 43 -108 43q-59 0 -84 -88z" />
<glyph unicode="&#xf2;" d="M55 428q0 276 164 454.5t414 178.5q221 0 348 -116t127 -320q0 -283 -160 -463t-420 -180q-223 0 -348 119.5t-125 326.5zM385 406q0 -96 41 -148.5t109 -52.5q102 0 172.5 132t70.5 306q0 96 -39 147.5t-108 51.5q-106 0 -176 -131t-70 -305zM461 1432l155 204l54 -45 q174 -147 307 -301l-117 -143q-236 143 -358 250z" />
<glyph unicode="&#xf3;" d="M55 428q0 276 164 454.5t414 178.5q221 0 348 -116t127 -320q0 -283 -160 -463t-420 -180q-223 0 -348 119.5t-125 326.5zM385 406q0 -96 41 -148.5t109 -52.5q102 0 172.5 132t70.5 306q0 96 -39 147.5t-108 51.5q-106 0 -176 -131t-70 -305zM455 1288q63 70 170.5 162 t181.5 145l51 37l141 -209l-45 -34q-190 -143 -395 -242z" />
<glyph unicode="&#xf4;" d="M55 428q0 276 164 454.5t414 178.5q221 0 348 -116t127 -320q0 -283 -160 -463t-420 -180q-223 0 -348 119.5t-125 326.5zM350 1274q168 182 316 309h137q94 -115 223 -317l-137 -115q-86 78 -182 180q-121 -98 -240 -180zM385 406q0 -96 41 -148.5t109 -52.5 q102 0 172.5 132t70.5 306q0 96 -39 147.5t-108 51.5q-106 0 -176 -131t-70 -305z" />
<glyph unicode="&#xf5;" d="M55 428q0 276 164 454.5t414 178.5q221 0 348 -116t127 -320q0 -283 -160 -463t-420 -180q-223 0 -348 119.5t-125 326.5zM324 1208q12 135 79.5 219t165.5 84q76 0 148 -43q82 -43 108 -43q61 0 84 88l158 -16q-12 -135 -77.5 -219t-162.5 -84q-72 0 -153 43 q-78 43 -109 43q-59 0 -84 -88zM385 406q0 -96 41 -148.5t109 -52.5q102 0 172.5 132t70.5 306q0 96 -39 147.5t-108 51.5q-106 0 -176 -131t-70 -305z" />
<glyph unicode="&#xf6;" d="M55 428q0 276 164 454.5t414 178.5q221 0 348 -116t127 -320q0 -283 -160 -463t-420 -180q-223 0 -348 119.5t-125 326.5zM319 1347.5q0 65.5 50.5 114.5t113.5 49q72 0 119 -48t47 -115.5t-47 -115.5t-119 -48q-63 0 -113.5 49t-50.5 114.5zM385 406q0 -96 41 -148.5 t109 -52.5q102 0 172.5 132t70.5 306q0 96 -39 147.5t-108 51.5q-106 0 -176 -131t-70 -305zM745 1347.5q0 67.5 47.5 115.5t118.5 48q66 0 116 -48t50 -115.5t-50 -115.5t-116 -48q-72 0 -119 48t-47 115.5z" />
<glyph unicode="&#xf7;" horiz-adv-x="1118" d="M57 545l45 274h1024l-45 -274h-1024zM354 266q0 74 51.5 125t123 51t124 -51t52.5 -125q0 -72 -52.5 -123t-124 -51t-123 51t-51.5 123zM477 1098q0 72 50.5 123t123.5 51q72 0 124 -51.5t52 -122.5q0 -74 -52 -125t-124 -51q-74 0 -124 51t-50 125z" />
<glyph unicode="&#xf8;" d="M14 -18l136 157q-94 113 -95 289q0 276 166 454.5t422 178.5q141 0 254 -51l150 172l120 -105l-139 -162q100 -117 100 -290q0 -283 -162.5 -463t-426.5 -180q-152 0 -267 57l-139 -160zM377 387l362 436q-43 33 -100 33q-111 0 -186.5 -139t-75.5 -318v-12zM432 233 q43 -43 111 -43q111 0 186.5 139.5t75.5 317.5q0 18 -2 27z" />
<glyph unicode="&#xf9;" horiz-adv-x="1179" d="M92 385l111 651h323l-110 -645q-29 -158 92 -158q106 0 192 105l121 698h320l-176 -1036h-297q0 70 6 152q-53 -76 -136 -128.5t-178 -52.5q-158 0 -229.5 106.5t-38.5 307.5zM455 1432l155 204l54 -45q174 -147 307 -301l-117 -143q-236 143 -358 250z" />
<glyph unicode="&#xfa;" horiz-adv-x="1179" d="M92 385l111 651h323l-110 -645q-29 -158 92 -158q106 0 192 105l121 698h320l-176 -1036h-297q0 70 6 152q-53 -76 -136 -128.5t-178 -52.5q-158 0 -229.5 106.5t-38.5 307.5zM457 1288q63 70 170.5 162t181.5 145l51 37l141 -209l-45 -34q-190 -143 -395 -242z" />
<glyph unicode="&#xfb;" horiz-adv-x="1179" d="M92 385l111 651h323l-110 -645q-29 -158 92 -158q106 0 192 105l121 698h320l-176 -1036h-297q0 70 6 152q-53 -76 -136 -128.5t-178 -52.5q-158 0 -229.5 106.5t-38.5 307.5zM358 1274q168 182 316 309h137q94 -115 223 -317l-137 -115q-86 78 -182 180 q-121 -98 -240 -180z" />
<glyph unicode="&#xfc;" horiz-adv-x="1179" d="M92 385l111 651h323l-110 -645q-29 -158 92 -158q106 0 192 105l121 698h320l-176 -1036h-297q0 70 6 152q-53 -76 -136 -128.5t-178 -52.5q-158 0 -229.5 106.5t-38.5 307.5zM324 1347.5q0 65.5 50 114.5t113 49q72 0 119 -48t47 -115.5t-47 -115.5t-119 -48 q-63 0 -113 49t-50 114.5zM750 1347.5q0 67.5 47 115.5t118 48q66 0 116 -48t50 -115.5t-50 -115.5t-116 -48q-72 0 -118.5 48t-46.5 115.5z" />
<glyph unicode="&#xfd;" horiz-adv-x="1050" d="M-102 -375l65 197q76 -16 127 -17q59 0 101 29t81 105l35 53l-237 1044h333l103 -657l287 657h335l-555 -1097q-113 -225 -208 -301t-232 -76q-124 0 -235 63zM369 1288q63 70 170.5 162t181.5 145l51 37l141 -209l-45 -34q-190 -143 -395 -242z" />
<glyph unicode="&#xfe;" horiz-adv-x="1198" d="M-37 -410l320 1913h321l-98 -594q115 154 311 154q152 0 237 -106.5t85 -286.5q0 -287 -143.5 -485.5t-401.5 -198.5q-131 0 -232 77l-77 -473h-322zM393 246q51 -31 133 -31q131 0 205 120t74 310q0 178 -135 178q-115 0 -197 -106z" />
<glyph unicode="&#xff;" horiz-adv-x="1050" d="M-102 -375l65 197q76 -16 127 -17q59 0 101 29t81 105l35 53l-237 1044h333l103 -657l287 657h335l-555 -1097q-113 -225 -208 -301t-232 -76q-124 0 -235 63zM240 1347.5q0 65.5 50 114.5t113 49q72 0 119 -48t47 -115.5t-47 -115.5t-119 -48q-63 0 -113 49t-50 114.5z M666 1347.5q0 67.5 47 115.5t118 48q66 0 116 -48t50 -115.5t-50 -115.5t-116 -48q-72 0 -118.5 48t-46.5 115.5z" />
<glyph unicode="&#x152;" horiz-adv-x="1998" d="M80 559q0 375 202.5 606.5t514.5 231.5q268 0 385 -180l26 155h852l-43 -254h-606l-49 -301h483l-41 -237h-481l-55 -328h624l-41 -252h-870l16 100q-139 -125 -344 -125q-272 0 -422.5 156t-150.5 428zM426 551q0 -154 63.5 -238t174.5 -84q172 0 270 167t98 427 q0 158 -61.5 240t-175.5 82q-170 0 -269.5 -169t-99.5 -425z" />
<glyph unicode="&#x153;" horiz-adv-x="1748" d="M53 428q0 276 161 454.5t411 178.5q221 0 331 -141q139 143 328 143q197 0 306.5 -105.5t109.5 -295.5q0 -92 -25 -195h-631v-4q-8 -111 44.5 -172.5t166.5 -61.5q139 0 277 113l119 -143q-61 -84 -178 -150.5t-267 -66.5q-227 0 -348 137q-131 -137 -338 -137 q-221 0 -344 119.5t-123 326.5zM383 406q0 -98 38 -149.5t103 -51.5q104 0 171 131t67 307q0 199 -141 199q-104 0 -171 -131t-67 -305zM1071 649h324q4 37 4 56q0 154 -127 153q-148 0 -201 -209z" />
<glyph unicode="&#x178;" horiz-adv-x="1202" d="M113 1368v4h338l200 -557l367 557h344v-4l-588 -852l-88 -516h-328l86 512zM369 1647q0 68 50 116.5t118 48.5q72 0 118.5 -48t46.5 -117q0 -72 -47 -120t-118 -48q-68 0 -118 49t-50 119zM815 1647q0 70 48 117.5t120 47.5q68 0 118 -49t50 -116q0 -70 -50 -119 t-118 -49q-72 0 -120 48t-48 120z" />
<glyph unicode="&#x2c6;" horiz-adv-x="823" d="M190 1274q168 182 316 309h137q94 -115 223 -317l-137 -115q-86 78 -182 180q-121 -98 -240 -180z" />
<glyph unicode="&#x2dc;" horiz-adv-x="823" d="M160 1208q12 135 79.5 219t166.5 84q76 0 147 -43q82 -43 109 -43q61 0 83 88l158 -16q-12 -135 -77.5 -219t-161.5 -84q-72 0 -154 43q-78 43 -109 43q-59 0 -84 -88z" />
<glyph unicode="&#x2000;" horiz-adv-x="970" />
<glyph unicode="&#x2001;" horiz-adv-x="1941" />
<glyph unicode="&#x2002;" horiz-adv-x="970" />
<glyph unicode="&#x2003;" horiz-adv-x="1941" />
<glyph unicode="&#x2004;" horiz-adv-x="647" />
<glyph unicode="&#x2005;" horiz-adv-x="485" />
<glyph unicode="&#x2006;" horiz-adv-x="323" />
<glyph unicode="&#x2007;" horiz-adv-x="323" />
<glyph unicode="&#x2008;" horiz-adv-x="241" />
<glyph unicode="&#x2009;" horiz-adv-x="387" />
<glyph unicode="&#x200a;" horiz-adv-x="106" />
<glyph unicode="&#x2010;" horiz-adv-x="745" d="M80 420l43 258h561l-43 -258h-561z" />
<glyph unicode="&#x2011;" horiz-adv-x="745" d="M80 420l43 258h561l-43 -258h-561z" />
<glyph unicode="&#x2012;" horiz-adv-x="745" d="M80 420l43 258h561l-43 -258h-561z" />
<glyph unicode="&#x2013;" horiz-adv-x="1101" d="M57 432l39 236h957l-39 -236h-957z" />
<glyph unicode="&#x2014;" horiz-adv-x="1777" d="M57 432l39 236h1641l-39 -236h-1641z" />
<glyph unicode="&#x2018;" horiz-adv-x="450" d="M158 985q-4 53 6 131q18 313 295 506l147 -121q-109 -115 -143 -313l-33 -203h-272z" />
<glyph unicode="&#x2019;" horiz-adv-x="450" d="M98 1059q109 115 144 313l32 203h273q4 -53 -6 -131q-18 -313 -295 -506z" />
<glyph unicode="&#x201a;" horiz-adv-x="452" d="M-125 -197q109 115 143 314l33 202h273q4 -53 -7 -131q-18 -313 -294 -505z" />
<glyph unicode="&#x201c;" horiz-adv-x="866" d="M156 985q-4 53 6 131q18 313 295 506l147 -121q-109 -115 -143 -313l-33 -203h-272zM571 985q-4 53 7 131q18 313 294 506l148 -121q-109 -115 -143 -313l-33 -203h-273z" />
<glyph unicode="&#x201d;" horiz-adv-x="866" d="M98 1059q109 115 144 313l32 203h273q4 -53 -6 -131q-18 -313 -295 -506zM514 1059q109 115 143 313l33 203h273q4 -53 -7 -131q-18 -313 -294 -506z" />
<glyph unicode="&#x201e;" horiz-adv-x="868" d="M-121 -197q109 115 144 314l32 202h273q4 -53 -6 -131q-18 -313 -295 -505zM293 -197q109 115 143 314l33 202h272q4 -53 -6 -131q-18 -313 -295 -505z" />
<glyph unicode="&#x2022;" horiz-adv-x="815" d="M82 549q0 137 94 232.5t231.5 95.5t232.5 -95.5t95 -232.5t-95 -231.5t-232.5 -94.5t-231.5 94.5t-94 231.5z" />
<glyph unicode="&#x2026;" horiz-adv-x="1937" d="M53 180q0 86 59.5 145.5t143.5 59.5t143.5 -59.5t59.5 -145.5q0 -84 -59.5 -143.5t-143.5 -59.5t-143.5 59.5t-59.5 143.5zM709 180q0 86 59 145.5t143 59.5t143.5 -59.5t59.5 -145.5q0 -84 -59.5 -143.5t-143.5 -59.5t-143 59.5t-59 143.5zM1362 180q0 86 59.5 145.5 t143.5 59.5t143 -59.5t59 -145.5q0 -84 -59 -143.5t-143 -59.5t-143.5 59.5t-59.5 143.5z" />
<glyph unicode="&#x202f;" horiz-adv-x="387" />
<glyph unicode="&#x2039;" horiz-adv-x="606" d="M45 526v4l283 441h307l-301 -467l149 -426h-282z" />
<glyph unicode="&#x203a;" horiz-adv-x="606" d="M-33 78l303 469l-147 424h280l156 -449v-4l-283 -440h-309z" />
<glyph unicode="&#x205f;" horiz-adv-x="485" />
<glyph unicode="&#x20ac;" horiz-adv-x="1212" d="M66 479l24 154h137q2 66 17 143h-129l26 154h144q76 213 238.5 338t387.5 125q236 0 389 -142l-124 -200q-106 88 -258 88q-215 0 -316 -209h387l-24 -154h-414q-14 -68 -19 -143h408l-25 -154h-374q43 -233 272 -233q139 0 256 88l92 -201q-156 -156 -389 -156 q-229 0 -371.5 135.5t-169.5 366.5h-165z" />
<glyph unicode="&#x2122;" horiz-adv-x="1669" d="M170 1292l29 181h577l-31 -181h-184l-90 -540h-203l90 540h-188zM715 752l164 721h256l67 -431l205 431h254l-62 -721h-192l41 446l-213 -446h-156l-71 448l-99 -448h-194z" />
<glyph unicode="&#xe000;" horiz-adv-x="1035" d="M0 1035h1035v-1035h-1035v1035z" />
<glyph unicode="&#xfb01;" horiz-adv-x="1107" d="M70 827l32 189q68 20 148 20l14 80q35 211 159 311.5t351 100.5q109 0 204 -25.5t142 -52.5l-76 -207q-100 39 -223 39q-115 0 -169 -42t-70 -138l-13 -66h588l-172 -1036h-321l137 834h-264l-142 -834h-321l141 827h-145z" />
<glyph unicode="&#xfb02;" horiz-adv-x="1222" d="M70 827l32 189q68 20 146 20l14 80q72 412 451 412q98 0 147 -23l-35 -217q-41 4 -53 4q-86 0 -130 -41t-60 -141l-13 -74h193l-33 -209h-194l-140 -827h-319l137 827h-143zM696 0l252 1503h322l-252 -1503h-322z" />
<glyph unicode="&#xfb03;" horiz-adv-x="1728" d="M70 827l30 189q61 16 146 20l12 74q68 414 453 414q123 0 204 -37l-55 -209q-47 10 -86 10q-92 0 -136 -40t-60 -142l-13 -70h303l15 80q35 211 159.5 311.5t352.5 100.5q109 0 203 -25.5t141 -52.5l-74 -207q-100 39 -225 39q-113 0 -167 -42t-71 -138l-12 -66h588 l-172 -1036h-322l137 834h-266l-141 -834h-322l142 834h-302l-141 -834h-319l139 827h-141z" />
<glyph unicode="&#xfb04;" horiz-adv-x="1843" d="M70 827l30 189q61 16 146 20l12 74q68 414 453 414q123 0 204 -37l-55 -209q-47 10 -86 10q-92 0 -136 -40t-60 -142l-13 -70h303l17 92q66 399 438 400q113 0 162 -25l-37 -215q-29 4 -59 4q-84 0 -127 -41t-60 -141l-12 -74h192l-32 -209h-195l-137 -827h-320l138 834 h-304l-141 -834h-319l139 827h-141zM1317 0l252 1503h321l-252 -1503h-321z" />
</font>
</defs>
</svg>
