<?xml version="1.0" standalone="no"?>
<!DOCTYPE svg PUBLIC "-//W3C//DTD SVG 1.1//EN" "http://www.w3.org/Graphics/SVG/1.1/DTD/svg11.dtd" >
<svg xmlns="http://www.w3.org/2000/svg">
<metadata>
This is a custom SVG webfont generated by Font Squirrel.
Copyright   : 2010 Commercial Type All rights reserved Licensed for exclusive use by Apollo Group and its subsidiaries
Designer    : Dan Milne
Foundry     : Commercial Type
Foundry URL : httpcommercialtypecom
</metadata>
<defs>
<font id="PhoenixSansMediumItalic" horiz-adv-x="1150" >
<font-face units-per-em="2048" ascent="1638" descent="-410" />
<missing-glyph horiz-adv-x="417" />
<glyph unicode=" "  horiz-adv-x="417" />
<glyph unicode="&#x09;" horiz-adv-x="417" />
<glyph unicode="&#xa0;" horiz-adv-x="417" />
<glyph unicode="!" horiz-adv-x="655" d="M88 150q0 70 50 118.5t122 48.5t122 -49t50 -118q0 -72 -50 -121t-122 -49t-122 49t-50 121zM195 436q37 369 98 721l37 215h278l-39 -223q-49 -299 -157 -713h-217z" />
<glyph unicode="&#x22;" horiz-adv-x="784" d="M190 989q4 256 56 555h250q-47 -287 -131 -555h-175zM563 989q4 256 55 555h250q-47 -287 -131 -555h-174z" />
<glyph unicode="#" horiz-adv-x="1245" d="M23 365l53 178h219l90 293h-219l53 176h219l111 360h192l-110 -360h227l111 360h190l-110 -360h221l-56 -176h-219l-90 -293h223l-55 -178h-221l-111 -365h-192l110 365h-225l-110 -365h-193l111 365h-219zM487 543h228l90 293h-227z" />
<glyph unicode="$" horiz-adv-x="1105" d="M-2 166l121 162q90 -82 217 -123l151 420l-2 2q-299 123 -299 370q0 186 145.5 293t366.5 107q23 0 72 -4l80 223l137 -43l-74 -209q133 -41 215 -123l-118 -151q-66 55 -164 88l-141 -390q168 -74 243.5 -162.5t75.5 -230.5q0 -184 -145.5 -302t-380.5 -118q-47 0 -90 7 l-84 -234l-138 43l78 219q-155 50 -266 156zM418 1026q0 -111 155 -182l127 358h-10q-125 0 -198.5 -46t-73.5 -130zM479 180h23q127 0 202.5 54.5t75.5 140.5q0 115 -162 194z" />
<glyph unicode="%" horiz-adv-x="1634" d="M96 944q0 180 106.5 317.5t280.5 135.5q131 -2 215 -89t82 -241q-2 -184 -109.5 -319.5t-277.5 -133.5q-131 2 -215 89t-82 241zM182 -2l1116 1382h209v-4l-1116 -1382h-209v4zM299 948q0 -72 28.5 -109.5t78.5 -37.5q82 0 127 81t45 183q2 70 -27 108.5t-78 38.5 q-84 0 -129 -84t-45 -180zM907 307q2 180 107.5 317.5t279.5 137.5q131 -2 215 -89t82 -241q-2 -184 -109.5 -319.5t-277.5 -135.5q-131 2 -215 89t-82 241zM1112 311q-2 -70 26.5 -108.5t78.5 -38.5q82 0 127 82t45 182q2 70 -27 108.5t-78 38.5q-84 0 -128 -84t-44 -180z " />
<glyph unicode="&#x26;" horiz-adv-x="1345" d="M49 330q0 152 87 252t263 186q-109 156 -108 293q0 150 110.5 243t286.5 93q168 0 263.5 -79t95.5 -208q0 -127 -87.5 -214t-248.5 -165l233 -307q98 162 123 391h217q-16 -317 -211 -561l191 -250v-4h-281l-78 102q-168 -127 -385 -127t-344 99.5t-127 255.5zM305 367 q0 -88 67.5 -141.5t172.5 -53.5q131 0 243 82l-288 379q-102 -57 -148.5 -117.5t-46.5 -148.5zM524 1061q0 -74 86 -195q104 55 156.5 108.5t52.5 123.5q0 59 -37 93t-98 34q-78 0 -119 -47t-41 -117z" />
<glyph unicode="'" horiz-adv-x="411" d="M190 989q4 256 56 555h250q-47 -287 -131 -555h-175z" />
<glyph unicode="(" horiz-adv-x="759" d="M162 395q0 817 577 1268l129 -131q-223 -205 -346 -475.5t-123 -671.5q0 -379 189 -731l-166 -98q-260 378 -260 839z" />
<glyph unicode=")" horiz-adv-x="759" d="M-78 -315q223 213 344 481t121 668q0 377 -186 725l164 106q260 -385 260 -842q0 -440 -160 -754.5t-418 -514.5z" />
<glyph unicode="*" horiz-adv-x="911" d="M147 1087l41 17q106 45 263 72q-143 70 -228 141l-35 26l109 142l35 -27q86 -72 186 -196q-6 158 14 274l9 45h174l-8 -45q-18 -113 -86 -293q145 102 249 146l41 18l64 -168l-41 -18q-98 -41 -272 -76q125 -59 235 -141l35 -29l-111 -139l-33 26q-96 76 -196 201 q6 -152 -12 -281l-7 -45h-174l7 45q16 104 83 289q-133 -90 -237 -133l-41 -18z" />
<glyph unicode="+" horiz-adv-x="1148" d="M66 573l36 218h410l76 448h229l-76 -448h408l-37 -218h-405l-74 -448h-230l74 448h-411z" />
<glyph unicode="," horiz-adv-x="509" d="M-84 -201q66 68 101.5 132.5t56.5 174.5l30 185h240q-4 -129 -20 -203q-49 -246 -279 -401z" />
<glyph unicode="-" horiz-adv-x="722" d="M82 442l35 205h542l-34 -205h-543z" />
<glyph unicode="." horiz-adv-x="559" d="M49 154q0 74 51.5 124t122.5 50q74 0 124 -50.5t50 -123.5q0 -72 -50 -123t-124 -51q-72 0 -123 51t-51 123z" />
<glyph unicode="/" horiz-adv-x="892" d="M-121 -455l895 2003h232l-897 -2003h-230z" />
<glyph unicode="0" horiz-adv-x="1304" d="M106 549q0 362 184.5 605t463.5 243q233 0 365 -146.5t132 -419.5q0 -375 -187 -612t-458 -237q-233 0 -366.5 150.5t-133.5 416.5zM379 543q0 -168 58.5 -260.5t170.5 -92.5q150 0 260.5 188.5t110.5 461.5q0 352 -229 352q-150 0 -260.5 -189.5t-110.5 -459.5z" />
<glyph unicode="1" horiz-adv-x="681" d="M84 1260l348 112h230l-232 -1372h-260l190 1145l-231 -64z" />
<glyph unicode="2" horiz-adv-x="1048" d="M-14 0l30 170q332 297 480.5 443.5t194.5 223t46 158.5q-2 80 -54 128t-142 48q-150 0 -230 -149l-141 106q45 109 154.5 189t267.5 80q193 0 306.5 -100.5t113.5 -272.5q0 -176 -136.5 -338t-531.5 -481h584l-35 -205h-907z" />
<glyph unicode="3" horiz-adv-x="1024" d="M-2 109l88 157q127 -84 281 -84q125 0 206.5 59.5t81.5 166.5q0 98 -70.5 155.5t-197.5 57.5q-61 0 -104 -7l-7 168q236 20 335.5 81t99.5 161q0 80 -49.5 122t-131.5 42q-135 0 -235 -90l-86 135q59 72 162.5 118t220.5 46q180 0 284.5 -86t104.5 -246q0 -233 -272 -334 q102 -37 159.5 -119t57.5 -196q0 -203 -143.5 -322t-379 -118.5t-405.5 133.5z" />
<glyph unicode="4" horiz-adv-x="1183" d="M31 299l28 174l748 899h264l-147 -876h235l-35 -197h-233l-49 -299h-242l49 299h-618zM305 496h377l96 569z" />
<glyph unicode="5" horiz-adv-x="980" d="M-12 102l90 162q127 -82 276 -82q125 0 200 74t75 186q0 117 -82 176.5t-230 59.5q-86 0 -159 -8l164 702h657l-37 -213h-463l-69 -293h28q219 0 338 -107.5t119 -297.5q0 -213 -142.5 -349.5t-365.5 -136.5q-231 0 -399 127z" />
<glyph unicode="6" horiz-adv-x="1130" d="M92 457q0 395 275.5 653t701.5 270l43 -174q-266 -18 -446.5 -139t-259.5 -315q119 104 284 104q172 0 275.5 -106.5t103.5 -286.5q0 -215 -145.5 -351.5t-362.5 -136.5q-213 0 -341 134.5t-128 347.5zM348 442q0 -125 57.5 -196.5t153.5 -71.5q106 0 177 80t71 205 q0 98 -53.5 155.5t-147.5 57.5q-137 0 -248 -94q-10 -54 -10 -136z" />
<glyph unicode="7" horiz-adv-x="991" d="M102 0v4l619 1153h-602l39 215h878l-35 -196l-622 -1176h-277z" />
<glyph unicode="8" horiz-adv-x="1163" d="M63 324q0 260 357 378q-199 137 -199 322q0 156 123 264.5t344 108.5q193 0 310.5 -90t117.5 -250q0 -223 -287 -332q125 -74 185.5 -152.5t60.5 -191.5q0 -184 -143.5 -296t-384.5 -112q-219 0 -351.5 96.5t-132.5 254.5zM328 340q0 -80 64.5 -125t172.5 -45 q106 0 176 53t70 139q0 45 -15.5 80t-52 66t-62.5 47t-85 49l-16 8q-252 -96 -252 -272zM467 1040q0 -66 39 -111.5t135 -97.5l25 -14q207 90 206 238q0 76 -54 120t-142 44q-98 0 -153.5 -50.5t-55.5 -128.5z" />
<glyph unicode="9" horiz-adv-x="1136" d="M100 166q528 111 684 463q-106 -96 -258 -97q-186 0 -292.5 103.5t-106.5 282.5q0 209 142.5 344t351.5 135q219 0 351 -131t132 -353q0 -385 -273.5 -630.5t-685.5 -292.5zM387 922q0 -98 52.5 -151.5t148.5 -53.5q143 0 250 96q8 74 8 115q0 127 -59.5 198.5 t-165.5 71.5q-98 0 -166 -78.5t-68 -197.5z" />
<glyph unicode=":" horiz-adv-x="567" d="M53 154q0 74 51.5 124t122.5 50q74 0 124 -50.5t50 -123.5q0 -72 -50 -123t-124 -51q-72 0 -123 51t-51 123zM174 878.5q0 71.5 51 123t123 51.5t123 -51.5t51 -123t-51 -122.5t-123 -51t-123 51t-51 122.5z" />
<glyph unicode=";" horiz-adv-x="567" d="M-57 -201q66 68 101.5 132.5t55.5 174.5l31 185h240q-4 -129 -21 -203q-49 -246 -278 -401zM178 877q0 74 51.5 124t122.5 50q74 0 124 -50.5t50 -123.5q0 -72 -50 -123.5t-124 -51.5q-72 0 -123 51.5t-51 123.5z" />
<glyph unicode="&#x3c;" horiz-adv-x="927" d="M63 586l29 168l885 438l-43 -248l-584 -282l490 -285l-39 -234z" />
<glyph unicode="=" horiz-adv-x="1103" d="M53 317l35 215h924l-35 -215h-924zM131 791l35 213h924l-35 -213h-924z" />
<glyph unicode="&#x3e;" horiz-adv-x="927" d="M6 143l41 248l584 287l-490 285l39 229l738 -442l-29 -168z" />
<glyph unicode="?" horiz-adv-x="989" d="M141 1155q70 109 184.5 177.5t266.5 68.5q184 0 291.5 -97.5t107.5 -267.5q0 -145 -104.5 -254.5t-298.5 -173.5q-16 -82 -45 -174h-211q6 104 28 268q199 78 283 151t84 169q0 72 -46 115t-130 43q-158 0 -279 -142zM223 150q0 70 50.5 118.5t122 48.5t121.5 -49 t50 -118q0 -72 -50 -121t-121.5 -49t-122 49t-50.5 121z" />
<glyph unicode="@" horiz-adv-x="1996" d="M96 463q0 414 278.5 693.5t698.5 279.5q387 0 620.5 -204t233.5 -552q0 -279 -156.5 -449t-388.5 -170q-119 0 -192.5 45.5t-89.5 122.5q-39 -72 -107.5 -119t-144.5 -47q-117 0 -192.5 92.5t-75.5 250.5q0 248 137 416.5t334 168.5q113 0 178 -76q35 51 39 58h162 q-94 -518 -109 -633q-14 -106 86 -107q129 0 218 118t89 325q0 272 -173 425.5t-468 153.5q-334 0 -548 -222t-214 -570q0 -342 193.5 -517t535.5 -175q170 0 314.5 52t230.5 130l111 -125q-227 -244 -660 -244q-446 0 -693 228.5t-247 650.5zM813 422q0 -154 115 -154 q106 0 180 133l66 375q-41 23 -97 23q-113 0 -187.5 -102.5t-76.5 -274.5z" />
<glyph unicode="A" horiz-adv-x="1327" d="M-74 0l752 1372h274l293 -1372h-276l-66 342h-512l-180 -342h-285zM496 547h368l-98 516z" />
<glyph unicode="B" horiz-adv-x="1214" d="M61 0l232 1372h399q240 0 355.5 -89t115.5 -247q0 -111 -61.5 -194.5t-173.5 -124.5q207 -76 207 -299q0 -197 -149.5 -307.5t-379.5 -110.5h-545zM354 184h207q139 0 216 66.5t77 171.5q0 197 -248 196h-180zM455 788h188q117 0 184.5 60.5t67.5 155.5q0 182 -227 182 h-146z" />
<glyph unicode="C" horiz-adv-x="1196" d="M88 582q0 346 208 579.5t527 233.5q274 0 432 -148l-131 -178q-125 98 -297 98q-211 0 -333.5 -166.5t-122.5 -408.5q0 -178 92 -277.5t239 -99.5q170 0 328 113l96 -174q-72 -70 -188.5 -123.5t-255.5 -53.5q-279 0 -436.5 165.5t-157.5 439.5z" />
<glyph unicode="D" horiz-adv-x="1351" d="M61 0l230 1372h393q297 0 463 -154.5t166 -429.5q0 -365 -220.5 -576.5t-600.5 -211.5h-431zM358 201h136q248 0 395 154.5t147 432.5q0 383 -360 383h-156z" />
<glyph unicode="E" horiz-adv-x="1122" d="M61 0l230 1372h891l-37 -207h-625l-61 -364h502l-35 -195h-500l-66 -399h641l-32 -207h-908z" />
<glyph unicode="F" horiz-adv-x="1069" d="M61 0l230 1372h874l-37 -207h-608l-67 -399h485l-37 -205h-481l-94 -561h-265z" />
<glyph unicode="G" horiz-adv-x="1390" d="M88 578q0 348 219 582.5t561 234.5q289 0 463 -170l-133 -178q-143 125 -328 124q-236 0 -368.5 -170t-132.5 -413q0 -182 88 -282.5t235 -100.5q186 0 305 119l41 237h-274l33 182h518l-33 -182l-100 -575h-176q-18 72 -19 155q-55 -66 -148.5 -115t-213.5 -49 q-242 0 -389.5 165.5t-147.5 435.5z" />
<glyph unicode="H" horiz-adv-x="1384" d="M61 0l230 1372h264l-94 -561h555l96 561h264l-231 -1372h-264l100 602h-555l-100 -602h-265z" />
<glyph unicode="I" horiz-adv-x="563" d="M61 0l230 1372h264l-229 -1372h-265z" />
<glyph unicode="J" horiz-adv-x="907" d="M-61 111l106 180q102 -82 223 -82q174 0 213 221l162 942h266l-166 -962q-37 -223 -145.5 -329t-302.5 -106q-213 1 -356 136z" />
<glyph unicode="K" horiz-adv-x="1249" d="M61 0l230 1372h264l-102 -608l626 608h303v-4l-594 -573l398 -791l-2 -4h-287l-313 618l-187 -182l-71 -436h-265z" />
<glyph unicode="L" horiz-adv-x="1067" d="M61 0l230 1372h264l-195 -1157h609l-37 -215h-871z" />
<glyph unicode="M" horiz-adv-x="1712" d="M25 0l323 1372h279l202 -958l525 958h295l-138 -1372h-247l100 977l-530 -977h-138l-207 971l-225 -971h-239z" />
<glyph unicode="N" horiz-adv-x="1445" d="M61 0l230 1372h254l481 -1001l168 1001h244l-234 -1386h-246l-487 1005l-166 -991h-244z" />
<glyph unicode="O" horiz-adv-x="1429" d="M88 557q0 375 205 607.5t520 232.5q272 0 426 -158t154 -426q0 -375 -205 -606.5t-522 -231.5q-272 0 -425 160t-153 422zM373 553q0 -172 77.5 -270.5t215.5 -98.5q111 0 198.5 57.5t139 151.5t78 203t26.5 223q0 172 -79 271.5t-218 99.5q-145 0 -248.5 -100.5 t-146.5 -240.5t-43 -296z" />
<glyph unicode="P" horiz-adv-x="1202" d="M61 0l230 1372h416q227 0 355 -111.5t128 -312.5q0 -231 -159 -369.5t-425 -138.5h-207l-73 -440h-265zM430 629h162q152 0 236.5 83t84.5 232q0 117 -59 176.5t-168 59.5h-164z" />
<glyph unicode="Q" horiz-adv-x="1425" d="M88 551q0 377 208 611.5t521 234.5q272 0 424 -157t152 -421q0 -299 -136.5 -507t-355.5 -283q164 -92 361 -160v-2l-105 -180q-279 74 -489 288q-283 2 -431.5 158t-148.5 418zM373 551q0 -172 74.5 -270.5t211.5 -98.5q111 0 200 58.5t141.5 152.5t80 204t27.5 222 q0 172 -78 271.5t-217 99.5q-145 0 -248.5 -100.5t-147.5 -240.5t-44 -298z" />
<glyph unicode="R" horiz-adv-x="1220" d="M61 0l230 1372h432q231 0 355 -103.5t124 -295.5q0 -160 -83 -262.5t-208 -147.5l201 -561v-2h-270l-174 512h-256l-86 -512h-265zM442 694h193q129 0 209 67.5t80 205.5q0 102 -55.5 158.5t-159.5 56.5h-187z" />
<glyph unicode="S" horiz-adv-x="1089" d="M-14 166l135 180q162 -145 364 -145q117 0 185.5 48t68.5 128q0 68 -42 115t-148 92l-78 34q-297 125 -297 379q0 184 140.5 292t347.5 108q293 0 440 -152l-125 -174q-127 109 -311 109q-104 0 -167 -40t-63 -116q0 -57 34 -99t126 -83l92 -39q164 -72 241 -165t77 -241 q0 -184 -142.5 -303t-371.5 -119q-299 1 -506 191z" />
<glyph unicode="T" horiz-adv-x="1130" d="M129 1157l37 215h1096l-37 -215h-416l-193 -1157h-266l193 1157h-414z" />
<glyph unicode="U" horiz-adv-x="1378" d="M143 522l144 850h262l-139 -835q-9 -55 -10 -101q0 -246 268 -246q250 0 307 338l143 844h264l-143 -850q-43 -264 -187.5 -404.5t-385.5 -140.5q-285 0 -425 146q-107 111 -108 286q0 53 10 113z" />
<glyph unicode="V" horiz-adv-x="1220" d="M131 1372h268l205 -1012l506 1012h268l-716 -1382h-228z" />
<glyph unicode="W" horiz-adv-x="1746" d="M141 1372h260l164 -993l307 682l-55 311h250l158 -993l413 993h244l-594 -1376h-223l-135 756l-346 -756h-199z" />
<glyph unicode="X" horiz-adv-x="1277" d="M-70 0v4l594 707l-327 659v2h278l230 -467l382 467h287v-2l-549 -657l355 -711v-2h-277l-256 516l-426 -516h-291z" />
<glyph unicode="Y" horiz-adv-x="1153" d="M117 1368v4h268l238 -614l419 614h273v-4l-592 -842l-90 -526h-264l90 520z" />
<glyph unicode="Z" horiz-adv-x="1161" d="M-27 0l33 193l862 968h-655l37 211h979l-33 -188l-881 -973h729l-36 -211h-1035z" />
<glyph unicode="[" horiz-adv-x="755" d="M47 -367l330 2001h514l-31 -182h-282l-271 -1636h281l-29 -183h-512z" />
<glyph unicode="\" horiz-adv-x="892" d="M137 1548h213l400 -2003h-211z" />
<glyph unicode="]" horiz-adv-x="751" d="M-98 -367l28 183h283l270 1636h-278l28 182h512l-331 -2001h-512z" />
<glyph unicode="^" horiz-adv-x="976" d="M41 625v4l471 743h188l242 -743v-4h-223l-144 469l-286 -469h-248z" />
<glyph unicode="_" horiz-adv-x="1007" d="M-125 -293l31 191h985l-31 -191h-985z" />
<glyph unicode="`" horiz-adv-x="796" d="M289 1475l141 153l51 -53q133 -137 262 -311l-102 -107q-229 182 -317 281z" />
<glyph unicode="a" horiz-adv-x="1132" d="M68 375q0 287 154.5 481.5t391.5 194.5q139 0 228 -88q10 25 32 69h213l-178 -1032h-225q0 104 4 166q-47 -80 -125 -132t-172 -52q-152 0 -237.5 111.5t-85.5 281.5zM334 391q0 -94 39 -150.5t114 -56.5q66 0 125.5 44t100.5 114l82 477q0 6 2 8q-61 31 -146 31 q-133 0 -225 -133t-92 -334z" />
<glyph unicode="b" horiz-adv-x="1175" d="M55 0l252 1503h256l-100 -592q49 61 130 102.5t177 41.5q160 0 249 -106.5t89 -297.5q0 -285 -144.5 -477t-396.5 -192q-166 0 -264 98q-29 -57 -43 -80h-205zM346 221q70 -47 182 -47q143 0 227.5 135t84.5 328q0 217 -170 217q-137 0 -238 -121z" />
<glyph unicode="c" horiz-adv-x="954" d="M68 438q0 246 156.5 429.5t414.5 183.5q215 0 326 -148l-131 -151q-86 90 -211 90q-119 0 -208 -106.5t-89 -289.5q0 -113 58 -179t159 -66q137 0 245 112l99 -127q-59 -88 -161.5 -147t-217.5 -59q-203 0 -321.5 122.5t-118.5 335.5z" />
<glyph unicode="d" horiz-adv-x="1165" d="M70 393q0 268 159.5 463t405.5 195q141 0 217 -64l86 516h256l-252 -1503h-227q0 100 4 160q-113 -178 -303 -178q-164 0 -255 113.5t-91 297.5zM336 403q0 -106 45 -162.5t123 -56.5q150 0 239 158l82 485q-61 31 -153 31q-150 0 -243 -125t-93 -330z" />
<glyph unicode="e" horiz-adv-x="1054" d="M66 430q0 262 150.5 442.5t385.5 180.5q186 0 290.5 -99.5t104.5 -279.5q0 -104 -22 -195h-653v-33q0 -8 -1 -14q0 -108 57 -173q60 -69 183 -69q141 0 279 125l104 -110q-53 -82 -162.5 -152.5t-255.5 -70.5q-211 0 -335.5 116.5t-124.5 331.5zM346 639h404q4 41 4 57 q0 90 -44 134t-120 44q-88 0 -150.5 -63t-93.5 -172z" />
<glyph unicode="f" horiz-adv-x="724" d="M80 848l29 160q63 16 155 20l19 105q66 397 444 397q133 0 217 -47l-49 -166q-74 16 -135 16q-104 0 -153.5 -47t-69.5 -162l-17 -96h260l-28 -180h-263l-141 -848h-256l141 848h-153z" />
<glyph unicode="g" horiz-adv-x="1148" d="M10 -309l68 162q150 -78 317 -78q240 0 281 231l31 180q-49 -80 -129 -137t-183 -57q-154 0 -239.5 109.5t-85.5 279.5q0 281 152.5 475.5t391.5 194.5q156 0 242 -97q20 47 37 78h211l-176 -1046q-37 -219 -166 -319.5t-352 -100.5q-121 0 -227.5 40t-172.5 85zM336 399 q0 -92 39 -147t112 -55q141 0 250 178l76 444v2q-66 37 -160 37q-133 0 -225 -132t-92 -327z" />
<glyph unicode="h" horiz-adv-x="1169" d="M55 0l252 1503h256l-102 -606q135 164 315 164q162 0 241 -107q56 -75 56 -193q0 -49 -10 -106l-111 -655h-254l109 653q5 31 5 57q0 54 -22 88q-34 50 -108 50q-143 0 -250 -125l-121 -723h-256z" />
<glyph unicode="i" horiz-adv-x="534" d="M55 0l172 1028h256l-174 -1028h-254zM256 1345.5q0 61.5 45 104.5t108.5 43t108.5 -43t45 -104.5t-45 -104.5t-108.5 -43t-108.5 43t-45 104.5z" />
<glyph unicode="j" horiz-adv-x="534" d="M-299 -367l57 162q59 -18 113 -18q76 0 120 48t64 169l174 1034h256l-176 -1044q-39 -225 -133 -321.5t-258 -96.5q-129 -1 -217 67zM256 1345.5q0 61.5 45 104.5t108.5 43t108.5 -43t45 -104.5t-45 -104.5t-108.5 -43t-108.5 43t-45 104.5z" />
<glyph unicode="k" horiz-adv-x="1069" d="M53 0l252 1503h256l-151 -895l434 420h278v-4l-422 -412l297 -608v-4h-262l-225 459l-150 -148l-53 -311h-254z" />
<glyph unicode="l" horiz-adv-x="536" d="M55 0l252 1503h256l-252 -1503h-256z" />
<glyph unicode="m" horiz-adv-x="1792" d="M53 0l176 1028h228q0 -90 -4 -141q131 174 321 174q223 0 277 -191q152 190 352 191q162 0 237 -107q53 -74 53 -190q0 -50 -10 -109l-112 -655h-256l112 653q6 35 6 63q0 132 -124 132q-137 0 -244 -123l-125 -725h-256l113 653q6 35 6 64q0 131 -123 131 q-141 0 -248 -125l-125 -723h-254z" />
<glyph unicode="n" horiz-adv-x="1169" d="M55 0l172 1028h230q0 -66 -6 -139q133 172 323 172q164 0 242 -107q55 -75 55 -192q0 -49 -10 -107l-109 -655h-256l109 653q5 31 5 57q0 54 -23 88q-34 50 -107 50q-145 0 -250 -127l-121 -721h-254z" />
<glyph unicode="o" d="M68 428q0 272 161.5 448.5t397.5 176.5q209 0 332.5 -116t123.5 -323q0 -279 -159.5 -455.5t-399.5 -176.5q-209 0 -332.5 119.5t-123.5 326.5zM332 416q0 -117 53 -180.5t141 -63.5q127 0 210 130t83 321q0 119 -51 180t-141 61q-131 0 -213 -129t-82 -319z" />
<glyph unicode="p" horiz-adv-x="1177" d="M-16 -410l243 1438h228l-6 -141q47 70 132 119t189 49q160 0 248 -107.5t88 -294.5q0 -276 -147.5 -470.5t-411.5 -194.5q-133 0 -230 71l-77 -469h-256zM344 221q57 -41 170 -41q150 0 238 129t88 330q0 102 -43 158.5t-127 56.5q-143 0 -242 -129z" />
<glyph unicode="q" horiz-adv-x="1173" d="M78 387q0 174 64.5 322.5t193.5 245t297 96.5q152 0 250 -99q18 39 43 80h202l-249 -1442h-256l92 535q-115 -143 -295 -143q-164 0 -253 108.5t-89 296.5zM344 401q0 -219 170 -219q70 0 132.5 36t98.5 87l89 508q-63 47 -168 47q-145 0 -233.5 -133t-88.5 -326z" />
<glyph unicode="r" horiz-adv-x="813" d="M51 0l178 1028h228q-6 -158 -8 -174q51 86 127.5 143.5t160.5 57.5q88 0 127 -31l-69 -229q-41 16 -99 16q-168 0 -276 -156l-113 -655h-256z" />
<glyph unicode="s" horiz-adv-x="892" d="M-8 135l123 158q119 -115 262 -115q166 0 166 119q0 74 -105 117l-92 41q-223 92 -223 288q0 141 107.5 226.5t285.5 85.5q231 0 342 -129l-115 -138q-92 82 -221 82q-72 0 -113.5 -27.5t-41.5 -78.5q0 -68 104 -113l90 -39q127 -51 184.5 -120.5t55.5 -180.5 q0 -150 -114 -239.5t-294 -89.5q-243 -1 -401 153z" />
<glyph unicode="t" horiz-adv-x="768" d="M76 852l26 156q74 18 150 20q31 143 61 234h215l-45 -234h314l-29 -176h-317l-99 -535q-4 -21 -4 -39q0 -84 88 -83q78 0 164 67l68 -123q-51 -68 -137.5 -112.5t-186.5 -44.5q-133 0 -197 89q-45 63 -44 151q0 37 8 79l104 551h-139z" />
<glyph unicode="u" horiz-adv-x="1155" d="M111 377l112 651h256l-112 -649q-6 -36 -6 -65q0 -130 118 -130q133 0 240 125l125 719h254l-176 -1028h-228q-2 29 -1 57q0 43 3 86q-57 -72 -139 -123t-174 -51q-158 0 -231 107q-51 74 -51 189q0 52 10 112z" />
<glyph unicode="v" horiz-adv-x="993" d="M78 1028h260l135 -700l332 700h262l-539 -1038h-209z" />
<glyph unicode="w" horiz-adv-x="1495" d="M96 1028h242l84 -676l317 676h144l139 -682l276 682h236l-447 -1038h-202l-129 620l-293 -620h-219z" />
<glyph unicode="x" horiz-adv-x="1036" d="M-68 0l437 535l-254 493h268l162 -334l264 334h274l-399 -498l268 -530h-264l-184 367l-293 -367h-279z" />
<glyph unicode="y" horiz-adv-x="1005" d="M-100 -369l57 160q72 -20 123 -20q53 0 94 28.5t80 104.5l61 106l-237 1018h264l135 -704l332 704h266l-575 -1124q-102 -199 -187.5 -268.5t-203.5 -69.5q-111 -1 -209 65z" />
<glyph unicode="z" horiz-adv-x="935" d="M-10 0l28 162l594 680h-471l35 186h774l-30 -166l-601 -676h519l-31 -186h-817z" />
<glyph unicode="{" horiz-adv-x="811" d="M115 539l30 174q109 16 159 83.5t54 211.5q0 20 3.5 89.5t3.5 88.5q8 252 150 364.5t431 106.5l-28 -172q-172 -10 -244 -76t-74 -225l-4 -166q-6 -172 -73.5 -271.5t-211.5 -136.5q184 -68 178 -254q-2 -72 -50 -216t-48 -201q-6 -86 50.5 -135.5t183.5 -67.5l-29 -170 q-225 14 -338 107.5t-106 240.5q2 80 52 226.5t52 213.5q11 152 -141 185z" />
<glyph unicode="|" horiz-adv-x="716" d="M285 -522v2232h219v-2232h-219z" />
<glyph unicode="}" horiz-adv-x="806" d="M-102 -432l26 172q172 10 244 75.5t74 225.5l6 166q4 172 71.5 270t210.5 135q-186 72 -178 256q2 68 50.5 214.5t50.5 203.5q4 86 -52.5 135t-183.5 66l31 172q225 -14 337.5 -107.5t104.5 -240.5q-2 -80 -52 -227.5t-52 -213.5q-10 -152 141 -184l-29 -174 q-111 -16 -161 -84t-52 -211q0 -20 -3 -90t-3 -88q-8 -252 -151 -364.5t-430 -106.5z" />
<glyph unicode="~" horiz-adv-x="1095" d="M57 455q35 121 115 199.5t188 78.5q102 0 224 -67q100 -53 161 -54q92 0 160 121l142 -69q-35 -121 -115 -199t-191 -78q-102 0 -221 68q-92 51 -162 51q-96 0 -159 -121z" />
<glyph unicode="&#xa1;" horiz-adv-x="655" d="M47 -332l39 223q49 299 158 713h217q-37 -369 -99 -721l-36 -215h-279zM223 891q0 72 50.5 121t122 49t121.5 -49t50 -121q0 -70 -50 -119t-121.5 -49t-122 49t-50.5 119z" />
<glyph unicode="&#xa2;" horiz-adv-x="1024" d="M102 559q0 244 161 423t419 179q25 0 35 -2l84 236l137 -39l-80 -226q115 -41 182 -129l-120 -141q-57 57 -132 82l-215 -629h25q154 0 268 113l86 -119q-61 -86 -166.5 -144.5t-220.5 -58.5q-20 0 -65 5l-82 -236l-137 39l79 229q-119 49 -188.5 155.5t-69.5 262.5z M348 567q0 -139 94 -207l207 598q-123 -8 -212 -111.5t-89 -279.5z" />
<glyph unicode="&#xa3;" horiz-adv-x="1095" d="M25 0l28 178q147 94 209 187.5t68 228.5h-195l31 178h158q-12 115 -13 162q0 213 126 338t356 125q188 0 311 -88l-88 -162q-90 47 -213 47t-186.5 -75t-63.5 -197q0 -23 1 -47.5t3 -54t2 -48.5h399l-28 -178h-367q-10 -270 -235 -391h686l-35 -203h-954z" />
<glyph unicode="&#xa5;" horiz-adv-x="1218" d="M82 342l22 143h373l29 174h-371l23 144h274l-229 565v4h256l205 -555l364 555h266v-4l-387 -565h258l-22 -144h-377l-29 -174h377l-24 -143h-377l-56 -342h-260l56 342h-371z" />
<glyph unicode="&#xa6;" horiz-adv-x="716" d="M285 465h219v-987h-219v987zM285 743v967h219v-967h-219z" />
<glyph unicode="&#xa7;" horiz-adv-x="1050" d="M6 -162l119 150q125 -111 270 -111q76 0 123 32t47 87q0 47 -28.5 80t-94.5 63l-80 37q-154 72 -223 153t-69 203q0 109 71.5 189t194.5 115q-102 96 -103 227q0 156 116 245t298 89q217 0 348 -131l-118 -142q-98 82 -236 82q-70 0 -117 -30.5t-47 -85.5q0 -43 31 -76 t106 -70l82 -35q154 -70 219.5 -148.5t65.5 -201.5q0 -117 -71.5 -194.5t-196.5 -110.5q106 -88 106 -236q0 -156 -115.5 -246.5t-300.5 -90.5q-135 0 -237.5 47t-159.5 110zM315 567q0 -63 43 -107t150 -91l53 -25q168 47 168 176q0 66 -36 109t-126 82l-84 32 q-168 -49 -168 -176z" />
<glyph unicode="&#xa8;" horiz-adv-x="796" d="M188 1347.5q0 57.5 43 99.5t99 42q61 0 101 -41t40 -100.5t-40 -100.5t-101 -41q-55 0 -98.5 42t-43.5 99.5zM586 1347.5q0 59.5 41 100.5t102 41q55 0 98 -42t43 -99.5t-43 -99.5t-98 -42q-61 0 -102 41t-41 100.5z" />
<glyph unicode="&#xa9;" horiz-adv-x="1691" d="M100 688q0 330 221.5 556t544.5 226q326 0 549 -226t223 -556q0 -328 -223 -555t-549 -227q-324 0 -545 227t-221 555zM262 688q0 -268 175 -453.5t429 -185.5q258 0 434.5 185.5t176.5 453.5t-176.5 453.5t-434.5 185.5q-254 0 -429 -185.5t-175 -453.5zM481 676 q0 207 119 328.5t303 121.5q141 0 240 -79l-76 -146q-72 47 -154 47q-98 0 -159.5 -67.5t-61.5 -194.5q0 -111 59.5 -172t159.5 -61q90 0 154 57l98 -125q-102 -119 -282.5 -119t-290 110t-109.5 300z" />
<glyph unicode="&#xaa;" horiz-adv-x="888" d="M102 844q0 233 125 393t320 160q106 0 176 -62q2 6 10 23l12 24h193l-141 -843h-205q0 72 2 116q-86 -131 -229 -131q-123 0 -193 90.5t-70 229.5zM342 868q0 -72 29.5 -113.5t83.5 -41.5q88 0 159 106l64 375q-53 23 -105 23q-96 0 -163.5 -98.5t-67.5 -250.5z" />
<glyph unicode="&#xab;" horiz-adv-x="980" d="M63 524v4l281 443h246l-299 -457l151 -436h-223zM463 524v4l285 443h243l-303 -457l152 -436h-224z" />
<glyph unicode="&#xad;" horiz-adv-x="722" d="M82 442l35 205h542l-34 -205h-543z" />
<glyph unicode="&#xae;" horiz-adv-x="1118" d="M137 1116q0 223 149.5 377t371 154t373 -154t151.5 -377t-151.5 -376.5t-373 -153.5t-371 153.5t-149.5 376.5zM252 1116q0 -180 117.5 -304t287.5 -124t289 124t119 304t-119 305t-289 125t-287.5 -125t-117.5 -305zM457 856v545h213q203 0 202 -164q0 -102 -92 -152 l121 -227v-2h-137l-100 205h-86v-205h-121zM578 1161h84q37 0 58 19.5t21 50.5t-22.5 48t-56.5 17h-84v-135z" />
<glyph unicode="&#xaf;" horiz-adv-x="796" d="M211 1245l31 178h594l-31 -178h-594z" />
<glyph unicode="&#xb0;" horiz-adv-x="770" d="M174 1194q0 137 93 236.5t239 99.5q135 0 221 -89t86 -224q0 -143 -95 -239.5t-235 -96.5q-135 0 -222 89t-87 224zM334 1198q0 -74 41 -122t110 -48q74 0 121 51t47 129q0 80 -40 128t-111 48q-74 0 -121 -53t-47 -133z" />
<glyph unicode="&#xb1;" horiz-adv-x="1130" d="M-4 37l35 201h956l-33 -201h-958zM111 717l32 201h369l59 356h222l-60 -356h367l-33 -201h-367l-59 -359h-221l59 359h-368z" />
<glyph unicode="&#xb2;" horiz-adv-x="1048" d="M-14 0l30 170q332 297 480.5 443.5t194.5 223t46 158.5q-2 80 -54 128t-142 48q-150 0 -230 -149l-141 106q45 109 154.5 189t267.5 80q193 0 306.5 -100.5t113.5 -272.5q0 -176 -136.5 -338t-531.5 -481h584l-35 -205h-907z" />
<glyph unicode="&#xb3;" horiz-adv-x="1024" d="M-2 109l88 157q127 -84 281 -84q125 0 206.5 59.5t81.5 166.5q0 98 -70.5 155.5t-197.5 57.5q-61 0 -104 -7l-7 168q236 20 335.5 81t99.5 161q0 80 -49.5 122t-131.5 42q-135 0 -235 -90l-86 135q59 72 162.5 118t220.5 46q180 0 284.5 -86t104.5 -246q0 -233 -272 -334 q102 -37 159.5 -119t57.5 -196q0 -203 -143.5 -322t-379 -118.5t-405.5 133.5z" />
<glyph unicode="&#xb4;" horiz-adv-x="796" d="M301 1268q156 180 332 317l49 39l125 -164l-41 -37q-158 -137 -377 -266z" />
<glyph unicode="&#xb6;" horiz-adv-x="1202" d="M133 911q0 197 134 329t370 132h532l-4 -26l-260 -1571h-192l233 1417h-162v-4l-106 -658h-2l-123 -755h-193l125 755q-164 8 -258 111.5t-94 269.5z" />
<glyph unicode="&#xb7;" horiz-adv-x="507" d="M88 610q0 74 51 124t123 50q74 0 124 -50t50 -124q0 -72 -50 -123t-124 -51q-72 0 -123 51t-51 123z" />
<glyph unicode="&#xb8;" horiz-adv-x="796" d="M-6 -469l80 113q45 -31 100 -31q98 0 98 76q0 74 -112 73q-33 0 -47 -2l-2 4l184 314l102 -47l-90 -156q76 -14 118 -63.5t42 -116.5q0 -102 -80 -167t-194 -65q-111 0 -199 68z" />
<glyph unicode="&#xb9;" horiz-adv-x="681" d="M84 1260l348 112h230l-232 -1372h-260l190 1145l-231 -64z" />
<glyph unicode="&#xba;" horiz-adv-x="937" d="M125 889q0 221 132 364.5t323 143.5q168 0 269 -94.5t101 -262.5q0 -227 -129 -371.5t-325 -144.5q-170 0 -270.5 97.5t-100.5 267.5zM362 891q0 -88 39 -136t101 -48q90 0 150.5 97t60.5 234q0 86 -37 132.5t-101 46.5q-94 0 -153.5 -94.5t-59.5 -231.5z" />
<glyph unicode="&#xbb;" horiz-adv-x="978" d="M-14 78l301 457l-150 436h223l154 -447v-4l-285 -442h-243zM387 78l299 457l-151 436h223l155 -447v-4l-280 -442h-246z" />
<glyph unicode="&#xbc;" horiz-adv-x="1581" d="M96 -2l1098 1417h209v-4l-1100 -1417h-207v4zM129 1335l238 72h172l-131 -801h-215l102 627l-135 -35zM766 158l22 133l435 510h233l-82 -498h137l-24 -145h-137l-27 -158h-199l25 158h-383zM979 303h195l47 293z" />
<glyph unicode="&#xbd;" horiz-adv-x="1650" d="M90 -2l1098 1417h209v-4l-1100 -1417h-207v4zM129 1335l238 72h172l-131 -801h-215l102 627l-135 -35zM885 0l22 127q244 190 321 277.5t77 154.5q0 37 -25 59.5t-68 22.5q-80 0 -135 -74l-98 84q86 164 287 164q121 0 198.5 -59.5t77.5 -169.5q0 -104 -90 -200.5 t-285 -229.5h338l-26 -156h-594z" />
<glyph unicode="&#xbe;" horiz-adv-x="1765" d="M106 666l60 125q82 -41 158 -41q72 0 112.5 29.5t40.5 76.5q0 94 -143 94q-25 0 -62 -4l-2 125q127 12 180.5 42t55.5 79q0 68 -88 68q-80 0 -142 -46l-65 107q90 100 260 100q119 0 189.5 -54t70.5 -144q0 -129 -162 -193q137 -45 138 -176q0 -119 -95.5 -190.5 t-242.5 -71.5q-171 0 -263 74zM283 -2l1097 1417h209v-4l-1100 -1417h-206v4zM948 158l23 133l434 510h233l-82 -498h138l-25 -145h-137l-27 -158h-198l24 158h-383zM1161 303h195l47 293z" />
<glyph unicode="&#xbf;" horiz-adv-x="989" d="M8 4q0 143 103.5 253t298.5 175q16 76 47 174h211q-6 -104 -29 -268q-199 -78 -283 -150.5t-84 -169.5q0 -72 46.5 -114.5t130.5 -42.5q158 0 278 141l131 -117q-70 -109 -184.5 -177t-265.5 -68q-184 0 -292 97t-108 267zM432 891q0 72 50 121t122 49t122 -49t50 -121 q0 -70 -50 -119t-122 -49t-122 49t-50 119z" />
<glyph unicode="&#xc0;" horiz-adv-x="1327" d="M-74 0l752 1372h274l293 -1372h-276l-66 342h-512l-180 -342h-285zM496 547h368l-98 516zM547 1698l100 188l55 -31q76 -41 191 -116.5t188 -136.5l-69 -132q-225 80 -420 199z" />
<glyph unicode="&#xc1;" horiz-adv-x="1327" d="M-74 0l752 1372h274l293 -1372h-276l-66 342h-512l-180 -342h-285zM496 547h368l-98 516zM571 1604q150 117 390 245l65 37l96 -192l-55 -33q-78 -45 -209 -103.5t-221 -87.5z" />
<glyph unicode="&#xc2;" horiz-adv-x="1327" d="M-74 0l752 1372h274l293 -1372h-276l-66 342h-512l-180 -342h-285zM496 547h368l-98 516zM498 1577q176 176 301 272h137q90 -98 225 -282l-104 -94q-90 68 -205 176q-141 -100 -266 -176z" />
<glyph unicode="&#xc3;" horiz-adv-x="1327" d="M-74 0l752 1372h274l293 -1372h-276l-66 342h-512l-180 -342h-285zM477 1520q4 117 66.5 197.5t161.5 80.5q74 0 159 -49q82 -47 119 -47q70 0 90 96l133 -12q-4 -117 -65.5 -198t-157.5 -81q-78 0 -166 52q-90 47 -117 47q-72 0 -88 -99zM496 547h368l-98 516z" />
<glyph unicode="&#xc4;" horiz-adv-x="1327" d="M-74 0l752 1372h274l293 -1372h-276l-66 342h-512l-180 -342h-285zM475 1644.5q0 59.5 45 102.5t103 43q63 0 104 -42t41 -103.5t-42 -104.5t-103 -43q-57 0 -102.5 44t-45.5 103.5zM496 547h368l-98 516zM905 1644.5q0 61.5 42 103.5t106 42q57 0 101 -43t44 -102 q0 -61 -44 -104.5t-101 -43.5q-63 0 -105.5 43t-42.5 104.5z" />
<glyph unicode="&#xc5;" horiz-adv-x="1327" d="M-74 0l752 1372h274l293 -1372h-276l-66 342h-512l-180 -342h-285zM496 547h368l-98 516zM586 1673q0 106 74.5 177t183.5 71q106 0 176 -65.5t70 -168t-75 -173t-186 -70.5q-106 0 -174.5 65.5t-68.5 163.5zM735 1675q0 -45 26.5 -74.5t69.5 -29.5q47 0 80 32.5t33 82.5 q0 45 -27.5 74.5t-74.5 29.5q-45 0 -76 -32t-31 -83z" />
<glyph unicode="&#xc6;" horiz-adv-x="1771" d="M-92 0l739 1372h1143l-35 -209h-571l-62 -362h469l-32 -197h-469l-66 -397h645l-35 -207h-903l68 408h-406l-211 -408h-274zM492 600h337l95 567h-142z" />
<glyph unicode="&#xc7;" horiz-adv-x="1196" d="M88 582q0 346 208 579.5t527 233.5q274 0 432 -148l-131 -178q-125 98 -297 98q-211 0 -333.5 -166.5t-122.5 -408.5q0 -178 92 -277.5t239 -99.5q170 0 328 113l96 -174q-72 -70 -188.5 -123.5t-255.5 -53.5q-31 0 -45 3l-59 -105q76 -14 117.5 -63.5t41.5 -116.5 q0 -102 -79.5 -167t-194.5 -65q-111 0 -199 68l80 113q45 -31 100 -31q98 0 99 76q0 74 -113 73q-33 0 -47 -2l-2 4l135 232q-205 45 -316.5 200t-111.5 386z" />
<glyph unicode="&#xc8;" horiz-adv-x="1122" d="M61 0l230 1372h891l-37 -207h-625l-61 -364h502l-35 -195h-500l-66 -399h641l-32 -207h-908zM479 1698l101 188l55 -31q76 -41 190.5 -116.5t188.5 -136.5l-70 -132q-225 80 -420 199z" />
<glyph unicode="&#xc9;" horiz-adv-x="1122" d="M61 0l230 1372h891l-37 -207h-625l-61 -364h502l-35 -195h-500l-66 -399h641l-32 -207h-908zM502 1604q150 117 389 245l65 37l97 -192l-56 -33q-78 -45 -209 -103.5t-221 -87.5z" />
<glyph unicode="&#xca;" horiz-adv-x="1122" d="M61 0l230 1372h891l-37 -207h-625l-61 -364h502l-35 -195h-500l-66 -399h641l-32 -207h-908zM424 1577q176 176 301 272h137q90 -98 225 -282l-104 -94q-90 68 -205 176q-141 -100 -266 -176z" />
<glyph unicode="&#xcb;" horiz-adv-x="1122" d="M61 0l230 1372h891l-37 -207h-625l-61 -364h502l-35 -195h-500l-66 -399h641l-32 -207h-908zM401 1644.5q0 59.5 45.5 102.5t102.5 43q63 0 104 -42t41 -103.5t-42 -104.5t-103 -43q-57 0 -102.5 44t-45.5 103.5zM831 1644.5q0 61.5 42 103.5t106 42q57 0 101 -43 t44 -102q0 -61 -44 -104.5t-101 -43.5q-63 0 -105.5 43t-42.5 104.5z" />
<glyph unicode="&#xcc;" horiz-adv-x="563" d="M61 0l230 1372h264l-229 -1372h-265zM160 1698l100 188l55 -31q76 -41 191 -116.5t188 -136.5l-69 -132q-225 80 -420 199z" />
<glyph unicode="&#xcd;" horiz-adv-x="563" d="M61 0l230 1372h264l-229 -1372h-265zM180 1604q147 117 389 245l66 37l96 -192l-55 -33q-78 -45 -209 -103.5t-221 -87.5z" />
<glyph unicode="&#xce;" horiz-adv-x="563" d="M61 0l230 1372h264l-229 -1372h-265zM106 1577q176 176 302 272h137q90 -98 225 -282l-104 -94q-90 68 -205 176q-141 -100 -266 -176z" />
<glyph unicode="&#xcf;" horiz-adv-x="563" d="M61 0l230 1372h264l-229 -1372h-265zM80 1644.5q0 59.5 45 102.5t102 43q63 0 104.5 -42t41.5 -103.5t-42 -104.5t-104 -43q-57 0 -102 44t-45 103.5zM510 1644.5q0 61.5 42 103.5t105 42q57 0 101.5 -43t44.5 -102q0 -61 -44 -104.5t-102 -43.5q-63 0 -105 43t-42 104.5 z" />
<glyph unicode="&#xd0;" horiz-adv-x="1398" d="M31 600l35 205h176l96 567h393q297 0 463 -154.5t166 -429.5q0 -365 -220 -576.5t-601 -211.5h-430l100 600h-178zM406 201h135q248 0 395 154.5t147 432.5q0 383 -360 383h-156l-61 -366h268l-33 -205h-268z" />
<glyph unicode="&#xd1;" horiz-adv-x="1445" d="M61 0l230 1372h254l481 -1001l168 1001h244l-234 -1386h-246l-487 1005l-166 -991h-244zM535 1520q4 117 66.5 197.5t160.5 80.5q74 0 160 -49q82 -47 118 -47q70 0 90 96l134 -12q-4 -117 -65.5 -198t-158.5 -81q-78 0 -166 52q-90 47 -116 47q-72 0 -88 -99z" />
<glyph unicode="&#xd2;" horiz-adv-x="1429" d="M88 557q0 375 205 607.5t520 232.5q272 0 426 -158t154 -426q0 -375 -205 -606.5t-522 -231.5q-272 0 -425 160t-153 422zM373 553q0 -172 77.5 -270.5t215.5 -98.5q111 0 198.5 57.5t139 151.5t78 203t26.5 223q0 172 -79 271.5t-218 99.5q-145 0 -248.5 -100.5 t-146.5 -240.5t-43 -296zM578 1698l100 188l55 -31q76 -41 190.5 -116.5t188.5 -136.5l-70 -132q-225 80 -419 199z" />
<glyph unicode="&#xd3;" horiz-adv-x="1429" d="M88 557q0 375 205 607.5t520 232.5q272 0 426 -158t154 -426q0 -375 -205 -606.5t-522 -231.5q-272 0 -425 160t-153 422zM373 553q0 -172 77.5 -270.5t215.5 -98.5q111 0 198.5 57.5t139 151.5t78 203t26.5 223q0 172 -79 271.5t-218 99.5q-145 0 -248.5 -100.5 t-146.5 -240.5t-43 -296zM612 1604q150 117 389 245l66 37l96 -192l-55 -33q-78 -45 -209 -103.5t-221 -87.5z" />
<glyph unicode="&#xd4;" horiz-adv-x="1429" d="M88 557q0 375 205 607.5t520 232.5q272 0 426 -158t154 -426q0 -375 -205 -606.5t-522 -231.5q-272 0 -425 160t-153 422zM373 553q0 -172 77.5 -270.5t215.5 -98.5q111 0 198.5 57.5t139 151.5t78 203t26.5 223q0 172 -79 271.5t-218 99.5q-145 0 -248.5 -100.5 t-146.5 -240.5t-43 -296zM526 1577q176 176 301 272h138q90 -98 225 -282l-105 -94q-90 68 -204 176q-141 -100 -267 -176z" />
<glyph unicode="&#xd5;" horiz-adv-x="1429" d="M88 557q0 375 205 607.5t520 232.5q272 0 426 -158t154 -426q0 -375 -205 -606.5t-522 -231.5q-272 0 -425 160t-153 422zM373 553q0 -172 77.5 -270.5t215.5 -98.5q111 0 198.5 57.5t139 151.5t78 203t26.5 223q0 172 -79 271.5t-218 99.5q-145 0 -248.5 -100.5 t-146.5 -240.5t-43 -296zM514 1520q4 117 66.5 197.5t160.5 80.5q74 0 160 -49q82 -47 119 -47q70 0 90 96l133 -12q-4 -117 -65.5 -198t-157.5 -81q-78 0 -166 52q-90 47 -117 47q-72 0 -88 -99z" />
<glyph unicode="&#xd6;" horiz-adv-x="1429" d="M88 557q0 375 205 607.5t520 232.5q272 0 426 -158t154 -426q0 -375 -205 -606.5t-522 -231.5q-272 0 -425 160t-153 422zM373 553q0 -172 77.5 -270.5t215.5 -98.5q111 0 198.5 57.5t139 151.5t78 203t26.5 223q0 172 -79 271.5t-218 99.5q-145 0 -248.5 -100.5 t-146.5 -240.5t-43 -296zM504 1644.5q0 59.5 45 102.5t102 43q63 0 104.5 -42t41.5 -103.5t-42 -104.5t-104 -43q-57 0 -102 44t-45 103.5zM934 1644.5q0 61.5 42 103.5t105 42q57 0 101.5 -43t44.5 -102q0 -61 -44 -104.5t-102 -43.5q-63 0 -105 43t-42 104.5z" />
<glyph unicode="&#xd7;" horiz-adv-x="1077" d="M23 293l391 366l-277 375l176 137l265 -358l383 358l139 -157l-395 -373l276 -373l-176 -135l-264 356l-379 -356z" />
<glyph unicode="&#xd8;" horiz-adv-x="1429" d="M45 -25l164 197q-121 150 -121 385q0 375 205 607.5t520 232.5q197 0 336 -86l156 186l133 -108l-162 -195q117 -152 117 -381q0 -375 -205 -606.5t-522 -231.5q-197 0 -330 84l-160 -192zM362 551q0 -102 27 -174l615 753q-76 66 -189 66q-150 0 -256 -101.5 t-151.5 -243.5t-45.5 -300zM481 238q72 -59 183 -60q150 0 256 101.5t152 242t46 297.5q0 92 -24 166z" />
<glyph unicode="&#xd9;" horiz-adv-x="1378" d="M143 522l144 850h262l-139 -835q-59 -346 258 -347q250 0 307 338l143 844h264l-143 -850q-43 -264 -187.5 -404.5t-385.5 -140.5q-285 0 -425.5 145.5t-97.5 399.5zM565 1698l101 188l55 -31q76 -41 190.5 -116.5t188.5 -136.5l-70 -132q-225 80 -420 199z" />
<glyph unicode="&#xda;" horiz-adv-x="1378" d="M143 522l144 850h262l-139 -835q-59 -346 258 -347q250 0 307 338l143 844h264l-143 -850q-43 -264 -187.5 -404.5t-385.5 -140.5q-285 0 -425.5 145.5t-97.5 399.5zM586 1604q147 117 389 245l65 37l97 -192l-56 -33q-78 -45 -209 -103.5t-221 -87.5z" />
<glyph unicode="&#xdb;" horiz-adv-x="1378" d="M143 522l144 850h262l-139 -835q-59 -346 258 -347q250 0 307 338l143 844h264l-143 -850q-43 -264 -187.5 -404.5t-385.5 -140.5q-285 0 -425.5 145.5t-97.5 399.5zM512 1577q176 176 301 272h137q90 -98 226 -282l-105 -94q-90 68 -205 176q-141 -100 -266 -176z" />
<glyph unicode="&#xdc;" horiz-adv-x="1378" d="M143 522l144 850h262l-139 -835q-59 -346 258 -347q250 0 307 338l143 844h264l-143 -850q-43 -264 -187.5 -404.5t-385.5 -140.5q-285 0 -425.5 145.5t-97.5 399.5zM489 1644.5q0 59.5 45.5 102.5t102.5 43q63 0 104 -42t41 -103.5t-42 -104.5t-103 -43q-57 0 -102.5 44 t-45.5 103.5zM920 1644.5q0 61.5 42 103.5t105 42q57 0 101 -43t44 -102q0 -61 -44 -104.5t-101 -43.5q-63 0 -105 43t-42 104.5z" />
<glyph unicode="&#xdd;" horiz-adv-x="1153" d="M117 1368v4h268l238 -614l419 614h273v-4l-592 -842l-90 -526h-264l90 520zM485 1604q150 117 389 245l66 37l96 -192l-55 -33q-78 -45 -209 -103.5t-221 -87.5z" />
<glyph unicode="&#xde;" horiz-adv-x="1183" d="M59 0l236 1372h264l-39 -225h148q227 0 355 -105.5t128 -293.5q0 -225 -157.5 -351.5t-426.5 -126.5h-198l-45 -270h-265zM401 461h152q152 0 236.5 74.5t84.5 209.5q0 209 -227 209h-160z" />
<glyph unicode="&#xdf;" horiz-adv-x="1179" d="M53 0l185 1102q70 428 491 428q184 0 298 -86t114 -240q0 -145 -148 -276q-16 -14 -43.5 -37t-42 -35t-32 -29.5t-24.5 -33t-7 -29.5q0 -33 20.5 -56.5t93.5 -86.5q92 -78 131 -148t39 -151q0 -152 -106.5 -246t-282.5 -94q-190 0 -313 122l88 154q92 -72 197 -72 q68 0 108.5 36t40.5 97q0 74 -110 162q-150 117 -150 248q0 47 23.5 93t48 73t69.5 70q47 45 70 68.5t47.5 67.5t24.5 85q0 66 -45 104.5t-123 38.5q-98 0 -150.5 -57.5t-70.5 -167.5l-185 -1104h-256z" />
<glyph unicode="&#xe0;" horiz-adv-x="1132" d="M68 375q0 287 154.5 481.5t391.5 194.5q139 0 228 -88q10 25 32 69h213l-178 -1032h-225q0 104 4 166q-47 -80 -125 -132t-172 -52q-152 0 -237.5 111.5t-85.5 281.5zM334 391q0 -94 39 -150.5t114 -56.5q66 0 125.5 44t100.5 114l82 477q0 6 2 8q-61 31 -146 31 q-133 0 -225 -133t-92 -334zM473 1475l141 153l52 -53q133 -137 262 -311l-103 -107q-229 182 -317 281z" />
<glyph unicode="&#xe1;" horiz-adv-x="1132" d="M68 375q0 287 154.5 481.5t391.5 194.5q139 0 228 -88q10 25 32 69h213l-178 -1032h-225q0 104 4 166q-47 -80 -125 -132t-172 -52q-152 0 -237.5 111.5t-85.5 281.5zM334 391q0 -94 39 -150.5t114 -56.5q66 0 125.5 44t100.5 114l82 477q0 6 2 8q-61 31 -146 31 q-133 0 -225 -133t-92 -334zM463 1268q156 180 332 317l49 39l125 -164l-41 -37q-158 -137 -377 -266z" />
<glyph unicode="&#xe2;" horiz-adv-x="1132" d="M68 375q0 287 154.5 481.5t391.5 194.5q139 0 228 -88q10 25 32 69h213l-178 -1032h-225q0 104 4 166q-47 -80 -125 -132t-172 -52q-152 0 -237.5 111.5t-85.5 281.5zM334 391q0 -94 39 -150.5t114 -56.5q66 0 125.5 44t100.5 114l82 477q0 6 2 8q-61 31 -146 31 q-133 0 -225 -133t-92 -334zM362 1260q160 180 310 315h106q61 -78 223 -324l-108 -92q-117 117 -186 199q-125 -106 -250 -199z" />
<glyph unicode="&#xe3;" horiz-adv-x="1132" d="M68 375q0 287 154.5 481.5t391.5 194.5q139 0 228 -88q10 25 32 69h213l-178 -1032h-225q0 104 4 166q-47 -80 -125 -132t-172 -52q-152 0 -237.5 111.5t-85.5 281.5zM317 1229q8 117 72 198.5t162 81.5q76 0 154 -49q78 -51 110 -51q66 0 90 100l133 -12 q-8 -119 -69.5 -199.5t-159.5 -80.5q-80 0 -158 51q-80 49 -110 49q-66 0 -90 -100zM334 391q0 -94 39 -150.5t114 -56.5q66 0 125.5 44t100.5 114l82 477q0 6 2 8q-61 31 -146 31q-133 0 -225 -133t-92 -334z" />
<glyph unicode="&#xe4;" horiz-adv-x="1132" d="M68 375q0 287 154.5 481.5t391.5 194.5q139 0 228 -88q10 25 32 69h213l-178 -1032h-225q0 104 4 166q-47 -80 -125 -132t-172 -52q-152 0 -237.5 111.5t-85.5 281.5zM334 391q0 -94 39 -150.5t114 -56.5q66 0 125.5 44t100.5 114l82 477q0 6 2 8q-61 31 -146 31 q-133 0 -225 -133t-92 -334zM346 1347.5q0 57.5 43 99.5t98 42q61 0 101.5 -41t40.5 -100.5t-40 -100.5t-102 -41q-55 0 -98 42t-43 99.5zM743 1347.5q0 59.5 41 100.5t103 41q55 0 98 -42t43 -99.5t-43 -99.5t-98 -42q-61 0 -102.5 41t-41.5 100.5z" />
<glyph unicode="&#xe5;" horiz-adv-x="1132" d="M68 375q0 287 154.5 481.5t391.5 194.5q139 0 228 -88q10 25 32 69h213l-178 -1032h-225q0 104 4 166q-47 -80 -125 -132t-172 -52q-152 0 -237.5 111.5t-85.5 281.5zM334 391q0 -94 39 -150.5t114 -56.5q66 0 125.5 44t100.5 114l82 477q0 6 2 8q-61 31 -146 31 q-133 0 -225 -133t-92 -334zM446 1395q0 106 74 174.5t182 68.5q106 0 173 -63.5t67 -159.5q0 -109 -74.5 -178.5t-183.5 -69.5q-106 0 -172 65t-66 163zM594 1399q0 -43 26.5 -74t67.5 -31q45 0 77 33t32 82q0 43 -28 72.5t-71 29.5t-73.5 -31.5t-30.5 -80.5z" />
<glyph unicode="&#xe6;" horiz-adv-x="1615" d="M37 264q0 162 113.5 244t314.5 92q100 14 219 8l14 84q14 82 -31.5 125t-148.5 43q-137 0 -276 -61l-37 145q57 43 162.5 80t218.5 37q209 0 288 -119q131 111 306 111q180 0 279.5 -98.5t99.5 -276.5q0 -86 -23 -199h-631q-2 -18 -2 -45q0 -244 232 -244q125 0 268 125 l102 -110q-55 -84 -158.5 -153.5t-246.5 -69.5q-289 0 -398 204q-129 -205 -348 -204q-145 0 -231 79.5t-86 202.5zM287 297q0 -61 34.5 -94t94.5 -33q61 0 121.5 38t97.5 97l29 170q-68 4 -138 -6q-239 -6 -239 -172zM928 639h383q4 41 4 57q0 178 -152 178 q-169 1 -235 -235z" />
<glyph unicode="&#xe7;" horiz-adv-x="954" d="M68 438q0 246 156.5 429.5t414.5 183.5q215 0 326 -148l-131 -151q-86 90 -211 90q-119 0 -208 -106.5t-89 -289.5q0 -113 58 -179t159 -66q137 0 245 112l99 -127q-59 -88 -162.5 -147t-222.5 -59h-4l-60 -105q76 -14 118 -63.5t42 -116.5q0 -102 -80 -167t-194 -65 q-111 0 -199 68l80 113q45 -31 100 -31q98 0 98 76q0 74 -112 73q-33 0 -47 -2l-2 4l135 230q-145 35 -227 150.5t-82 293.5z" />
<glyph unicode="&#xe8;" horiz-adv-x="1054" d="M66 430q0 262 150.5 442.5t385.5 180.5q186 0 290.5 -99.5t104.5 -279.5q0 -104 -22 -195h-653v-33q-4 -119 56 -187.5t183 -68.5q141 0 279 125l104 -110q-53 -82 -162.5 -152.5t-255.5 -70.5q-211 0 -335.5 116.5t-124.5 331.5zM346 639h404q4 41 4 57q0 90 -44 134 t-120 44q-88 0 -150.5 -63t-93.5 -172zM416 1475l141 153l51 -53q133 -137 262 -311l-102 -107q-229 182 -317 281z" />
<glyph unicode="&#xe9;" horiz-adv-x="1054" d="M66 430q0 262 150.5 442.5t385.5 180.5q186 0 290.5 -99.5t104.5 -279.5q0 -104 -22 -195h-653v-33q-4 -119 56 -187.5t183 -68.5q141 0 279 125l104 -110q-53 -82 -162.5 -152.5t-255.5 -70.5q-211 0 -335.5 116.5t-124.5 331.5zM346 639h404q4 41 4 57q0 90 -44 134 t-120 44q-88 0 -150.5 -63t-93.5 -172zM424 1268q156 180 332 317l49 39l125 -164l-41 -37q-158 -137 -377 -266z" />
<glyph unicode="&#xea;" horiz-adv-x="1054" d="M66 430q0 262 150.5 442.5t385.5 180.5q186 0 290.5 -99.5t104.5 -279.5q0 -104 -22 -195h-653v-33q-4 -119 56 -187.5t183 -68.5q141 0 279 125l104 -110q-53 -82 -162.5 -152.5t-255.5 -70.5q-211 0 -335.5 116.5t-124.5 331.5zM315 1260q160 180 310 315h106 q61 -78 223 -324l-108 -92q-117 117 -187 199q-125 -106 -249 -199zM346 639h404q4 41 4 57q0 90 -44 134t-120 44q-88 0 -150.5 -63t-93.5 -172z" />
<glyph unicode="&#xeb;" horiz-adv-x="1054" d="M66 430q0 262 150.5 442.5t385.5 180.5q186 0 290.5 -99.5t104.5 -279.5q0 -104 -22 -195h-653v-33q-4 -119 56 -187.5t183 -68.5q141 0 279 125l104 -110q-53 -82 -162.5 -152.5t-255.5 -70.5q-211 0 -335.5 116.5t-124.5 331.5zM305 1347.5q0 57.5 43 99.5t98 42 q61 0 101.5 -41t40.5 -100.5t-40 -100.5t-102 -41q-55 0 -98 42t-43 99.5zM346 639h404q4 41 4 57q0 90 -44 134t-120 44q-88 0 -150.5 -63t-93.5 -172zM702 1347.5q0 59.5 41 100.5t103 41q55 0 98 -42t43 -99.5t-43 -99.5t-98 -42q-61 0 -102.5 41t-41.5 100.5z" />
<glyph unicode="&#xec;" horiz-adv-x="534" d="M55 0l172 1028h256l-174 -1028h-254zM184 1475l142 153l51 -53q133 -137 262 -311l-102 -107q-229 182 -318 281z" />
<glyph unicode="&#xed;" horiz-adv-x="534" d="M55 0l172 1028h256l-174 -1028h-254zM164 1268q156 180 332 317l49 39l125 -164l-41 -37q-158 -137 -377 -266z" />
<glyph unicode="&#xee;" horiz-adv-x="534" d="M55 0l172 1028h256l-174 -1028h-254zM61 1260q160 180 310 315h106q61 -78 223 -324l-108 -92q-117 117 -186 199q-125 -106 -250 -199z" />
<glyph unicode="&#xef;" horiz-adv-x="534" d="M51 1347.5q0 57.5 43 99.5t99 42q61 0 101 -41t40 -100.5t-40 -100.5t-101 -41q-55 0 -98.5 42t-43.5 99.5zM55 0l172 1028h256l-174 -1028h-254zM449 1347.5q0 59.5 40.5 100.5t102.5 41q55 0 98 -42t43 -99.5t-43 -99.5t-98 -42q-61 0 -102 41t-41 100.5z" />
<glyph unicode="&#xf0;" d="M70 414q0 246 142 405.5t370 159.5q125 0 204 -61q-35 143 -116 245l-348 -147l-48 114l297 127q-78 63 -200 125l78 146q186 -70 325 -180l256 110l47 -117l-205 -88q195 -219 195 -534q0 -135 -30.5 -261t-93 -237.5t-174.5 -178.5t-257 -67q-203 0 -322.5 121 t-119.5 318zM332 422q0 -115 50 -179.5t140 -64.5q121 0 203 141.5t82 405.5v33q-74 49 -182 49q-127 0 -210 -103.5t-83 -281.5z" />
<glyph unicode="&#xf1;" horiz-adv-x="1169" d="M55 0l172 1028h230q0 -66 -6 -139q133 172 323 172q164 0 242 -106.5t45 -299.5l-109 -655h-256l109 653q16 94 -17.5 144.5t-107.5 50.5q-145 0 -250 -127l-121 -721h-254zM340 1229q8 117 71.5 198.5t161.5 81.5q76 0 154 -49q76 -51 111 -51q66 0 90 100l133 -12 q-8 -119 -69.5 -199.5t-160.5 -80.5q-82 0 -157 51q-80 49 -111 49q-66 0 -90 -100z" />
<glyph unicode="&#xf2;" d="M68 428q0 272 161.5 448.5t397.5 176.5q209 0 332.5 -116t123.5 -323q0 -279 -159.5 -455.5t-399.5 -176.5q-209 0 -332.5 119.5t-123.5 326.5zM332 416q0 -117 53 -180.5t141 -63.5q127 0 210 130t83 321q0 119 -51 180t-141 61q-131 0 -213 -129t-82 -319zM492 1475 l141 153l51 -53q133 -137 262 -311l-102 -107q-229 182 -318 281z" />
<glyph unicode="&#xf3;" d="M68 428q0 272 161.5 448.5t397.5 176.5q209 0 332.5 -116t123.5 -323q0 -279 -159.5 -455.5t-399.5 -176.5q-209 0 -332.5 119.5t-123.5 326.5zM332 416q0 -117 53 -180.5t141 -63.5q127 0 210 130t83 321q0 119 -51 180t-141 61q-131 0 -213 -129t-82 -319zM471 1268 q156 180 332 317l49 39l125 -164l-41 -37q-158 -137 -377 -266z" />
<glyph unicode="&#xf4;" d="M68 428q0 272 161.5 448.5t397.5 176.5q209 0 332.5 -116t123.5 -323q0 -279 -159.5 -455.5t-399.5 -176.5q-209 0 -332.5 119.5t-123.5 326.5zM332 416q0 -117 53 -180.5t141 -63.5q127 0 210 130t83 321q0 119 -51 180t-141 61q-131 0 -213 -129t-82 -319zM365 1260 q160 180 309 315h106q61 -78 224 -324l-109 -92q-117 117 -186 199q-125 -106 -250 -199z" />
<glyph unicode="&#xf5;" d="M68 428q0 272 161.5 448.5t397.5 176.5q209 0 332.5 -116t123.5 -323q0 -279 -159.5 -455.5t-399.5 -176.5q-209 0 -332.5 119.5t-123.5 326.5zM330 1229q8 117 71.5 198.5t161.5 81.5q76 0 154 -49q78 -51 110 -51q66 0 91 100l133 -12q-8 -119 -69.5 -199.5 t-160.5 -80.5q-80 0 -157 51q-80 49 -111 49q-66 0 -90 -100zM332 416q0 -117 53 -180.5t141 -63.5q127 0 210 130t83 321q0 119 -51 180t-141 61q-131 0 -213 -129t-82 -319z" />
<glyph unicode="&#xf6;" d="M68 428q0 272 161.5 448.5t397.5 176.5q209 0 332.5 -116t123.5 -323q0 -279 -159.5 -455.5t-399.5 -176.5q-209 0 -332.5 119.5t-123.5 326.5zM332 416q0 -117 53 -180.5t141 -63.5q127 0 210 130t83 321q0 119 -51 180t-141 61q-131 0 -213 -129t-82 -319zM354 1347.5 q0 57.5 43 99.5t99 42q61 0 101 -41t40 -100.5t-40 -100.5t-101 -41q-55 0 -98.5 42t-43.5 99.5zM752 1347.5q0 59.5 41 100.5t102 41q55 0 98 -42t43 -99.5t-43 -99.5t-98 -42q-61 0 -102 41t-41 100.5z" />
<glyph unicode="&#xf7;" horiz-adv-x="1093" d="M66 573l36 218h996l-35 -218h-997zM367 286.5q0 63.5 44 107.5t107.5 44t108.5 -44t45 -107.5t-45 -108.5t-108.5 -45t-107.5 45t-44 108.5zM492 1079q0 63 44 107.5t107.5 44.5t108.5 -44t45 -107.5t-45 -108.5t-108.5 -45t-107.5 43.5t-44 109.5z" />
<glyph unicode="&#xf8;" d="M20 -27l140 164q-92 115 -92 291q0 272 163.5 448.5t399.5 176.5q147 0 254 -58l145 172l109 -90l-144 -170q98 -115 99 -293q0 -279 -161 -455.5t-403 -176.5q-154 0 -266 65l-137 -164zM328 414q0 -43 6 -80l418 500q-51 39 -121 38q-133 0 -218 -132.5t-85 -325.5z M399 211q53 -47 131 -47q131 0 216 134t85 327q0 43 -10 88z" />
<glyph unicode="&#xf9;" horiz-adv-x="1155" d="M111 377l112 651h256l-112 -649q-33 -195 112 -195q133 0 240 125l125 719h254l-176 -1028h-228q-4 72 2 143q-57 -72 -139 -123t-174 -51q-158 0 -231.5 106.5t-40.5 301.5zM481 1475l142 153l51 -53q133 -137 262 -311l-102 -107q-229 182 -318 281z" />
<glyph unicode="&#xfa;" horiz-adv-x="1155" d="M111 377l112 651h256l-112 -649q-33 -195 112 -195q133 0 240 125l125 719h254l-176 -1028h-228q-4 72 2 143q-57 -72 -139 -123t-174 -51q-158 0 -231.5 106.5t-40.5 301.5zM465 1268q156 180 332 317l49 39l125 -164l-41 -37q-158 -137 -377 -266z" />
<glyph unicode="&#xfb;" horiz-adv-x="1155" d="M111 377l112 651h256l-112 -649q-33 -195 112 -195q133 0 240 125l125 719h254l-176 -1028h-228q-4 72 2 143q-57 -72 -139 -123t-174 -51q-158 0 -231.5 106.5t-40.5 301.5zM362 1260q160 180 310 315h106q61 -78 223 -324l-108 -92q-117 117 -186 199 q-125 -106 -250 -199z" />
<glyph unicode="&#xfc;" horiz-adv-x="1155" d="M111 377l112 651h256l-112 -649q-33 -195 112 -195q133 0 240 125l125 719h254l-176 -1028h-228q-4 72 2 143q-57 -72 -139 -123t-174 -51q-158 0 -231.5 106.5t-40.5 301.5zM350 1347.5q0 57.5 43 99.5t99 42q61 0 101 -41t40 -100.5t-40 -100.5t-101 -41 q-55 0 -98.5 42t-43.5 99.5zM748 1347.5q0 59.5 40.5 100.5t102.5 41q55 0 98 -42t43 -99.5t-43 -99.5t-98 -42q-61 0 -102 41t-41 100.5z" />
<glyph unicode="&#xfd;" horiz-adv-x="1005" d="M-100 -369l57 160q72 -20 123 -20q53 0 94 28.5t80 104.5l61 106l-237 1018h264l135 -704l332 704h266l-575 -1124q-102 -199 -187.5 -268.5t-203.5 -69.5q-111 -1 -209 65zM375 1268q156 180 332 317l49 39l125 -164l-41 -37q-158 -137 -377 -266z" />
<glyph unicode="&#xfe;" horiz-adv-x="1177" d="M-16 -410l321 1913h254l-100 -602q117 154 311 154q160 0 247 -107.5t87 -294.5q0 -279 -146.5 -472t-410.5 -193q-129 0 -230 71l-77 -469h-256zM344 221q57 -41 170 -41q150 0 237 129t87 330q0 215 -168 215q-72 0 -136.5 -38t-105.5 -91z" />
<glyph unicode="&#xff;" horiz-adv-x="1005" d="M-100 -369l57 160q72 -20 123 -20q53 0 94 28.5t80 104.5l61 106l-237 1018h264l135 -704l332 704h266l-575 -1124q-102 -199 -187.5 -268.5t-203.5 -69.5q-111 -1 -209 65zM260 1347.5q0 57.5 43 99.5t98 42q61 0 101.5 -41t40.5 -100.5t-40 -100.5t-102 -41 q-55 0 -98 42t-43 99.5zM657 1347.5q0 59.5 41 100.5t103 41q55 0 98 -42t43 -99.5t-43 -99.5t-98 -42q-61 0 -102.5 41t-41.5 100.5z" />
<glyph unicode="&#x152;" horiz-adv-x="1998" d="M88 557q0 375 200.5 607.5t506.5 232.5q150 0 250 -60.5t145 -154.5l33 190h833l-35 -209h-622l-62 -362h500l-35 -197h-497l-66 -397h641l-33 -207h-852l23 135q-143 -160 -375 -160q-260 0 -407.5 159t-147.5 423zM369 555q0 -172 74.5 -271.5t209.5 -99.5 q139 0 238.5 93.5t143.5 233.5t44 308q0 178 -74.5 274.5t-211.5 96.5q-139 0 -237.5 -94.5t-142.5 -233.5t-44 -307z" />
<glyph unicode="&#x153;" horiz-adv-x="1744" d="M66 428q0 274 157.5 449.5t388.5 175.5q238 0 338 -162q135 162 342 162q182 0 288 -100.5t106 -278.5q0 -104 -23 -195h-653v-33q-4 -119 57 -187.5t184 -68.5q135 0 279 125l102 -110q-55 -82 -163.5 -152.5t-254.5 -70.5q-233 0 -352 161q-133 -162 -352 -161 q-207 0 -325.5 118.5t-118.5 327.5zM330 416q0 -119 48 -181.5t134 -62.5q125 0 204 130t79 321q0 242 -183 241q-127 0 -204.5 -129t-77.5 -319zM1036 639h402q4 41 4 57q2 88 -42 133t-120 45q-88 0 -150.5 -63t-93.5 -172z" />
<glyph unicode="&#x178;" horiz-adv-x="1153" d="M117 1368v4h268l238 -614l419 614h273v-4l-592 -842l-90 -526h-264l90 520zM381 1644.5q0 59.5 45 102.5t102 43q63 0 104.5 -42t41.5 -103.5t-42 -104.5t-104 -43q-57 0 -102 44t-45 103.5zM811 1644.5q0 61.5 42 103.5t105 42q57 0 101.5 -43t44.5 -102 q0 -61 -44 -104.5t-102 -43.5q-63 0 -105 43t-42 104.5z" />
<glyph unicode="&#x2c6;" horiz-adv-x="796" d="M195 1260q160 180 309 315h106q61 -78 224 -324l-109 -92q-117 117 -186 199q-125 -106 -250 -199z" />
<glyph unicode="&#x2dc;" horiz-adv-x="796" d="M156 1229q8 117 71.5 198.5t161.5 81.5q76 0 154 -49q76 -51 110 -51q66 0 90 100l134 -12q-8 -119 -70 -199.5t-160 -80.5q-82 0 -158 51q-80 49 -110 49q-66 0 -90 -100z" />
<glyph unicode="&#x2000;" horiz-adv-x="960" />
<glyph unicode="&#x2001;" horiz-adv-x="1921" />
<glyph unicode="&#x2002;" horiz-adv-x="960" />
<glyph unicode="&#x2003;" horiz-adv-x="1921" />
<glyph unicode="&#x2004;" horiz-adv-x="638" />
<glyph unicode="&#x2005;" horiz-adv-x="479" />
<glyph unicode="&#x2006;" horiz-adv-x="319" />
<glyph unicode="&#x2007;" horiz-adv-x="319" />
<glyph unicode="&#x2008;" horiz-adv-x="239" />
<glyph unicode="&#x2009;" horiz-adv-x="382" />
<glyph unicode="&#x200a;" horiz-adv-x="106" />
<glyph unicode="&#x2010;" horiz-adv-x="722" d="M82 442l35 205h542l-34 -205h-543z" />
<glyph unicode="&#x2011;" horiz-adv-x="722" d="M82 442l35 205h542l-34 -205h-543z" />
<glyph unicode="&#x2012;" horiz-adv-x="722" d="M82 442l35 205h542l-34 -205h-543z" />
<glyph unicode="&#x2013;" horiz-adv-x="1097" d="M70 455l32 190h938l-32 -190h-938z" />
<glyph unicode="&#x2014;" horiz-adv-x="1775" d="M70 455l32 190h1620l-32 -190h-1620z" />
<glyph unicode="&#x2018;" horiz-adv-x="409" d="M162 1001q0 84 12 158q29 279 268 447l119 -103q-115 -117 -147 -305l-33 -197h-219z" />
<glyph unicode="&#x2019;" horiz-adv-x="409" d="M100 1057q115 117 148 305l33 197h219q0 -84 -13 -158q-29 -279 -268 -447z" />
<glyph unicode="&#x201a;" horiz-adv-x="409" d="M-129 -221q115 117 147 305l33 197h219q0 -84 -12 -158q-29 -279 -268 -447z" />
<glyph unicode="&#x201c;" horiz-adv-x="784" d="M160 1001q0 84 12 158q29 279 268 447l119 -103q-115 -117 -147 -305l-33 -197h-219zM535 1001q0 84 12 158q29 279 268 447l119 -103q-115 -117 -148 -305l-32 -197h-219z" />
<glyph unicode="&#x201d;" horiz-adv-x="784" d="M100 1057q115 117 148 305l33 197h219q0 -84 -13 -158q-29 -279 -268 -447zM473 1057q115 117 148 305l32 197h219q0 -84 -12 -158q-29 -279 -268 -447z" />
<glyph unicode="&#x201e;" horiz-adv-x="784" d="M-123 -221q115 117 148 305l32 197h219q0 -84 -12 -158q-29 -279 -268 -447zM250 -221q115 117 147 305l33 197h219q0 -84 -12 -158q-29 -279 -268 -447z" />
<glyph unicode="&#x2022;" horiz-adv-x="792" d="M98 549q0 127 87 214t212 87q127 0 214 -87t87 -214q0 -125 -87 -212t-214 -87t-213 86t-86 213z" />
<glyph unicode="&#x2026;" horiz-adv-x="1873" d="M66 154q0 74 51 124t122.5 50t123 -50.5t51.5 -123.5q0 -72 -51.5 -123t-123 -51t-122.5 51t-51 123zM702 154q0 74 51.5 124t123.5 50q74 0 124 -50.5t50 -123.5q0 -72 -50.5 -123t-123.5 -51q-72 0 -123.5 51t-51.5 123zM1341 154q0 74 51.5 124t123 50t123 -50.5 t51.5 -123.5q0 -72 -51.5 -123t-123 -51t-123 51t-51.5 123z" />
<glyph unicode="&#x202f;" horiz-adv-x="382" />
<glyph unicode="&#x2039;" horiz-adv-x="583" d="M63 526v4l281 441h252l-303 -463l151 -430h-225z" />
<glyph unicode="&#x203a;" horiz-adv-x="583" d="M-14 78l303 465l-152 428h225l156 -449v-4l-280 -440h-252z" />
<glyph unicode="&#x205f;" horiz-adv-x="479" />
<glyph unicode="&#x20ac;" horiz-adv-x="1220" d="M59 479l23 139h145q2 86 19 170h-135l24 142h150q76 215 237.5 340t380.5 125q233 0 385 -152l-110 -158q-117 100 -273 101q-250 0 -362 -256h434l-25 -142h-454q-16 -84 -19 -170h445l-23 -139h-414q45 -283 295 -282q152 0 283 108l94 -151q-61 -68 -163.5 -122.5 t-233.5 -54.5q-227 0 -365.5 135.5t-163.5 366.5h-174z" />
<glyph unicode="&#x2122;" horiz-adv-x="1632" d="M166 1325l27 148h567l-25 -148h-196l-97 -573h-168l97 573h-205zM700 752l166 721h217l80 -482l234 482h215l-64 -721h-157l45 495l-242 -495h-139l-84 497l-111 -497h-160z" />
<glyph unicode="&#xe000;" horiz-adv-x="1030" d="M0 1030h1030v-1030h-1030v1030z" />
<glyph unicode="&#xfb01;" horiz-adv-x="1064" d="M80 848l29 160q76 20 159 20l19 105q35 201 149.5 298t325.5 97q96 0 181 -22.5t128 -47.5l-61 -170q-100 37 -219 37q-121 0 -177.5 -49t-74.5 -156l-17 -92h572l-172 -1028h-256l141 852h-313l-146 -852h-256l146 848h-158z" />
<glyph unicode="&#xfb02;" horiz-adv-x="1179" d="M80 848l29 160q76 20 159 20l17 100q68 399 430 400q92 0 133 -21l-31 -184q-35 6 -65 6q-98 0 -147.5 -47t-67.5 -160l-17 -94h223l-28 -180h-226l-141 -848h-252l142 848h-158zM698 0l252 1503h256l-252 -1503h-256z" />
<glyph unicode="&#xfb03;" horiz-adv-x="1667" d="M80 848l24 160q70 16 160 20l17 98q66 399 432 400q115 0 192 -41l-51 -172q-61 14 -104 14q-100 0 -149.5 -46t-68.5 -161l-16 -92h352l19 105q35 201 149.5 298t325.5 97q96 0 182 -22.5t129 -47.5l-63 -170q-100 37 -219 37q-121 0 -176.5 -49t-73.5 -156l-17 -92h572 l-172 -1028h-256l143 854h-315l-146 -854h-256l146 854h-353l-143 -854h-252l141 848h-153z" />
<glyph unicode="&#xfb04;" horiz-adv-x="1781" d="M80 848l24 160q70 16 160 20l17 98q66 399 432 400q115 0 192 -41l-51 -172q-61 14 -104 14q-100 0 -149.5 -46t-68.5 -161l-16 -92h354l19 107q66 393 424 393q94 0 139 -21l-31 -184q-31 6 -69 6q-96 0 -144.5 -47t-66.5 -160l-17 -94h222l-29 -180h-223l-142 -848 h-252l142 854h-355l-143 -854h-252l141 848h-153zM1300 0l252 1503h256l-252 -1503h-256z" />
</font>
</defs>
</svg>
